<svg id="tracciato" xmlns="http://www.w3.org/2000/svg" viewBox="0 0 107.08 80.42"><defs><style>.cls-1{fill:#c4cac7;}.cls-2{fill:#11b89c;}.cls-3{fill:#072029;}.cls-4{fill:#00202a;}.cls-5{fill:#13b89c;}</style></defs><title>icona_co-city</title><path class="cls-1" d="M76.48,33.86c-3.74-3-9.28-4.86-15.36-5.25-.73,0-1.48-.08-2.31-.08-1,0-2.21,0-3.42-.07s-2.46-.12-3.75-.2a24.42,24.42,0,0,1-6-1.44,20.52,20.52,0,0,0-6.12-1.38,6.25,6.25,0,0,0-3,.72L36,26.4a6.78,6.78,0,0,0-1.66,1.34l-.56-.5a7.54,7.54,0,0,1,1.85-1.5l.43-.23a7,7,0,0,1,3.39-.81,21.38,21.38,0,0,1,6.36,1.41,23.86,23.86,0,0,0,5.85,1.4c1.28.07,2.53.14,3.74.2s2.33.09,3.39.06c.86,0,1.63,0,2.37.09,6.56.41,12.53,2.56,16.38,5.91l.57.5-.74.15Z" transform="translate(-6.52 -24.7)"/><path class="cls-2" d="M70.11,68c-.52,0-1,0-1.56-.07s-.92-.1-1.37-.17a27.21,27.21,0,0,1-10.41-4.2,32.67,32.67,0,0,1-2.89-2.11l.47-.58a32.24,32.24,0,0,0,2.82,2.06A26.48,26.48,0,0,0,67.3,67c.44.07.88.13,1.32.16a17,17,0,0,0,5.95-.53,13.75,13.75,0,0,0,6.12-3.8l.21-.24A44,44,0,0,0,84.32,58l.86-1.26A18.36,18.36,0,0,1,90,51a10.26,10.26,0,0,1,1.8-1c.62-.27,1.26-.52,1.9-.76A21.28,21.28,0,0,0,97,47.83a5.82,5.82,0,0,0,2.89-7c-1-2.7-3.76-3.87-6-4.81a28,28,0,0,0-10.76-2.14,46.45,46.45,0,0,0-5.69.56l-.73.22c-1.28.39-3.94,1.2-5.63,1.52l-.15,0a37.94,37.94,0,0,1-6.64.58h-.51c-5.82-.08-11.13-1.69-16-3.43a33,33,0,0,1-3.5-1.54l-.69-.34-1.48-.72c-.51-.24-1-.48-1.54-.69A37.55,37.55,0,0,0,34,27.86c-5.39-1.13-8.87.24-10.79,4.21-.09.18-.17.36-.24.54l-.7-.28c.08-.2.17-.4.26-.59,2.06-4.25,5.9-5.81,11.62-4.61a38.23,38.23,0,0,1,6.67,2.21c.53.22,1.05.46,1.57.71l1.49.73.69.34A32.28,32.28,0,0,0,48,32.62c4.82,1.71,10.06,3.31,15.76,3.38h.5a37.22,37.22,0,0,0,6.51-.57l.14,0c1.65-.31,4.28-1.11,5.55-1.5l.78-.23a45.94,45.94,0,0,1,5.86-.58,28.79,28.79,0,0,1,11.05,2.19c2.37,1,5.33,2.24,6.42,5.24s-.21,6.18-3.21,7.94A21.67,21.67,0,0,1,94,50c-.63.24-1.25.47-1.87.74a9.56,9.56,0,0,0-1.67.94,17.77,17.77,0,0,0-4.64,5.51l-.87,1.27a44.48,44.48,0,0,1-3.48,4.69l-.23.25a14.5,14.5,0,0,1-6.46,4A17.51,17.51,0,0,1,70.11,68Z" transform="translate(-6.52 -24.7)"/><path class="cls-3" d="M40.87,63.89a33.23,33.23,0,0,1-17.43-5.15,20.9,20.9,0,0,1-3-2.36c-3.65-3.93-6.93-11.74-5.88-17.51a7.83,7.83,0,0,1,4.25-6,7,7,0,0,1,3.38-.81h.39a23.11,23.11,0,0,1,6,1.4c1.16.38,2.37.78,3.54,1a13.28,13.28,0,0,0,2.32.35c1.28.07,2.54.15,3.74.2s2.33.08,3.39.06c.86,0,1.63,0,2.37.09,11.79.74,20.69,6.88,20.69,14.28A10.39,10.39,0,0,1,62,56.25a20,20,0,0,1-7.7,5.27A33,33,0,0,1,43.94,63.8c-.76,0-1.55.07-2.34.07Zm-18.64-31a6.25,6.25,0,0,0-3,.72A7.12,7.12,0,0,0,15.34,39c-1,5.55,2.16,13.07,5.68,16.85a20.13,20.13,0,0,0,2.84,2.26,32.44,32.44,0,0,0,17,5h.71c.79,0,1.56,0,2.3-.07A32.21,32.21,0,0,0,54,60.83a19.26,19.26,0,0,0,7.41-5.06,9.52,9.52,0,0,0,2.49-6.24c0-7-8.59-12.81-20-13.53-.73,0-1.48-.08-2.31-.08-1,0-2.21,0-3.42-.07s-2.46-.12-3.75-.2A14.09,14.09,0,0,1,32,35.28c-1.2-.28-2.42-.68-3.6-1.07a22.36,22.36,0,0,0-5.74-1.37Z" transform="translate(-6.52 -24.7)"/><g id="gnammy"><circle class="cls-4" cx="10" cy="49.67" r="3.48"/><path class="cls-4" d="M21.21,94.73H13.14a63.86,63.86,0,0,0-6.63.91,50.75,50.75,0,0,0,1.32-6.21V84.24a5.33,5.33,0,0,1,5.31-5.31h8.06a5.33,5.33,0,0,1,5.31,5.31v5.18A5.33,5.33,0,0,1,21.21,94.73Z" transform="translate(-6.52 -24.7)"/></g><g id="gnammy-2" data-name="gnammy"><circle class="cls-5" cx="45.32" cy="59.16" r="3.48"/><path class="cls-5" d="M56.53,104.21H48.46a63.86,63.86,0,0,0-6.63.91,50.75,50.75,0,0,0,1.32-6.21V93.72a5.33,5.33,0,0,1,5.31-5.31h8.06a5.33,5.33,0,0,1,5.31,5.31V98.9A5.33,5.33,0,0,1,56.53,104.21Z" transform="translate(-6.52 -24.7)"/></g><g id="gnammy-3" data-name="gnammy"><circle class="cls-1" cx="97.08" cy="40.19" r="3.48"/><path class="cls-1" d="M108.29,85.24h-8.06a63.86,63.86,0,0,0-6.63.91,50.75,50.75,0,0,0,1.32-6.21V74.75a5.33,5.33,0,0,1,5.31-5.31h8.06a5.33,5.33,0,0,1,5.31,5.31v5.18A5.33,5.33,0,0,1,108.29,85.24Z" transform="translate(-6.52 -24.7)"/></g><circle class="cls-4" cx="14.61" cy="45.65" r="1.24"/><circle class="cls-4" cx="17.62" cy="42.41" r="1.24"/><circle class="cls-4" cx="20" cy="38.81" r="1.24"/><circle class="cls-5" cx="48.46" cy="50.31" r="1.24"/><circle class="cls-5" cx="51.47" cy="47.07" r="1.24"/><circle class="cls-5" cx="53.85" cy="43.47" r="1.24"/><circle class="cls-1" cx="92.28" cy="55.68" r="1.24" transform="translate(-8.55 -21.17) rotate(-2.17)"/><circle class="cls-1" cx="95.64" cy="58.56" r="1.24" transform="translate(-8.66 -21.04) rotate(-2.17)"/><circle class="cls-1" cx="100.04" cy="60.54" r="1.24" transform="translate(-8.73 -20.88) rotate(-2.17)"/></svg>