<svg id="Livello_1" data-name="Livello 1" xmlns="http://www.w3.org/2000/svg" xmlns:xlink="http://www.w3.org/1999/xlink" viewBox="0 0 235.79 235.79"><defs><style>.cls-1{fill:none;}.cls-2{clip-path:url(#clip-path);}.cls-3{fill:#001f2a;}.cls-4{fill:#fff;}.cls-5{fill:#16b89c;}</style><clipPath id="clip-path" transform="translate(-32.11 -33.49)"><rect class="cls-1" x="32.11" y="9.8" width="235.78" height="296.02"/></clipPath></defs><title>Logo-Co-City</title><g class="cls-2"><path class="cls-3" d="M267.9,151.39A117.89,117.89,0,1,1,150,33.49,117.89,117.89,0,0,1,267.9,151.39" transform="translate(-32.11 -33.49)"/><path class="cls-4" d="M94,197.08c-1.92-4.49-1.43-5.48,3.11-5.56,5.84-.11,11.66,0,17.92,0,.35-5.84-.32-12.45,8.57-11.53-3.11-5.06-3.2-7.82-.49-10a5.7,5.7,0,0,1,7.71.51c2.3,2.39,2,4.92-1,8.89,2.16.78,4.81,1,6.34,2.5s1.67,4,2.37,5.86l6.77-2.6a41,41,0,0,1-1.1-6.64c0-1,1.07-2.21,2-3a5.76,5.76,0,0,1,6.91.22c2.46,2.06,2.46,4.79,0,9.08l7.34,3c.67-1.9.86-4.47,2.24-5.86s4-1.74,6.11-2.53c-.59-1.2-1.9-2.78-2-4.44a7.14,7.14,0,0,1,1.76-4.7c2-2.28,5.42-2.08,7.62,0,2.49,2.38,2.33,4.72-.65,9.44,7.4,1,7.5,1.1,8.52,11.69,3.77,0,7.61.1,11.45.13,2.13,0,4.26-.05,6.39,0,4.53.15,5,1.05,3.12,5.56Z" transform="translate(-32.11 -33.49)"/><path class="cls-4" d="M92.52,112.59a42.1,42.1,0,0,0,4.58-1.35q24.39-10.08,48.71-20.3a8.21,8.21,0,0,1,7.09-.15c16.58,7.09,33.27,13.95,49.91,20.89,3.75,1.56,3.75,1.57,3.25,6.12l-19.67-6.53c-11.22-3.72-22.46-7.38-33.63-11.25a9.9,9.9,0,0,0-6.84.06c-17.78,6-35.59,11.92-53.39,17.86Z" transform="translate(-32.11 -33.49)"/><path class="cls-4" d="M123.73,129.4c1-8.07,1.08-8.12,6.15-8.71a21,21,0,0,1-1.44-4.56c-.09-.85.74-2,1.44-2.68a4,4,0,0,1,5.39,0c2.06,1.74,2,3.73-.39,7.21,5.17.6,5.61,1,6.27,6l5.25-2a30.87,30.87,0,0,1-.83-4.92c0-.74.8-1.65,1.46-2.2a4.27,4.27,0,0,1,5.14.17c1.8,1.53,1.8,3.6,0,6.75l5.59,2.24c.71-5,1.17-5.42,6-6a21.25,21.25,0,0,1-1.49-4.52,4.11,4.11,0,0,1,1.39-2.68,4,4,0,0,1,5.39-.06c2,1.66,1.91,3.74-.45,7.26,2.09.24,4.56,0,5.41,2.18.74,1.89.81,4,1.26,6.54,3.78,0,7.71,0,11.63,0a11.13,11.13,0,0,1,3.14.18l1.4,1.56a3.16,3.16,0,0,1-1.24,2.14,4.4,4.4,0,0,1-2.3.25q-38.43,0-76.87,0c-2.66,0-3.57-.56-3.67-2s.84-2.11,3.86-2.13c4.08,0,8.16,0,12.5,0" transform="translate(-32.11 -33.49)"/><path class="cls-5" d="M140.67,158.17l5.58-2.11a32.22,32.22,0,0,1-.89-5.18,3.84,3.84,0,0,1,1.53-2.33,4.49,4.49,0,0,1,5.43.14c1.94,1.63,1.94,3.78,0,7.15l5.72,2.28c.55-1.5.74-3.52,1.84-4.6s3.18-1.35,4.61-1.9a20.15,20.15,0,0,1-1.44-4.48,4.35,4.35,0,0,1,1.45-2.84,4.22,4.22,0,0,1,5.71-.11c2.1,1.73,2,4-.48,7.7,2.2.29,4.81,0,5.72,2.29.79,2,.86,4.27,1.34,6.92h10.16c1.53,0,3.07,0,4.6,0s2.51.6,2.44,2.2-1.13,2.13-2.56,2.15H109.78c-.84,0-1.68,0-2.51,0-1.48-.1-2.35-.85-2.27-2.4s1.06-1.89,2.27-1.91c2.8-.05,5.59,0,8.38,0h6.53c1.41-8.59,1.41-8.59,6.53-9.2a25.66,25.66,0,0,1-1.35-5.19c-.05-.88.92-2,1.72-2.69a4.25,4.25,0,0,1,5.7.47c1.88,1.86,1.69,3.85-.74,7.34,5.5.67,6,1.16,6.65,6.34" transform="translate(-32.11 -33.49)"/></g></svg>