<svg xmlns="http://www.w3.org/2000/svg" viewBox="0 0 537.54 93.58"><defs><style>.cls-1{fill:#fff;}.cls-2{fill:#034ea2;}.cls-3{fill:#fff200;}</style></defs><title>logo-unione-europea-orizzontale_testobianco</title><g id="Layer_1" data-name="Layer 1"><polygon class="cls-1" points="0 0 137.77 0 137.77 93.58 0 93.58 0 0 0 0"/><path class="cls-1" d="M98.31,99.36" transform="translate(-29.42 -51.7)"/><polygon class="cls-2" points="2.65 2.56 135.12 2.56 135.12 90.88 2.65 90.88 2.65 2.56 2.65 2.56"/><path class="cls-2" d="M98.31,98.43" transform="translate(-29.42 -51.7)"/><polygon class="cls-3" points="66.06 21.81 68.86 19.77 71.65 21.81 70.59 18.51 73.43 16.47 69.93 16.47 68.86 13.13 67.79 16.47 64.29 16.47 67.13 18.51 66.06 21.81 66.06 21.81"/><polygon class="cls-3" points="51.6 25.7 54.39 23.66 57.19 25.7 56.13 22.4 58.96 20.36 55.46 20.36 54.39 17.01 53.32 20.36 49.82 20.36 52.66 22.4 51.6 25.7 51.6 25.7"/><polygon class="cls-3" points="43.81 27.62 42.74 30.97 39.24 30.96 42.08 33 41.01 36.3 43.81 34.26 46.6 36.3 45.54 33 48.38 30.96 44.88 30.96 43.81 27.62 43.81 27.62"/><polygon class="cls-3" points="39.92 48.71 42.72 50.75 41.66 47.45 44.49 45.41 41 45.41 39.92 42.07 38.85 45.42 35.35 45.41 38.19 47.45 37.13 50.75 39.92 48.71 39.92 48.71"/><polygon class="cls-3" points="44.88 59.9 43.81 56.56 42.74 59.91 39.24 59.9 42.08 61.94 41.01 65.24 43.81 63.2 46.6 65.24 45.54 61.94 48.38 59.9 44.88 59.9 44.88 59.9"/><polygon class="cls-3" points="55.48 70.51 54.41 67.17 53.34 70.51 49.84 70.51 52.68 72.55 51.62 75.85 54.41 73.81 57.21 75.85 56.15 72.55 58.98 70.51 55.48 70.51 55.48 70.51"/><polygon class="cls-3" points="69.93 74.35 68.86 71.01 67.79 74.36 64.29 74.35 67.13 76.39 66.07 79.69 68.86 77.65 71.66 79.69 70.59 76.39 73.43 74.35 69.93 74.35 69.93 74.35"/><polygon class="cls-3" points="84.38 70.51 83.31 67.17 82.24 70.51 78.74 70.51 81.58 72.55 80.52 75.85 83.31 73.81 86.11 75.85 85.04 72.55 87.88 70.51 84.38 70.51 84.38 70.51"/><polygon class="cls-3" points="94.99 59.9 93.92 56.56 92.84 59.91 89.35 59.9 92.19 61.94 91.12 65.24 93.92 63.2 96.71 65.24 95.65 61.94 98.48 59.9 94.99 59.9 94.99 59.9"/><polygon class="cls-3" points="102.33 45.37 98.83 45.37 97.75 42.03 96.69 45.38 93.19 45.37 96.03 47.41 94.96 50.71 97.75 48.67 100.55 50.71 99.49 47.41 102.33 45.37 102.33 45.37"/><polygon class="cls-3" points="91.12 36.26 93.92 34.22 96.71 36.26 95.65 32.96 98.48 30.92 94.99 30.92 93.92 27.58 92.84 30.93 89.35 30.92 92.19 32.96 91.12 36.26 91.12 36.26"/><polygon class="cls-3" points="83.35 17.02 82.28 20.36 78.78 20.36 81.62 22.4 80.56 25.7 83.36 23.66 86.15 25.7 85.08 22.4 87.92 20.36 84.42 20.36 83.35 17.02 83.35 17.02"/></g><g id="Layer_2" data-name="Layer 2"><path class="cls-1" d="M189.06,87.77V62.46h18.77v4.28H194.17v5.61h12.71v4.26H194.17V83.5h14.14v4.26Z" transform="translate(-29.42 -51.7)"/><path class="cls-1" d="M212.26,62.46h5.11V76.16a28.44,28.44,0,0,0,.19,4.23,4.1,4.1,0,0,0,1.56,2.49,5.44,5.44,0,0,0,3.38.94,5.15,5.15,0,0,0,3.28-.89,3.51,3.51,0,0,0,1.33-2.18,28.47,28.47,0,0,0,.22-4.3v-14h5.11V75.75a34.16,34.16,0,0,1-.41,6.44,7.13,7.13,0,0,1-1.53,3.18,7.72,7.72,0,0,1-3,2.06,13,13,0,0,1-4.87.77,14,14,0,0,1-5.5-.84,7.86,7.86,0,0,1-3-2.18,7,7,0,0,1-1.43-2.81,30.74,30.74,0,0,1-.5-6.42Z" transform="translate(-29.42 -51.7)"/><path class="cls-1" d="M237.84,87.77V62.46H248.6a18.41,18.41,0,0,1,5.9.68,5.82,5.82,0,0,1,2.94,2.43,7.29,7.29,0,0,1,1.1,4,6.76,6.76,0,0,1-1.67,4.7,8,8,0,0,1-5,2.34,11.92,11.92,0,0,1,2.74,2.12,28.85,28.85,0,0,1,2.91,4.11l3.09,4.94h-6.11l-3.69-5.51a35.72,35.72,0,0,0-2.69-3.72,3.92,3.92,0,0,0-1.54-1.05A8.42,8.42,0,0,0,244,77.2h-1V87.77ZM243,73.16h3.78a19.52,19.52,0,0,0,4.59-.31,2.75,2.75,0,0,0,1.43-1.07,3.3,3.3,0,0,0,.52-1.9,3,3,0,0,0-.68-2.06,3.13,3.13,0,0,0-1.93-1q-.62-.09-3.73-.09h-4Z" transform="translate(-29.42 -51.7)"/><path class="cls-1" d="M262.08,75.27a16.1,16.1,0,0,1,1.16-6.49,11.91,11.91,0,0,1,2.36-3.47A9.85,9.85,0,0,1,268.86,63a13.9,13.9,0,0,1,5.46-1,11.88,11.88,0,0,1,9,3.47q3.36,3.47,3.36,9.65t-3.33,9.59a11.79,11.79,0,0,1-8.91,3.46,11.91,11.91,0,0,1-9-3.44Q262.08,81.31,262.08,75.27Zm5.27-.17q0,4.3,2,6.52a6.83,6.83,0,0,0,10.06,0q2-2.2,2-6.6t-1.91-6.49a7.07,7.07,0,0,0-10.16,0Q267.34,70.73,267.34,75.09Z" transform="translate(-29.42 -51.7)"/><path class="cls-1" d="M290.62,87.77V62.46h8.2a29.74,29.74,0,0,1,6.08.38,6.64,6.64,0,0,1,3.64,2.48A7.86,7.86,0,0,1,310,70.24a8.26,8.26,0,0,1-.85,3.92A6.94,6.94,0,0,1,307,76.66a7.41,7.41,0,0,1-2.65,1.2,29.17,29.17,0,0,1-5.3.36h-3.33v9.55Zm5.11-21v7.18h2.8a13.21,13.21,0,0,0,4-.4,3.36,3.36,0,0,0,1.6-1.24,3.4,3.4,0,0,0,.58-2,3.27,3.27,0,0,0-.81-2.28,3.53,3.53,0,0,0-2.05-1.12,24.56,24.56,0,0,0-3.68-.17Z" transform="translate(-29.42 -51.7)"/><path class="cls-1" d="M314.31,87.77V62.46h18.77v4.28H319.42v5.61h12.71v4.26H319.42V83.5h14.14v4.26Z" transform="translate(-29.42 -51.7)"/><path class="cls-1" d="M360.71,87.77h-5.56L352.94,82H342.83l-2.09,5.75h-5.42l9.86-25.31h5.4Zm-9.41-10-3.49-9.39-3.42,9.39Z" transform="translate(-29.42 -51.7)"/><path class="cls-1" d="M363.48,87.77V62.46h5l10.36,16.9V62.46h4.75V87.77h-5.13l-10.2-16.51V87.77Z" transform="translate(-29.42 -51.7)"/><path class="cls-1" d="M398.75,62.46h5.11V76.16a28.44,28.44,0,0,0,.19,4.23,4.1,4.1,0,0,0,1.56,2.49,5.44,5.44,0,0,0,3.38.94,5.15,5.15,0,0,0,3.28-.89,3.51,3.51,0,0,0,1.33-2.18,28.47,28.47,0,0,0,.22-4.3v-14h5.11V75.75a34.16,34.16,0,0,1-.41,6.44A7.13,7.13,0,0,1,417,85.37a7.72,7.72,0,0,1-3,2.06,13,13,0,0,1-4.87.77,14,14,0,0,1-5.5-.84,7.86,7.86,0,0,1-3-2.18,7,7,0,0,1-1.43-2.81,30.74,30.74,0,0,1-.5-6.42Z" transform="translate(-29.42 -51.7)"/><path class="cls-1" d="M424.37,87.77V62.46h5l10.36,16.9V62.46h4.75V87.77h-5.13l-10.2-16.51V87.77Z" transform="translate(-29.42 -51.7)"/><path class="cls-1" d="M449.69,87.77V62.46h5.11V87.77Z" transform="translate(-29.42 -51.7)"/><path class="cls-1" d="M458.64,75.27a16.1,16.1,0,0,1,1.16-6.49,11.91,11.91,0,0,1,2.36-3.47A9.85,9.85,0,0,1,465.42,63a13.9,13.9,0,0,1,5.46-1,11.88,11.88,0,0,1,9,3.47q3.36,3.47,3.36,9.65t-3.33,9.59a11.79,11.79,0,0,1-8.91,3.46,11.91,11.91,0,0,1-9-3.44Q458.64,81.31,458.64,75.27Zm5.27-.17q0,4.3,2,6.52a6.83,6.83,0,0,0,10.06,0q2-2.2,2-6.6T476,68.53a7.07,7.07,0,0,0-10.16,0Q463.9,70.73,463.9,75.09Z" transform="translate(-29.42 -51.7)"/><path class="cls-1" d="M487.23,87.77V62.46h5l10.36,16.9V62.46h4.75V87.77h-5.13L492,71.26V87.77Z" transform="translate(-29.42 -51.7)"/><path class="cls-1" d="M188.24,118V102.17h11.44V104h-9.34v4.84h8.75v1.86h-8.75v5.38H200V118Z" transform="translate(-29.42 -51.7)"/><path class="cls-1" d="M210.2,118V116.3a4.19,4.19,0,0,1-3.64,1.94,4.63,4.63,0,0,1-1.89-.39,3.11,3.11,0,0,1-1.31-1,3.65,3.65,0,0,1-.6-1.44,9.86,9.86,0,0,1-.12-1.81v-7.1h1.94v6.36a11.33,11.33,0,0,0,.12,2.05,2,2,0,0,0,.78,1.2,2.41,2.41,0,0,0,1.47.44,3.19,3.19,0,0,0,1.64-.45,2.49,2.49,0,0,0,1.08-1.22,6.14,6.14,0,0,0,.32-2.24v-6.14h1.94V118Z" transform="translate(-29.42 -51.7)"/><path class="cls-1" d="M215,118V106.53h1.75v1.74a4.75,4.75,0,0,1,1.24-1.61,2.16,2.16,0,0,1,1.25-.39,3.79,3.79,0,0,1,2,.63l-.67,1.8a2.78,2.78,0,0,0-1.42-.42,1.85,1.85,0,0,0-1.14.38,2.08,2.08,0,0,0-.72,1.06,7.57,7.57,0,0,0-.32,2.27v6Z" transform="translate(-29.42 -51.7)"/><path class="cls-1" d="M221.61,112.26a5.91,5.91,0,0,1,1.77-4.72,5.33,5.33,0,0,1,3.6-1.27,5.14,5.14,0,0,1,3.86,1.55,5.89,5.89,0,0,1,1.5,4.28,7.57,7.57,0,0,1-.66,3.48,4.7,4.7,0,0,1-1.93,2,5.63,5.63,0,0,1-2.77.7,5.15,5.15,0,0,1-3.89-1.54A6.16,6.16,0,0,1,221.61,112.26Zm2,0a4.88,4.88,0,0,0,1,3.3,3.2,3.2,0,0,0,4.82,0,5,5,0,0,0,1-3.36,4.74,4.74,0,0,0-1-3.22,3.2,3.2,0,0,0-4.82,0A4.86,4.86,0,0,0,223.61,112.26Z" transform="translate(-29.42 -51.7)"/><path class="cls-1" d="M234.63,122.38V106.53h1.77V108a4.35,4.35,0,0,1,1.41-1.31,3.88,3.88,0,0,1,1.91-.44,4.53,4.53,0,0,1,2.59.76,4.64,4.64,0,0,1,1.69,2.13,7.79,7.79,0,0,1,.57,3,7.68,7.68,0,0,1-.63,3.17,4.77,4.77,0,0,1-1.83,2.16,4.72,4.72,0,0,1-2.53.75,3.65,3.65,0,0,1-1.74-.41,4,4,0,0,1-1.27-1v5.58Zm1.76-10.06a5,5,0,0,0,.9,3.27,2.75,2.75,0,0,0,2.17,1.06,2.81,2.81,0,0,0,2.22-1.09,5.19,5.19,0,0,0,.92-3.39,5.06,5.06,0,0,0-.9-3.28,2.71,2.71,0,0,0-2.15-1.09,2.8,2.8,0,0,0-2.2,1.16A5.18,5.18,0,0,0,236.38,112.32Z" transform="translate(-29.42 -51.7)"/><path class="cls-1" d="M254.76,114.3l2,.25a4.9,4.9,0,0,1-1.76,2.73,6,6,0,0,1-7.27-.58,6.05,6.05,0,0,1-1.47-4.34,6.33,6.33,0,0,1,1.49-4.49,5,5,0,0,1,3.86-1.6,4.9,4.9,0,0,1,3.76,1.56,6.22,6.22,0,0,1,1.46,4.4q0,.17,0,.52h-8.55a4.4,4.4,0,0,0,1.07,2.89,3.18,3.18,0,0,0,2.4,1,3,3,0,0,0,1.82-.56A3.72,3.72,0,0,0,254.76,114.3Zm-6.38-3.14h6.4A3.88,3.88,0,0,0,254,109a3,3,0,0,0-2.41-1.12,3.08,3.08,0,0,0-2.25.9A3.54,3.54,0,0,0,248.38,111.16Z" transform="translate(-29.42 -51.7)"/><path class="cls-1" d="M266.68,116.57a7.23,7.23,0,0,1-2.08,1.29,6,6,0,0,1-2.14.38,4.17,4.17,0,0,1-2.9-.92,3,3,0,0,1-1-2.36,3.14,3.14,0,0,1,.38-1.54,3.17,3.17,0,0,1,1-1.12,4.71,4.71,0,0,1,1.4-.64,13.88,13.88,0,0,1,1.73-.29,17.75,17.75,0,0,0,3.46-.67q0-.4,0-.51a2.14,2.14,0,0,0-.55-1.67,3.25,3.25,0,0,0-2.21-.66,3.43,3.43,0,0,0-2,.48,2.93,2.93,0,0,0-1,1.7l-1.9-.26a4.7,4.7,0,0,1,.85-2,3.74,3.74,0,0,1,1.72-1.16,7.67,7.67,0,0,1,2.6-.4,6.88,6.88,0,0,1,2.38.35,3.14,3.14,0,0,1,1.35.87,3.05,3.05,0,0,1,.6,1.32,10.94,10.94,0,0,1,.1,1.79v2.59a27.32,27.32,0,0,0,.12,3.43,4.3,4.3,0,0,0,.49,1.38h-2A4.12,4.12,0,0,1,266.68,116.57Zm-.16-4.34a14.25,14.25,0,0,1-3.17.73,7.34,7.34,0,0,0-1.69.39,1.69,1.69,0,0,0-.77.63,1.72,1.72,0,0,0,.32,2.22,2.53,2.53,0,0,0,1.72.52,4,4,0,0,0,2-.49,3,3,0,0,0,1.28-1.34,4.69,4.69,0,0,0,.31-1.94Z" transform="translate(-29.42 -51.7)"/><path class="cls-1" d="M271.5,118V106.53h1.75v1.63a4.12,4.12,0,0,1,3.65-1.89,4.77,4.77,0,0,1,1.9.37,3,3,0,0,1,1.3,1,3.75,3.75,0,0,1,.6,1.44,11.12,11.12,0,0,1,.11,1.89v7h-1.94v-7a5.24,5.24,0,0,0-.23-1.78,1.87,1.87,0,0,0-.8-.94,2.56,2.56,0,0,0-1.35-.35,3.14,3.14,0,0,0-2.14.79,3.88,3.88,0,0,0-.9,3V118Z" transform="translate(-29.42 -51.7)"/><path class="cls-1" d="M290.21,118V102.17h7a9.35,9.35,0,0,1,3.22.43,3.52,3.52,0,0,1,1.76,1.51,4.49,4.49,0,0,1,.66,2.38,4,4,0,0,1-1.09,2.84,5.52,5.52,0,0,1-3.37,1.47,5.43,5.43,0,0,1,1.26.79,10.88,10.88,0,0,1,1.74,2.1l2.75,4.31h-2.63l-2.09-3.29q-.92-1.42-1.51-2.18a4.76,4.76,0,0,0-1.06-1.06,3.15,3.15,0,0,0-1-.42,6.29,6.29,0,0,0-1.17-.08H292.3v7Zm2.09-8.84h4.5a6.73,6.73,0,0,0,2.24-.3,2.38,2.38,0,0,0,1.23-.95,2.57,2.57,0,0,0,.42-1.42,2.36,2.36,0,0,0-.82-1.85,3.81,3.81,0,0,0-2.57-.72h-5Z" transform="translate(-29.42 -51.7)"/><path class="cls-1" d="M313.73,114.3l2,.25a4.9,4.9,0,0,1-1.76,2.73,6,6,0,0,1-7.27-.58,6.05,6.05,0,0,1-1.47-4.34,6.33,6.33,0,0,1,1.49-4.49,5,5,0,0,1,3.86-1.6,4.9,4.9,0,0,1,3.76,1.56,6.22,6.22,0,0,1,1.46,4.4q0,.17,0,.52h-8.55a4.4,4.4,0,0,0,1.07,2.89,3.18,3.18,0,0,0,2.4,1,3,3,0,0,0,1.82-.56A3.72,3.72,0,0,0,313.73,114.3Zm-6.38-3.14h6.4A3.88,3.88,0,0,0,313,109a3,3,0,0,0-2.41-1.12,3.08,3.08,0,0,0-2.25.9A3.54,3.54,0,0,0,307.35,111.16Z" transform="translate(-29.42 -51.7)"/><path class="cls-1" d="M317.82,118.94l1.89.28a1.8,1.8,0,0,0,.66,1.27,3.23,3.23,0,0,0,2,.54,3.47,3.47,0,0,0,2.08-.54,2.66,2.66,0,0,0,1-1.51,12.41,12.41,0,0,0,.14-2.49,4,4,0,0,1-3.17,1.5,4.32,4.32,0,0,1-3.66-1.7,6.57,6.57,0,0,1-1.29-4.09,7.61,7.61,0,0,1,.59-3,4.75,4.75,0,0,1,1.72-2.14,4.64,4.64,0,0,1,2.65-.76,4.11,4.11,0,0,1,3.35,1.64v-1.38h1.79v9.91a9.39,9.39,0,0,1-.55,3.79,4,4,0,0,1-1.73,1.76,6,6,0,0,1-2.91.65,5.48,5.48,0,0,1-3.31-.92A3.12,3.12,0,0,1,317.82,118.94Zm1.61-6.88a5,5,0,0,0,.9,3.29,3,3,0,0,0,4.49,0,4.81,4.81,0,0,0,.91-3.23,4.7,4.7,0,0,0-.93-3.17,2.89,2.89,0,0,0-2.25-1.07,2.8,2.8,0,0,0-2.2,1.05A4.67,4.67,0,0,0,319.43,112.05Z" transform="translate(-29.42 -51.7)"/><path class="cls-1" d="M330.48,104.4v-2.23h1.94v2.23Zm0,13.59V106.53h1.94V118Z" transform="translate(-29.42 -51.7)"/><path class="cls-1" d="M334.65,112.26a5.91,5.91,0,0,1,1.77-4.72,5.33,5.33,0,0,1,3.6-1.27,5.14,5.14,0,0,1,3.86,1.55,5.89,5.89,0,0,1,1.5,4.28,7.57,7.57,0,0,1-.66,3.48,4.7,4.7,0,0,1-1.93,2,5.63,5.63,0,0,1-2.77.7,5.15,5.15,0,0,1-3.89-1.54A6.16,6.16,0,0,1,334.65,112.26Zm2,0a4.88,4.88,0,0,0,1,3.3,3.2,3.2,0,0,0,4.82,0,5,5,0,0,0,1-3.36,4.74,4.74,0,0,0-1-3.22,3.2,3.2,0,0,0-4.82,0A4.86,4.86,0,0,0,336.65,112.26Z" transform="translate(-29.42 -51.7)"/><path class="cls-1" d="M347.67,118V106.53h1.75v1.63a4.12,4.12,0,0,1,3.65-1.89,4.77,4.77,0,0,1,1.9.37,3,3,0,0,1,1.3,1,3.75,3.75,0,0,1,.6,1.44,11.12,11.12,0,0,1,.11,1.89v7H355v-7a5.24,5.24,0,0,0-.23-1.78,1.87,1.87,0,0,0-.8-.94,2.56,2.56,0,0,0-1.35-.35,3.14,3.14,0,0,0-2.14.79,3.88,3.88,0,0,0-.9,3V118Z" transform="translate(-29.42 -51.7)"/><path class="cls-1" d="M367.43,116.57a7.23,7.23,0,0,1-2.08,1.29,6,6,0,0,1-2.14.38,4.17,4.17,0,0,1-2.9-.92,3,3,0,0,1-1-2.36,3.14,3.14,0,0,1,.38-1.54,3.17,3.17,0,0,1,1-1.12,4.71,4.71,0,0,1,1.4-.64,13.88,13.88,0,0,1,1.73-.29,17.75,17.75,0,0,0,3.46-.67q0-.4,0-.51a2.14,2.14,0,0,0-.55-1.67,3.25,3.25,0,0,0-2.21-.66,3.43,3.43,0,0,0-2,.48,2.93,2.93,0,0,0-1,1.7l-1.9-.26a4.7,4.7,0,0,1,.85-2,3.74,3.74,0,0,1,1.72-1.16,7.67,7.67,0,0,1,2.6-.4,6.88,6.88,0,0,1,2.38.35,3.14,3.14,0,0,1,1.35.87,3.05,3.05,0,0,1,.6,1.32,10.94,10.94,0,0,1,.1,1.79v2.59a27.32,27.32,0,0,0,.12,3.43,4.3,4.3,0,0,0,.49,1.38h-2A4.12,4.12,0,0,1,367.43,116.57Zm-.16-4.34a14.25,14.25,0,0,1-3.17.73,7.34,7.34,0,0,0-1.69.39,1.69,1.69,0,0,0-.77.63,1.72,1.72,0,0,0,.32,2.22,2.53,2.53,0,0,0,1.72.52,4,4,0,0,0,2-.49,3,3,0,0,0,1.28-1.34,4.69,4.69,0,0,0,.31-1.94Z" transform="translate(-29.42 -51.7)"/><path class="cls-1" d="M372.2,118V102.17h1.94V118Z" transform="translate(-29.42 -51.7)"/><path class="cls-1" d="M383.54,118V102.17H389a13.22,13.22,0,0,1,2.82.23,5.36,5.36,0,0,1,2.32,1.13,6.44,6.44,0,0,1,1.87,2.7,10.62,10.62,0,0,1,.62,3.76,11,11,0,0,1-.42,3.19,7.75,7.75,0,0,1-1.08,2.3,5.72,5.72,0,0,1-1.44,1.43,5.86,5.86,0,0,1-1.89.79,10.78,10.78,0,0,1-2.54.27Zm2.09-1.87H389a8.2,8.2,0,0,0,2.46-.29,3.52,3.52,0,0,0,1.42-.82,5,5,0,0,0,1.16-2,9.79,9.79,0,0,0,.42-3,7.37,7.37,0,0,0-.81-3.81,4.1,4.1,0,0,0-2-1.79A8.18,8.18,0,0,0,389,104h-3.32Z" transform="translate(-29.42 -51.7)"/><path class="cls-1" d="M407.1,114.3l2,.25a4.9,4.9,0,0,1-1.76,2.73,6,6,0,0,1-7.27-.58,6.05,6.05,0,0,1-1.47-4.34,6.33,6.33,0,0,1,1.49-4.49,5,5,0,0,1,3.86-1.6,4.9,4.9,0,0,1,3.76,1.56,6.22,6.22,0,0,1,1.46,4.4q0,.17,0,.52h-8.55a4.4,4.4,0,0,0,1.07,2.89,3.18,3.18,0,0,0,2.4,1,3,3,0,0,0,1.82-.56A3.72,3.72,0,0,0,407.1,114.3Zm-6.38-3.14h6.4a3.88,3.88,0,0,0-.73-2.17,3,3,0,0,0-2.41-1.12,3.08,3.08,0,0,0-2.25.9A3.54,3.54,0,0,0,400.72,111.16Z" transform="translate(-29.42 -51.7)"/><path class="cls-1" d="M414.73,118l-4.36-11.46h2.05l2.46,6.86q.4,1.11.73,2.31.26-.91.72-2.18l2.55-7h2L416.54,118Z" transform="translate(-29.42 -51.7)"/><path class="cls-1" d="M430.44,114.3l2,.25a4.9,4.9,0,0,1-1.76,2.73,6,6,0,0,1-7.27-.58,6.05,6.05,0,0,1-1.47-4.34,6.33,6.33,0,0,1,1.49-4.49,5,5,0,0,1,3.86-1.6,4.9,4.9,0,0,1,3.76,1.56,6.22,6.22,0,0,1,1.46,4.4q0,.17,0,.52H424a4.4,4.4,0,0,0,1.07,2.89,3.18,3.18,0,0,0,2.4,1,3,3,0,0,0,1.82-.56A3.72,3.72,0,0,0,430.44,114.3Zm-6.38-3.14h6.4a3.88,3.88,0,0,0-.73-2.17,3,3,0,0,0-2.41-1.12,3.08,3.08,0,0,0-2.25.9A3.54,3.54,0,0,0,424.06,111.16Z" transform="translate(-29.42 -51.7)"/><path class="cls-1" d="M434.84,118V102.17h1.94V118Z" transform="translate(-29.42 -51.7)"/><path class="cls-1" d="M439.07,112.26a5.91,5.91,0,0,1,1.77-4.72,5.33,5.33,0,0,1,3.6-1.27,5.14,5.14,0,0,1,3.86,1.55,5.89,5.89,0,0,1,1.5,4.28,7.57,7.57,0,0,1-.66,3.48,4.7,4.7,0,0,1-1.93,2,5.63,5.63,0,0,1-2.77.7,5.15,5.15,0,0,1-3.89-1.54A6.16,6.16,0,0,1,439.07,112.26Zm2,0a4.88,4.88,0,0,0,1,3.3,3.2,3.2,0,0,0,4.82,0,5,5,0,0,0,1-3.36,4.74,4.74,0,0,0-1-3.22,3.2,3.2,0,0,0-4.82,0A4.86,4.86,0,0,0,441.07,112.26Z" transform="translate(-29.42 -51.7)"/><path class="cls-1" d="M452.08,122.38V106.53h1.77V108a4.35,4.35,0,0,1,1.41-1.31,3.88,3.88,0,0,1,1.91-.44,4.53,4.53,0,0,1,2.59.76,4.64,4.64,0,0,1,1.69,2.13,7.79,7.79,0,0,1,.57,3,7.68,7.68,0,0,1-.63,3.17,4.77,4.77,0,0,1-1.83,2.16,4.72,4.72,0,0,1-2.53.75,3.65,3.65,0,0,1-1.74-.41,4,4,0,0,1-1.27-1v5.58Zm1.76-10.06a5,5,0,0,0,.9,3.27,2.75,2.75,0,0,0,2.17,1.06,2.81,2.81,0,0,0,2.22-1.09,5.19,5.19,0,0,0,.92-3.39,5.06,5.06,0,0,0-.9-3.28,2.71,2.71,0,0,0-2.15-1.09,2.8,2.8,0,0,0-2.2,1.16A5.18,5.18,0,0,0,453.84,112.32Z" transform="translate(-29.42 -51.7)"/><path class="cls-1" d="M464.37,118V106.53h1.74v1.61a4.09,4.09,0,0,1,1.44-1.35,4,4,0,0,1,2-.51,3.77,3.77,0,0,1,2.09.53,2.83,2.83,0,0,1,1.15,1.48,4.11,4.11,0,0,1,3.54-2,3.49,3.49,0,0,1,2.62.94,4,4,0,0,1,.92,2.91V118H478v-7.22a5.32,5.32,0,0,0-.19-1.68,1.63,1.63,0,0,0-.68-.83,2.14,2.14,0,0,0-1.17-.31,2.71,2.71,0,0,0-2,.8,3.54,3.54,0,0,0-.8,2.57V118h-1.94v-7.45a3.28,3.28,0,0,0-.47-1.94,1.8,1.8,0,0,0-1.55-.65,2.83,2.83,0,0,0-1.52.43,2.45,2.45,0,0,0-1,1.26,7.11,7.11,0,0,0-.31,2.4V118Z" transform="translate(-29.42 -51.7)"/><path class="cls-1" d="M490.63,114.3l2,.25a4.9,4.9,0,0,1-1.76,2.73,6,6,0,0,1-7.27-.58,6.05,6.05,0,0,1-1.47-4.34,6.33,6.33,0,0,1,1.49-4.49,5,5,0,0,1,3.86-1.6,4.9,4.9,0,0,1,3.76,1.56,6.22,6.22,0,0,1,1.46,4.4q0,.17,0,.52h-8.55a4.4,4.4,0,0,0,1.07,2.89,3.18,3.18,0,0,0,2.4,1,3,3,0,0,0,1.82-.56A3.72,3.72,0,0,0,490.63,114.3Zm-6.38-3.14h6.4a3.88,3.88,0,0,0-.73-2.17,3,3,0,0,0-2.41-1.12,3.08,3.08,0,0,0-2.25.9A3.54,3.54,0,0,0,484.25,111.16Z" transform="translate(-29.42 -51.7)"/><path class="cls-1" d="M495.07,118V106.53h1.75v1.63a4.12,4.12,0,0,1,3.65-1.89,4.77,4.77,0,0,1,1.9.37,3,3,0,0,1,1.3,1,3.75,3.75,0,0,1,.6,1.44,11.12,11.12,0,0,1,.11,1.89v7h-1.94v-7a5.24,5.24,0,0,0-.23-1.78,1.87,1.87,0,0,0-.8-.94,2.56,2.56,0,0,0-1.35-.35,3.14,3.14,0,0,0-2.14.79,3.88,3.88,0,0,0-.9,3V118Z" transform="translate(-29.42 -51.7)"/><path class="cls-1" d="M511.6,116.25l.28,1.72a7.2,7.2,0,0,1-1.47.17,3.32,3.32,0,0,1-1.64-.33,1.87,1.87,0,0,1-.82-.88,7,7,0,0,1-.24-2.29V108H506.3v-1.51h1.42v-2.84l1.93-1.17v4h2V108h-2v6.7a3.36,3.36,0,0,0,.1,1.07.8.8,0,0,0,.33.38,1.29,1.29,0,0,0,.66.14A6.32,6.32,0,0,0,511.6,116.25Z" transform="translate(-29.42 -51.7)"/><path class="cls-1" d="M520,118V102.17h10.67V104h-8.58v4.9h7.42v1.87h-7.42V118Z" transform="translate(-29.42 -51.7)"/><path class="cls-1" d="M540.65,118V116.3a4.19,4.19,0,0,1-3.64,1.94,4.63,4.63,0,0,1-1.89-.39,3.11,3.11,0,0,1-1.31-1,3.65,3.65,0,0,1-.6-1.44,9.86,9.86,0,0,1-.12-1.81v-7.1H535v6.36a11.33,11.33,0,0,0,.12,2.05,2,2,0,0,0,.78,1.2,2.41,2.41,0,0,0,1.47.44,3.19,3.19,0,0,0,1.64-.45,2.49,2.49,0,0,0,1.08-1.22,6.14,6.14,0,0,0,.32-2.24v-6.14h1.94V118Z" transform="translate(-29.42 -51.7)"/><path class="cls-1" d="M545.43,118V106.53h1.75v1.63a4.12,4.12,0,0,1,3.65-1.89,4.77,4.77,0,0,1,1.9.37,3,3,0,0,1,1.3,1,3.75,3.75,0,0,1,.6,1.44,11.12,11.12,0,0,1,.11,1.89v7H552.8v-7a5.24,5.24,0,0,0-.23-1.78,1.87,1.87,0,0,0-.8-.94,2.56,2.56,0,0,0-1.35-.35,3.14,3.14,0,0,0-2.14.79,3.88,3.88,0,0,0-.9,3V118Z" transform="translate(-29.42 -51.7)"/><path class="cls-1" d="M565.16,118v-1.45a3.56,3.56,0,0,1-3.2,1.7,4.5,4.5,0,0,1-2.52-.76,5,5,0,0,1-1.78-2.11,7.28,7.28,0,0,1-.63-3.11,8.15,8.15,0,0,1,.57-3.11,4.51,4.51,0,0,1,1.72-2.14,4.59,4.59,0,0,1,2.56-.74,3.82,3.82,0,0,1,3.16,1.58v-5.68H567V118ZM559,112.27a5,5,0,0,0,.93,3.29,2.8,2.8,0,0,0,2.19,1.09,2.75,2.75,0,0,0,2.16-1,4.8,4.8,0,0,0,.89-3.18,5.39,5.39,0,0,0-.91-3.45,2.79,2.79,0,0,0-2.23-1.1,2.69,2.69,0,0,0-2.16,1.06A5.22,5.22,0,0,0,559,112.27Z" transform="translate(-29.42 -51.7)"/></g></svg>