<svg id="Livello_1" data-name="Livello 1" xmlns="http://www.w3.org/2000/svg" viewBox="0 0 229.23 229.23"><defs><style>.cls-1{fill:#001f2a;}.cls-2{fill:#fff;}.cls-3{fill:#16b89c;}</style></defs><title>logo_co-city</title><path class="cls-1" d="M264.61,150A114.61,114.61,0,1,1,150,35.39,114.61,114.61,0,0,1,264.61,150" transform="translate(-35.39 -35.39)"/><path class="cls-2" d="M95.56,194.43c-1.87-4.36-1.39-5.32,3-5.4,5.67-.11,11.34,0,17.42,0,.34-5.67-.31-12.11,8.34-11.21-3-4.92-3.11-7.61-.47-9.76a5.54,5.54,0,0,1,7.49.49c2.24,2.33,2,4.78-.93,8.64,2.1.76,4.68,1,6.17,2.43s1.62,3.86,2.3,5.7l6.58-2.53a39.82,39.82,0,0,1-1.07-6.45c0-1,1-2.15,1.91-2.88a5.6,5.6,0,0,1,6.72.21c2.39,2,2.39,4.66,0,8.83l7.13,2.88c.65-1.85.84-4.35,2.18-5.7s3.92-1.69,5.94-2.46c-.57-1.17-1.85-2.7-2-4.31A7,7,0,0,1,168,168.3c1.95-2.22,5.27-2,7.41,0,2.42,2.32,2.26,4.59-.64,9.18,7.19.94,7.29,1.07,8.29,11.36,3.66,0,7.4.09,11.13.12,2.07,0,4.14-.05,6.21,0,4.41.15,4.88,1,3,5.41Z" transform="translate(-35.39 -35.39)"/><path class="cls-2" d="M94.12,112.28A40.93,40.93,0,0,0,98.58,111q23.71-9.8,47.36-19.73a8,8,0,0,1,6.89-.15c16.12,6.89,32.34,13.56,48.52,20.31,3.64,1.52,3.64,1.52,3.16,5.95L185.38,111c-10.9-3.62-21.84-7.18-32.7-10.93a9.63,9.63,0,0,0-6.65.06c-17.29,5.85-34.6,11.59-51.91,17.36Z" transform="translate(-35.39 -35.39)"/><path class="cls-2" d="M124.46,128.62c1-7.85,1.05-7.9,6-8.46a20.42,20.42,0,0,1-1.4-4.43,4,4,0,0,1,1.4-2.6,3.87,3.87,0,0,1,5.24,0c2,1.7,1.9,3.63-.38,7,5,.58,5.45,1,6.1,5.82l5.11-2a30,30,0,0,1-.81-4.78c0-.72.78-1.6,1.42-2.14a4.15,4.15,0,0,1,5,.16c1.75,1.49,1.75,3.5,0,6.56l5.43,2.18c.69-4.83,1.14-5.27,5.85-5.82a20.66,20.66,0,0,1-1.45-4.39,4,4,0,0,1,1.35-2.6,3.85,3.85,0,0,1,5.24-.06c1.93,1.61,1.86,3.63-.44,7.06,2,.24,4.43,0,5.26,2.12.72,1.84.79,3.93,1.22,6.35,3.68,0,7.49,0,11.3,0a10.82,10.82,0,0,1,3.06.17l1.36,1.52a3.07,3.07,0,0,1-1.21,2.08,4.28,4.28,0,0,1-2.24.24q-37.36,0-74.73,0c-2.58,0-3.47-.54-3.56-2s.82-2.05,3.76-2.07c4,0,7.93,0,12.15,0" transform="translate(-35.39 -35.39)"/><path class="cls-3" d="M140.93,156.6l5.42-2.05a31.32,31.32,0,0,1-.87-5,3.73,3.73,0,0,1,1.49-2.27,4.36,4.36,0,0,1,5.28.14c1.88,1.58,1.89,3.68,0,7l5.56,2.22c.54-1.46.72-3.42,1.79-4.47s3.09-1.32,4.49-1.85a19.59,19.59,0,0,1-1.4-4.36,4.23,4.23,0,0,1,1.41-2.76,4.1,4.1,0,0,1,5.55-.11c2,1.68,2,3.86-.46,7.48,2.14.28,4.68,0,5.56,2.22.77,1.94.84,4.15,1.3,6.73h9.87c1.49,0,3,0,4.47,0s2.44.58,2.38,2.14-1.1,2.07-2.49,2.09H110.89c-.82,0-1.63,0-2.44,0-1.44-.1-2.28-.83-2.21-2.33s1-1.84,2.21-1.86c2.72-.05,5.43,0,8.14,0h6.35c1.37-8.35,1.37-8.35,6.35-8.94a25,25,0,0,1-1.32-5c-.05-.85.89-2,1.67-2.62a4.14,4.14,0,0,1,5.54.46c1.83,1.81,1.64,3.74-.72,7.13,5.34.65,5.84,1.13,6.47,6.16" transform="translate(-35.39 -35.39)"/></svg>