<svg id="Livello_10" data-name="Livello 10" xmlns="http://www.w3.org/2000/svg" viewBox="0 0 2825.17 2834.05"><defs><style>.cls-1{fill:none;}.cls-2{fill:#fc4a00;}</style></defs><title>modulo-bg-arancio</title><rect class="cls-1" y="6.77" width="2825.17" height="2825.17"/><path class="cls-2" d="M1372.23,1662.24a188.35,188.35,0,0,1-25.52,7.53c-49.92,11-101.25,1.35-144.55-27.12h0c-88.29-58.07-115-177.88-59.6-267.08,26.94-43.37,69-73.25,118.52-84.13,49.92-11,101.25-1.35,144.55,27.12,88.29,58.07,115,177.88,59.6,267.08A185.73,185.73,0,0,1,1372.23,1662.24Zm-132.05-77.4c27.57,18.13,60.12,24.3,91.66,17.36a116.86,116.86,0,0,0,74.62-53.08c35.81-57.63,18.38-135.13-38.85-172.77-27.57-18.13-60.13-24.3-91.67-17.36a116.9,116.9,0,0,0-74.62,53.08c-35.8,57.63-18.37,135.13,38.85,172.77Z" transform="translate(-147.91 -61.24)"/><path class="cls-2" d="M824.5,1638.26a298.27,298.27,0,0,1-40.39,11.91c-78.73,17.32-159.5,2.26-227.43-42.42L337.51,1463.61c-139.39-91.67-181.64-280.78-94.18-421.54L457.22,697.81c42.07-67.71,133.72-300.12,134.64-302.46l20.47-52,37.42,41.54c69.14,76.76,185.14,199.59,221.3,223.37l219.17,144.14c139.39,91.67,181.64,280.78,94.18,421.54L970.51,1518.18C935.79,1574.06,884.86,1615.69,824.5,1638.26ZM302.1,1078.58c-67.84,109.19-34.9,256,73.43,327.23L594.69,1550c52.21,34.34,114.2,45.94,174.55,32.66a222.91,222.91,0,0,0,142.51-100.94l213.89-344.26c67.84-109.19,34.9-256-73.43-327.23L833,666c-41.19-27.09-141.62-133.47-197.41-194C605.25,546.72,548.71,681.64,516,734.32Z" transform="translate(-147.91 -61.24)"/><g id="gnammy"><path class="cls-2" d="M527.24,2895.29a175.6,175.6,0,1,1,351.2,0Z" transform="translate(-147.91 -61.24)"/><path class="cls-2" d="M466.43,1869.3H872.89c84,0,334-45.62,334-45.62s-66.36,250.06-66.36,313.23V2398c0,147.19-120.42,267.61-267.61,267.61H466.43c-147.19,0-267.61-120.42-267.61-267.61V2136.91C198.82,1989.73,319.24,1869.3,466.43,1869.3Z" transform="translate(-147.91 -61.24)"/></g><g id="gnammy-2" data-name="gnammy"><path class="cls-2" d="M527.24,65.48h351.2a175.6,175.6,0,0,1-351.2,0Z" transform="translate(-147.91 -61.24)"/></g><g id="gnammy-3" data-name="gnammy"><path class="cls-2" d="M2598.13,61.24a175.6,175.6,0,1,1-351.2,0Z" transform="translate(-147.91 -61.24)"/><path class="cls-2" d="M2658.94,1087.23H2252.48c-84,0-334,45.62-334,45.62s66.36-250.06,66.36-313.23V558.51c0-147.19,120.42-267.61,267.61-267.61h406.46c147.19,0,267.61,120.42,267.61,267.61V819.62C2926.55,966.8,2806.13,1087.23,2658.94,1087.23Z" transform="translate(-147.91 -61.24)"/></g><g id="gnammy-4" data-name="gnammy"><path class="cls-2" d="M2598.13,2895.29h-351.2a175.6,175.6,0,0,1,351.2,0Z" transform="translate(-147.91 -61.24)"/></g><path class="cls-2" d="M1754.6,1303.24a188.35,188.35,0,0,1,25.52-7.53c49.92-11,101.25-1.35,144.55,27.12h0c88.29,58.07,115,177.88,59.6,267.08-26.94,43.37-69,73.25-118.52,84.13-49.92,11-101.25,1.35-144.55-27.12-88.29-58.07-115-177.88-59.6-267.08A185.73,185.73,0,0,1,1754.6,1303.24Zm132.05,77.4c-27.57-18.13-60.12-24.3-91.66-17.36a116.86,116.86,0,0,0-74.62,53.08c-35.81,57.63-18.38,135.13,38.85,172.77,27.57,18.13,60.13,24.3,91.67,17.36a116.9,116.9,0,0,0,74.62-53.08c35.8-57.63,18.37-135.13-38.85-172.77Z" transform="translate(-147.91 -61.24)"/><path class="cls-2" d="M2302.33,1327.21a298.27,298.27,0,0,1,40.39-11.91c78.73-17.32,159.5-2.26,227.43,42.42l219.17,144.14c139.39,91.67,181.64,280.78,94.18,421.54l-213.89,344.26c-42.07,67.71-133.72,300.12-134.64,302.46l-20.47,52-37.42-41.54c-69.14-76.76-185.14-199.59-221.3-223.37L2036.61,2213.1c-139.39-91.67-181.64-280.78-94.18-421.54l213.89-344.26C2191,1391.41,2242,1349.78,2302.33,1327.21Zm522.4,559.68c67.84-109.19,34.9-256-73.43-327.23l-219.17-144.14c-52.21-34.34-114.2-45.94-174.55-32.66a222.91,222.91,0,0,0-142.51,100.94l-213.89,344.26c-67.84,109.19-34.9,256,73.43,327.23l219.17,144.14c41.19,27.09,141.62,133.47,197.41,194,30.38-74.68,86.92-209.61,119.65-262.28Z" transform="translate(-147.91 -61.24)"/></svg>