<svg id="Livello_10" data-name="Livello 10" xmlns="http://www.w3.org/2000/svg" viewBox="0 0 2916.85 2916.85"><defs><style>.cls-1{fill:#f1f1f1;}.cls-2{fill:#fff;}</style></defs><title>modulo-bg-grigio</title><rect class="cls-1" width="2916.85" height="2916.85"/><path class="cls-2" d="M1366.12,1665.8a194.46,194.46,0,0,1-26.35,7.77c-51.54,11.34-104.54,1.39-149.24-28h0c-91.15-59.95-118.76-183.65-61.54-275.75,27.82-44.77,71.27-75.62,122.36-86.86,51.54-11.34,104.54-1.39,149.24,28,91.15,59.95,118.76,183.65,61.54,275.75A191.75,191.75,0,0,1,1366.12,1665.8Zm-136.34-79.91c28.47,18.72,62.08,25.09,94.64,17.92a120.66,120.66,0,0,0,77-54.8c37-59.5,19-139.52-40.11-178.38-28.47-18.72-62.08-25.09-94.64-17.92a120.69,120.69,0,0,0-77,54.8c-37,59.5-19,139.52,40.11,178.38Z" transform="translate(-102.07 -19.84)"/><path class="cls-2" d="M800.61,1641a308,308,0,0,1-41.7,12.3c-81.28,17.88-164.67,2.33-234.81-43.8L297.82,1460.73c-143.91-94.65-187.53-289.89-97.24-435.22L421.41,670.08c43.43-69.91,138.06-309.86,139-312.28l21.14-53.71L620.19,347C691.58,426.22,811.34,553,848.68,577.59L1075,726.41c143.91,94.65,187.53,289.89,97.24,435.22L951.37,1517.07C915.52,1574.76,862.93,1617.74,800.61,1641ZM261.26,1063.2c-70,112.73-36,264.29,75.81,337.85l226.28,148.82c53.9,35.45,117.9,47.43,180.21,33.72a230.14,230.14,0,0,0,147.13-104.22l220.83-355.43c70-112.73,36-264.29-75.81-337.85L809.43,637.27C766.9,609.3,663.21,499.47,605.61,437c-31.37,77.11-89.74,216.41-123.53,270.79Z" transform="translate(-102.07 -19.84)"/><g id="gnammy"><path class="cls-2" d="M493.71,2936.69a181.3,181.3,0,1,1,362.6,0Z" transform="translate(-102.07 -19.84)"/><path class="cls-2" d="M430.93,1879.58H850.57c86.74,0,344.81-47.1,344.81-47.1s-68.51,258.17-68.51,323.4v269.58c0,152-124.33,276.29-276.29,276.29H430.93c-152,0-276.29-124.33-276.29-276.29V2155.88C154.63,2003.92,279,1879.58,430.93,1879.58Z" transform="translate(-102.07 -19.84)"/></g><g id="gnammy-2" data-name="gnammy"><path class="cls-2" d="M493.71,19.84H856.3a181.3,181.3,0,0,1-362.6,0Z" transform="translate(-102.07 -19.84)"/></g><g id="gnammy-3" data-name="gnammy"><path class="cls-2" d="M2631.8,19.84a181.3,181.3,0,1,1-362.6,0Z" transform="translate(-102.07 -19.84)"/><path class="cls-2" d="M2694.59,1072.13H2274.94c-86.74,0-344.81,47.1-344.81,47.1s68.51-258.17,68.51-323.4V526.25c0-152,124.33-276.29,276.29-276.29h419.65c152,0,276.29,124.33,276.29,276.29V795.84C2970.88,947.8,2846.55,1072.13,2694.59,1072.13Z" transform="translate(-102.07 -19.84)"/></g><g id="gnammy-4" data-name="gnammy"><path class="cls-2" d="M2631.8,2936.69h-362.6a181.3,181.3,0,0,1,362.6,0Z" transform="translate(-102.07 -19.84)"/></g><path class="cls-2" d="M1760.9,1295.15a194.46,194.46,0,0,1,26.35-7.77c51.54-11.34,104.54-1.39,149.24,28h0c91.15,59.95,118.76,183.65,61.54,275.75-27.82,44.77-71.27,75.62-122.36,86.86-51.54,11.34-104.54,1.39-149.24-28-91.15-59.95-118.76-183.65-61.54-275.75A191.75,191.75,0,0,1,1760.9,1295.15Zm136.34,79.91c-28.47-18.72-62.08-25.09-94.64-17.92a120.66,120.66,0,0,0-77,54.8c-37,59.5-19,139.52,40.11,178.38,28.47,18.72,62.08,25.09,94.64,17.92a120.69,120.69,0,0,0,77-54.8c37-59.5,19-139.52-40.11-178.38Z" transform="translate(-102.07 -19.84)"/><path class="cls-2" d="M2326.4,1319.9a308,308,0,0,1,41.7-12.3c81.28-17.88,164.67-2.33,234.81,43.8l226.28,148.82c143.91,94.65,187.53,289.89,97.24,435.22L2705.6,2290.87c-43.43,69.91-138.06,309.86-139,312.28l-21.14,53.71L2506.82,2614c-71.39-79.25-191.15-206.06-228.49-230.62l-226.28-148.82c-143.91-94.65-187.53-289.89-97.24-435.22l220.83-355.43C2211.5,1386.19,2264.08,1343.21,2326.4,1319.9Zm539.35,577.84c70-112.73,36-264.29-75.81-337.85l-226.28-148.82c-53.9-35.45-117.9-47.43-180.21-33.72a230.14,230.14,0,0,0-147.13,104.22L2015.49,1837c-70,112.73-36,264.29,75.81,337.85l226.28,148.82c42.53,28,146.22,137.8,203.81,200.29,31.37-77.11,89.74-216.41,123.53-270.79Z" transform="translate(-102.07 -19.84)"/></svg>