<svg xmlns="http://www.w3.org/2000/svg" viewBox="0 0 1275.59 1275.59"><defs><style>.cls-1{fill:#fff;}.cls-2{fill:#fc4a00;}.cls-3{fill:#3ccc66;}</style></defs><title>FAQ</title><g id="Base"><rect class="cls-1" width="1275.59" height="1275.59" rx="113.39" ry="113.39"/></g><g id="Livello_5" data-name="Livello 5"><path class="cls-2" d="M566.15,265.79q49.66-46.8,134-46.8,82.61,0,131.4,39.11t48.78,111.18q0,34.28-10.33,60.21t-25.27,43.95q-14.94,18-40,42.19Q770.5,549,754.24,574.72T738,639.1h-79.1q0-51.42,18-82.84t51.42-64.82q29-29.88,42.41-51.86t13.4-55.37q0-37.79-24.83-57.57t-67.9-19.78q-43.95,0-69.21,23.51t-27,68.33l-81.3-.88Q516.49,312.59,566.15,265.79ZM738,750.29Q754.23,767,754.24,792q0,25.94-16.26,43.07t-40.43,17.14q-24.17,0-40.43-16.92T640.86,792q0-25,16.26-41.75t40.43-16.7Q721.71,733.59,738,750.29Z" transform="translate(-70.87 -70.87)"/><g id="gnammy"><circle class="cls-2" cx="633.95" cy="718.72" r="80.08"/><path class="cls-3" d="M812.63,1257.5H627.26c-38.32,0-152.31,20.81-152.31,20.81s30.26-114,30.26-142.85V1016.37c0-67.13,54.92-122,122-122H812.63c67.13,0,122,54.92,122,122v119.08C934.68,1202.58,879.76,1257.5,812.63,1257.5Z" transform="translate(-70.87 -70.87)"/></g></g></svg>