<?xml version="1.0" encoding="UTF-8" standalone="no"?>
<!-- Generator: Adobe Illustrator 17.0.0, SVG Export Plug-In . SVG Version: 6.00 Build 0)  -->

<svg
   xmlns:dc="http://purl.org/dc/elements/1.1/"
   xmlns:cc="http://creativecommons.org/ns#"
   xmlns:rdf="http://www.w3.org/1999/02/22-rdf-syntax-ns#"
   xmlns:svg="http://www.w3.org/2000/svg"
   xmlns="http://www.w3.org/2000/svg"
   xmlns:sodipodi="http://sodipodi.sourceforge.net/DTD/sodipodi-0.dtd"
   xmlns:inkscape="http://www.inkscape.org/namespaces/inkscape"
   version="1.1"
   x="0px"
   y="0px"
   width="204.5px"
   height="192.833px"
   viewBox="0 0 204.5 192.833"
   enable-background="new 0 0 204.5 192.833"
   xml:space="preserve"
   id="svg2"
   inkscape:version="0.91 r13725"
   sodipodi:docname="firstlife-logo-palla.svg"><metadata
     id="metadata73"><rdf:RDF><cc:Work
         rdf:about=""><dc:format>image/svg+xml</dc:format><dc:type
           rdf:resource="http://purl.org/dc/dcmitype/StillImage" /></cc:Work></rdf:RDF></metadata><defs
     id="defs71" /><sodipodi:namedview
     pagecolor="#ffffff"
     bordercolor="#666666"
     borderopacity="1"
     objecttolerance="10"
     gridtolerance="10"
     guidetolerance="10"
     inkscape:pageopacity="0"
     inkscape:pageshadow="2"
     inkscape:window-width="1314"
     inkscape:window-height="1100"
     id="namedview69"
     showgrid="false"
     inkscape:zoom="1.223857"
     inkscape:cx="102.25"
     inkscape:cy="96.416496"
     inkscape:window-x="24"
     inkscape:window-y="43"
     inkscape:window-maximized="0"
     inkscape:current-layer="svg2" /><g
     id="Layer_5"><g
       id="lettere_bianche_1_" /><g
       id="Layer_6" /></g><g
     id="Layer_9"
     transform="matrix(1.0764307,0,0,1.0491619,-12.13956,-6.0460086)"><g
       id="Layer_11" /><g
       id="Layer_8"><path
         d="m 170.997,128.892 0,0.001 -2.561,0 -2.238,0.001 -0.799,-0.219 c -3.925,0 -7.588,-0.752 -10.989,-2.252 -3.405,-1.498 -6.403,-3.547 -8.997,-6.144 -2.595,-2.596 -4.644,-5.599 -6.142,-9 -1.222,-2.768 -1.937,-5.711 -2.165,-8.823 -0.052,-0.716 -0.087,-1.439 -0.087,-2.173 l 0,-1.84 0,-14.427 0,-3.803 0,-28.924 0,-38.221 C 127.497,8.53 116.888,6.639 105.991,6.639 c -13.009,0 -26.061,2.765 -36.57,8.652 -3.965,2.522 -7.623,5.445 -10.962,8.784 -3.165,3.167 -5.95,6.626 -8.381,10.357 -0.71,1.09 -1.397,2.197 -2.044,3.336 -1.014,1.783 -1.955,3.622 -2.814,5.523 -3.289,7.271 -4.934,14.949 -4.934,23.027 l 0,16.099 -9.666,16.025 -2.421,4.013 -0.025,0.042 12.113,0 -0.346,50.515 -0.027,4.013 -0.029,4.343 c 7.918,8.361 17.404,15.217 27.987,20.105 l 0.193,-24.448 0.031,-4.013 0.398,-50.515 32.19,0 0,-0.042 0,-4.013 0,-20.007 -32.19,0 0,-12.117 c 0,-4.041 0.924,-7.991 2.77,-11.859 0.593,-1.246 1.27,-2.431 1.985,-3.587 0.664,-1.075 1.385,-2.108 2.154,-3.105 0.97,-1.259 1.994,-2.475 3.129,-3.611 2.999,-3 6.432,-5.423 10.299,-7.269 3.862,-1.845 7.813,-2.77 11.854,-2.77 l 8.129,0 0,31.243 0,3.996 0,29.086 0,1.84 c 0,0.73 0.025,1.451 0.051,2.173 0.068,1.943 0.23,3.855 0.483,5.737 0.664,4.932 1.949,9.656 3.881,14.163 0.041,0.097 0.088,0.19 0.13,0.286 2.932,6.746 6.919,12.655 11.981,17.719 5.135,5.135 11.134,9.175 17.995,12.117 0.443,0.19 0.893,0.357 1.341,0.534 6.48,2.576 13.386,3.88 20.725,3.88 l 0,-0.17 10.727,0.099 c 1.027,-1.239 2.01,-2.516 2.971,-3.809 5.412,-7.286 9.772,-15.4 12.832,-24.13 l -20.934,0.011 z"
         id="path10"
         inkscape:connector-curvature="0"
         style="fill:#ffffff" /></g><g
       id="Layer_10"><g
         id="g13"><path
           d="m 137.018,51.205 0,28.943 0,3.806 0,14.435 0,1.841 c 0,0.735 0.035,1.458 0.087,2.175 0.228,3.114 0.943,6.059 2.165,8.829 1.498,3.403 3.547,6.408 6.142,9.006 2.594,2.599 5.592,4.649 8.997,6.148 3.401,1.5 7.863,2.473 11.788,2.473 l 0,0 2.238,-10e-4 2.561,0 0,-0.001 20.646,-0.009 c 3.341,-9.465 5.165,-19.646 5.165,-30.254 0,-39.269 -24.91,-72.719 -59.79,-85.414 l 0,38.023 z"
           id="path15"
           inkscape:connector-curvature="0"
           style="fill:#fc4a00" /><path
           d="m 165.399,156.705 0,0 c -7.339,0 -14.245,-1.134 -20.725,-3.712 -0.448,-0.177 -0.898,-0.344 -1.341,-0.534 -6.861,-2.944 -12.861,-6.986 -17.995,-12.125 -5.062,-5.068 -9.049,-10.98 -11.981,-17.731 -0.042,-0.097 -0.089,-0.189 -0.13,-0.286 -1.932,-4.51 -3.217,-9.237 -3.881,-14.172 -0.253,-1.883 -0.414,-3.797 -0.483,-5.741 -0.025,-0.722 -0.051,-1.444 -0.051,-2.175 l 0,-1.841 0,-29.104 0,-3.999 0,-31.265 -8.13,0 c -4.041,0 -7.991,0.926 -11.854,2.772 -3.866,1.848 -7.3,4.273 -10.299,7.274 -1.135,1.136 -2.159,2.354 -3.129,3.613 -0.769,0.998 -1.49,2.031 -2.154,3.107 -0.715,1.157 -1.392,2.342 -1.985,3.589 -1.846,3.871 -2.77,7.824 -2.77,11.867 l 0,12.125 32.19,0 0,20.02 0,4.016 0,0.042 -32.19,0 -0.398,50.547 -0.031,4.016 -0.19,24.116 c 11.579,5.349 24.472,8.339 38.064,8.339 28.039,0 53.109,-12.703 69.778,-32.664 l -10.315,-0.094 z"
           id="path17"
           inkscape:connector-curvature="0"
           style="fill:#fc4a00" /><path
           d="m 39.913,157.009 0.027,-4.016 0.346,-50.547 -12.112,0 0.026,-0.042 2.421,-4.016 9.666,-16.036 0,-16.109 c 0,-8.083 1.645,-15.767 4.934,-23.042 0.859,-1.903 1.8,-3.743 2.814,-5.527 0.647,-1.139 1.334,-2.247 2.044,-3.338 2.431,-3.734 5.216,-7.195 8.381,-10.364 3.117,-3.119 6.523,-5.861 10.187,-8.267 -31.589,14.234 -53.58,45.993 -53.58,82.89 0,24.165 9.435,46.124 24.819,62.401 l 0.027,-3.987 z"
           id="path19"
           inkscape:connector-curvature="0"
           style="fill:#fc4a00" /></g><path
         d="m 176.224,156.189 0,-3.261 -4.891,0 0,-32.964 c 12.627,-1.012 22.594,-11.604 22.594,-24.487 0,-12.883 -9.967,-23.474 -22.594,-24.487 l 0,-35.482 c -1.249,-1.295 -2.537,-2.552 -3.861,-3.771 l 0,39.247 c -7.536,0.574 -14.13,4.558 -18.239,10.413 l -36.567,-17.051 0,-56.373 c -1.278,-0.094 -2.563,-0.158 -3.855,-0.199 l 0,54.774 -64.964,-30.294 c -1.004,0.94 -1.986,1.902 -2.946,2.886 l 67.911,31.668 0,31.787 -93.745,0 0,0 c 0,1.294 0.034,2.58 0.087,3.861 l 93.657,0 0,50.473 -75.717,0 c 0.983,1.316 2.004,2.601 3.055,3.861 l 72.663,0 0,32.626 c 1.292,-0.04 2.577,-0.105 3.855,-0.199 l 0,-32.428 63.059,0 c 0.167,-0.2 0.334,-0.399 0.498,-0.6 z m -63.557,-87.584 34.592,16.13 c -1.585,3.247 -2.477,6.892 -2.477,10.742 0,1.056 0.075,2.095 0.205,3.117 l -32.319,0 0,-29.989 z m 54.806,84.323 -54.806,0 0,-50.473 33.13,0 c 2.843,9.582 11.381,16.732 21.676,17.516 l 0,32.957 z m -18.692,-57.45 c 0,-11.344 9.229,-20.573 20.573,-20.573 11.344,0 20.573,9.229 20.573,20.573 0,11.344 -9.229,20.573 -20.573,20.573 -11.344,0 -20.573,-9.229 -20.573,-20.573 z"
         id="path21"
         inkscape:connector-curvature="0"
         style="fill:#ffffff" /></g></g><g
     id="Layer_4"
     display="none"><g
       id="fondo_bianco" /><g
       id="lettere_bianche"><path
         display="inline"
         fill="#FFFFFF"
         d="M170.592,129.064v0.001h-2.554l-2.231,0.001l-0.797-0.219    c-3.914,0-7.566-0.75-10.958-2.244c-3.396-1.493-6.385-3.535-8.972-6.124c-2.588-2.588-4.631-5.581-6.125-8.971    c-1.219-2.759-1.932-5.692-2.159-8.794c-0.052-0.714-0.087-1.434-0.087-2.166v-1.834V84.337v-3.791V51.717V13.621    c-9.656-3.5-20.074-5.412-30.94-5.412c-12.972,0-25.305,2.726-36.466,7.627c-3.954,2.514-7.602,5.427-10.931,8.755    c-3.156,3.156-5.934,6.604-8.357,10.323c-0.708,1.086-1.393,2.19-2.038,3.325c-1.011,1.777-1.949,3.61-2.806,5.505    c-3.279,7.247-4.92,14.9-4.92,22.952v16.046l-9.639,15.973l-2.414,4l-0.025,0.042h12.078l-0.345,50.349l-0.027,4l-0.029,4.329    c7.896,8.334,17.354,15.168,27.907,20.039l0.192-24.368l0.031-4l0.396-50.349h32.099v-0.042v-4V78.774H68.378V66.696    c0-4.027,0.921-7.965,2.762-11.82c0.592-1.242,1.267-2.423,1.979-3.575c0.662-1.071,1.381-2.101,2.147-3.095    c0.967-1.254,1.988-2.467,3.12-3.599c2.99-2.99,6.414-5.405,10.27-7.246c3.852-1.839,7.791-2.761,11.82-2.761h8.106v31.142v3.983    v28.99v1.834c0,0.728,0.025,1.447,0.051,2.166c0.068,1.937,0.229,3.843,0.481,5.718c0.662,4.916,1.943,9.625,3.87,14.117    c0.041,0.097,0.088,0.189,0.13,0.285c2.924,6.724,6.899,12.613,11.947,17.661c5.12,5.118,11.103,9.145,17.944,12.077    c0.441,0.189,0.891,0.355,1.337,0.532c6.462,2.567,13.348,3.867,20.666,3.867v-0.17l10.696,0.099    c1.024-1.235,2.004-2.507,2.963-3.796c5.396-7.262,9.744-15.35,12.796-24.05L170.592,129.064z"
         id="path26" /><path
         display="inline"
         fill="#FFFFFF"
         d="M170.592,129.064v0.001h-2.554l-2.231,0.001l-0.797-0.219    c-3.914,0-7.566-0.75-10.958-2.244c-3.396-1.493-6.385-3.535-8.972-6.124c-2.588-2.588-4.631-5.581-6.125-8.971    c-1.219-2.759-1.932-5.692-2.159-8.794c-0.052-0.714-0.087-1.434-0.087-2.166v-1.834V84.337v-3.791V51.717V13.621    c-9.656-3.5-20.074-5.412-30.94-5.412c-12.972,0-25.305,2.726-36.466,7.627c-3.954,2.514-7.602,5.427-10.931,8.755    c-3.156,3.156-5.934,6.604-8.357,10.323c-0.708,1.086-1.393,2.19-2.038,3.325c-1.011,1.777-1.949,3.61-2.806,5.505    c-3.279,7.247-4.92,14.9-4.92,22.952v16.046l-9.639,15.973l-2.414,4l-0.025,0.042h12.078l-0.345,50.349l-0.027,4l-0.029,4.329    c7.896,8.334,17.354,15.168,27.907,20.039l0.192-24.368l0.031-4l0.396-50.349h32.099v-0.042v-4V78.774H68.378V66.696    c0-4.027,0.921-7.965,2.762-11.82c0.592-1.242,1.267-2.423,1.979-3.575c0.662-1.071,1.381-2.101,2.147-3.095    c0.967-1.254,1.988-2.467,3.12-3.599c2.99-2.99,6.414-5.405,10.27-7.246c3.852-1.839,7.791-2.761,11.82-2.761h8.106v31.142v3.983    v28.99v1.834c0,0.728,0.025,1.447,0.051,2.166c0.068,1.937,0.229,3.843,0.481,5.718c0.662,4.916,1.943,9.625,3.87,14.117    c0.041,0.097,0.088,0.189,0.13,0.285c2.924,6.724,6.899,12.613,11.947,17.661c5.12,5.118,11.103,9.145,17.944,12.077    c0.441,0.189,0.891,0.355,1.337,0.532c6.462,2.567,13.348,3.867,20.666,3.867v-0.17l10.696,0.099    c1.024-1.235,2.004-2.507,2.963-3.796c5.396-7.262,9.744-15.35,12.796-24.05L170.592,129.064z"
         id="path28" /></g><g
       id="Livello_1"><g
         display="inline"
         id="g31"><path
           fill="#FC4A00"
           d="M15.067,102.715c0.759,18.849,7.268,36.206,17.814,50.391h7.025v-50.391H15.067z"
           id="path33" /><path
           fill="#FC4A00"
           d="M44.503,32.013l5.513,2.901c2.424-3.719,5.201-7.167,8.357-10.323c3.329-3.328,6.977-6.241,10.931-8.755     C60.144,19.858,51.782,25.354,44.503,32.013z"
           id="path35" /><path
           fill="#FC4A00"
           d="M39.851,161.434l0.029-4.329h-3.848C37.266,158.584,38.527,160.038,39.851,161.434z"
           id="path37" /><path
           fill="#FC4A00"
           d="M14.982,98.715h15.631l9.639-15.973V66.696c0-8.052,1.641-15.705,4.92-22.952     c0.856-1.895,1.795-3.728,2.806-5.505l-6.462-3.357C25.186,51.242,15.06,73.791,14.982,98.715z"
           id="path39" /><path
           fill="#FC4A00"
           d="M68.378,78.774h32.099v19.941h8.106v-28.99L73.119,51.3c-0.713,1.152-1.388,2.333-1.979,3.575     c-1.841,3.855-2.762,7.793-2.762,11.82V78.774z"
           id="path41" /><path
           fill="#FC4A00"
           d="M108.634,102.715c0.068,1.937,0.229,3.843,0.481,5.718v44.672H67.981v-50.391H108.634z"
           id="path43" /><path
           fill="#FC4A00"
           d="M113.115,189.498c25.051-2.006,47.232-14.179,62.417-32.392h-62.417V189.498z"
           id="path45" /><path
           fill="#FC4A00"
           d="M143.007,152.573c-6.842-2.933-12.824-6.959-17.944-12.077c-5.048-5.048-9.023-10.937-11.947-17.661     v30.27h31.229C143.897,152.929,143.448,152.763,143.007,152.573z"
           id="path47" /><path
           fill="#FC4A00"
           d="M108.583,34.6h-8.106c-4.029,0-7.969,0.922-11.82,2.761c-3.855,1.841-7.279,4.256-10.27,7.246     c-1.132,1.132-2.153,2.345-3.12,3.599l33.316,17.536V34.6z"
           id="path49" /><path
           fill="#FC4A00"
           d="M67.758,181.473c11.563,5.339,24.438,8.323,38.012,8.323c1.121,0,2.234-0.028,3.346-0.068v-32.623H67.95     L67.758,181.473z"
           id="path51" /><path
           fill="#FC4A00"
           d="M170.592,35.445v33.74h-0.08c13.619,0.988,24.399,12.376,24.399,26.242     c0,13.867-10.784,25.255-24.405,26.24h0.086v7.396l20.873-0.009c3.299-9.407,5.099-19.519,5.099-30.052     C196.563,74.253,186.653,51.822,170.592,35.445z"
           id="path53" /><path
           fill="#FC4A00"
           d="M144.547,84.742c3.859-8.649,12.248-14.845,22.137-15.558h-0.092V31.609     c-8.624-7.787-18.742-13.951-29.883-17.988v38.096v28.829l7.86,4.137L144.547,84.742z"
           id="path55" /><path
           fill="#FC4A00"
           d="M142.493,98.787c-0.141-1.101-0.222-2.221-0.222-3.359c0-2.661,0.4-5.229,1.138-7.652l-0.013,0.035     l-6.687-3.474v14.378h5.769L142.493,98.787z"
           id="path57" /><path
           fill="#FC4A00"
           d="M138.955,111.509c1.494,3.39,3.537,6.383,6.125,8.971c2.587,2.589,5.576,4.631,8.972,6.124     c3.392,1.494,7.044,2.244,10.958,2.244l0.797,0.219l2.231-0.001h-1.446v-7.397h0.086c-11.165-0.807-20.418-8.604-23.393-19.029     l0.016,0.076h-6.504C137.023,105.816,137.736,108.75,138.955,111.509z"
           id="path59" /><path
           fill="#FC4A00"
           d="M190.911,95.428c0-12.307-10.013-22.32-22.319-22.32c-12.308,0-22.32,10.013-22.32,22.32     c0,12.306,10.013,22.317,22.32,22.317C180.898,117.745,190.911,107.733,190.911,95.428z"
           id="path61" /></g><path
         display="inline"
         fill="#FFFFFF"
         d="M109.115,189.796h4v-0.298c-1.325,0.106-2.659,0.182-4,0.23V189.796z"
         id="path63" /><path
         display="inline"
         fill="none"
         d="M168.592,73.108c-12.308,0-22.32,10.013-22.32,22.32c0,12.306,10.013,22.317,22.32,22.317    c12.307,0,22.319-10.012,22.319-22.317C190.911,83.121,180.898,73.108,168.592,73.108z"
         id="path65" /><polygon
         display="inline"
         fill="#FFFFFF"
         points="170.592,129.066 170.592,129.064 168.038,129.066   "
         id="polygon67" /></g></g></svg>