<svg id="New_copia_5" data-name="New copia 5" xmlns="http://www.w3.org/2000/svg" viewBox="0 0 212.74 218.21"><defs><style>.cls-1{fill:#FC4A00;}.cls-2{fill:#eee;}.cls-3{fill:#fff;}</style></defs><title>firstlife-logo-solologo</title><path class="cls-1" d="M245,134.65c0,60.26-47.62,109.1-106.37,109.1S32.28,194.9,32.28,134.65,79.9,25.54,138.65,25.54c39.49,0,74,22.07,92.31,54.85A110.76,110.76,0,0,1,245,134.65Z" transform="translate(-32.28 -25.54)"/><path class="cls-2" d="M221.86,136.95H245c0-.77,0-1.53,0-2.3s0-1.54,0-2.3H221.86V105.12a29.39,29.39,0,0,0,17-7.11c-.56-1.61-1.15-3.22-1.78-4.79a24.77,24.77,0,1,1-27.71-40.08c-1.27-1.16-2.57-2.27-3.89-3.37a29.52,29.52,0,0,0-11.8,40.12l-52.33,42.44h-.4V25.58c-.77,0-1.53,0-2.3,0l-2.3,0V132.34h-104c0,.77,0,1.53,0,2.3s0,1.54,0,2.3H135.67L76.45,185l2.9,3.58,57-46.22v64.09H67.69V211h68.65v32.7l2.3,0,2.3,0V211H214.6a108.9,108.9,0,0,0,7.26-8.42Zm-4.61,69.47H140.95V138.59l2-1.65h74.28Zm0-74.07h-68.6l47.57-38.58a29.45,29.45,0,0,0,21,11.36Z" transform="translate(-32.28 -25.54)"/><rect class="cls-2" x="135.41" y="61.24" width="4.61" height="154.02" transform="matrix(-0.63, -0.78, 0.78, -0.63, 84.8, 306.76)"/><path class="cls-3" d="M235.39,180H206.68c-19.7,0-39-14.14-39-37.79V29.65a104.32,104.32,0,0,0-97,21.09A72.15,72.15,0,0,0,60.51,67.06,61.25,61.25,0,0,0,55,92.62V202.1a107.68,107.68,0,0,0,31.32,27.57V140.46a3.57,3.57,0,0,1,3.57-3.57h28.61a3.57,3.57,0,0,0,3.57-3.57V114.87a3.57,3.57,0,0,0-3.57-3.57H89.93a3.57,3.57,0,0,1-3.57-3.57V94.65c0-23.65,19.34-37.79,39-37.79h10.92v87.42a61.25,61.25,0,0,0,5.48,25.56,71.52,71.52,0,0,0,36,36c8.07,3.65,17,5.48,28.85,5.48h7.59A109.44,109.44,0,0,0,235.39,180Z" transform="translate(-32.28 -25.54)"/></svg>