<svg id="Logo" xmlns="http://www.w3.org/2000/svg" viewBox="0 0 511.73 126.24"><defs><style>.cls-1{fill:#FC4A00;}.cls-2{fill:#fff;}</style></defs><title>firstlife-logo-soloscritta</title><path class="cls-1" d="M523.95,141.68c-15.51,0-23.69-1.77-28.49-13.19-1.76-4.18,2.2-3.67,4.15-3.67h10.18a29.28,29.28,0,0,0,20.49-8.29,27.48,27.48,0,0,0,8.53-19,28.63,28.63,0,0,0-12.94-25.09,28.2,28.2,0,0,0-16.73-4.9c-9.83,0-19.73,4.83-27.16,13.26A47.16,47.16,0,0,0,470.29,112c0,16.16,3.24,27.66,10.18,36.19,8.78,10.77,22.9,16,43.19,16,5.36,0,7.8-3.51,7.8-6.77l0-9.15C531.49,145,528.9,141.68,523.95,141.68Zm-28.42-41.6c2.42-4.6,7.94-10.87,13.93-10.87a6.63,6.63,0,0,1,4.08,1.12,6.91,6.91,0,0,1,3.18,6.26c0,3.66-4,6.32-6.64,6.32h-13C493.72,102.91,495,101.15,495.53,100.08Z" transform="translate(-27.09 -38)"/><path class="cls-2" d="M494.36,119.8h15.44c13.52,0,23.8-10.89,24-22.36a24.11,24.11,0,0,0-24.65-24.88c-17.27,0-33.83,17.66-33.83,39.48,0,25.14,8,47.17,48.35,47.17,2,0,2.78-.7,2.78-1.75l0-9.17c0-.59-.43-1.6-2.52-1.6-15.15,0-27.42-1.57-33.46-17.11C490.12,128.66,486.61,119.93,494.36,119.8Zm-5.14-15.92c0-6.12,9.33-19.69,20.24-19.69a11.62,11.62,0,0,1,6.92,2,11.9,11.9,0,0,1,5.36,10.4c0,6.69-6.42,11.34-11.67,11.34H493.64C491.39,107.93,489.21,106.63,489.21,103.88Z" transform="translate(-27.09 -38)"/><path class="cls-1" d="M472.18,51.87V66.06a4.43,4.43,0,0,1-4.43,4.43h-9.36c-10.78,0-22.24,7.52-22.24,21.45v8.18a1,1,0,0,0,1,1h16a5.38,5.38,0,0,1,5.38,5.38v9.65a5.38,5.38,0,0,1-5.38,5.38h-16a1,1,0,0,0-1,1V158.4a5.38,5.38,0,0,1-5.38,5.38H417.53a5.38,5.38,0,0,1-5.38-5.38V90.67a40.69,40.69,0,0,1,3.62-16.9,46.95,46.95,0,0,1,23.65-23.65c5.46-2.47,11.48-3.62,19-3.62h8.42A5.38,5.38,0,0,1,472.18,51.87Z" transform="translate(-27.09 -38)"/><path class="cls-2" d="M430.27,159.28a1.45,1.45,0,0,0,1.45-1.45V121.43a4.43,4.43,0,0,1,4.43-4.43h16.49a1.45,1.45,0,0,0,1.45-1.45v-8.73a1.45,1.45,0,0,0-1.45-1.45h-16.5a4.43,4.43,0,0,1-4.43-4.43V91.82a25,25,0,0,1,8.33-19A27.82,27.82,0,0,1,458.34,66h7.34a1.82,1.82,0,0,0,2.07-2V52.43a1.66,1.66,0,0,0-1.66-1.66h-7.75c-6.92,0-12.21,1-17.15,3.23a42.57,42.57,0,0,0-21.46,21.46,36.34,36.34,0,0,0-3.23,15.09v67.28a1.45,1.45,0,0,0,1.45,1.45Z" transform="translate(-27.09 -38)"/><path class="cls-1" d="M381.93,66.88h13.41a5.08,5.08,0,0,1,5.07,5.07v86.76a5.08,5.08,0,0,1-5.07,5.07H381.93a5.08,5.08,0,0,1-5.07-5.07V71.95A5.08,5.08,0,0,1,381.93,66.88Z" transform="translate(-27.09 -38)"/><path class="cls-2" d="M393.93,159.23a2.14,2.14,0,0,0,2.14-2.14V73.15A2.14,2.14,0,0,0,393.93,71h-11a2.14,2.14,0,0,0-2.14,2.14v83.94a2.14,2.14,0,0,0,2.14,2.14Z" transform="translate(-27.09 -38)"/><path class="cls-1" d="M358.89,164.1h-9.65c-8.56,0-15.46-1.32-21.71-4.15a53.78,53.78,0,0,1-27.09-27.09,46.6,46.6,0,0,1-4.15-19.36V44.16A6.16,6.16,0,0,1,302.45,38h15.16a6.16,6.16,0,0,1,6.16,6.16V112c0,16,13.13,24.58,25.48,24.58H360a5.08,5.08,0,0,1,5.08,5.07v16.25A6.16,6.16,0,0,1,358.89,164.1Z" transform="translate(-27.09 -38)"/><path class="cls-2" d="M302.92,43.15a1.66,1.66,0,0,0-1.66,1.66v68.82a41.62,41.62,0,0,0,3.7,17.29,48.76,48.76,0,0,0,24.58,24.58c5.66,2.56,11.72,3.7,19.64,3.7h8.88a1.9,1.9,0,0,0,1.9-1.9V144.06a2.09,2.09,0,0,0-2.37-2.28h-8.41a31.87,31.87,0,0,1-21-7.82,28.68,28.68,0,0,1-9.54-21.78V44.81A1.66,1.66,0,0,0,317,43.15Z" transform="translate(-27.09 -38)"/><path class="cls-1" d="M300.18,142.67a2.13,2.13,0,0,0-2.13-2.13h-8.93c-11.75,0-23.29-8.43-23.29-22.54l0-30.29A2.13,2.13,0,0,1,268,85.57H282.4a2.13,2.13,0,0,0,2.13-2.13l0-14.43a2.13,2.13,0,0,0-2.13-2.13H268a2.13,2.13,0,0,1-2.13-2.13V52a2.13,2.13,0,0,0-2.13-2.13H249.27A2.13,2.13,0,0,0,247.14,52v67.25a36.54,36.54,0,0,0,3.27,15.25,42.67,42.67,0,0,0,21.5,21.5c4.81,2.18,10.14,3.27,17.21,3.27h8.93a2.13,2.13,0,0,0,2.13-2.13Z" transform="translate(-27.09 -38)"/><path class="cls-1" d="M209.61,114.39v-6.21c0-14.11,11.54-22.54,23.29-22.54h.37a2.13,2.13,0,0,0,2.13-2.13V69.08a2.13,2.13,0,0,0-2.13-2.13h-.36c-7.07,0-12.4,1.09-17.21,3.27a42.67,42.67,0,0,0-21.5,21.5A36.54,36.54,0,0,0,190.93,107v11c0,14.11-11.54,22.54-23.29,22.54h-5.55a2.13,2.13,0,0,0-2.13,2.13v14.43a2.13,2.13,0,0,0,2.13,2.13h5.55c7.07,0,12.4-1.09,17.21-3.27a42.67,42.67,0,0,0,21.5-21.5,36.54,36.54,0,0,0,3.27-15.25Z" transform="translate(-27.09 -38)"/><path class="cls-1" d="M185.71,83.51a2.13,2.13,0,0,1-2.13,2.13h-12c-11.75,0-23.29,8.43-23.29,22.54v48.91a2.13,2.13,0,0,1-2.13,2.13H131.68a2.13,2.13,0,0,1-2.13-2.13V107a36.54,36.54,0,0,1,3.27-15.25,42.67,42.67,0,0,1,21.5-21.5c4.81-2.18,10.14-3.27,17.21-3.27h12a2.13,2.13,0,0,1,2.13,2.13Z" transform="translate(-27.09 -38)"/><path class="cls-1" d="M101.83,66.95h13.42a2.56,2.56,0,0,1,2.56,2.56v87.15a2.56,2.56,0,0,1-2.56,2.56H101.83a2.56,2.56,0,0,1-2.56-2.56V69.51A2.56,2.56,0,0,1,101.83,66.95Z" transform="translate(-27.09 -38)"/><path id="F" class="cls-1" d="M90.82,59.41A2.56,2.56,0,0,1,88.26,62H77.53c-14.12,0-28,10.13-28,27.09v9.38A2.56,2.56,0,0,0,52.1,101H72.61a2.56,2.56,0,0,1,2.56,2.56v13.22a2.56,2.56,0,0,1-2.56,2.56H52.1a2.56,2.56,0,0,0-2.56,2.56v34.77A2.56,2.56,0,0,1,47,159.22H29.65a2.56,2.56,0,0,1-2.56-2.56V87.6A43.91,43.91,0,0,1,31,69.27,51.27,51.27,0,0,1,56.85,43.44c5.78-2.62,12.18-3.93,20.68-3.93H88.26a2.56,2.56,0,0,1,2.56,2.56Z" transform="translate(-27.09 -38)"/></svg>