<?xml version="1.0" encoding="utf-8"?>
<!-- Generator: Adobe Illustrator 17.0.0, SVG Export Plug-In . SVG Version: 6.00 Build 0)  -->
<!DOCTYPE svg PUBLIC "-//W3C//DTD SVG 1.1//EN" "http://www.w3.org/Graphics/SVG/1.1/DTD/svg11.dtd">
<svg version="1.1" xmlns="http://www.w3.org/2000/svg" xmlns:xlink="http://www.w3.org/1999/xlink" x="0px" y="0px"
	 width="200.167px" height="49px" viewBox="0 0 200.167 49" enable-background="new 0 0 200.167 49" xml:space="preserve">
<g id="Layer_5">
	<g id="lettere_bianche_1_">
		<path fill="#FFFFFF" d="M181.027,13.011c-2.181,0-4.245,0.415-6.135,1.234c-1.902,0.823-3.584,1.959-4.999,3.377
			c-1.419,1.418-2.556,3.101-3.379,5.002c-0.82,1.89-1.235,3.953-1.235,6.133c0,2.182,0.415,4.245,1.234,6.133
			c0.824,1.904,1.961,3.586,3.378,5.001c1.419,1.421,3.102,2.558,5.001,3.38c1.892,0.819,3.956,1.234,6.135,1.234
			c1.91,0,3.742-0.317,5.443-0.944c1.702-0.626,3.245-1.511,4.585-2.628c1.347-1.122,2.507-2.473,3.45-4.014
			c0.726-1.187,1.284-2.466,1.665-3.813h-6.221c-0.75,1.526-1.857,2.815-3.298,3.836c-1.648,1.17-3.54,1.764-5.625,1.764
			c-1.372,0-2.68-0.261-3.886-0.774c-1.2-0.513-2.264-1.228-3.162-2.127c-0.902-0.904-1.618-1.968-2.126-3.162
			c-0.514-1.207-0.774-2.514-0.774-3.885s0.261-2.679,0.774-3.884c0.511-1.198,1.226-2.262,2.127-3.163
			c0.899-0.899,1.963-1.615,3.161-2.127c2.309-0.979,5.083-1.039,7.438-0.105c1.116,0.445,2.129,1.082,3.011,1.892l0.608,0.56
			l-3.607,5.827h8.035l2.993-4.842c-0.058-0.142-0.122-0.291-0.192-0.447c-0.599-1.378-1.393-2.655-2.365-3.807
			c-0.966-1.149-2.088-2.157-3.335-2.999c-1.237-0.835-2.607-1.492-4.071-1.956C184.199,13.245,182.641,13.011,181.027,13.011z"/>
		<path fill="#FFFFFF" d="M145.333,44.552h5.801V30.054h8.899v-4.651h-8.899v-4.349c0-1.263,0.29-2.511,0.861-3.708
			c0.557-1.169,1.3-2.221,2.208-3.125c0.895-0.899,1.946-1.642,3.12-2.204c1.202-0.573,2.449-0.863,3.71-0.863h4.55V5.355h-4.55
			c-2.081,0-4.083,0.429-5.952,1.275c-1.891,0.854-3.578,2.017-5.016,3.455c-1.44,1.439-2.604,3.127-3.458,5.018
			c-0.846,1.869-1.274,3.871-1.274,5.951v4.729l-2.579,4.271h2.579V44.552z"/>
		<rect x="130.996" y="15.595" fill="#FFFFFF" width="5.798" height="28.957"/>
		<rect x="130.996" y="5.402" fill="#FFFFFF" width="5.798" height="5.801"/>
		<path fill="#FFFFFF" d="M104.033,8.905h3.688v21.096c0,2.026,0.383,3.947,1.139,5.707c0.757,1.769,1.813,3.337,3.138,4.662
			c1.321,1.323,2.891,2.379,4.663,3.138c1.473,0.631,3.052,1.003,4.708,1.108v-0.018h4.449V38.8l-3.449,0.049
			c-1.216,0-2.374-0.238-3.441-0.708c-1.053-0.461-1.993-1.104-2.795-1.908c-0.804-0.803-1.444-1.742-1.904-2.791
			c-0.47-1.063-0.709-2.223-0.709-3.44V5.353h-4.882l0.049-0.047h-2.499L104.033,8.905z"/>
	</g>
	<g id="Layer_6">
		<g>
			<path fill="#FC4A00" d="M34.391,11.153H23.38c-1.117,0-2.208,0.256-3.277,0.765c-1.068,0.513-2.017,1.181-2.847,2.011
				c-0.829,0.829-1.499,1.778-2.011,2.848c-0.508,1.068-0.765,2.16-0.765,3.277v5.349h8.899v5.651h-8.899v14.35H6.683v-14.35h-3.35
				l3.35-5.55v-4.45c0-2.232,0.453-4.353,1.363-6.363c0.909-2.011,2.129-3.781,3.66-5.313c1.531-1.53,3.302-2.75,5.312-3.659
				c2.008-0.909,4.13-1.364,6.361-1.364h11.011V11.153z"/>
		</g>
		<g>
			<path fill="#FC4A00" d="M27.591,13.374h6.8v32.03h-6.8V13.374z"/>
		</g>
		<g>
			<path fill="#FC4A00" d="M55.773,19.101c-0.56-0.097-1.109-0.146-1.652-0.146c-1.117,0-2.153,0.204-3.111,0.607
				c-0.955,0.403-1.777,0.96-2.463,1.671c-0.687,0.71-1.228,1.549-1.627,2.519c-0.398,0.969-0.599,2.02-0.599,3.149v18.556
				l-6.847-0.052V17.726h-4.449l3.35-5.668h1.1h3.497h3.35v2.277c0.542-0.292,1.149-0.573,1.819-0.848
				c0.669-0.274,1.355-0.515,2.057-0.727c0.703-0.21,1.387-0.379,2.058-0.506c0.671-0.131,1.292-0.196,1.866-0.196
				c1.691,0,3.325,0.283,4.904,0.848c0.035,0.013,0.166,0.068,0.349,0.148L55.773,19.101z"/>
		</g>
		<g>
			<path fill="#FC4A00" d="M67.706,12.058h0.047h0.239h11.962v6.799H67.895l0,0c-2.041,0.018-3.404,1.403-3.404,3.073
				s1.396,2.945,3.066,2.945l2.395,0.006c1.371,0.064,2.655,0.377,3.853,0.934c1.195,0.559,2.238,1.3,3.133,2.225
				c0.894,0.925,1.596,2.003,2.106,3.231c0.511,1.228,0.767,2.528,0.767,3.899c0,1.404-0.257,2.711-0.767,3.924
				c-0.51,1.212-1.212,2.28-2.106,3.205c-0.894,0.926-1.937,1.668-3.133,2.225c-1.197,0.559-2.482,0.869-3.853,0.934h-0.24h-0.237
				H57.704v-6.799l11.607,0.007c1.86,0,3.368-1.508,3.368-3.368c0-1.86-1.508-3.368-3.368-3.368l0,0c0,0-3.644-0.038-5.531-0.971
				c-1.196-0.592-2.266-1.299-3.158-2.225c-0.894-0.924-1.603-2.002-2.13-3.231c-0.525-1.226-0.789-2.543-0.789-3.947
				c0-0.829,0.104-1.642,0.312-2.44c0.206-0.797,0.485-1.547,0.837-2.25C58.851,16.865,61.438,11.958,67.706,12.058z"/>
		</g>
		<g>
			<path fill="#FC4A00" d="M88.659,30.954V18.952h15.498v-6.895l-15.498,0V4.355h-2.255h-5.645l-3.302,5.598h4.353v20.002
				l0.043,5.304c0,5.691,5.079,10.258,11.344,10.258l3.261,0.036h6.698v-6.847h-7.698c0,0-3.032,0.315-5.12-1.153
				C88.25,36.083,88.659,30.954,88.659,30.954z"/>
		</g>
		<g>
			<path fill="#FC4A00" d="M122.368,46.649c-2.294,0-4.479-0.438-6.495-1.303c-2.009-0.859-3.788-2.058-5.291-3.561
				c-1.506-1.506-2.704-3.285-3.561-5.288c-0.863-2.01-1.301-4.195-1.301-6.495V10.905h-5.213l4.544-7.6h8.606l-0.049,0.047h1.909
				v26.648c0,0.938,0.182,1.824,0.54,2.635c0.359,0.822,0.86,1.556,1.489,2.183c0.626,0.629,1.36,1.13,2.183,1.491
				c0.659,0.29,1.343,0.461,2.075,0.518l0.563-0.027h5.449v9.799L122.368,46.649z M104.033,8.905h3.688v21.096
				c0,2.026,0.383,3.947,1.139,5.707c0.757,1.769,1.813,3.337,3.138,4.662c1.321,1.323,2.891,2.379,4.663,3.138
				c1.473,0.631,3.052,1.003,4.708,1.108v-0.018h4.449V38.8l-3.449,0.049c-1.216,0-2.374-0.238-3.441-0.708
				c-1.053-0.461-1.993-1.104-2.795-1.908c-0.804-0.803-1.444-1.742-1.904-2.791c-0.47-1.063-0.709-2.223-0.709-3.44V5.353h-4.882
				l0.049-0.047h-2.499L104.033,8.905z"/>
		</g>
		<g>
			<path fill="#FC4A00" d="M138.794,46.552h-9.798V13.595h9.798V46.552z M130.996,44.552h5.798V15.595h-5.798V44.552z
				 M138.794,13.203h-9.798V3.402h9.798V13.203z M130.996,11.203h5.798V5.402h-5.798V11.203z"/>
		</g>
		<g>
			<path fill="#FC4A00" d="M153.133,46.552h-9.801V32.054h-4.122l4.122-6.828v-4.172c0-2.366,0.488-4.645,1.452-6.775
				c0.953-2.111,2.255-3.998,3.866-5.608c1.608-1.608,3.494-2.908,5.605-3.862c2.129-0.964,4.409-1.453,6.776-1.453h6.55v9.799
				h-6.55c-0.96,0-1.918,0.225-2.847,0.667c-0.967,0.464-1.832,1.074-2.569,1.814c-0.748,0.745-1.358,1.61-1.817,2.572
				c-0.441,0.927-0.666,1.884-0.666,2.847v2.349h8.899v8.651h-8.899V46.552z M145.333,44.552h5.801V30.054h8.899v-4.651h-8.899
				v-4.349c0-1.263,0.29-2.511,0.861-3.708c0.557-1.169,1.3-2.221,2.208-3.125c0.895-0.899,1.946-1.642,3.12-2.204
				c1.202-0.573,2.449-0.863,3.71-0.863h4.55V5.355h-4.55c-2.081,0-4.083,0.429-5.952,1.275c-1.891,0.854-3.578,2.017-5.016,3.455
				c-1.44,1.439-2.604,3.127-3.458,5.018c-0.846,1.869-1.274,3.871-1.274,5.951v4.729l-2.579,4.271h2.579V44.552z"/>
		</g>
		<g>
			<path fill="#FC4A00" d="M181.027,46.505c-2.453,0-4.785-0.471-6.93-1.398c-2.132-0.924-4.022-2.202-5.62-3.801
				c-1.596-1.594-2.874-3.484-3.799-5.62c-0.929-2.141-1.399-4.472-1.399-6.929c0-2.455,0.471-4.786,1.4-6.928
				c0.923-2.134,2.201-4.025,3.799-5.621c1.594-1.597,3.484-2.874,5.619-3.799c2.143-0.928,4.474-1.398,6.93-1.398
				c1.819,0,3.58,0.266,5.231,0.789c1.646,0.521,3.189,1.263,4.586,2.204c1.402,0.946,2.662,2.079,3.746,3.368
				c1.098,1.299,1.994,2.742,2.665,4.287c0.169,0.374,0.309,0.724,0.414,1.039l0.145,0.433l-0.997,1.685l-3.082,4.941h-12.734
				l4.603-7.437c-0.541-0.402-1.133-0.732-1.765-0.984c-1.865-0.739-4.093-0.687-5.915,0.088c-0.96,0.409-1.811,0.982-2.53,1.7
				c-0.719,0.72-1.292,1.571-1.701,2.532c-0.407,0.957-0.614,2-0.614,3.101c0,1.101,0.207,2.144,0.614,3.101
				c0.408,0.958,0.98,1.81,1.702,2.531c0.716,0.718,1.567,1.29,2.531,1.701c0.956,0.407,1.999,0.614,3.101,0.614
				c1.686,0,3.146-0.456,4.468-1.394c1.338-0.948,2.281-2.121,2.885-3.586l0.255-0.619h10.026l-0.24,1.196
				c-0.405,2.021-1.148,3.927-2.209,5.661c-1.058,1.729-2.361,3.244-3.875,4.506c-1.517,1.264-3.258,2.263-5.175,2.969
				C185.238,46.146,183.174,46.505,181.027,46.505z M181.027,13.011c-2.181,0-4.245,0.415-6.135,1.234
				c-1.902,0.823-3.584,1.959-4.999,3.377c-1.419,1.418-2.556,3.101-3.379,5.002c-0.82,1.89-1.235,3.953-1.235,6.133
				c0,2.182,0.415,4.245,1.234,6.133c0.824,1.904,1.961,3.586,3.378,5.001c1.419,1.421,3.102,2.558,5.001,3.38
				c1.892,0.819,3.956,1.234,6.135,1.234c1.91,0,3.742-0.317,5.443-0.944c1.702-0.626,3.245-1.511,4.585-2.628
				c1.347-1.122,2.507-2.473,3.45-4.014c0.726-1.187,1.284-2.466,1.665-3.813h-6.221c-0.75,1.526-1.857,2.815-3.298,3.836
				c-1.648,1.17-3.54,1.764-5.625,1.764c-1.372,0-2.68-0.261-3.886-0.774c-1.2-0.513-2.264-1.228-3.162-2.127
				c-0.902-0.904-1.618-1.968-2.126-3.162c-0.514-1.207-0.774-2.514-0.774-3.885s0.261-2.679,0.774-3.884
				c0.511-1.198,1.226-2.262,2.127-3.163c0.899-0.899,1.963-1.615,3.161-2.127c2.309-0.979,5.083-1.039,7.438-0.105
				c1.116,0.445,2.129,1.082,3.011,1.892l0.608,0.56l-3.607,5.827h8.035l2.993-4.842c-0.058-0.142-0.122-0.291-0.192-0.447
				c-0.599-1.378-1.393-2.655-2.365-3.807c-0.966-1.149-2.088-2.157-3.335-2.999c-1.237-0.835-2.607-1.492-4.071-1.956
				C184.199,13.245,182.641,13.011,181.027,13.011z"/>
		</g>
		<line fill="none" x1="79.799" y1="35.623" x2="79.799" y2="35.623"/>
	</g>
</g>
<g id="Layer_9">
	<g id="Layer_11">
	</g>
	<g id="Layer_8">
	</g>
	<g id="Layer_10">
	</g>
</g>
<g id="Layer_4" display="none">
	<g id="fondo_bianco">
	</g>
	<g id="lettere_bianche">
		<path display="inline" fill="#FFFFFF" d="M166.258-70.435L166.258-70.435l-2.554,0.001l-2.232,0.001l-0.797-0.219
			c-3.914,0-7.566-0.75-10.958-2.244c-3.396-1.493-6.385-3.535-8.972-6.124c-2.588-2.588-4.631-5.581-6.125-8.971
			c-1.219-2.759-1.932-5.692-2.159-8.794c-0.052-0.714-0.087-1.434-0.087-2.166v-1.834v-14.378v-3.791v-28.829v-38.096
			c-9.656-3.5-20.074-5.412-30.94-5.412c-12.972,0-25.305,2.726-36.466,7.627c-3.954,2.514-7.602,5.427-10.931,8.755
			c-3.156,3.156-5.934,6.604-8.357,10.323c-0.708,1.086-1.393,2.19-2.038,3.325c-1.011,1.777-1.949,3.61-2.806,5.505
			c-3.279,7.247-4.92,14.9-4.92,22.952v16.046l-9.639,15.973l-2.414,4l-0.025,0.042h12.078l-0.345,50.349l-0.027,4l-0.029,4.329
			c7.896,8.333,17.354,15.167,27.907,20.039l0.192-24.368l0.031-4l0.396-50.349h32.099v-0.042v-4v-19.941H64.045v-12.078
			c0-4.027,0.921-7.965,2.762-11.82c0.592-1.242,1.267-2.423,1.979-3.575c0.662-1.071,1.381-2.101,2.147-3.095
			c0.967-1.254,1.988-2.467,3.12-3.599c2.99-2.99,6.414-5.405,10.27-7.246c3.852-1.839,7.791-2.761,11.82-2.761h8.106v31.142v3.983
			v28.99v1.834c0,0.728,0.025,1.447,0.051,2.166c0.068,1.937,0.229,3.843,0.481,5.718c0.662,4.916,1.943,9.625,3.87,14.117
			c0.041,0.097,0.088,0.189,0.13,0.285c2.924,6.724,6.899,12.613,11.947,17.661c5.12,5.118,11.103,9.145,17.944,12.077
			c0.441,0.189,0.891,0.355,1.337,0.532c6.462,2.567,13.348,3.867,20.666,3.867v-0.17l10.696,0.099
			c1.024-1.235,2.004-2.507,2.963-3.796c5.396-7.262,9.744-15.35,12.796-24.05L166.258-70.435z"/>
		<path display="inline" fill="#FFFFFF" d="M166.258-70.435L166.258-70.435l-2.554,0.001l-2.232,0.001l-0.797-0.219
			c-3.914,0-7.566-0.75-10.958-2.244c-3.396-1.493-6.385-3.535-8.972-6.124c-2.588-2.588-4.631-5.581-6.125-8.971
			c-1.219-2.759-1.932-5.692-2.159-8.794c-0.052-0.714-0.087-1.434-0.087-2.166v-1.834v-14.378v-3.791v-28.829v-38.096
			c-9.656-3.5-20.074-5.412-30.94-5.412c-12.972,0-25.305,2.726-36.466,7.627c-3.954,2.514-7.602,5.427-10.931,8.755
			c-3.156,3.156-5.934,6.604-8.357,10.323c-0.708,1.086-1.393,2.19-2.038,3.325c-1.011,1.777-1.949,3.61-2.806,5.505
			c-3.279,7.247-4.92,14.9-4.92,22.952v16.046l-9.639,15.973l-2.414,4l-0.025,0.042h12.078l-0.345,50.349l-0.027,4l-0.029,4.329
			c7.896,8.333,17.354,15.167,27.907,20.039l0.192-24.368l0.031-4l0.396-50.349h32.099v-0.042v-4v-19.941H64.045v-12.078
			c0-4.027,0.921-7.965,2.762-11.82c0.592-1.242,1.267-2.423,1.979-3.575c0.662-1.071,1.381-2.101,2.147-3.095
			c0.967-1.254,1.988-2.467,3.12-3.599c2.99-2.99,6.414-5.405,10.27-7.246c3.852-1.839,7.791-2.761,11.82-2.761h8.106v31.142v3.983
			v28.99v1.834c0,0.728,0.025,1.447,0.051,2.166c0.068,1.937,0.229,3.843,0.481,5.718c0.662,4.916,1.943,9.625,3.87,14.117
			c0.041,0.097,0.088,0.189,0.13,0.285c2.924,6.724,6.899,12.613,11.947,17.661c5.12,5.118,11.103,9.145,17.944,12.077
			c0.441,0.189,0.891,0.355,1.337,0.532c6.462,2.567,13.348,3.867,20.666,3.867v-0.17l10.696,0.099
			c1.024-1.235,2.004-2.507,2.963-3.796c5.396-7.262,9.744-15.35,12.796-24.05L166.258-70.435z"/>
	</g>
	<g id="Livello_1">
		<g display="inline">
			<path fill="#FC4A00" d="M10.734-96.785c0.759,18.849,7.268,36.206,17.814,50.391h7.025v-50.391H10.734z"/>
			<path fill="#FC4A00" d="M40.17-167.487l5.513,2.901c2.424-3.719,5.201-7.167,8.357-10.323c3.329-3.328,6.977-6.241,10.931-8.755
				C55.811-179.642,47.449-174.146,40.17-167.487z"/>
			<path fill="#FC4A00" d="M35.517-38.066l0.029-4.329h-3.848C32.932-40.916,34.194-39.462,35.517-38.066z"/>
			<path fill="#FC4A00" d="M10.649-100.785H26.28l9.639-15.973v-16.046c0-8.052,1.641-15.705,4.92-22.952
				c0.856-1.895,1.795-3.728,2.806-5.505l-6.462-3.357C20.853-148.258,10.726-125.709,10.649-100.785z"/>
			<path fill="#FC4A00" d="M64.045-120.726h32.099v19.941h8.106v-28.99L68.786-148.2c-0.713,1.152-1.388,2.333-1.979,3.575
				c-1.841,3.855-2.762,7.793-2.762,11.82V-120.726z"/>
			<path fill="#FC4A00" d="M104.3-96.785c0.068,1.937,0.229,3.843,0.481,5.718v44.672H63.648v-50.391H104.3z"/>
			<path fill="#FC4A00" d="M108.782-10.002c25.051-2.006,47.231-14.179,62.417-32.392h-62.417V-10.002z"/>
			<path fill="#FC4A00" d="M138.673-46.927c-6.842-2.933-12.824-6.959-17.944-12.077c-5.048-5.048-9.023-10.937-11.947-17.661
				v30.271h31.229C139.564-46.571,139.115-46.737,138.673-46.927z"/>
			<path fill="#FC4A00" d="M104.25-164.9h-8.106c-4.029,0-7.969,0.922-11.82,2.761c-3.855,1.841-7.279,4.256-10.27,7.246
				c-1.132,1.132-2.153,2.345-3.12,3.599l33.316,17.536V-164.9z"/>
			<path fill="#FC4A00" d="M63.424-18.027c11.563,5.339,24.438,8.323,38.012,8.323c1.121,0,2.234-0.028,3.346-0.068v-32.623H63.617
				L63.424-18.027z"/>
			<path fill="#FC4A00" d="M166.258-164.055v33.74h-0.08c13.619,0.988,24.399,12.376,24.399,26.242
				c0,13.867-10.784,25.255-24.405,26.24h0.086v7.396l20.873-0.009c3.299-9.407,5.099-19.519,5.099-30.052
				C192.23-125.247,182.32-147.678,166.258-164.055z"/>
			<path fill="#FC4A00" d="M140.214-114.758c3.859-8.649,12.248-14.845,22.137-15.558h-0.092v-37.575
				c-8.624-7.787-18.742-13.951-29.883-17.988v38.096v28.829l7.86,4.137L140.214-114.758z"/>
			<path fill="#FC4A00" d="M138.16-100.713c-0.141-1.101-0.222-2.221-0.222-3.359c0-2.661,0.4-5.229,1.138-7.652l-0.013,0.035
				l-6.687-3.474v14.378h5.769L138.16-100.713z"/>
			<path fill="#FC4A00" d="M134.622-87.991c1.494,3.39,3.537,6.383,6.125,8.971c2.587,2.589,5.576,4.631,8.972,6.124
				c3.392,1.494,7.044,2.244,10.958,2.244l0.797,0.219l2.232-0.001h-1.446v-7.397h0.086c-11.165-0.807-20.418-8.604-23.394-19.029
				l0.016,0.076h-6.504C132.69-93.684,133.403-90.75,134.622-87.991z"/>
			<path fill="#FC4A00" d="M186.578-104.072c0-12.307-10.013-22.32-22.319-22.32c-12.308,0-22.32,10.013-22.32,22.32
				c0,12.306,10.013,22.317,22.32,22.317C176.565-81.755,186.578-91.767,186.578-104.072z"/>
		</g>
		<path display="inline" fill="#FFFFFF" d="M104.782-9.704h4v-0.298c-1.325,0.106-2.659,0.182-4,0.23V-9.704z"/>
		<path display="inline" fill="none" d="M164.258-126.392c-12.308,0-22.32,10.013-22.32,22.32c0,12.306,10.013,22.317,22.32,22.317
			c12.307,0,22.319-10.012,22.319-22.317C186.578-116.379,176.565-126.392,164.258-126.392z"/>
		<polygon display="inline" fill="#FFFFFF" points="166.258,-70.434 166.258,-70.435 163.705,-70.434 		"/>
	</g>
</g>
</svg>
