<svg id="Livello_3" data-name="Livello 3" xmlns="http://www.w3.org/2000/svg" xmlns:xlink="http://www.w3.org/1999/xlink" viewBox="0 0 771.88 256.51"><defs><style>.cls-1{fill:none;}.cls-2{clip-path:url(#clip-path);}.cls-3{fill:#fc4a00;}.cls-4{fill:#58595b;}.cls-5{fill:#eee;}.cls-6{fill:#fff;}</style><clipPath id="clip-path" transform="translate(56.96 -3.08)"><path class="cls-1" d="M155.26,99.61c0,44-34.76,79.63-77.63,79.63S0,143.59,0,99.61,34.76,20,77.63,20c28.82,0,54,16.11,67.37,40A80.84,80.84,0,0,1,155.26,99.61Z"/></clipPath></defs><title>firstlife-logo-orizzontale</title><g class="cls-2"><path class="cls-3" d="M155.26,99.61c0,44-34.76,79.63-77.63,79.63S0,143.59,0,99.61,34.76,20,77.63,20c28.82,0,54,16.11,67.37,40A80.84,80.84,0,0,1,155.26,99.61Z" transform="translate(56.96 -3.08)"/><rect class="cls-4" x="132.91" width="3.36" height="256.51"/><rect class="cls-4" x="48.44" y="-7.47" width="3.36" height="214.17" transform="translate(7.47 146.66) rotate(-90)"/><rect class="cls-4" x="75.27" y="46.04" width="3.36" height="112.41" transform="translate(102.97 223.34) rotate(-129.04)"/><rect class="cls-4" x="90.26" y="87.58" width="3.36" height="132.18" transform="translate(-4.77 242.53) rotate(-90)"/><rect class="cls-4" x="191.96" y="71.6" width="3.36" height="106.33"/><path class="cls-4" d="M136.68,35.07a21.53,21.53,0,1,0,21.53,21.53A21.53,21.53,0,0,0,136.68,35.07Zm0,39.61a18.08,18.08,0,1,1,18.08-18.08A18.08,18.08,0,0,1,136.68,74.68Z" transform="translate(56.96 -3.08)"/><rect class="cls-5" x="132.91" width="3.36" height="256.51"/><rect class="cls-5" x="48.44" y="-7.47" width="3.36" height="214.17" transform="translate(7.47 146.66) rotate(-90)"/><rect class="cls-5" x="75.27" y="46.04" width="3.36" height="112.41" transform="translate(102.97 223.34) rotate(-129.04)"/><rect class="cls-5" x="90.26" y="87.58" width="3.36" height="132.18" transform="translate(-4.77 242.53) rotate(-90)"/><rect class="cls-5" x="191.96" y="71.6" width="3.36" height="106.33"/><path class="cls-5" d="M136.68,35.07a21.53,21.53,0,1,0,21.53,21.53A21.53,21.53,0,0,0,136.68,35.07Zm0,39.61a18.08,18.08,0,1,1,18.08-18.08A18.08,18.08,0,0,1,136.68,74.68Z" transform="translate(56.96 -3.08)"/><path id="L" class="cls-6" d="M157.44,135.35a2.61,2.61,0,0,0-2.61-2.61H127.29c-14.38,0-28.49-10.32-28.49-27.58V16.37a2.61,2.61,0,0,0-2.61-2.61H78.54a2.61,2.61,0,0,0-2.61,2.61v90.28a44.7,44.7,0,0,0,4,18.65,52.2,52.2,0,0,0,26.3,26.3c5.89,2.67,12.4,4,21.05,4h27.55a2.61,2.61,0,0,0,2.61-2.61Z" transform="translate(56.96 -3.08)"/><path id="F" class="cls-6" d="M81.5,40.24a2.61,2.61,0,0,1-2.61,2.61H68c-14.38,0-28.49,10.32-28.49,27.58V80a2.61,2.61,0,0,0,2.61,2.61H63a2.61,2.61,0,0,1,2.61,2.61V98.64A2.61,2.61,0,0,1,63,101.25H42.08a2.61,2.61,0,0,0-2.61,2.61v72.78a2.61,2.61,0,0,1-2.61,2.61H19.22a2.61,2.61,0,0,1-2.61-2.61V68.94a44.7,44.7,0,0,1,4-18.65A52.2,52.2,0,0,1,46.91,24c5.89-2.67,12.4-4,21.05-4H78.89a2.61,2.61,0,0,1,2.61,2.61Z" transform="translate(56.96 -3.08)"/></g><path class="cls-3" d="M699.78,141.49c-15.79,0-24.12-1.8-29-13.43-1.79-4.25,2.24-3.74,4.23-3.74h10.37a29.81,29.81,0,0,0,20.86-8.44,28,28,0,0,0,8.68-19.34A29.15,29.15,0,0,0,701.74,71a28.71,28.71,0,0,0-17-5c-10,0-20.09,4.92-27.65,13.5a48,48,0,0,0-11.9,31.81c0,16.45,3.29,28.16,10.37,36.84,8.93,11,23.32,16.3,44,16.3,5.46,0,7.94-3.57,7.94-6.89l0-9.31C707.46,144.88,704.83,141.49,699.78,141.49ZM670.85,99.14c2.46-4.68,8.09-11.07,14.18-11.07a6.75,6.75,0,0,1,4.15,1.14,7,7,0,0,1,3.24,6.37c0,3.73-4,6.43-6.76,6.43H672.48C669,102,670.28,100.22,670.85,99.14Z" transform="translate(56.96 -3.08)"/><path class="cls-6" d="M669.66,119.21h15.71c13.76,0,24.23-11.08,24.43-22.76a24.55,24.55,0,0,0-25.09-25.33c-17.59,0-34.44,18-34.44,40.19,0,25.59,8.18,48,49.22,48,2,0,2.83-.71,2.83-1.78l0-9.33c0-.6-.43-1.63-2.57-1.63-15.42,0-27.92-1.6-34.07-17.42C665.35,128.23,661.77,119.35,669.66,119.21ZM664.42,103c0-6.23,9.5-20,20.61-20a11.83,11.83,0,0,1,7,2,12.12,12.12,0,0,1,5.46,10.59c0,6.81-6.54,11.55-11.88,11.55H668.93C666.64,107.13,664.42,105.8,664.42,103Z" transform="translate(56.96 -3.08)"/><path class="cls-3" d="M647.08,50.06V64.5A4.51,4.51,0,0,1,642.57,69H633c-11,0-22.64,7.66-22.64,21.84v8.32a1,1,0,0,0,1,1H627.7a5.47,5.47,0,0,1,5.47,5.47v9.82a5.47,5.47,0,0,1-5.47,5.47H611.4a1,1,0,0,0-1,1v36.56a5.47,5.47,0,0,1-5.47,5.47H591.44a5.47,5.47,0,0,1-5.47-5.47v-69a41.42,41.42,0,0,1,3.69-17.2,47.8,47.8,0,0,1,24.08-24.07c5.56-2.52,11.69-3.69,19.3-3.69h8.57A5.47,5.47,0,0,1,647.08,50.06Z" transform="translate(56.96 -3.08)"/><path class="cls-6" d="M604.41,159.41a1.47,1.47,0,0,0,1.47-1.47V120.87a4.51,4.51,0,0,1,4.51-4.51h16.79a1.48,1.48,0,0,0,1.48-1.48V106a1.47,1.47,0,0,0-1.47-1.47h-16.8a4.51,4.51,0,0,1-4.51-4.51V90.73a25.49,25.49,0,0,1,8.48-19.36,28.33,28.33,0,0,1,18.63-7h7.47a1.85,1.85,0,0,0,2.11-2V50.62a1.69,1.69,0,0,0-1.69-1.69H633c-7,0-12.43,1-17.46,3.29a43.34,43.34,0,0,0-21.85,21.85,37,37,0,0,0-3.29,15.36v68.5a1.47,1.47,0,0,0,1.47,1.47Z" transform="translate(56.96 -3.08)"/><path class="cls-3" d="M555.19,65.34h13.66A5.17,5.17,0,0,1,574,70.5v88.33a5.17,5.17,0,0,1-5.16,5.16H555.19a5.17,5.17,0,0,1-5.16-5.16V70.5A5.17,5.17,0,0,1,555.19,65.34Z" transform="translate(56.96 -3.08)"/><path class="cls-6" d="M567.42,159.35a2.17,2.17,0,0,0,2.17-2.17V71.72a2.18,2.18,0,0,0-2.17-2.17H556.23a2.17,2.17,0,0,0-2.17,2.17v85.46a2.17,2.17,0,0,0,2.17,2.17Z" transform="translate(56.96 -3.08)"/><path class="cls-3" d="M531.74,164.31h-9.82c-8.71,0-15.74-1.34-22.11-4.23a54.75,54.75,0,0,1-27.58-27.58A47.45,47.45,0,0,1,468,112.8V42.2a6.27,6.27,0,0,1,6.27-6.27h15.44A6.27,6.27,0,0,1,496,42.2v69.12c0,16.25,13.36,25,25.94,25h10.92A5.17,5.17,0,0,1,538,141.5V158A6.27,6.27,0,0,1,531.74,164.31Z" transform="translate(56.96 -3.08)"/><path class="cls-6" d="M474.75,41.18a1.69,1.69,0,0,0-1.69,1.69v70.07a42.37,42.37,0,0,0,3.77,17.6,49.64,49.64,0,0,0,25,25c5.76,2.61,11.93,3.77,20,3.77h9a1.94,1.94,0,0,0,1.94-1.94V143.91a2.12,2.12,0,0,0-2.41-2.32h-8.56a32.45,32.45,0,0,1-21.34-8,29.2,29.2,0,0,1-9.71-22.17V42.87a1.69,1.69,0,0,0-1.69-1.69Z" transform="translate(56.96 -3.08)"/><path class="cls-3" d="M472,142.5a2.17,2.17,0,0,0-2.17-2.17h-9.09c-12,0-23.71-8.59-23.71-23l0-30.84a2.17,2.17,0,0,1,2.17-2.17h14.67A2.17,2.17,0,0,0,456,82.2l0-14.7a2.17,2.17,0,0,0-2.17-2.17H439.16A2.17,2.17,0,0,1,437,63.17v-13A2.17,2.17,0,0,0,434.83,48H420.14A2.17,2.17,0,0,0,418,50.15v68.46a37.2,37.2,0,0,0,3.33,15.53A43.44,43.44,0,0,0,443.19,156c4.9,2.22,10.32,3.33,17.52,3.33h9.09a2.17,2.17,0,0,0,2.17-2.17Z" transform="translate(56.96 -3.08)"/><path class="cls-3" d="M379.76,113.71v-6.33c0-14.36,11.75-23,23.71-23h.37A2.17,2.17,0,0,0,406,82.26V67.58a2.17,2.17,0,0,0-2.17-2.17h-.37c-7.2,0-12.62,1.11-17.52,3.33a43.44,43.44,0,0,0-21.89,21.89,37.2,37.2,0,0,0-3.33,15.53v11.23c0,14.36-11.75,23-23.71,23h-5.65a2.17,2.17,0,0,0-2.17,2.17v14.69a2.17,2.17,0,0,0,2.17,2.17H337c7.2,0,12.62-1.11,17.52-3.33a43.44,43.44,0,0,0,21.89-21.89,37.2,37.2,0,0,0,3.33-15.53Z" transform="translate(56.96 -3.08)"/><path class="cls-3" d="M355.42,82.26a2.17,2.17,0,0,1-2.17,2.17H341c-12,0-23.71,8.59-23.71,23v49.8a2.17,2.17,0,0,1-2.17,2.17H300.42a2.17,2.17,0,0,1-2.17-2.17v-51a37.2,37.2,0,0,1,3.33-15.53,43.44,43.44,0,0,1,21.89-21.89c4.9-2.22,10.32-3.33,17.52-3.33h12.26a2.17,2.17,0,0,1,2.17,2.17Z" transform="translate(56.96 -3.08)"/><path class="cls-3" d="M270,65.41h13.66A2.61,2.61,0,0,1,286.3,68v88.73a2.61,2.61,0,0,1-2.61,2.61H270a2.61,2.61,0,0,1-2.61-2.61V68A2.61,2.61,0,0,1,270,65.41Z" transform="translate(56.96 -3.08)"/><path id="F-2" data-name="F" class="cls-3" d="M258.82,57.73a2.61,2.61,0,0,1-2.61,2.61H245.28c-14.38,0-28.49,10.32-28.49,27.58v9.55a2.61,2.61,0,0,0,2.61,2.61h20.88a2.61,2.61,0,0,1,2.61,2.61v13.46a2.61,2.61,0,0,1-2.61,2.61H219.4a2.61,2.61,0,0,0-2.61,2.61v35.4a2.61,2.61,0,0,1-2.61,2.61H196.54a2.61,2.61,0,0,1-2.61-2.61V86.43a44.7,44.7,0,0,1,4-18.65,52.2,52.2,0,0,1,26.3-26.3c5.89-2.67,12.4-4,21.05-4h10.93a2.61,2.61,0,0,1,2.61,2.61Z" transform="translate(56.96 -3.08)"/></svg>