<svg xmlns="http://www.w3.org/2000/svg" viewBox="0 0 1275.59 1275.59"><defs><style>.cls-1{fill:transparent;}.cls-2{fill:#fc4a00;}.cls-3{fill:#00796b;}</style></defs><title>icone-tutorial</title><g id="Base"><rect class="cls-1" width="1275.59" height="1275.59" rx="113.39" ry="113.39"/></g><g id="Livello_4" data-name="Livello 4"><g id="gnammy"><path class="cls-2" d="M881.2,1245.78H591.43c-59.89,0-238.09,32.52-238.09,32.52S400.65,1100,400.65,1055V868.85c0-104.93,85.85-190.78,190.78-190.78H881.2c104.93,0,190.78,85.85,190.78,190.78V1055C1072,1159.93,986.13,1245.78,881.2,1245.78Z" transform="translate(-70.87 -70.87)"/></g><circle class="cls-1" cx="640.69" cy="359.63" r="33.55"/><path class="cls-3" d="M710.21,464.78V620.33h76.38c0-43.84,10.59-107.26,54.05-150.73,104.83-104.83,59.42-325.15-130.43-325.15" transform="translate(-70.87 -70.87)"/><path class="cls-3" d="M715.12,464.78V620.33H638.73c0-43.84-10.59-107.26-54.05-150.73C479.85,364.76,525.26,144.44,715.12,144.44" transform="translate(-70.87 -70.87)"/><circle class="cls-1" cx="642.9" cy="359.63" r="33.55"/><rect class="cls-1" x="630.95" y="387.54" width="16.79" height="161.92"/></g></svg>