<svg xmlns="http://www.w3.org/2000/svg" viewBox="0 0 128.72 128.72"><defs><style>.cls-1{fill:#fff;}.cls-2{fill:#3ccc66;}.cls-3{fill:none;stroke:#fff;stroke-linecap:round;stroke-linejoin:round;stroke-width:5px;}</style></defs><title>Icon6_edu_sfondo</title><g id="Edu"><rect class="cls-1" width="128.72" height="128.72" rx="10.68" ry="10.68"/><circle class="cls-2" cx="104.11" cy="72.13" r="10.91" transform="translate(-23.54 102.56) rotate(-51.67)"/><path class="cls-2" d="M101,58.29a14.14,14.14,0,0,1,10.79,2l23.4-29.49V17.18A10.71,10.71,0,0,0,124.55,6.51H101Z" transform="translate(-6.51 -6.51)"/><path class="cls-2" d="M113.3,82.92l21.93,17.39V36.23L114.43,62.44a14.15,14.15,0,0,1-1.14,20.48Z" transform="translate(-6.51 -6.51)"/><path class="cls-2" d="M60.91,41.36,88.55,6.51H17Z" transform="translate(-6.51 -6.51)"/><path class="cls-2" d="M110.28,84.87A14.16,14.16,0,0,1,97,84.38l-19.4,24.46L75,106.73,94.3,82.35A14.16,14.16,0,0,1,90.3,69L61.46,46.14l-22.21,28L36.58,72,58.79,44,12.74,7.49a10.7,10.7,0,0,0-6.23,9.69V124.55a10.71,10.71,0,0,0,10.68,10.68H124.55a10.71,10.71,0,0,0,10.68-10.68v-19.9Z" transform="translate(-6.51 -6.51)"/><path class="cls-2" d="M63.57,43.47,91.51,65.64a14,14,0,0,1,6.13-6.11v-53H92.89Z" transform="translate(-6.51 -6.51)"/><path class="cls-3" d="M41.34,104.27a142.17,142.17,0,0,1,70,18.77" transform="translate(-6.51 -6.51)"/><path class="cls-3" d="M41.34,104.27A142.17,142.17,0,0,0,23.4,34.07" transform="translate(-6.51 -6.51)"/></g></svg>