<?xml version="1.0" encoding="utf-8"?>
<!-- Generator: Adobe Illustrator 16.0.0, SVG Export Plug-In . SVG Version: 6.00 Build 0)  -->
<!DOCTYPE svg PUBLIC "-//W3C//DTD SVG 1.1//EN" "http://www.w3.org/Graphics/SVG/1.1/DTD/svg11.dtd">
<svg version="1.1" id="Layer_1" xmlns="http://www.w3.org/2000/svg" xmlns:xlink="http://www.w3.org/1999/xlink" x="0px" y="0px"
	 width="1417.32px" height="1417.32px" viewBox="0 0 1417.32 1417.32" enable-background="new 0 0 1417.32 1417.32"
	 xml:space="preserve">
<g>
	<defs>
		<rect id="SVGID_1_" y="-0.003" width="1417.323" height="1417.323"/>
	</defs>
	<clipPath id="SVGID_2_">
		<use xlink:href="#SVGID_1_"  overflow="visible"/>
	</clipPath>
</g>
<g>
	<defs>
		<rect id="SVGID_3_" y="-0.003" width="1417.323" height="1417.323"/>
	</defs>
	<clipPath id="SVGID_4_">
		<use xlink:href="#SVGID_3_"  overflow="visible"/>
	</clipPath>
</g>
<g>
	<defs>
		<rect id="SVGID_5_" y="-0.003" width="1417.323" height="1417.323"/>
	</defs>
	<clipPath id="SVGID_6_">
		<use xlink:href="#SVGID_5_"  overflow="visible"/>
	</clipPath>
	<path clip-path="url(#SVGID_6_)" fill="#FFFFFF" d="M723.521,188.988c-38.415,0-69.667-31.252-69.667-69.667
		s31.252-69.667,69.667-69.667c38.414,0,69.667,31.252,69.667,69.667S761.936,188.988,723.521,188.988"/>
	<path clip-path="url(#SVGID_6_)" fill="#FC4A00" d="M723.521,63.839c-30.593,0-55.481,24.889-55.481,55.481
		c0,30.593,24.888,55.482,55.481,55.482s55.48-24.889,55.48-55.482C779.002,88.729,754.114,63.839,723.521,63.839"/>
	<path clip-path="url(#SVGID_6_)" fill="#FFFFFF" d="M501.358,557.339l2.866-10.804c8.995-33.896,26.007-103.026,26.007-122.05
		V321.226c0-62.264,50.656-112.921,112.92-112.921h160.737c62.265,0,112.922,50.657,112.922,112.921v103.259
		c0,62.264-50.657,112.919-112.922,112.919H643.151c-32.202,0-129.816,17.747-130.798,17.928L501.358,557.339z"/>
	<path clip-path="url(#SVGID_6_)" fill="#FC4A00" d="M643.151,222.49c-54.443,0-98.735,44.293-98.735,98.736v103.258
		c0,20.855-16.84,88.38-23.68,114.944c26.844-4.709,95.207-16.21,122.415-16.21h160.736c54.443,0,98.736-44.293,98.736-98.734
		V321.226c0-54.443-44.293-98.736-98.736-98.736H643.151z"/>
	<path clip-path="url(#SVGID_6_)" fill="#FFFFFF" d="M548.793,323.002c-38.415,0-69.667-31.252-69.667-69.667
		s31.252-69.667,69.667-69.667c38.413,0,69.666,31.252,69.666,69.667S587.207,323.002,548.793,323.002"/>
	<path clip-path="url(#SVGID_6_)" fill="#4DAD00" d="M548.793,197.854c-30.593,0-55.482,24.889-55.482,55.481
		c0,30.593,24.889,55.482,55.482,55.482c30.592,0,55.48-24.889,55.48-55.482C604.273,222.743,579.386,197.854,548.793,197.854"/>
	<path clip-path="url(#SVGID_6_)" fill="#FFFFFF" d="M326.629,691.353l2.866-10.804c8.995-33.896,26.007-103.026,26.007-122.05
		V455.24c0-62.264,50.657-112.921,112.921-112.921H629.16c62.264,0,112.921,50.657,112.921,112.921v103.259
		c0,62.264-50.657,112.919-112.921,112.919H468.423c-32.203,0-129.816,17.747-130.798,17.928L326.629,691.353z"/>
	<path clip-path="url(#SVGID_6_)" fill="#4DAD00" d="M468.423,356.504c-54.443,0-98.735,44.293-98.735,98.736v103.258
		c0,20.855-16.84,88.38-23.68,114.944c26.844-4.709,95.207-16.21,122.415-16.21H629.16c54.443,0,98.735-44.293,98.735-98.734V455.24
		c0-54.443-44.292-98.736-98.735-98.736H468.423z"/>
	<path clip-path="url(#SVGID_6_)" fill="#FFFFFF" d="M932.293,323.002c-38.415,0-69.667-31.252-69.667-69.667
		s31.252-69.667,69.667-69.667c38.413,0,69.666,31.252,69.666,69.667S970.706,323.002,932.293,323.002"/>
	<path clip-path="url(#SVGID_6_)" fill="#662959" d="M932.293,197.854c-30.593,0-55.48,24.889-55.48,55.481
		c0,30.593,24.888,55.482,55.48,55.482c30.592,0,55.48-24.889,55.48-55.482C987.773,222.743,962.885,197.854,932.293,197.854"/>
	<path clip-path="url(#SVGID_6_)" fill="#FFFFFF" d="M710.129,691.353l2.866-10.804c8.995-33.896,26.007-103.026,26.007-122.05
		V455.24c0-62.264,50.656-112.921,112.921-112.921h160.736c62.265,0,112.921,50.657,112.921,112.921v103.259
		c0,62.264-50.656,112.919-112.921,112.919H851.923c-32.203,0-129.816,17.747-130.799,17.928L710.129,691.353z"/>
	<path clip-path="url(#SVGID_6_)" fill="#662959" d="M851.923,356.504c-54.443,0-98.735,44.293-98.735,98.736v103.258
		c0,20.855-16.84,88.38-23.68,114.944c26.844-4.709,95.207-16.21,122.415-16.21h160.736c54.443,0,98.735-44.293,98.735-98.734
		V455.24c0-54.443-44.292-98.736-98.735-98.736H851.923z"/>
	<path clip-path="url(#SVGID_6_)" fill="#FFFFFF" d="M1055.505,522.156c-38.415,0-69.668-31.253-69.668-69.667
		c0-38.415,31.253-69.667,69.668-69.667c38.413,0,69.666,31.252,69.666,69.667C1125.171,490.903,1093.918,522.156,1055.505,522.156"
		/>
	<path clip-path="url(#SVGID_6_)" fill="#00796B" d="M1055.505,397.007c-30.594,0-55.482,24.889-55.482,55.481
		c0,30.593,24.889,55.482,55.482,55.482c30.592,0,55.479-24.889,55.479-55.482C1110.984,421.896,1086.097,397.007,1055.505,397.007"
		/>
	<path clip-path="url(#SVGID_6_)" fill="#FFFFFF" d="M833.34,890.507l2.866-10.805c8.995-33.896,26.007-103.025,26.007-122.05
		V654.394c0-62.264,50.657-112.921,112.921-112.921h160.737c62.264,0,112.921,50.657,112.921,112.921v103.259
		c0,62.264-50.657,112.919-112.921,112.919H975.134c-32.203,0-129.816,17.747-130.798,17.928L833.34,890.507z"/>
	<path clip-path="url(#SVGID_6_)" fill="#00796B" d="M975.134,555.659c-54.442,0-98.735,44.292-98.735,98.735v103.259
		c0,20.854-16.84,88.381-23.679,114.943c26.843-4.709,95.207-16.21,122.414-16.21h160.737c54.442,0,98.735-44.293,98.735-98.733
		V654.394c0-54.443-44.293-98.735-98.735-98.735H975.134z"/>
	<path clip-path="url(#SVGID_6_)" fill="#FFFFFF" d="M743.946,522.156c-38.415,0-69.667-31.253-69.667-69.667
		c0-38.415,31.252-69.667,69.667-69.667c38.414,0,69.666,31.252,69.666,69.667C813.612,490.903,782.36,522.156,743.946,522.156"/>
	<path clip-path="url(#SVGID_6_)" fill="#DC143C" d="M743.946,397.007c-30.593,0-55.481,24.889-55.481,55.481
		c0,30.593,24.888,55.482,55.481,55.482c30.592,0,55.479-24.889,55.479-55.482C799.426,421.896,774.538,397.007,743.946,397.007"/>
	<path clip-path="url(#SVGID_6_)" fill="#FFFFFF" d="M521.782,890.507l2.866-10.805c8.995-33.896,26.007-103.025,26.007-122.05
		V654.394c0-62.264,50.657-112.921,112.921-112.921h160.736c62.265,0,112.921,50.657,112.921,112.921v103.259
		c0,62.264-50.656,112.919-112.921,112.919H663.576c-32.203,0-129.816,17.747-130.799,17.928L521.782,890.507z"/>
	<path clip-path="url(#SVGID_6_)" fill="#DC143C" d="M663.576,555.659c-54.443,0-98.735,44.292-98.735,98.735v103.259
		c0,20.854-16.841,88.381-23.68,114.943c26.844-4.709,95.207-16.21,122.415-16.21h160.736c54.443,0,98.735-44.293,98.735-98.733
		V654.394c0-54.443-44.292-98.735-98.735-98.735H663.576z"/>
	<path clip-path="url(#SVGID_6_)" fill="#FFFFFF" d="M410.986,522.156c-38.415,0-69.667-31.253-69.667-69.667
		c0-38.415,31.252-69.667,69.667-69.667c38.414,0,69.666,31.252,69.666,69.667C480.652,490.903,449.4,522.156,410.986,522.156"/>
	<path clip-path="url(#SVGID_6_)" fill="#094F60" d="M410.986,397.007c-30.593,0-55.482,24.889-55.482,55.481
		c0,30.593,24.889,55.482,55.482,55.482c30.592,0,55.48-24.889,55.48-55.482C466.466,421.896,441.578,397.007,410.986,397.007"/>
	<path clip-path="url(#SVGID_6_)" fill="#FFFFFF" d="M188.822,890.507l2.866-10.805c8.995-33.896,26.007-103.025,26.007-122.05
		V654.394c0-62.264,50.656-112.921,112.921-112.921h160.736c62.265,0,112.922,50.657,112.922,112.921v103.259
		c0,62.264-50.657,112.919-112.922,112.919H330.616c-32.203,0-129.816,17.747-130.799,17.928L188.822,890.507z"/>
	<path clip-path="url(#SVGID_6_)" fill="#094F60" d="M330.616,555.659c-54.443,0-98.736,44.292-98.736,98.735v103.259
		c0,20.854-16.84,88.381-23.679,114.943c26.843-4.709,95.207-16.21,122.415-16.21h160.736c54.443,0,98.736-44.293,98.736-98.733
		V654.394c0-54.443-44.293-98.735-98.736-98.735H330.616z"/>
	<path clip-path="url(#SVGID_6_)" fill="#FFFFFF" d="M548.793,727.375c-38.415,0-69.667-31.251-69.667-69.667
		c0-38.414,31.252-69.666,69.667-69.666c38.413,0,69.666,31.252,69.666,69.666C618.459,696.123,587.207,727.375,548.793,727.375"/>
	<path clip-path="url(#SVGID_6_)" fill="#FFB500" d="M548.793,602.227c-30.593,0-55.482,24.888-55.482,55.481
		c0,30.593,24.889,55.481,55.482,55.481c30.592,0,55.48-24.888,55.48-55.481C604.273,627.115,579.386,602.227,548.793,602.227"/>
	<path clip-path="url(#SVGID_6_)" fill="#FFFFFF" d="M326.629,1095.726l2.866-10.805c8.995-33.895,26.007-103.024,26.007-122.049
		V859.614c0-62.266,50.657-112.921,112.921-112.921H629.16c62.264,0,112.921,50.655,112.921,112.921v103.259
		c0,62.264-50.657,112.919-112.921,112.919H468.423c-32.203,0-129.816,17.747-130.798,17.927L326.629,1095.726z"/>
	<path clip-path="url(#SVGID_6_)" fill="#FFB500" d="M468.423,760.877c-54.443,0-98.735,44.293-98.735,98.735v103.259
		c0,20.855-16.84,88.38-23.68,114.943c26.844-4.708,95.207-16.208,122.415-16.208H629.16c54.443,0,98.735-44.293,98.735-98.735
		V859.613c0-54.442-44.292-98.735-98.735-98.735H468.423z"/>
	<path clip-path="url(#SVGID_6_)" fill="#FFFFFF" d="M932.293,727.375c-38.415,0-69.667-31.251-69.667-69.667
		c0-38.414,31.252-69.666,69.667-69.666c38.413,0,69.666,31.252,69.666,69.666C1001.959,696.123,970.706,727.375,932.293,727.375"/>
	<path clip-path="url(#SVGID_6_)" fill="#3CCC66" d="M932.293,602.227c-30.593,0-55.48,24.888-55.48,55.481
		c0,30.593,24.888,55.481,55.48,55.481c30.592,0,55.48-24.888,55.48-55.481C987.773,627.115,962.885,602.227,932.293,602.227"/>
	<path clip-path="url(#SVGID_6_)" fill="#FFFFFF" d="M710.129,1095.726l2.866-10.805c8.995-33.895,26.007-103.024,26.007-122.049
		V859.614c0-62.266,50.656-112.921,112.921-112.921h160.736c62.265,0,112.921,50.655,112.921,112.921v103.259
		c0,62.264-50.656,112.919-112.921,112.919H851.923c-32.203,0-129.816,17.747-130.799,17.927L710.129,1095.726z"/>
	<path clip-path="url(#SVGID_6_)" fill="#3CCC66" d="M851.923,760.877c-54.443,0-98.735,44.293-98.735,98.735v103.259
		c0,20.855-16.84,88.38-23.68,114.943c26.844-4.708,95.207-16.208,122.415-16.208h160.736c54.443,0,98.735-44.293,98.735-98.735
		V859.613c0-54.442-44.292-98.735-98.735-98.735H851.923z"/>
	<path clip-path="url(#SVGID_6_)" fill="#FFFFFF" d="M723.521,967.032c-38.415,0-69.667-31.253-69.667-69.667
		s31.252-69.667,69.667-69.667c38.414,0,69.667,31.253,69.667,69.667S761.936,967.032,723.521,967.032"/>
	<path clip-path="url(#SVGID_6_)" fill="#D82700" d="M723.521,841.883c-30.593,0-55.481,24.89-55.481,55.481
		c0,30.593,24.888,55.482,55.481,55.482s55.48-24.89,55.48-55.482C779.002,866.773,754.114,841.883,723.521,841.883"/>
	<path clip-path="url(#SVGID_6_)" fill="#FFFFFF" d="M501.358,1335.382l2.866-10.804c8.995-33.895,26.007-103.024,26.007-122.05
		v-103.258c0-62.266,50.656-112.921,112.92-112.921h160.737c62.265,0,112.922,50.655,112.922,112.921v103.258
		c0,62.264-50.657,112.919-112.922,112.919H643.151c-32.202,0-129.816,17.748-130.798,17.928L501.358,1335.382z"/>
	<path clip-path="url(#SVGID_6_)" fill="#D82700" d="M643.151,1000.535c-54.443,0-98.735,44.293-98.735,98.735v103.259
		c0,20.855-16.84,88.38-23.68,114.943c26.844-4.708,95.207-16.209,122.415-16.209h160.736c54.443,0,98.736-44.292,98.736-98.734
		V1099.27c0-54.442-44.293-98.735-98.736-98.735H643.151z"/>
</g>
<g>
	<defs>
		<rect id="SVGID_7_" y="-0.003" width="1417.323" height="1417.323"/>
	</defs>
	<clipPath id="SVGID_8_">
		<use xlink:href="#SVGID_7_"  overflow="visible"/>
	</clipPath>
</g>
</svg>
