<svg xmlns="http://www.w3.org/2000/svg" viewBox="0 0 1275.59 1275.59"><defs><style>.cls-1{fill:#1e1e1c;}.cls-2{fill:#fff;}.cls-3{fill:#fc4a00;}</style></defs><title>Icone Landing Page - logo fl</title><g id="Base"><rect class="cls-1" width="1275.59" height="1275.59" rx="102.8" ry="102.8"/></g><g id="Tutorial"><path class="cls-2" d="M1104.27,895.74h-29.18l-4.86-1.33a163.83,163.83,0,0,1-66.82-13.69,178.77,178.77,0,0,1-92.06-92.09A160.9,160.9,0,0,1,898.18,735c-.32-4.36-.53-8.75-.53-13.21V191.44c-57.9-27.59-122.41-39.1-188.67-39.1-79.1,0-158.47,16.82-222.37,52.61A387.91,387.91,0,0,0,369,321.35c-4.32,6.63-8.49,13.36-12.43,20.28q-9.24,16.26-17.11,33.58a336,336,0,0,0-30,140v97.89l-58.78,97.45L236,735l-.15.26h73.65l-2.1,307.17-.17,24.4-.18,26.41a555.06,555.06,0,0,0,170.18,122.25l1.17-148.66.19-24.4L481,735.24H676.71V588.92H481V515.24q0-36.85,16.84-72.11a227.58,227.58,0,0,1,12.07-21.81A222.47,222.47,0,0,1,523,402.44a219.14,219.14,0,0,1,81.65-66.16q35.23-16.83,72.08-16.85h49.43V721.77c0,4.44.15,8.83.31,13.21q.62,17.72,2.94,34.89A328.84,328.84,0,0,0,753,856c.25.59.54,1.15.79,1.74q26.75,61.53,72.86,107.75a345.91,345.91,0,0,0,109.43,73.68c2.69,1.16,5.43,2.17,8.15,3.25q59.11,23.49,126,23.59v-1l65.23.6c6.25-7.54,12.22-15.3,18.07-23.16a552.83,552.83,0,0,0,78-146.73Z" transform="translate(-70.87 -70.41)"/><path class="cls-3" d="M897.65,423.34V721.45c0,4.47.21,8.86.53,13.22a161.09,161.09,0,0,0,13.17,53.68,178.82,178.82,0,0,0,92.06,92.15c20.68,9.12,47.81,15,71.68,15h29.18l125.54-.06a551.59,551.59,0,0,0,31.41-184c0-238.79-151.47-442.18-363.57-519.38Z" transform="translate(-70.87 -70.41)"/><path class="cls-3" d="M1070.23,1064.87h0c-44.63,0-86.62-6.9-126-22.57-2.72-1.08-5.46-2.09-8.15-3.25a345.91,345.91,0,0,1-109.43-73.73Q780.46,919.1,753.78,857.5c-.26-.59-.54-1.15-.79-1.74a329.21,329.21,0,0,1-23.6-86.18q-2.3-17.17-2.94-34.91c-.15-4.39-.31-8.78-.31-13.22V318.85H676.71q-36.86,0-72.08,16.86A219.17,219.17,0,0,0,523,401.91a222.64,222.64,0,0,0-13.1,18.89,227.71,227.71,0,0,0-12.07,21.83Q481,477.93,481,514.79v73.73H676.71V734.93H481l-2.42,307.37-.19,24.42-1.16,146.65a550.44,550.44,0,0,0,231.46,50.71c170.5,0,322.94-77.24,424.3-198.62Z" transform="translate(-70.87 -70.41)"/><path class="cls-3" d="M307.18,1066.71l.17-24.42,2.1-307.37H235.8l.16-.26,14.72-24.42,58.78-97.51v-98a336.37,336.37,0,0,1,30-140.11q7.83-17.35,17.11-33.61c3.94-6.93,8.11-13.66,12.43-20.3A385.29,385.29,0,0,1,481.9,207.48C289.82,294,156.1,487.15,156.1,711.51A550.63,550.63,0,0,0,307,1091Z" transform="translate(-70.87 -70.41)"/><path class="cls-2" d="M1136.06,1061.73V1041.9h-29.74V841.45c76.78-6.15,137.39-70.56,137.39-148.9s-60.61-142.74-137.39-148.9V327.9q-11.4-11.81-23.48-22.93V543.61a149.4,149.4,0,0,0-110.91,63.32L749.58,503.25V160.46q-11.65-.85-23.44-1.21V492.32l-395-184.21q-9.16,8.57-17.91,17.55l413,192.56V711.51h-570c0,7.87.2,15.69.53,23.48H726.14V1041.9H265.72q9,12,18.58,23.48H726.14v198.39q11.78-.37,23.44-1.21V1065.37H1133C1134,1064.16,1135.05,1062.95,1136.06,1061.73ZM749.58,529.15l210.34,98.08a148.24,148.24,0,0,0-13.82,84.27H749.58Zm333.26,512.74H749.58V735H951A149.72,149.72,0,0,0,1082.84,841.5ZM969.18,692.56a125.1,125.1,0,1,1,125.1,125.1A125.24,125.24,0,0,1,969.18,692.56Z" transform="translate(-70.87 -70.41)"/></g></svg>