<svg xmlns="http://www.w3.org/2000/svg" viewBox="0 0 1275.59 1275.59"><defs><style>.cls-1{fill:#1e1e1c;}.cls-2{fill:#fff;}.cls-3{fill:#fc4a00;}.cls-4{fill:#ffb500;}.cls-5{fill:#dc143c;}.cls-6{fill:#00796b;}.cls-7{fill:#d82700;}.cls-8{fill:#662959;}.cls-9{fill:#094f60;}.cls-10{fill:#4dad00;}.cls-11{fill:#3ccc66;}</style></defs><title>Icone Landing Page - tutorial</title><g id="Base"><rect class="cls-1" width="1275.59" height="1275.59" rx="102.8" ry="102.8"/></g><g id="Tutorial"><g id="A"><path class="cls-2" d="M1238.66,692.3c0-70.79-57.58-128.39-128.35-128.39S982,621.51,982,692.3s57.58,128.39,128.35,128.39S1238.66,763.1,1238.66,692.3Z" transform="translate(-70.87 -70.87)"/><g id="gnammy"><circle class="cls-1" cx="1041.11" cy="540.5" r="28.08"/><path class="cls-1" d="M1149.78,775.43h-65c-13.43,0-53.4,7.3-53.4,7.3s10.61-40,10.61-50.09V690.88a42.92,42.92,0,0,1,42.79-42.79h65a42.92,42.92,0,0,1,42.79,42.79v41.75A42.92,42.92,0,0,1,1149.78,775.43Z" transform="translate(-70.87 -70.87)"/></g><path class="cls-3" d="M1253.83,638.4a571.23,571.23,0,0,0-131.18-298.71v199.8A153.68,153.68,0,0,1,1253.83,638.4Z" transform="translate(-70.87 -70.87)"/><path class="cls-4" d="M756.64,498,984.77,604.43a153.28,153.28,0,0,1,113.79-65V313.1c-89-92.2-208.61-153.24-341.93-165.73Z" transform="translate(-70.87 -70.87)"/><path class="cls-5" d="M756.64,524.6V711.75H958.27a152.18,152.18,0,0,1,14.18-86.49Z" transform="translate(-70.87 -70.87)"/><path class="cls-6" d="M1098.56,845.16c-64.23-4.89-117.5-49.51-135.24-109.31H756.64v315h341.93Z" transform="translate(-70.87 -70.87)"/><path class="cls-3" d="M1258,733.34c-16.92,60.86-70.52,106.58-135.38,111.78v205.71h26C1213.67,961.65,1253.69,852.17,1258,733.34Z" transform="translate(-70.87 -70.87)"/><path class="cls-7" d="M732.59,1074.92H281.29c101.4,124.44,253.87,203.61,424.38,203.61q13.54,0,26.92-.67Z" transform="translate(-70.87 -70.87)"/><path class="cls-8" d="M756.64,1074.92v201.22c149.76-14,282.23-89.33,373.41-201.22Z" transform="translate(-70.87 -70.87)"/><path class="cls-9" d="M732.59,711.75V513.39L309.81,316.19C212.72,418.32,152.91,557.87,152.91,711.75Z" transform="translate(-70.87 -70.87)"/><path class="cls-10" d="M732.59,1050.83v-315H153.41c4.81,117.86,44.71,226.43,109.29,315Z" transform="translate(-70.87 -70.87)"/><path class="cls-11" d="M732.59,486.8V145.65q-13.38-.66-26.92-.67c-146.1,0-279,58.13-377.79,153.05Z" transform="translate(-70.87 -70.87)"/></g></g></svg>