<svg id="Livello_5" data-name="Livello 5" xmlns="http://www.w3.org/2000/svg" viewBox="0 0 1064.67 1168.21"><defs><style>.cls-1{fill:#3ccc66;}.cls-2{fill:#fc4a00;}.cls-3{fill:#ffb500;}</style></defs><title>icone-linee-guida-comunita-0</title><g id="gnammy"><circle class="cls-1" cx="268.77" cy="93.64" r="93.64"/><path class="cls-1" d="M575.21,775.31H358.46c-44.8,0-178.09,24.33-178.09,24.33s35.39-133.35,35.39-167V493.37c0-78.49,64.22-142.7,142.7-142.7H575.21c78.49,0,142.7,64.22,142.7,142.7V632.61C717.91,711.09,653.7,775.31,575.21,775.31Z" transform="translate(-180.37 -134.56)"/></g><g id="gnammy-2" data-name="gnammy"><circle class="cls-2" cx="532.33" cy="345.2" r="93.64"/><path class="cls-2" d="M838.77,1026.87H622c-44.8,0-178.09,24.33-178.09,24.33s35.39-133.35,35.39-167V744.93c0-78.49,64.22-142.7,142.7-142.7H838.77c78.49,0,142.7,64.22,142.7,142.7V884.17C981.48,962.66,917.26,1026.87,838.77,1026.87Z" transform="translate(-180.37 -134.56)"/></g><g id="gnammy-3" data-name="gnammy"><circle class="cls-3" cx="795.9" cy="596.77" r="93.64"/><path class="cls-3" d="M1102.34,1278.44H885.59c-44.8,0-178.09,24.33-178.09,24.33s35.39-133.35,35.39-167V996.5c0-78.49,64.22-142.7,142.7-142.7h216.75c78.49,0,142.7,64.22,142.7,142.7v139.24C1245,1214.22,1180.82,1278.44,1102.34,1278.44Z" transform="translate(-180.37 -134.56)"/></g></svg>