<svg xmlns="http://www.w3.org/2000/svg" viewBox="0 0 125.3 128.72"><defs><style>.cls-1,.cls-3,.cls-4{fill:#00796b;}.cls-2{fill:#fff;}.cls-3,.cls-4{stroke:#fff;stroke-miterlimit:10;}.cls-3{stroke-width:5.5px;}.cls-4{stroke-width:4px;}</style></defs><title>Icon2_resources_sfondo</title><g id="Resource"><rect class="cls-1" width="125.3" height="128.72" rx="10.68" ry="10.68"/><path class="cls-2" d="M133.52,27.33,112.74,13.9V6.51h-3v5.43l-8.4-5.43H95.58l14.11,9.12V35.17h-42V6.51h-3V36.19L59.41,29c-2-2.68-6.93-15.4-6.93-15.4s-8.92,9.86-12.39,12.53L28.28,35.17H8.22V38.3h16l-.91.7a14.48,14.48,0,0,0-2.79,19.85l8.06,11.08a13.6,13.6,0,0,0,19.32,2.87L64.62,59.95v6.66a9.55,9.55,0,0,0-5.61,2,10.2,10.2,0,0,0-3.33,11.47l-18.19,29.7H8.22v3.13H35.58L21.9,135.22H25.5L39.17,112.9H64.62v22.33h3V112.9h45.08V38.3h20.78V35.17H112.74V17.59L133.52,31Zm-68.9,82.44H41.08L57.41,83.11a9.64,9.64,0,0,0,7.21,3.55Zm45.08,0h-42V86.23a9.63,9.63,0,0,0,3-1.56,10.22,10.22,0,0,0,2-14,9.71,9.71,0,0,0-5-3.59V56.75a14.54,14.54,0,0,0,0-16.4v-2h42Z" transform="translate(-8.22 -6.51)"/><path class="cls-2" d="M124.79,110.14,109,122.32c-3.26,2.52-11.63,11.83-11.63,11.83s-4.72-12-6.56-14.48l-7.62-10.41a13.63,13.63,0,0,1,2.58-18.69l15.78-12.18A12.81,12.81,0,0,1,119.75,81l7.62,10.41A13.63,13.63,0,0,1,124.79,110.14Z" transform="translate(-8.22 -6.51)"/><path class="cls-2" d="M93,71.54a8.89,8.89,0,0,1-2,12.19,8.36,8.36,0,0,1-11.86-2,8.89,8.89,0,0,1,2-12.19A8.36,8.36,0,0,1,93,71.54Z" transform="translate(-8.22 -6.51)"/><path class="cls-3" d="M23.85,38.82l16.08-12.4c3.32-2.56,11.85-12,11.85-12s4.8,12.18,6.68,14.75l7.75,10.61a13.88,13.88,0,0,1-2.64,19L47.5,71.18A13,13,0,0,1,29,68.47L21.21,57.86A13.88,13.88,0,0,1,23.85,38.82Z" transform="translate(-8.22 -6.51)"/><path class="cls-4" d="M58.64,81.43a8.13,8.13,0,0,1,1.55-11.18,7.64,7.64,0,0,1,10.89,1.59A8.13,8.13,0,0,1,69.53,83,7.64,7.64,0,0,1,58.64,81.43Z" transform="translate(-8.22 -6.51)"/></g></svg>