<svg xmlns="http://www.w3.org/2000/svg" viewBox="0 0 718.64 1133.86"><defs><style>.cls-1{fill:#00796b;}.cls-2{fill:#ffb500;}.cls-3{fill:#fff;}</style></defs><title>icone-tutorial</title><g id="Livello_4" data-name="Livello 4"><g id="gnammy"><path class="cls-1" d="M881.2,1245.78H591.43c-59.89,0-238.09,32.52-238.09,32.52S400.65,1100,400.65,1055V868.85c0-104.93,85.85-190.78,190.78-190.78H881.2c104.93,0,190.78,85.85,190.78,190.78V1055C1072,1159.93,986.13,1245.78,881.2,1245.78Z" transform="translate(-353.34 -144.44)"/></g><circle class="cls-2" cx="357.21" cy="286.05" r="33.55"/><path class="cls-2" d="M709.21,464.78V620.33h76.38c0-43.84,10.59-107.26,54.05-150.73,104.83-104.83,59.42-325.15-130.43-325.15" transform="translate(-353.34 -144.44)"/><path class="cls-2" d="M714.12,464.78V620.33H637.73c0-43.84-10.59-107.26-54.05-150.73C478.85,364.76,524.26,144.44,714.12,144.44" transform="translate(-353.34 -144.44)"/><circle class="cls-3" cx="359.42" cy="286.05" r="33.55"/><rect class="cls-3" x="344.47" y="313.96" width="25.33" height="161.92"/></g></svg>