<svg xmlns="http://www.w3.org/2000/svg" viewBox="0 0 1275.59 1275.59"><defs><style>.cls-1{fill:#1e1e1c;}.cls-2{fill:#094f60;}.cls-3{fill:#00796b;}.cls-4{fill:#4dad00;}.cls-5{fill:#662959;}.cls-6{fill:#fc4a00;}.cls-7{fill:#dc143c;}.cls-8{fill:#3ccc66;}.cls-9{fill:#ffb500;}.cls-10{fill:#d82700;}</style></defs><title>Icone Landing Page -standard-comunita</title><g id="Base"><rect class="cls-1" width="1275.59" height="1275.59" rx="102.8" ry="102.8"/></g><g id="Standard_Comunità" data-name="Standard Comunità"><g id="Standard_Comunità-2" data-name="Standard Comunità"><g id="gnammy"><circle class="cls-2" cx="212.6" cy="103.03" r="42.95"/><path class="cls-2" d="M341.28,424.82H241.88c-20.55,0-81.68,11.16-81.68,11.16s16.23-61.16,16.23-76.61V295.51a65.64,65.64,0,0,1,65.45-65.45h99.41a65.64,65.64,0,0,1,65.45,65.45v63.86A65.64,65.64,0,0,1,341.28,424.82Z" transform="translate(-70.87 -70.87)"/></g><g id="gnammy-2" data-name="gnammy"><circle class="cls-3" cx="637.8" cy="103.03" r="42.95"/><path class="cls-3" d="M766.48,424.82H667.07c-20.55,0-81.68,11.16-81.68,11.16s16.23-61.16,16.23-76.61V295.51a65.64,65.64,0,0,1,65.45-65.45h99.41a65.64,65.64,0,0,1,65.45,65.45v63.86A65.64,65.64,0,0,1,766.48,424.82Z" transform="translate(-70.87 -70.87)"/></g><g id="gnammy-3" data-name="gnammy"><circle class="cls-4" cx="1062.99" cy="103.03" r="42.95"/><path class="cls-4" d="M1191.68,424.82h-99.41c-20.55,0-81.68,11.16-81.68,11.16s16.23-61.16,16.23-76.61V295.51a65.64,65.64,0,0,1,65.45-65.45h99.41a65.64,65.64,0,0,1,65.45,65.45v63.86A65.64,65.64,0,0,1,1191.68,424.82Z" transform="translate(-70.87 -70.87)"/></g><g id="gnammy-4" data-name="gnammy"><circle class="cls-5" cx="212.6" cy="528.23" r="42.95"/><path class="cls-5" d="M341.28,850H241.88c-20.55,0-81.68,11.16-81.68,11.16s16.23-61.16,16.23-76.61V720.71a65.64,65.64,0,0,1,65.45-65.45h99.41a65.64,65.64,0,0,1,65.45,65.45v63.86A65.64,65.64,0,0,1,341.28,850Z" transform="translate(-70.87 -70.87)"/></g><g id="gnammy-5" data-name="gnammy"><circle class="cls-6" cx="637.8" cy="528.23" r="42.95"/><path class="cls-6" d="M766.48,850H667.07c-20.55,0-81.68,11.16-81.68,11.16s16.23-61.16,16.23-76.61V720.71a65.64,65.64,0,0,1,65.45-65.45h99.41a65.64,65.64,0,0,1,65.45,65.45v63.86A65.64,65.64,0,0,1,766.48,850Z" transform="translate(-70.87 -70.87)"/></g><g id="gnammy-6" data-name="gnammy"><circle class="cls-7" cx="1062.99" cy="528.23" r="42.95"/><path class="cls-7" d="M1191.68,850h-99.41c-20.55,0-81.68,11.16-81.68,11.16s16.23-61.16,16.23-76.61V720.71a65.64,65.64,0,0,1,65.45-65.45h99.41a65.64,65.64,0,0,1,65.45,65.45v63.86A65.64,65.64,0,0,1,1191.68,850Z" transform="translate(-70.87 -70.87)"/></g><g id="gnammy-7" data-name="gnammy"><circle class="cls-8" cx="212.6" cy="953.42" r="42.95"/><path class="cls-8" d="M341.28,1275.22H241.88c-20.55,0-81.68,11.16-81.68,11.16s16.23-61.16,16.23-76.61v-63.86a65.64,65.64,0,0,1,65.45-65.45h99.41a65.64,65.64,0,0,1,65.45,65.45v63.86A65.64,65.64,0,0,1,341.28,1275.22Z" transform="translate(-70.87 -70.87)"/></g><g id="gnammy-8" data-name="gnammy"><circle class="cls-9" cx="637.8" cy="953.42" r="42.95"/><path class="cls-9" d="M766.48,1275.22H667.07c-20.55,0-81.68,11.16-81.68,11.16s16.23-61.16,16.23-76.61v-63.86a65.64,65.64,0,0,1,65.45-65.45h99.41a65.64,65.64,0,0,1,65.45,65.45v63.86A65.64,65.64,0,0,1,766.48,1275.22Z" transform="translate(-70.87 -70.87)"/></g><g id="gnammy-9" data-name="gnammy"><circle class="cls-10" cx="1062.99" cy="953.42" r="42.95"/><path class="cls-10" d="M1191.68,1275.22h-99.41c-20.55,0-81.68,11.16-81.68,11.16s16.23-61.16,16.23-76.61v-63.86a65.64,65.64,0,0,1,65.45-65.45h99.41a65.64,65.64,0,0,1,65.45,65.45v63.86A65.64,65.64,0,0,1,1191.68,1275.22Z" transform="translate(-70.87 -70.87)"/></g></g></g></svg>