<svg id="Livello_1" data-name="Livello 1" xmlns="http://www.w3.org/2000/svg" viewBox="0 0 1275.59 1275.59"><defs><style>.cls-1{fill:transparent;}.cls-2{fill:#094f60;}.cls-3{fill:#00796b;}.cls-4{fill:#4dad00;}.cls-5{fill:#662959;}.cls-6{fill:#fc4a00;}.cls-7{fill:#dc143c;}.cls-8{fill:#3ccc66;}.cls-9{fill:#ffb500;}.cls-10{fill:#d82700;}</style></defs><title>icone-landing-page_linee-guida-comunita-0</title><g id="Base"><rect class="cls-1" width="1275.59" height="1275.59" rx="113.39" ry="113.39"/></g><g id="Standard_Comunità" data-name="Standard Comunità"><g id="Standard_Comunità-2" data-name="Standard Comunità-2"><g id="gnammy"><circle class="cls-2" cx="212.6" cy="103.03" r="42.95"/><path class="cls-2" d="M270.41,354H171c-20.55,0-81.68,11.16-81.68,11.16S105.56,304,105.56,288.5V224.64A65.64,65.64,0,0,1,171,159.19h99.41a65.64,65.64,0,0,1,65.45,65.45V288.5A65.64,65.64,0,0,1,270.41,354Z"/></g><g id="gnammy-2"><circle class="cls-3" cx="637.8" cy="103.03" r="42.95"/><path class="cls-3" d="M695.61,354H596.2c-20.55,0-81.68,11.16-81.68,11.16S530.75,304,530.75,288.5V224.64a65.64,65.64,0,0,1,65.45-65.45h99.41a65.64,65.64,0,0,1,65.45,65.45V288.5A65.64,65.64,0,0,1,695.61,354Z"/></g><g id="gnammy-3"><circle class="cls-4" cx="1062.99" cy="103.03" r="42.95"/><path class="cls-4" d="M1120.81,354H1021.4c-20.55,0-81.68,11.16-81.68,11.16S956,304,956,288.5V224.64a65.64,65.64,0,0,1,65.45-65.45h99.41a65.64,65.64,0,0,1,65.45,65.45V288.5A65.64,65.64,0,0,1,1120.81,354Z"/></g><g id="gnammy-4"><circle class="cls-5" cx="212.6" cy="528.23" r="42.95"/><path class="cls-5" d="M270.41,779.13H171c-20.55,0-81.68,11.16-81.68,11.16s16.23-61.16,16.23-76.61V649.84A65.64,65.64,0,0,1,171,584.39h99.41a65.64,65.64,0,0,1,65.45,65.45V713.7A65.64,65.64,0,0,1,270.41,779.13Z"/></g><g id="gnammy-5"><circle class="cls-6" cx="637.8" cy="528.23" r="42.95"/><path class="cls-6" d="M695.61,779.13H596.2c-20.55,0-81.68,11.16-81.68,11.16s16.23-61.16,16.23-76.61V649.84a65.64,65.64,0,0,1,65.45-65.45h99.41a65.64,65.64,0,0,1,65.45,65.45V713.7A65.64,65.64,0,0,1,695.61,779.13Z"/></g><g id="gnammy-6"><circle class="cls-7" cx="1062.99" cy="528.23" r="42.95"/><path class="cls-7" d="M1120.81,779.13H1021.4c-20.55,0-81.68,11.16-81.68,11.16S956,729.13,956,713.68V649.84a65.64,65.64,0,0,1,65.45-65.45h99.41a65.64,65.64,0,0,1,65.45,65.45V713.7A65.64,65.64,0,0,1,1120.81,779.13Z"/></g><g id="gnammy-7"><circle class="cls-8" cx="212.6" cy="953.42" r="42.95"/><path class="cls-8" d="M270.41,1204.35H171c-20.55,0-81.68,11.16-81.68,11.16s16.23-61.16,16.23-76.61V1075A65.64,65.64,0,0,1,171,1009.59h99.41A65.64,65.64,0,0,1,335.87,1075v63.86A65.64,65.64,0,0,1,270.41,1204.35Z"/></g><g id="gnammy-8"><circle class="cls-9" cx="637.8" cy="953.42" r="42.95"/><path class="cls-9" d="M695.61,1204.35H596.2c-20.55,0-81.68,11.16-81.68,11.16s16.23-61.16,16.23-76.61V1075a65.64,65.64,0,0,1,65.45-65.45h99.41A65.64,65.64,0,0,1,761.06,1075v63.86A65.64,65.64,0,0,1,695.61,1204.35Z"/></g><g id="gnammy-9"><circle class="cls-10" cx="1062.99" cy="953.42" r="42.95"/><path class="cls-10" d="M1120.81,1204.35H1021.4c-20.55,0-81.68,11.16-81.68,11.16S956,1154.35,956,1138.9V1075a65.64,65.64,0,0,1,65.45-65.45h99.41a65.64,65.64,0,0,1,65.45,65.45v63.86A65.64,65.64,0,0,1,1120.81,1204.35Z"/></g></g></g></svg>