<svg xmlns="http://www.w3.org/2000/svg" xmlns:xlink="http://www.w3.org/1999/xlink" viewBox="0 0 948.39 1031.3"><defs><style>.cls-1{fill:none;}.cls-2{fill:#fc4a00;}.cls-3,.cls-7{fill:#fff;}.cls-4{fill:#16b89c;}.cls-5{fill:#001f2a;}.cls-6{fill:#1d1d1b;}.cls-6,.cls-7{stroke:#212121;stroke-miterlimit:10;stroke-width:0.3px;}.cls-8{clip-path:url(#clip-path);}.cls-9{fill:#58595b;}.cls-10{fill:#eee;}</style><clipPath id="clip-path" transform="translate(98 -8.24)"><path class="cls-1" d="M726.83,433.26C726.83,599.93,591.75,735,425.11,735S123.39,599.93,123.39,433.26,258.48,131.48,425.11,131.48c112,0,209.78,61.06,261.83,151.72A300.44,300.44,0,0,1,726.83,433.26Z"/></clipPath></defs><title>logo_FL-CoCity</title><g id="Livello_4" data-name="Livello 4"><path class="cls-2" d="M717,991c-18.45,0-28.19-2.11-33.91-15.69-2.09-5,2.61-4.37,4.94-4.37h12.12a34.85,34.85,0,0,0,24.39-9.87,32.7,32.7,0,0,0,10.15-22.61,34.07,34.07,0,0,0-15.4-29.85c-5.8-4-12.12-5.84-19.91-5.84-11.7,0-23.48,5.75-32.32,15.78a56.12,56.12,0,0,0-13.91,37.18c0,19.23,3.85,32.92,12.12,43.07,10.44,12.82,27.26,19.05,51.4,19.05,6.38,0,9.28-4.18,9.28-8.06l0-10.89C726,995,722.87,991,717,991Zm-33.82-49.5c2.88-5.47,9.45-12.94,16.57-12.94a7.89,7.89,0,0,1,4.86,1.34,8.23,8.23,0,0,1,3.79,7.45c0,4.36-4.72,7.52-7.9,7.52H685.06C681,944.86,682.49,942.77,683.16,941.5Z" transform="translate(98 -8.24)"/><path class="cls-3" d="M681.76,965h18.37c16.08,0,28.33-13,28.56-26.61.18-10.51-4.15-18.88-12.81-24.82-4.79-3.29-10-4.79-16.53-4.79-20.56,0-40.26,21-40.26,47,0,29.92,9.56,56.14,57.54,56.14,2.34,0,3.3-.83,3.3-2.08l0-10.91c0-.7-.51-1.91-3-1.91-18,0-32.63-1.87-39.82-20.37C676.72,975.51,672.55,965.12,681.76,965ZM675.64,946c0-7.29,11.11-23.44,24.09-23.44A13.83,13.83,0,0,1,708,925a14.17,14.17,0,0,1,6.38,12.38c0,8-7.65,13.5-13.88,13.5H680.91C678.24,950.84,675.64,949.29,675.64,946Z" transform="translate(98 -8.24)"/><path class="cls-2" d="M655.37,884.12V901a5.28,5.28,0,0,1-5.28,5.27H639c-12.83,0-26.47,8.95-26.47,25.53v9.73a1.18,1.18,0,0,0,1.18,1.18h19a6.4,6.4,0,0,1,6.4,6.4v11.48a6.4,6.4,0,0,1-6.4,6.4h-19a1.18,1.18,0,0,0-1.18,1.18v42.74a6.4,6.4,0,0,1-6.4,6.4H590.34a6.4,6.4,0,0,1-6.4-6.4V930.29a48.42,48.42,0,0,1,4.31-20.11A55.87,55.87,0,0,1,616.39,882c6.5-2.94,13.67-4.31,22.56-4.31h10A6.4,6.4,0,0,1,655.37,884.12Z" transform="translate(98 -8.24)"/><path class="cls-3" d="M605.49,1012a1.72,1.72,0,0,0,1.72-1.72V966.9a5.27,5.27,0,0,1,5.27-5.27h19.63a1.73,1.73,0,0,0,1.73-1.73V949.52a1.72,1.72,0,0,0-1.72-1.72H612.48a5.27,5.27,0,0,1-5.27-5.27V931.67A29.79,29.79,0,0,1,617.13,909a33.11,33.11,0,0,1,21.77-8.13h8.74a2.17,2.17,0,0,0,2.46-2.36V884.79a2,2,0,0,0-2-2H638.9c-8.23,0-14.53,1.19-20.41,3.85A50.66,50.66,0,0,0,593,912.2a43.24,43.24,0,0,0-3.85,18v80.07a1.72,1.72,0,0,0,1.72,1.72Z" transform="translate(98 -8.24)"/><path class="cls-2" d="M548,902h16a6,6,0,0,1,6,6v103.25a6,6,0,0,1-6,6H548a6,6,0,0,1-6-6V908A6,6,0,0,1,548,902Z" transform="translate(98 -8.24)"/><path class="cls-3" d="M562.25,1011.89a2.54,2.54,0,0,0,2.54-2.54v-99.9a2.55,2.55,0,0,0-2.54-2.54H549.18a2.54,2.54,0,0,0-2.54,2.54v99.9a2.54,2.54,0,0,0,2.54,2.54Z" transform="translate(98 -8.24)"/><path class="cls-2" d="M520.54,1017.69H509.06c-10.19,0-18.4-1.57-25.84-4.94A64,64,0,0,1,451,980.51a55.46,55.46,0,0,1-4.94-23V874.94a7.33,7.33,0,0,1,7.33-7.33h18a7.33,7.33,0,0,1,7.33,7.33v80.79c0,19,15.62,29.25,30.32,29.25h12.77a6,6,0,0,1,6,6v19.34A7.33,7.33,0,0,1,520.54,1017.69Z" transform="translate(98 -8.24)"/><path class="cls-3" d="M453.93,873.75a2,2,0,0,0-2,2v81.91a49.53,49.53,0,0,0,4.4,20.57,58,58,0,0,0,29.26,29.25c6.74,3,13.94,4.41,23.38,4.41h10.57a2.26,2.26,0,0,0,2.26-2.26V993.83a2.48,2.48,0,0,0-2.82-2.71H509a37.93,37.93,0,0,1-24.94-9.31,34.13,34.13,0,0,1-11.35-25.92V875.72a2,2,0,0,0-2-2Z" transform="translate(98 -8.24)"/><path class="cls-2" d="M450.68,992.18a2.54,2.54,0,0,0-2.54-2.54H437.52c-14,0-27.72-10-27.72-26.83l0-36a2.54,2.54,0,0,1,2.54-2.54h17.15a2.54,2.54,0,0,0,2.54-2.54l0-17.18a2.54,2.54,0,0,0-2.54-2.54H412.33a2.54,2.54,0,0,1-2.54-2.54V884.23a2.54,2.54,0,0,0-2.54-2.54H390.09a2.54,2.54,0,0,0-2.54,2.54v80a43.49,43.49,0,0,0,3.89,18.15A50.78,50.78,0,0,0,417,1008c5.73,2.59,12.07,3.89,20.48,3.89h10.63a2.54,2.54,0,0,0,2.54-2.54Z" transform="translate(98 -8.24)"/><path class="cls-2" d="M342.89,958.53v-7.4c0-16.79,13.73-26.83,27.72-26.83H371a2.54,2.54,0,0,0,2.53-2.53V904.6a2.54,2.54,0,0,0-2.54-2.54h-.43c-8.41,0-14.75,1.3-20.48,3.89a50.78,50.78,0,0,0-25.59,25.59,43.49,43.49,0,0,0-3.89,18.15v13.12c0,16.79-13.73,26.83-27.72,26.83h-6.6a2.54,2.54,0,0,0-2.53,2.53v17.17a2.54,2.54,0,0,0,2.54,2.54h6.6c8.41,0,14.75-1.3,20.48-3.89A50.78,50.78,0,0,0,339,982.41a43.49,43.49,0,0,0,3.89-18.15Z" transform="translate(98 -8.24)"/><path class="cls-2" d="M314.44,921.77a2.54,2.54,0,0,1-2.54,2.54H297.57c-14,0-27.72,10-27.72,26.83v58.21a2.54,2.54,0,0,1-2.54,2.54H250.15a2.54,2.54,0,0,1-2.54-2.54V949.7a43.49,43.49,0,0,1,3.89-18.15A50.78,50.78,0,0,1,277.09,906c5.73-2.59,12.07-3.89,20.48-3.89H311.9a2.54,2.54,0,0,1,2.54,2.54Z" transform="translate(98 -8.24)"/><path class="cls-2" d="M214.62,902.07h16a3,3,0,0,1,3,3v103.72a3,3,0,0,1-3,3h-16a3,3,0,0,1-3-3V905.12A3,3,0,0,1,214.62,902.07Z" transform="translate(98 -8.24)"/><path id="F" class="cls-2" d="M201.51,893.09a3,3,0,0,1-3,3H185.7c-16.81,0-33.31,12.06-33.31,32.24v11.16a3,3,0,0,0,3,3h24.4a3,3,0,0,1,3,3v15.74a3,3,0,0,1-3,3h-24.4a3,3,0,0,0-3,3v41.38a3,3,0,0,1-3,3H128.71a3,3,0,0,1-3-3V926.64a52.25,52.25,0,0,1,4.67-21.81,61,61,0,0,1,30.75-30.74c6.88-3.12,14.5-4.68,24.61-4.68h12.77a3,3,0,0,1,3,3Z" transform="translate(98 -8.24)"/></g><g id="Logo1_citytelling_copia" data-name="Logo1_citytelling copia"><ellipse class="cls-4" cx="523.19" cy="425.18" rx="425.2" ry="425.18"/><path class="cls-5" d="M425.2,858.6C190.37,858.6,0,668.24,0,433.42S190.37,8.24,425.2,8.24Z" transform="translate(98 -8.24)"/><ellipse class="cls-6" cx="523.19" cy="425.18" rx="318.9" ry="318.88"/><ellipse class="cls-7" cx="523.19" cy="425.18" rx="311.75" ry="311.73"/><g class="cls-8"><path class="cls-2" d="M726.83,433.26C726.83,599.93,591.75,735,425.11,735S123.39,599.93,123.39,433.26,258.48,131.48,425.11,131.48c112,0,209.78,61.06,261.83,151.72A300.44,300.44,0,0,1,726.83,433.26Z" transform="translate(98 -8.24)"/><rect class="cls-9" x="516.58" y="59.15" width="13.06" height="972.15"/><rect class="cls-9" x="311.83" y="17.06" width="12.74" height="832.4" transform="translate(-17.06 743.23) rotate(-90)"/><polygon class="cls-9" points="686 295.88 694.23 305.78 354.92 574.12 346.69 564.23 686 295.88"/><rect class="cls-9" x="474.35" y="381.27" width="12.74" height="513.73" transform="translate(-59.42 1110.63) rotate(-90)"/><rect class="cls-9" x="746.09" y="330.53" width="13.06" height="402.98"/><path class="cls-9" d="M654.62,188.64c-46.23,0-83.7,36.54-83.7,81.62s37.47,81.62,83.7,81.62,83.7-36.54,83.7-81.62S700.85,188.64,654.62,188.64Zm0,150.12c-38.8,0-70.26-30.67-70.26-68.51s31.45-68.51,70.26-68.51,70.26,30.67,70.26,68.51S693.42,338.77,654.62,338.77Z" transform="translate(98 -8.24)"/><rect class="cls-10" x="516.58" y="59.15" width="13.06" height="972.15"/><rect class="cls-10" x="311.83" y="17.06" width="12.74" height="832.4" transform="translate(-17.06 743.23) rotate(-90)"/><polygon class="cls-10" points="686 295.88 694.23 305.78 354.92 574.12 346.69 564.23 686 295.88"/><rect class="cls-10" x="474.35" y="381.27" width="12.74" height="513.73" transform="translate(-59.42 1110.63) rotate(-90)"/><rect class="cls-10" x="746.09" y="330.53" width="13.06" height="402.98"/><path class="cls-10" d="M654.62,188.64c-46.23,0-83.7,36.54-83.7,81.62s37.47,81.62,83.7,81.62,83.7-36.54,83.7-81.62S700.85,188.64,654.62,188.64Zm0,150.12c-38.8,0-70.26-30.67-70.26-68.51s31.45-68.51,70.26-68.51,70.26,30.67,70.26,68.51S693.42,338.77,654.62,338.77Z" transform="translate(98 -8.24)"/><path id="L" class="cls-3" d="M735.31,568.69a10,10,0,0,0-10.13-9.88H618.11c-55.88,0-110.74-39.1-110.74-104.52V117.76a10,10,0,0,0-10.13-9.88H428.64a10,10,0,0,0-10.13,9.88V459.92A165.85,165.85,0,0,0,434,530.62a198.08,198.08,0,0,0,41.7,59,203.6,203.6,0,0,0,60.53,40.66c22.88,10.1,48.2,15.16,81.82,15.16H725.18a10,10,0,0,0,10.13-9.88Z" transform="translate(98 -8.24)"/><path id="F-2" data-name="F" class="cls-3" d="M440.15,208.24A10,10,0,0,1,430,218.12H387.55c-55.88,0-110.74,39.1-110.74,104.52v36.18a10,10,0,0,0,10.13,9.88h81.14a10,10,0,0,1,10.13,9.88v51a10,10,0,0,1-10.13,9.88H286.94a10,10,0,0,0-10.13,9.88V725.17A10,10,0,0,1,266.68,735H198.09A10,10,0,0,1,188,725.17V317a165.85,165.85,0,0,1,15.53-70.7,198.08,198.08,0,0,1,41.7-59,203.6,203.6,0,0,1,60.53-40.66c22.88-10.1,48.2-15.16,81.82-15.16H430a10,10,0,0,1,10.13,9.88Z" transform="translate(98 -8.24)"/></g></g></svg>