<svg id="Livello_1" data-name="Livello 1" xmlns="http://www.w3.org/2000/svg" xmlns:xlink="http://www.w3.org/1999/xlink" viewBox="0 0 221.85 225.39"><defs><style>.cls-1,.cls-14{fill:none;}.cls-2{clip-path:url(#clip-path);}.cls-3{fill:#b8c9d0;}.cls-4{clip-path:url(#clip-path-2);}.cls-5{fill:#fabb67;}.cls-6{fill:#8a9da3;}.cls-7{fill:#134058;}.cls-8{fill:#4684c5;}.cls-9{fill:#49bd9b;}.cls-10{fill:#2a75b8;}.cls-11{fill:#fff;}.cls-12{fill:#4487c7;}.cls-13{fill:#e3eaf0;}.cls-14{stroke:#134058;stroke-linecap:round;stroke-miterlimit:10;stroke-width:1.05px;}.cls-15{fill:#123f58;}</style><clipPath id="clip-path" transform="translate(-5.17 -10.63)"><rect class="cls-1" x="5.17" y="10.65" width="221.83" height="225.37"/></clipPath><clipPath id="clip-path-2" transform="translate(-5.17 -10.63)"><rect class="cls-1" x="1.8" y="-0.25" width="227.83" height="246.82"/></clipPath></defs><title>Infografica Co-City</title><g class="cls-2"><path class="cls-3" d="M214.36,64h.85l-1.35-1.17A25.37,25.37,0,0,0,211.27,54a20.4,20.4,0,0,0-5.35-6.67V45.79l.71-.48v-.8h-.8V39.2l-1.66-1.82v-2s.44-.09.4-.3-.7-.5-.7-.5V31.8s.54,0,.54-.27-.85-.39-.85-.39V28.25s.3,0,.34-.18-.44-.35-.44-.35V24.57l-1-13.94h-.71l-.94,13.94v3.15s-.51.18-.47.35.36.18.36.18v2.89s-.87.18-.87.39.55.27.55.27v2.74s-.63.27-.69.5.38.3.38.3v2l-1.66,1.82v5.31h-.81v.8l.7.5v1.54A20.43,20.43,0,0,0,193,54a25.74,25.74,0,0,0-2.6,8.84L189.05,64h.85m.85-.85h22.92l.52.54H190.07Z" transform="translate(-5.17 -10.63)"/></g><g class="cls-4"><rect class="cls-3" x="176.51" y="52.07" width="22.06" height="35.97"/><rect class="cls-3" x="43.03" y="16.46" width="27.37" height="34.86"/><rect class="cls-3" x="183.91" y="57.7" width="2.72" height="6.34"/><polygon class="cls-3" points="168.94 67.3 192.47 67.3 180.71 58.42 168.94 67.3"/><rect class="cls-3" x="171.88" y="67.08" width="18.31" height="20.55"/><rect class="cls-5" x="189.52" y="42.89" width="26.95" height="44.62"/><polygon class="cls-6" points="89.77 73.77 100.27 75.92 108.15 73.77 108.15 30.44 89.77 30.44 89.77 73.77"/><rect class="cls-6" x="69.91" y="26.7" width="27.37" height="71.61"/><path class="cls-7" d="M106.53,120.71a.45.45,0,0,1-.36-.18c-.16-.21-3.88-5.28-3.88-22.74,0-13.5,6.67-13.5,10.25-13.5h15.41a.45.45,0,0,1,.45.42,39.49,39.49,0,0,1-4.65,22.18,29.72,29.72,0,0,1-17.08,13.79l-.14,0m6-35.51c-3.5,0-9.34,0-9.34,12.59,0,8.92,1,14.48,1.85,17.58a18,18,0,0,0,1.68,4.35A28.81,28.81,0,0,0,123,106.45a38.44,38.44,0,0,0,4.56-21.25Z" transform="translate(-5.17 -10.63)"/><path class="cls-5" d="M114.71,224.28q4.11.41,8.27.41a84.22,84.22,0,0,0,17.69-1.88V208.1h-26Z" transform="translate(-5.17 -10.63)"/><path class="cls-8" d="M140.68,222.82q4-.87,8-2.13v-6.57h-8Z" transform="translate(-5.17 -10.63)"/><path class="cls-9" d="M106.75,223.12q3.94.78,8,1.17V214.12h-8Z" transform="translate(-5.17 -10.63)"/><path class="cls-7" d="M137.37,220.78a.45.45,0,0,1-.45-.45v-10.1a.45.45,0,1,1,.91,0v10.1a.45.45,0,0,1-.45.45m-2.42,0a.45.45,0,0,1-.45-.45v-10.1a.45.45,0,0,1,.91,0v10.1a.45.45,0,0,1-.45.45m-2.42,0a.45.45,0,0,1-.45-.45v-10.1a.45.45,0,1,1,.91,0v10.1a.45.45,0,0,1-.45.45m-2.42,0a.45.45,0,0,1-.45-.45v-10.1a.45.45,0,1,1,.91,0v10.1a.45.45,0,0,1-.45.45m-2.42,0a.45.45,0,0,1-.45-.45v-10.1a.45.45,0,0,1,.91,0v10.1a.45.45,0,0,1-.45.45m-2.42,0a.45.45,0,0,1-.45-.45v-10.1a.45.45,0,0,1,.91,0v10.1a.45.45,0,0,1-.45.45m-2.42,0a.45.45,0,0,1-.45-.45v-10.1a.45.45,0,0,1,.91,0v10.1a.45.45,0,0,1-.45.45m-2.42,0a.45.45,0,0,1-.45-.45v-10.1a.45.45,0,1,1,.9,0v10.1a.45.45,0,0,1-.45.45m-2.42,0a.45.45,0,0,1-.45-.45v-10.1a.45.45,0,1,1,.91,0v10.1a.45.45,0,0,1-.45.45" transform="translate(-5.17 -10.63)"/><path class="cls-7" d="M114.71,214.57h-9.5a.45.45,0,1,1,0-.91h9.5a.45.45,0,0,1,0,.91" transform="translate(-5.17 -10.63)"/><path class="cls-7" d="M150.18,214.57h-9.5a.45.45,0,1,1,0-.91h9.5a.45.45,0,0,1,0,.91" transform="translate(-5.17 -10.63)"/><polygon class="cls-10" points="56.26 51.28 33.13 51.28 26.43 57.62 56.26 57.62 56.26 51.28"/><path class="cls-5" d="M67.49,174.67H49.77a17.53,17.53,0,0,1-17.51-17.51V146.63h8.33v10.53a9.18,9.18,0,0,0,9.17,9.17H67.49Z" transform="translate(-5.17 -10.63)"/><path class="cls-5" d="M156.86,183a4.36,4.36,0,0,0-4.35,4.35v20.68a4.36,4.36,0,0,0,4.35,4.35h9.88l1.37-.85A84,84,0,0,0,195.63,183Z" transform="translate(-5.17 -10.63)"/><rect class="cls-8" x="56.26" y="20.6" width="29.84" height="78.16"/><path class="cls-11" d="M86.77,76.5a.45.45,0,0,1-.45-.45,4.05,4.05,0,0,0-.67-2.33,5.32,5.32,0,0,1,0-5.56,4.42,4.42,0,0,0,0-4.66,5.32,5.32,0,0,1,0-5.56,4.42,4.42,0,0,0,0-4.66,5.32,5.32,0,0,1,0-5.56,4.42,4.42,0,0,0,0-4.67,5.32,5.32,0,0,1,0-5.56,4,4,0,0,0,.67-2.33.45.45,0,0,1,.91,0,5,5,0,0,1-.78,2.78,4.42,4.42,0,0,0,0,4.66,5.32,5.32,0,0,1,0,5.56,4.42,4.42,0,0,0,0,4.66,5.32,5.32,0,0,1,0,5.56,4.42,4.42,0,0,0,0,4.66,5.32,5.32,0,0,1,0,5.56,4.42,4.42,0,0,0,0,4.67A5,5,0,0,1,87.22,76a.45.45,0,0,1-.45.45m-3.88,0a.45.45,0,0,1-.45-.45,4.05,4.05,0,0,0-.67-2.33,5.32,5.32,0,0,1,0-5.56,4.42,4.42,0,0,0,0-4.66,5.32,5.32,0,0,1,0-5.56,4.42,4.42,0,0,0,0-4.66,5.32,5.32,0,0,1,0-5.56,4.42,4.42,0,0,0,0-4.67,5.32,5.32,0,0,1,0-5.56,4,4,0,0,0,.67-2.33.45.45,0,1,1,.91,0,5,5,0,0,1-.78,2.78,4.42,4.42,0,0,0,0,4.66,5.32,5.32,0,0,1,0,5.56,4.42,4.42,0,0,0,0,4.66,5.32,5.32,0,0,1,0,5.56,4.42,4.42,0,0,0,0,4.66,5.32,5.32,0,0,1,0,5.56,4.42,4.42,0,0,0,0,4.67A5,5,0,0,1,83.34,76a.45.45,0,0,1-.45.45M79,76.5a.45.45,0,0,1-.45-.45,4.05,4.05,0,0,0-.67-2.33,5.32,5.32,0,0,1,0-5.56,4.42,4.42,0,0,0,0-4.66,5.32,5.32,0,0,1,0-5.56,4.42,4.42,0,0,0,0-4.66,5.32,5.32,0,0,1,0-5.56,4.42,4.42,0,0,0,0-4.67,5.32,5.32,0,0,1,0-5.56,4,4,0,0,0,.67-2.33.45.45,0,1,1,.91,0,5,5,0,0,1-.78,2.78,4.42,4.42,0,0,0,0,4.66,5.32,5.32,0,0,1,0,5.56,4.42,4.42,0,0,0,0,4.66,5.32,5.32,0,0,1,0,5.56,4.42,4.42,0,0,0,0,4.66,5.32,5.32,0,0,1,0,5.56,4.42,4.42,0,0,0,0,4.67A5,5,0,0,1,79.47,76a.45.45,0,0,1-.45.45m-3.88,0a.45.45,0,0,1-.45-.45A4.05,4.05,0,0,0,74,73.71a5.32,5.32,0,0,1,0-5.56,4.42,4.42,0,0,0,0-4.66,5.32,5.32,0,0,1,0-5.56,4.42,4.42,0,0,0,0-4.66,5.32,5.32,0,0,1,0-5.56A4.42,4.42,0,0,0,74,43a5.32,5.32,0,0,1,0-5.56,4,4,0,0,0,.67-2.33.45.45,0,1,1,.91,0,5,5,0,0,1-.78,2.78,4.42,4.42,0,0,0,0,4.66,5.32,5.32,0,0,1,0,5.56,4.42,4.42,0,0,0,0,4.66,5.32,5.32,0,0,1,0,5.56,4.42,4.42,0,0,0,0,4.66,5.32,5.32,0,0,1,0,5.56,4.42,4.42,0,0,0,0,4.67A5,5,0,0,1,75.59,76a.45.45,0,0,1-.45.45m-3.88,0a.45.45,0,0,1-.45-.45,4,4,0,0,0-.67-2.33,5.32,5.32,0,0,1,0-5.56,4.42,4.42,0,0,0,0-4.66,5.32,5.32,0,0,1,0-5.56,4.42,4.42,0,0,0,0-4.66,5.32,5.32,0,0,1,0-5.56,4.42,4.42,0,0,0,0-4.67,5.32,5.32,0,0,1,0-5.56,4,4,0,0,0,.67-2.33.45.45,0,1,1,.91,0,5,5,0,0,1-.78,2.78,4.42,4.42,0,0,0,0,4.66,5.32,5.32,0,0,1,0,5.56,4.42,4.42,0,0,0,0,4.66,5.32,5.32,0,0,1,0,5.56,4.42,4.42,0,0,0,0,4.66,5.32,5.32,0,0,1,0,5.56,4.42,4.42,0,0,0,0,4.67A5,5,0,0,1,71.71,76a.45.45,0,0,1-.45.45m-3.88,0a.45.45,0,0,1-.45-.45,4,4,0,0,0-.67-2.33,5.32,5.32,0,0,1,0-5.56,4.42,4.42,0,0,0,0-4.66,5.32,5.32,0,0,1,0-5.56,4.42,4.42,0,0,0,0-4.66,5.32,5.32,0,0,1,0-5.56,4.42,4.42,0,0,0,0-4.67,5.32,5.32,0,0,1,0-5.56,4,4,0,0,0,.67-2.33.45.45,0,1,1,.91,0,5,5,0,0,1-.78,2.78,4.42,4.42,0,0,0,0,4.66,5.32,5.32,0,0,1,0,5.56,4.42,4.42,0,0,0,0,4.66,5.32,5.32,0,0,1,0,5.56,4.42,4.42,0,0,0,0,4.66,5.32,5.32,0,0,1,0,5.56,4.42,4.42,0,0,0,0,4.67A5,5,0,0,1,67.84,76a.45.45,0,0,1-.45.45" transform="translate(-5.17 -10.63)"/><rect class="cls-5" x="143.78" y="55.81" width="2.72" height="6.34"/><path class="cls-5" d="M136.56,76v8.7h1.53c4,0,9.8.36,9.8,13,0,.21,0,.4,0,.6h7.05V76Z" transform="translate(-5.17 -10.63)"/><path class="cls-7" d="M61.43,109.85H37.36a.45.45,0,0,1-.45-.45V68.25a.45.45,0,0,1,.45-.45H61.43a.45.45,0,0,1,.45.45v41.14a.45.45,0,0,1-.45.45m-23.61-.91H61V68.71H37.82Z" transform="translate(-5.17 -10.63)"/><path class="cls-7" d="M43.55,75.71H40.47a.45.45,0,0,1-.45-.45V72.18a.45.45,0,0,1,.45-.45h3.08a.45.45,0,0,1,.45.45v3.08a.45.45,0,0,1-.45.45m-2.63-.91H43.1V72.63H40.93Z" transform="translate(-5.17 -10.63)"/><path class="cls-7" d="M49.6,75.71H46.51a.45.45,0,0,1-.45-.45V72.18a.45.45,0,0,1,.45-.45H49.6a.45.45,0,0,1,.45.45v3.08a.45.45,0,0,1-.45.45M47,74.81h2.17V72.63H47Z" transform="translate(-5.17 -10.63)"/><path class="cls-7" d="M55.64,75.71H52.56a.45.45,0,0,1-.45-.45V72.18a.45.45,0,0,1,.45-.45h3.08a.45.45,0,0,1,.45.45v3.08a.45.45,0,0,1-.45.45M53,74.81h2.17V72.63H53Z" transform="translate(-5.17 -10.63)"/><path class="cls-3" d="M102.75,97.79c0-6.19,1.38-9.44,3.26-11.15V44.52H84.38v64.88h19a88.69,88.69,0,0,1-.68-11.6" transform="translate(-5.17 -10.63)"/><path class="cls-9" d="M194.84,77.61a6.07,6.07,0,1,0-9.44,0,7.32,7.32,0,1,0,9.44,0" transform="translate(-5.17 -10.63)"/><path class="cls-9" d="M210.33,86.14a3.47,3.47,0,1,0-5.4,0,4.19,4.19,0,1,0,5.4,0" transform="translate(-5.17 -10.63)"/><path class="cls-7" d="M84.38,109.85a.45.45,0,0,1-.45-.45V96.65a.45.45,0,1,1,.91,0v12.74a.45.45,0,0,1-.45.45" transform="translate(-5.17 -10.63)"/><path class="cls-7" d="M190.12,98.85a.45.45,0,0,1-.45-.45V82.71a.45.45,0,1,1,.91,0V98.39a.45.45,0,0,1-.45.45" transform="translate(-5.17 -10.63)"/><path class="cls-9" d="M75.86,194a3.8,3.8,0,1,0-4.3-4,4.58,4.58,0,1,0,4.3,4" transform="translate(-5.17 -10.63)"/><path class="cls-7" d="M64.9,201.79a.45.45,0,0,1-.33-.76l6.71-7.15a.45.45,0,0,1,.66.62l-6.72,7.15a.45.45,0,0,1-.33.14" transform="translate(-5.17 -10.63)"/><path class="cls-7" d="M207.64,98.85a.45.45,0,0,1-.45-.45V89.68a.45.45,0,0,1,.91,0v8.72a.45.45,0,0,1-.45.45" transform="translate(-5.17 -10.63)"/><path class="cls-7" d="M100.54,103.77H87a.45.45,0,0,1,0-.91h13.59a.45.45,0,0,1,0,.91m0-3.26H87a.45.45,0,1,1,0-.91h13.59a.45.45,0,0,1,0,.91m0-3.26H93a.45.45,0,0,1,0-.91h7.56a.45.45,0,0,1,0,.91m0-3.26H96.3a.45.45,0,1,1,0-.91h4.25a.45.45,0,0,1,0,.91m0-3.26H98.12a.45.45,0,0,1,0-.91h2.42a.45.45,0,0,1,0,.91m0-3.26H99a.45.45,0,0,1,0-.91h1.58a.45.45,0,0,1,0,.91m0-3.26H99.18a.45.45,0,0,1,0-.91h1.36a.45.45,0,0,1,0,.91m0-3.26H98.45a.45.45,0,0,1,0-.91h2.09a.45.45,0,0,1,0,.91m0-3.26H97.09a.45.45,0,1,1,0-.91h3.45a.45.45,0,0,1,0,.91m0-3.26H96.29a.45.45,0,1,1,0-.91h4.25a.45.45,0,0,1,0,.91m0-3.26H97.09a.45.45,0,1,1,0-.91h3.45a.45.45,0,0,1,0,.91m0-3.26H97A.45.45,0,0,1,97,67h3.52a.45.45,0,0,1,0,.91m0-3.26H96a.45.45,0,0,1,0-.91h4.51a.45.45,0,0,1,0,.91m0-3.26H93.93a.45.45,0,0,1,0-.91h6.61a.45.45,0,0,1,0,.91m0-3.26H89.33a.45.45,0,1,1,0-.91h11.21a.45.45,0,0,1,0,.91m0-3.26H87a.45.45,0,1,1,0-.91h13.59a.45.45,0,0,1,0,.91m0-3.26H87a.45.45,0,1,1,0-.91h13.59a.45.45,0,0,1,0,.91m0-3.26H87a.45.45,0,1,1,0-.91h13.59a.45.45,0,1,1,0,.91" transform="translate(-5.17 -10.63)"/><path class="cls-7" d="M92.12,149.06a.93.93,0,1,1,.93-.93.93.93,0,0,1-.93.93" transform="translate(-5.17 -10.63)"/><polygon class="cls-9" points="42.6 115.03 39.9 117.82 37.21 115.03 34.51 117.82 31.82 115.03 29.12 117.82 26.43 115.03 23.73 117.82 21.04 115.03 18.34 117.82 15.65 115.03 12.95 117.82 10.26 115.03 7.56 117.82 7.56 125.09 12.95 125.09 18.34 125.09 23.73 125.09 29.12 125.09 34.51 125.09 39.9 125.09 45.29 125.09 45.29 117.82 42.6 115.03"/><path class="cls-7" d="M110.78,197.15a2.46,2.46,0,1,1,2.46-2.46,2.46,2.46,0,0,1-2.46,2.46m0-4a1.55,1.55,0,1,0,1.55,1.55,1.55,1.55,0,0,0-1.55-1.55" transform="translate(-5.17 -10.63)"/><path class="cls-7" d="M156.38,165.84a2.46,2.46,0,1,1,2.46-2.46,2.46,2.46,0,0,1-2.46,2.46m0-4a1.55,1.55,0,1,0,1.55,1.55,1.56,1.56,0,0,0-1.55-1.55" transform="translate(-5.17 -10.63)"/><path class="cls-7" d="M110.78,193.14a.45.45,0,0,1-.45-.45v-5.87a.45.45,0,0,1,.91,0v5.87a.45.45,0,0,1-.45.45" transform="translate(-5.17 -10.63)"/><path class="cls-7" d="M16.65,143.63a2.46,2.46,0,1,1,2.46-2.46,2.46,2.46,0,0,1-2.46,2.46m0-4a1.55,1.55,0,1,0,1.55,1.55,1.55,1.55,0,0,0-1.55-1.55" transform="translate(-5.17 -10.63)"/><path class="cls-7" d="M25,143.63a2.46,2.46,0,1,1,2.46-2.46A2.46,2.46,0,0,1,25,143.63m0-4a1.55,1.55,0,1,0,1.55,1.55A1.55,1.55,0,0,0,25,139.62" transform="translate(-5.17 -10.63)"/><path class="cls-7" d="M33.29,143.63a2.46,2.46,0,1,1,2.46-2.46,2.46,2.46,0,0,1-2.46,2.46m0-4a1.55,1.55,0,1,0,1.55,1.55,1.55,1.55,0,0,0-1.55-1.55" transform="translate(-5.17 -10.63)"/><path class="cls-7" d="M166.43,181.06a2.46,2.46,0,1,1,2.46-2.46,2.46,2.46,0,0,1-2.46,2.46m0-4A1.55,1.55,0,1,0,168,178.6a1.56,1.56,0,0,0-1.55-1.55" transform="translate(-5.17 -10.63)"/><path class="cls-7" d="M173.9,181.06a2.46,2.46,0,1,1,2.46-2.46,2.46,2.46,0,0,1-2.46,2.46m0-4a1.55,1.55,0,1,0,1.55,1.55,1.56,1.56,0,0,0-1.55-1.55" transform="translate(-5.17 -10.63)"/><path class="cls-7" d="M181.38,181.06a2.46,2.46,0,1,1,2.46-2.46,2.46,2.46,0,0,1-2.46,2.46m0-4a1.55,1.55,0,1,0,1.55,1.55,1.56,1.56,0,0,0-1.55-1.55" transform="translate(-5.17 -10.63)"/><path class="cls-7" d="M48,143.63a2.46,2.46,0,1,1,2.46-2.46A2.46,2.46,0,0,1,48,143.63m0-4a1.55,1.55,0,1,0,1.55,1.55A1.55,1.55,0,0,0,48,139.62" transform="translate(-5.17 -10.63)"/><path class="cls-7" d="M37.36,117.53a2.46,2.46,0,1,1,2.46-2.46,2.46,2.46,0,0,1-2.46,2.46m0-4a1.55,1.55,0,1,0,1.55,1.55,1.56,1.56,0,0,0-1.55-1.55" transform="translate(-5.17 -10.63)"/><path class="cls-7" d="M82.89,117.53a2.46,2.46,0,1,1,2.46-2.46,2.46,2.46,0,0,1-2.46,2.46m0-4a1.55,1.55,0,1,0,1.55,1.55,1.56,1.56,0,0,0-1.55-1.55" transform="translate(-5.17 -10.63)"/><path class="cls-7" d="M125,126.21a.45.45,0,0,1-.22-.06L121,124a.45.45,0,0,1-.22-.5l.19-.77c.16-.65.24-1,.78-3.53.68-3.23,0-8.69,0-8.75a.45.45,0,1,1,.9-.11c0,.23.71,5.66,0,9-.54,2.57-.62,2.9-.79,3.56l-.11.43,3.49,1.95a.45.45,0,0,1-.22.85" transform="translate(-5.17 -10.63)"/><path class="cls-7" d="M135,115.23h-7a.45.45,0,0,1-.45-.45,4,4,0,1,1,7.94,0,.45.45,0,0,1-.45.45m-6.55-.91h6.06a3.07,3.07,0,0,0-6.06,0" transform="translate(-5.17 -10.63)"/><path class="cls-7" d="M98.88,136.64a.45.45,0,0,1-.45-.45v-5.77a.45.45,0,0,1,.45-.45,3.34,3.34,0,0,1,0,6.68m.45-5.73v4.78a2.43,2.43,0,0,0,0-4.78" transform="translate(-5.17 -10.63)"/><path class="cls-7" d="M95.29,125.48a.45.45,0,0,1-.45-.45v-5.77a.45.45,0,0,1,.45-.45,3.34,3.34,0,0,1,0,6.68m.45-5.73v4.78a2.43,2.43,0,0,0,0-4.78" transform="translate(-5.17 -10.63)"/><path class="cls-7" d="M129.47,131.75a7.66,7.66,0,0,1-1.61-.17.45.45,0,1,1,.19-.89,6.71,6.71,0,0,0,7.4-3.51.45.45,0,0,1,.81.41,7.62,7.62,0,0,1-6.78,4.15" transform="translate(-5.17 -10.63)"/><path class="cls-7" d="M106.53,120.71a.45.45,0,0,1-.36-.18c-.16-.21-3.88-5.28-3.88-22.74,0-13.5,6.67-13.5,10.25-13.5h15.41a.45.45,0,0,1,.45.42,39.49,39.49,0,0,1-4.65,22.18,29.72,29.72,0,0,1-17.08,13.79l-.14,0m6-35.51c-3.5,0-9.34,0-9.34,12.59,0,8.92,1,14.48,1.85,17.58a18,18,0,0,0,1.68,4.35A28.81,28.81,0,0,0,123,106.45a38.44,38.44,0,0,0,4.56-21.25Z" transform="translate(-5.17 -10.63)"/><path class="cls-7" d="M143.89,116.82a.45.45,0,0,1-.25-.08.45.45,0,0,1-.12-.63c0-.06,3.92-6,3.92-18.33,0-12.59-5.85-12.59-9.34-12.59H128a.45.45,0,1,1,0-.91h10.14c3.58,0,10.25,0,10.25,13.5,0,12.68-3.91,18.59-4.07,18.83a.45.45,0,0,1-.37.2" transform="translate(-5.17 -10.63)"/><path class="cls-7" d="M125.34,141c-6.77,0-16-6.07-16-9.51v-7.88h-1.41a1.81,1.81,0,0,1-1.81-1.81v-1.55a.45.45,0,0,1,.32-.43c10-3.18,17-10.83,19.87-21.55a.45.45,0,0,1,.44-.34h9.87a4.81,4.81,0,0,1,4.8,4.8v12.6h1.41a1.81,1.81,0,0,1,1.81,1.81v4.66a1.81,1.81,0,0,1-1.81,1.81h-1.41v7.88c0,3.44-9.27,9.51-16,9.51M107,120.59v1.22a.9.9,0,0,0,.9.9h1.87a.45.45,0,0,1,.45.45v8.33c0,2.7,8.63,8.61,15.13,8.61s15.13-5.91,15.13-8.61v-8.33a.45.45,0,0,1,.45-.45h1.87a.9.9,0,0,0,.9-.9v-4.66a.91.91,0,0,0-.9-.9h-1.87a.45.45,0,0,1-.45-.45V102.74a3.9,3.9,0,0,0-3.9-3.9H127C124.1,109.58,117,117.28,107,120.59" transform="translate(-5.17 -10.63)"/><path class="cls-7" d="M119.58,115.23h-3a.45.45,0,0,1-.29-.8,28.24,28.24,0,0,0,2.23-2.07.46.46,0,0,1,.35-.14.45.45,0,0,1,.34.18,3.94,3.94,0,0,1,.79,2.38.45.45,0,0,1-.45.45m-1.75-.91h1.27a3,3,0,0,0-.3-.92q-.47.47-1,.92" transform="translate(-5.17 -10.63)"/><path class="cls-7" d="M115.4,110a.45.45,0,0,1-.3-.79,25.59,25.59,0,0,0,8.34-20.89.45.45,0,0,1,.9-.07,26.5,26.5,0,0,1-8.64,21.63.45.45,0,0,1-.3.12" transform="translate(-5.17 -10.63)"/><path class="cls-7" d="M94.29,171.72a.45.45,0,0,1-.45-.45V159.76a9.16,9.16,0,0,1,5.94-8.95l19.29-6.34a.45.45,0,1,1,.28.86L100,151.67a8.12,8.12,0,0,0-5.31,8.09v11.51a.45.45,0,0,1-.45.45" transform="translate(-5.17 -10.63)"/><path class="cls-7" d="M125.34,141c-6.77,0-16-6.07-16-9.51v-7.88h-1.41a1.81,1.81,0,0,1-1.81-1.81v-1.55a.45.45,0,0,1,.32-.43c10-3.18,17-10.83,19.87-21.55a.45.45,0,0,1,.44-.34h9.87a4.81,4.81,0,0,1,4.8,4.8v12.6h1.41a1.81,1.81,0,0,1,1.81,1.81v4.66a1.81,1.81,0,0,1-1.81,1.81h-1.41v7.88c0,3.44-9.27,9.51-16,9.51M107,120.59v1.22a.9.9,0,0,0,.9.9h1.87a.45.45,0,0,1,.45.45v8.33c0,2.7,8.63,8.61,15.13,8.61s15.13-5.91,15.13-8.61v-8.33a.45.45,0,0,1,.45-.45h1.87a.9.9,0,0,0,.9-.9v-4.66a.91.91,0,0,0-.9-.9h-1.87a.45.45,0,0,1-.45-.45V102.74a3.9,3.9,0,0,0-3.9-3.9H127C124.1,109.58,117,117.28,107,120.59" transform="translate(-5.17 -10.63)"/><path class="cls-7" d="M125.34,147.09a12.19,12.19,0,0,1-6.37-1.8.45.45,0,0,1-.22-.39v-5.67a.45.45,0,0,1,.62-.42,14.42,14.42,0,0,0,11.94,0,.45.45,0,0,1,.62.42v5.67a.46.46,0,0,1-.22.39,12.19,12.19,0,0,1-6.37,1.8m-5.68-2.45a11.25,11.25,0,0,0,11.36,0v-4.76a14.94,14.94,0,0,1-11.36,0Z" transform="translate(-5.17 -10.63)"/><path class="cls-7" d="M156.38,161.83a.45.45,0,0,1-.45-.45v-1.62a8.12,8.12,0,0,0-5.3-8.08l-19.3-6.34a.45.45,0,1,1,.28-.86l19.29,6.34a9.15,9.15,0,0,1,5.93,8.95v1.62a.45.45,0,0,1-.45.45" transform="translate(-5.17 -10.63)"/><path class="cls-7" d="M125.39,150.71h-.12a16.94,16.94,0,0,1-10.73-4,.45.45,0,1,1,.57-.7,16,16,0,0,0,10.17,3.81h.11A16.05,16.05,0,0,0,135.56,146a.45.45,0,1,1,.57.7,16.94,16.94,0,0,1-10.74,4" transform="translate(-5.17 -10.63)"/><path class="cls-7" d="M94.29,176.16H77.36a4.53,4.53,0,0,1-4.53-4.53V134.36a4.53,4.53,0,0,1,4.53-4.53h7.39a.45.45,0,0,1,0,.91H77.36a3.62,3.62,0,0,0-3.62,3.62v37.28a3.62,3.62,0,0,0,3.62,3.62H94.29a.45.45,0,0,1,0,.91" transform="translate(-5.17 -10.63)"/><path class="cls-7" d="M94.29,179.06H92.84a.45.45,0,1,1,0-.91h1.45a.45.45,0,0,1,0,.91" transform="translate(-5.17 -10.63)"/><path class="cls-7" d="M87.89,179.06H86.44a.45.45,0,1,1,0-.91h1.45a.45.45,0,1,1,0,.91m-5.68,0H80.76a.45.45,0,1,1,0-.91h1.45a.45.45,0,1,1,0,.91m-5.68,0H76a6.09,6.09,0,0,1-1-.08.45.45,0,0,1,.15-.89,5.17,5.17,0,0,0,.85.07h.52a.45.45,0,1,1,0,.91m-5-2.2a.45.45,0,0,1-.36-.18,6.1,6.1,0,0,1-.79-1.35.45.45,0,1,1,.83-.35,5.22,5.22,0,0,0,.67,1.15.45.45,0,0,1-.36.73m-1.17-5.41a.45.45,0,0,1-.45-.45v-1.45a.45.45,0,1,1,.91,0V171a.45.45,0,0,1-.45.45m0-5.68a.45.45,0,0,1-.45-.45v-1.45a.45.45,0,0,1,.91,0v1.45a.45.45,0,0,1-.45.45m0-5.68a.45.45,0,0,1-.45-.45v-1.45a.45.45,0,1,1,.91,0v1.45a.45.45,0,0,1-.45.45m0-5.67a.45.45,0,0,1-.45-.45v-1.45a.45.45,0,1,1,.91,0V154a.45.45,0,0,1-.45.45m0-5.68a.45.45,0,0,1-.45-.45v-1.45a.45.45,0,1,1,.91,0v1.45a.45.45,0,0,1-.45.45m0-5.68a.45.45,0,0,1-.45-.45v-1.45a.45.45,0,1,1,.91,0v1.45a.45.45,0,0,1-.45.45m0-5.68a.45.45,0,0,1-.45-.45v-1.45a.45.45,0,1,1,.91,0v1.45a.45.45,0,0,1-.45.45m.27-5.65-.14,0a.45.45,0,0,1-.29-.57,6.07,6.07,0,0,1,.67-1.41.45.45,0,1,1,.76.49,5.16,5.16,0,0,0-.57,1.2.45.45,0,0,1-.43.31m4-3.73a.45.45,0,0,1-.11-.89,6,6,0,0,1,1.51-.19h0a.47.47,0,0,1,.47.45.45.45,0,0,1-.44.45,5.24,5.24,0,0,0-1.32.16h-.11m7.11-.18H80.28a.45.45,0,1,1,0-.91h1.45a.45.45,0,0,1,0,.91" transform="translate(-5.17 -10.63)"/><path class="cls-7" d="M94.29,182H74.73a7.71,7.71,0,0,1-7.7-7.7V131.73a7.71,7.71,0,0,1,7.7-7.7h10a.45.45,0,1,1,0,.91h-10a6.8,6.8,0,0,0-6.8,6.79v42.52a6.8,6.8,0,0,0,6.8,6.79H94.29a.45.45,0,0,1,0,.91" transform="translate(-5.17 -10.63)"/><path class="cls-7" d="M100.32,171.72H85.24a4.81,4.81,0,0,1-4.8-4.8V137.65a4.81,4.81,0,0,1,4.8-4.8H98.88a.45.45,0,1,1,0,.91H85.24a3.9,3.9,0,0,0-3.9,3.9v29.26a3.9,3.9,0,0,0,3.9,3.9h15.09a.45.45,0,0,1,0,.91" transform="translate(-5.17 -10.63)"/><path class="cls-7" d="M106.54,195.14H95.68a4.81,4.81,0,0,1-4.8-4.8V181.5a.45.45,0,1,1,.9,0v8.83a3.9,3.9,0,0,0,3.9,3.9h10.87a.45.45,0,0,1,0,.91" transform="translate(-5.17 -10.63)"/><path class="cls-7" d="M152.52,197.9H145a4.81,4.81,0,0,1-4.8-4.8V179.6a.45.45,0,1,1,.91,0v13.5A3.9,3.9,0,0,0,145,197h7.49a.45.45,0,0,1,0,.91" transform="translate(-5.17 -10.63)"/><path class="cls-7" d="M89.1,133.76a.45.45,0,0,1-.45-.45v-8.17a3.45,3.45,0,0,1,3.45-3.45h3.2a.45.45,0,0,1,0,.91h-3.2a2.55,2.55,0,0,0-2.54,2.54v8.17a.45.45,0,0,1-.45.45" transform="translate(-5.17 -10.63)"/><path class="cls-9" d="M118.08,186.82H103.47a3.16,3.16,0,0,1-3.15-3.15V162.79a3.16,3.16,0,0,1,3.15-3.15h14.61a3.16,3.16,0,0,1,3.15,3.15v20.89a3.16,3.16,0,0,1-3.15,3.15" transform="translate(-5.17 -10.63)"/><path class="cls-11" d="M116.64,179H104.91a2,2,0,0,1-2-2V164a2,2,0,0,1,2-2h11.74a2,2,0,0,1,2,2V177a2,2,0,0,1-2,2" transform="translate(-5.17 -10.63)"/><path class="cls-7" d="M115.88,179.42H105.67a3.22,3.22,0,0,1-3.22-3.22V164.79a3.22,3.22,0,0,1,3.22-3.22h10.21a3.22,3.22,0,0,1,3.22,3.22v11.41a3.22,3.22,0,0,1-3.22,3.22m-10.21-16.94a2.31,2.31,0,0,0-2.31,2.31v11.41a2.31,2.31,0,0,0,2.31,2.31h10.21a2.31,2.31,0,0,0,2.31-2.31V164.79a2.31,2.31,0,0,0-2.31-2.31Z" transform="translate(-5.17 -10.63)"/><path class="cls-11" d="M107,183a.86.86,0,1,1-.86-.86.86.86,0,0,1,.86.86" transform="translate(-5.17 -10.63)"/><path class="cls-11" d="M111.64,183a.86.86,0,1,1-.86-.86.86.86,0,0,1,.86.86" transform="translate(-5.17 -10.63)"/><path class="cls-11" d="M116.26,183a.86.86,0,1,1-.86-.86.86.86,0,0,1,.86.86" transform="translate(-5.17 -10.63)"/><path class="cls-7" d="M60.82,147.08H11.08a5.91,5.91,0,1,1,0-11.82H51.17a7,7,0,1,0,0-14.07H38.24a6.13,6.13,0,0,1,0-12.26H98.88a.45.45,0,0,1,0,.91H38.24a5.22,5.22,0,0,0,0,10.45H51.17a7.94,7.94,0,1,1,0,15.88H11.08a5,5,0,1,0,0,10H60.82a.45.45,0,1,1,0,.91" transform="translate(-5.17 -10.63)"/><path class="cls-7" d="M18.12,134.69a.45.45,0,0,1-.45-.45V129.3a.45.45,0,1,1,.91,0v4.94a.45.45,0,0,1-.45.45" transform="translate(-5.17 -10.63)"/><path class="cls-7" d="M23.51,134.69a.45.45,0,0,1-.45-.45V129.3a.45.45,0,1,1,.91,0v4.94a.45.45,0,0,1-.45.45" transform="translate(-5.17 -10.63)"/><path class="cls-7" d="M28.9,134.69a.45.45,0,0,1-.45-.45V129.3a.45.45,0,1,1,.91,0v4.94a.45.45,0,0,1-.45.45" transform="translate(-5.17 -10.63)"/><path class="cls-7" d="M34.29,134.69a.45.45,0,0,1-.45-.45V129.3a.45.45,0,1,1,.91,0v4.94a.45.45,0,0,1-.45.45" transform="translate(-5.17 -10.63)"/><path class="cls-7" d="M39.68,134.69a.45.45,0,0,1-.45-.45V129.3a.45.45,0,1,1,.91,0v4.94a.45.45,0,0,1-.45.45" transform="translate(-5.17 -10.63)"/><path class="cls-7" d="M45.07,134.69a.45.45,0,0,1-.45-.45V129.3a.45.45,0,1,1,.91,0v4.94a.45.45,0,0,1-.45.45" transform="translate(-5.17 -10.63)"/><path class="cls-7" d="M80.89,115.52H39.37a.45.45,0,1,1,0-.91H80.89a.45.45,0,0,1,0,.91" transform="translate(-5.17 -10.63)"/><path class="cls-7" d="M219.43,100.85a2.46,2.46,0,1,1,2.46-2.46,2.46,2.46,0,0,1-2.46,2.46m0-4A1.55,1.55,0,1,0,221,98.39a1.56,1.56,0,0,0-1.55-1.55" transform="translate(-5.17 -10.63)"/><path class="cls-7" d="M176.08,128.3a2.46,2.46,0,1,1,2.46-2.46,2.46,2.46,0,0,1-2.46,2.46m0-4a1.55,1.55,0,1,0,1.55,1.55,1.56,1.56,0,0,0-1.55-1.55" transform="translate(-5.17 -10.63)"/><path class="cls-7" d="M217.43,98.85h-66a.45.45,0,0,1,0-.91h66a.45.45,0,0,1,0,.91" transform="translate(-5.17 -10.63)"/><path class="cls-7" d="M195.88,102.11H151.43a.45.45,0,0,1,0-.91h44.46a.45.45,0,0,1,0,.91" transform="translate(-5.17 -10.63)"/><path class="cls-7" d="M166.35,134.56H143.43a.45.45,0,1,1,0-.91h22.92a.45.45,0,0,1,0,.91" transform="translate(-5.17 -10.63)"/><path class="cls-8" d="M164.49,109.07a3.43,3.43,0,1,1-4.86,0,3.43,3.43,0,0,1,4.86,0" transform="translate(-5.17 -10.63)"/><path class="cls-7" d="M143.43,130.59a.45.45,0,0,1-.32-.77l16.21-16.21a.45.45,0,0,1,.64.64l-16.21,16.21a.45.45,0,0,1-.32.13" transform="translate(-5.17 -10.63)"/><path class="cls-9" d="M203.39,172H163.51a4.17,4.17,0,1,1,0-8.33h39.88a9.18,9.18,0,0,0,9.17-9.17V125.76a4.17,4.17,0,1,1,8.33,0v28.76A17.53,17.53,0,0,1,203.39,172" transform="translate(-5.17 -10.63)"/><rect class="cls-7" x="44.79" y="130.09" width="17.53" height="0.91"/><path class="cls-7" d="M99.7,143.79a.45.45,0,0,1-.39-.21,8.52,8.52,0,0,0-14.25-.33.45.45,0,0,1-.75-.51,9.43,9.43,0,0,1,15.77.36.45.45,0,0,1-.38.69" transform="translate(-5.17 -10.63)"/><path class="cls-7" d="M94.78,146.85a.45.45,0,0,1-.39-.21,2.72,2.72,0,0,0-2.25-1.28,2.68,2.68,0,0,0-2.31,1.18.45.45,0,0,1-.75-.51,3.63,3.63,0,0,1,6.07.14.45.45,0,0,1-.38.69" transform="translate(-5.17 -10.63)"/><path class="cls-7" d="M97.24,145.32a.45.45,0,0,1-.39-.21,5.62,5.62,0,0,0-9.4-.22.45.45,0,0,1-.75-.51,6.53,6.53,0,0,1,10.92.25.45.45,0,0,1-.38.69" transform="translate(-5.17 -10.63)"/><path class="cls-7" d="M94.78,146.85a.45.45,0,0,1-.39-.21,2.72,2.72,0,0,0-4.55-.1.45.45,0,0,1-.75-.51,3.63,3.63,0,0,1,6.07.14.45.45,0,0,1-.38.69" transform="translate(-5.17 -10.63)"/><path class="cls-7" d="M128,74.42a2.12,2.12,0,0,1-2.11-2.11V68.1a2.11,2.11,0,0,1,4.23,0v4.2A2.12,2.12,0,0,1,128,74.42m0-7.52a1.21,1.21,0,0,0-1.21,1.21v4.2a1.21,1.21,0,1,0,2.42,0V68.1A1.21,1.21,0,0,0,128,66.9" transform="translate(-5.17 -10.63)"/><path class="cls-12" d="M130.76,70.31h-5.63a.76.76,0,0,1-.75-.75V65.84a.76.76,0,0,1,.75-.75h5.63a.76.76,0,0,1,.75.75v3.72a.76.76,0,0,1-.75.75" transform="translate(-5.17 -10.63)"/><path class="cls-7" d="M135.14,67.09a.45.45,0,0,1-.27-.82,11.78,11.78,0,1,0-13.85,0,.45.45,0,1,1-.53.73,12.68,12.68,0,1,1,14.92,0,.45.45,0,0,1-.27.09" transform="translate(-5.17 -10.63)"/><path class="cls-5" d="M136.56,56.75a8.61,8.61,0,1,0-12.17,7.83v2.59h7.13V64.58a8.61,8.61,0,0,0,5-7.83" transform="translate(-5.17 -10.63)"/><path class="cls-7" d="M130,67.17h-.91V57.47h-2.27v9.69h-.91V57.47h-.56c-1.38,0-2.26-.74-2.26-1.9s.15-2.15,2-2.15a1.55,1.55,0,0,1,1.58,1.27,7.35,7.35,0,0,1,.18,1.87h2.27a7.32,7.32,0,0,1,.18-1.87,1.55,1.55,0,0,1,1.58-1.27c1.81,0,2,1.11,2,2.15s-.89,1.9-2.26,1.9H130Zm0-10.6h.55c.51,0,1.36-.13,1.36-1s-.12-1.25-1.06-1.25c-.33,0-.57.1-.71.61a6.64,6.64,0,0,0-.15,1.62m-4.94-2.24c-.93,0-1.06.25-1.06,1.25s.85,1,1.36,1h.56a6.59,6.59,0,0,0-.15-1.62c-.15-.51-.38-.61-.71-.61" transform="translate(-5.17 -10.63)"/><path class="cls-7" d="M128,83.44a.45.45,0,0,1-.45-.45v-7.2a.45.45,0,0,1,.91,0V83a.45.45,0,0,1-.45.45" transform="translate(-5.17 -10.63)"/><polygon class="cls-8" points="128.81 65.42 152.34 65.42 140.57 56.54 128.81 65.42"/><path class="cls-7" d="M152.36,79.11H139.13a.45.45,0,1,1,0-.91h13.23a.45.45,0,0,1,0,.91" transform="translate(-5.17 -10.63)"/><path class="cls-7" d="M152.36,82.58H139.13a.45.45,0,1,1,0-.91h13.23a.45.45,0,0,1,0,.91" transform="translate(-5.17 -10.63)"/><path class="cls-7" d="M152.36,86.05h-9.27a.45.45,0,0,1,0-.91h9.27a.45.45,0,0,1,0,.91" transform="translate(-5.17 -10.63)"/><path class="cls-7" d="M152.36,89.52h-6a.45.45,0,1,1,0-.91h6a.45.45,0,0,1,0,.91" transform="translate(-5.17 -10.63)"/><path class="cls-7" d="M152.36,93h-4.9a.45.45,0,0,1,0-.91h4.9a.45.45,0,0,1,0,.91" transform="translate(-5.17 -10.63)"/><path class="cls-13" d="M124,35.36a4.83,4.83,0,0,0-8.54-3.7,6.49,6.49,0,0,0-12.27,3.7Z" transform="translate(-5.17 -10.63)"/><path class="cls-13" d="M176.15,47.21a4.1,4.1,0,0,1,7.25-3.14,5.51,5.51,0,0,1,10.42,3.14Z" transform="translate(-5.17 -10.63)"/><path class="cls-8" d="M169.93,78.25,172.49,72,170,69.6H167.4L164.88,72l2.56,6.24-5.76,8.5s1.91,1.94,7,1.95,7-1.95,7-1.95Z" transform="translate(-5.17 -10.63)"/><path class="cls-7" d="M166.93,78.74a4.37,4.37,0,0,1-1.56-8.45.45.45,0,1,1,.32.85,3.46,3.46,0,0,0,1.69,6.67.45.45,0,0,1,.12.9,4.23,4.23,0,0,1-.57,0" transform="translate(-5.17 -10.63)"/><path class="cls-7" d="M167.68,70.06a.45.45,0,0,1-.45-.45V67.44a.45.45,0,1,1,.91,0V69.6a.45.45,0,0,1-.45.45" transform="translate(-5.17 -10.63)"/><path class="cls-7" d="M166.92,98.85a.45.45,0,0,1-.45-.45V88.61a.45.45,0,1,1,.91,0v9.78a.45.45,0,0,1-.45.45" transform="translate(-5.17 -10.63)"/><path class="cls-7" d="M170.44,78.74a4.24,4.24,0,0,1-.57,0,.45.45,0,0,1,.12-.9,3.46,3.46,0,0,0,1.69-6.67.45.45,0,1,1,.32-.85,4.37,4.37,0,0,1-1.56,8.45" transform="translate(-5.17 -10.63)"/><path class="cls-7" d="M169.7,70.06a.45.45,0,0,1-.45-.45V67.44a.45.45,0,1,1,.91,0V69.6a.45.45,0,0,1-.45.45" transform="translate(-5.17 -10.63)"/><path class="cls-7" d="M168.69,67.62a3.68,3.68,0,0,1-3-1.24c-1.41-1.68-.95-4.43-.93-4.55a.45.45,0,0,1,.89.16s-.41,2.46.73,3.81a3.31,3.31,0,0,0,4.56,0c1.14-1.35.73-3.79.73-3.81a.45.45,0,1,1,.89-.16c0,.12.49,2.87-.93,4.55a3.69,3.69,0,0,1-3,1.24" transform="translate(-5.17 -10.63)"/><path class="cls-7" d="M174.86,67.62a5.26,5.26,0,0,1-2.9-.81.45.45,0,0,1,.53-.74,4.43,4.43,0,0,0,2.38.64,4.2,4.2,0,0,0,2.12-.63c-.87-.81-2.71-2.75-2.71-4.49a8.71,8.71,0,0,0-.7-4c-.84-1.61-2.44-2.4-4.88-2.4s-4,.78-4.88,2.4a8.68,8.68,0,0,0-.7,4c0,1.75-1.84,3.69-2.71,4.5a4.23,4.23,0,0,0,2.12.63,4.37,4.37,0,0,0,2.37-.64.45.45,0,1,1,.53.74,5.19,5.19,0,0,1-6-.34.45.45,0,0,1,0-.69c.79-.66,2.82-2.69,2.82-4.18a9.48,9.48,0,0,1,.81-4.41c1-1.92,2.91-2.89,5.69-2.89s4.69,1,5.69,2.89a9.45,9.45,0,0,1,.81,4.39c0,1.51,2,3.54,2.83,4.2a.45.45,0,0,1,0,.69,5.28,5.28,0,0,1-3.15,1.15" transform="translate(-5.17 -10.63)"/><path class="cls-7" d="M170.45,98.85a.45.45,0,0,1-.45-.45V88.61a.45.45,0,1,1,.91,0v9.78a.45.45,0,0,1-.45.45" transform="translate(-5.17 -10.63)"/><path class="cls-5" d="M159.66,36.58A3.65,3.65,0,1,1,156,32.93a3.65,3.65,0,0,1,3.65,3.65" transform="translate(-5.17 -10.63)"/></g><g class="cls-2"><path class="cls-5" d="M156,46.53a.45.45,0,0,1-.45-.45v-3.6a.45.45,0,0,1,.91,0v3.6a.45.45,0,0,1-.45.45m6.71-2.78a.45.45,0,0,1-.32-.13l-2.54-2.54a.45.45,0,0,1,.64-.64L163,43a.45.45,0,0,1-.32.77m-13.42,0a.45.45,0,0,1-.32-.13.45.45,0,0,1,0-.64l2.54-2.54a.45.45,0,0,1,.64.64l-2.54,2.54a.45.45,0,0,1-.32.13M165.5,37h-3.6a.45.45,0,1,1,0-.91h3.6a.45.45,0,0,1,0,.91m-15.38,0h-3.6a.45.45,0,1,1,0-.91h3.6a.45.45,0,0,1,0,.91m10.06-4.17a.45.45,0,0,1-.32-.77l2.54-2.54a.45.45,0,1,1,.64.64l-2.54,2.54a.46.46,0,0,1-.32.13m-8.33,0a.45.45,0,0,1-.32-.13L149,30.2a.45.45,0,1,1,.64-.64l2.54,2.54a.45.45,0,0,1-.32.77M156,31.15a.45.45,0,0,1-.45-.45V27.1a.45.45,0,0,1,.91,0v3.6a.45.45,0,0,1-.45.45" transform="translate(-5.17 -10.63)"/><path class="cls-7" d="M221.27,126.3h-43a.45.45,0,1,1,0-.91h43a4.84,4.84,0,1,0,0-9.68H178.76a5.56,5.56,0,0,1,0-11.12h17a6.23,6.23,0,0,0,6.25-6.2.45.45,0,1,1,.91,0,7.14,7.14,0,0,1-7.16,7.1h-17a4.65,4.65,0,1,0,0,9.31h42.51a5.75,5.75,0,0,1,0,11.49" transform="translate(-5.17 -10.63)"/></g><g class="cls-4"><path class="cls-7" d="M194.49,130.59a.45.45,0,0,1-.45-.45v-4.29a.45.45,0,1,1,.91,0v4.29a.45.45,0,0,1-.45.45" transform="translate(-5.17 -10.63)"/><path class="cls-7" d="M198.87,134.91a.45.45,0,0,1-.45-.45v-8.61a.45.45,0,1,1,.91,0v8.61a.45.45,0,0,1-.45.45" transform="translate(-5.17 -10.63)"/><path class="cls-7" d="M203.25,138.85a.45.45,0,0,1-.45-.45V125.84a.45.45,0,1,1,.91,0v12.55a.45.45,0,0,1-.45.45" transform="translate(-5.17 -10.63)"/><path class="cls-7" d="M207.63,142.94a.45.45,0,0,1-.45-.45V125.85a.45.45,0,1,1,.91,0v16.64a.45.45,0,0,1-.45.45" transform="translate(-5.17 -10.63)"/><path class="cls-7" d="M194.08,115.71h-6.64v-.45a3.32,3.32,0,0,1,6.64,0Zm-5.7-.91h4.75a2.42,2.42,0,0,0-4.75,0" transform="translate(-5.17 -10.63)"/><path class="cls-7" d="M202.47,115.71h-6.64v-.45a3.32,3.32,0,0,1,6.64,0Zm-5.7-.91h4.75a2.42,2.42,0,0,0-4.75,0" transform="translate(-5.17 -10.63)"/><path class="cls-7" d="M154.27,151a.45.45,0,0,1-.3-.79,18.7,18.7,0,0,0-7.7-32.19.45.45,0,0,1,.22-.88,19.61,19.61,0,0,1,8.08,33.75.45.45,0,0,1-.3.11" transform="translate(-5.17 -10.63)"/><path class="cls-11" d="M212,106a.51.51,0,1,0,.51.51A.51.51,0,0,0,212,106" transform="translate(-5.17 -10.63)"/><path class="cls-11" d="M214.32,106a.51.51,0,1,0,.51.51.51.51,0,0,0-.51-.51" transform="translate(-5.17 -10.63)"/><path class="cls-7" d="M123,236a95.5,95.5,0,0,1-86.44-54.91.45.45,0,1,1,.82-.39,94.59,94.59,0,0,0,171.25,0,.45.45,0,1,1,.82.39A95.5,95.5,0,0,1,123,236" transform="translate(-5.17 -10.63)"/><path class="cls-7" d="M123,225.15a84.62,84.62,0,0,1-76.6-48.66.45.45,0,0,1,.82-.38,83.72,83.72,0,0,0,151.56,0,.45.45,0,0,1,.82.38A84.63,84.63,0,0,1,123,225.15" transform="translate(-5.17 -10.63)"/><path class="cls-7" d="M123.7,230.58a.45.45,0,0,1,0-.91l1.44,0a.45.45,0,0,1,0,.91l-1.46,0Zm-4.22-.07h0l-1.45-.07a.45.45,0,0,1,.05-.9l1.44.07a.45.45,0,0,1,0,.91m9.9-.16a.45.45,0,0,1,0-.91l1.44-.11a.45.45,0,1,1,.08.9l-1.46.12h0m-15.55-.24h0l-1.44-.16a.45.45,0,0,1,.11-.9l1.43.16a.45.45,0,0,1,0,.9m21.2-.34a.45.45,0,0,1-.06-.9l1.43-.21a.45.45,0,0,1,.14.9l-1.45.21H135m-26.81-.41h-.08l-1.43-.25a.45.45,0,1,1,.16-.89l1.42.25a.45.45,0,0,1-.07.9m32.42-.53a.45.45,0,0,1-.09-.9l1.42-.3a.45.45,0,0,1,.19.89l-1.43.3h-.09m-38-.58h-.1l-1.41-.34a.45.45,0,0,1,.22-.88l1.4.34a.45.45,0,0,1-.1.89m43.5-.71a.45.45,0,0,1-.12-.89l1.39-.38a.45.45,0,0,1,.25.87l-1.41.39-.12,0m-49-.74-.13,0-1.39-.43a.45.45,0,0,1,.27-.86l1.38.43a.45.45,0,0,1-.13.89m54.41-.9a.45.45,0,0,1-.14-.88l1.36-.47a.45.45,0,0,1,.3.85l-1.38.48-.15,0M91.81,225l-.16,0-1.36-.52a.45.45,0,0,1,.33-.85l1.35.51a.45.45,0,0,1-.16.88m65.11-1.08a.45.45,0,0,1-.17-.87l1.33-.56a.45.45,0,1,1,.36.83l-1.35.56a.45.45,0,0,1-.17,0m-70.36-1.06a.46.46,0,0,1-.18,0l-1.33-.6a.45.45,0,0,1,.38-.82l1.31.6a.45.45,0,0,1-.18.87m75.54-1.25a.45.45,0,0,1-.2-.86l1.29-.64a.45.45,0,0,1,.41.81l-1.31.65a.44.44,0,0,1-.2,0m-80.65-1.22a.45.45,0,0,1-.21-.05L80,219.64a.45.45,0,0,1,.43-.79l1.27.68a.45.45,0,0,1-.21.85M167.13,219a.45.45,0,0,1-.22-.85l1.25-.72a.45.45,0,0,1,.46.78l-1.26.73a.45.45,0,0,1-.22.06m-90.61-1.36a.44.44,0,0,1-.23-.07L75,216.76a.45.45,0,1,1,.48-.77l1.23.76a.45.45,0,0,1-.24.84M172,216a.45.45,0,0,1-.25-.83l1.2-.8a.45.45,0,1,1,.51.75l-1.21.81a.45.45,0,0,1-.25.07M71.76,214.5a.46.46,0,0,1-.26-.08l-1.19-.84a.45.45,0,0,1,.53-.74l1.18.83a.45.45,0,0,1-.26.83m104.86-1.74a.45.45,0,0,1-.27-.82l1.15-.87a.45.45,0,0,1,.55.72l-1.16.88a.45.45,0,0,1-.27.09M67.21,211.11a.45.45,0,0,1-.28-.1l-1.13-.92a.45.45,0,0,1,.57-.7l1.12.91a.45.45,0,0,1-.28.81m113.85-1.89a.45.45,0,0,1-.29-.8l1.09-.94a.45.45,0,0,1,.6.68l-1.1,1a.45.45,0,0,1-.29.11M62.88,207.44a.45.45,0,0,1-.3-.12l-1.07-1a.45.45,0,1,1,.62-.66l1.06,1a.45.45,0,0,1-.3.79m122.38-2a.45.45,0,0,1-.32-.78l1-1a.45.45,0,1,1,.64.64l-1,1a.45.45,0,0,1-.31.13M58.79,203.5a.45.45,0,0,1-.32-.14l-1-1.05a.45.45,0,0,1,.66-.62l1,1a.45.45,0,0,1-.32.77m130.42-2.15a.45.45,0,0,1-.34-.76l1-1.07a.45.45,0,1,1,.68.6l-1,1.08a.45.45,0,0,1-.33.15M55,199.31a.45.45,0,0,1-.34-.16L53.67,198a.45.45,0,0,1,.7-.58l.93,1.1a.45.45,0,0,1-.34.75M192.89,197a.45.45,0,0,1-.35-.74l.89-1.13a.45.45,0,0,1,.72.56l-.9,1.14a.45.45,0,0,1-.35.17M51.4,194.88a.45.45,0,0,1-.36-.18l-.87-1.17a.45.45,0,1,1,.73-.53l.86,1.16a.45.45,0,0,1-.36.73m144.89-2.37a.44.44,0,0,1-.26-.08.45.45,0,0,1-.11-.63l.82-1.18a.45.45,0,0,1,.75.51l-.83,1.19a.45.45,0,0,1-.37.19M48.13,190.23a.45.45,0,0,1-.38-.2L47,188.8a.45.45,0,0,1,.76-.49l.78,1.22a.45.45,0,0,1-.38.7m151.27-2.46a.45.45,0,0,1-.38-.69l.74-1.23a.45.45,0,1,1,.78.46l-.75,1.24a.45.45,0,0,1-.39.22M45.16,185.39a.45.45,0,0,1-.39-.23L44,183.89a.45.45,0,0,1,.79-.44l.71,1.26a.45.45,0,0,1-.39.68m157-2.53a.45.45,0,0,1-.4-.67l.66-1.28a.45.45,0,0,1,.81.41l-.67,1.29a.45.45,0,0,1-.4.24M42.5,180.36a.45.45,0,0,1-.41-.25q-.32-.65-.63-1.31a.45.45,0,1,1,.82-.38l.62,1.3a.45.45,0,0,1-.41.65" transform="translate(-5.17 -10.63)"/><rect class="cls-7" x="178.22" y="167.52" width="14.66" height="0.91"/><path class="cls-9" d="M63.54,187.86c-2.21,1.61-5.06,1.46-6.35-.32s-.55-4.53,1.66-6.14,5.06-1.46,6.35.32.55,4.53-1.66,6.14" transform="translate(-5.17 -10.63)"/><path class="cls-7" d="M54.52,189.93a.45.45,0,0,1-.27-.82l5.33-3.87a.45.45,0,1,1,.53.73l-5.33,3.87a.45.45,0,0,1-.27.09" transform="translate(-5.17 -10.63)"/><rect class="cls-12" x="86.86" y="198.95" width="1.94" height="23.42" transform="translate(-144.96 183.21) rotate(-63.14)"/><rect class="cls-12" x="89.44" y="197.2" width="1.94" height="16.76" transform="translate(-139.01 182.72) rotate(-63.14)"/><path class="cls-7" d="M82.86,208.6a.45.45,0,0,1-.4-.66L85,202.85a.45.45,0,1,1,.81.41l-2.58,5.09a.45.45,0,0,1-.4.25" transform="translate(-5.17 -10.63)"/><path class="cls-7" d="M77,211.33a.45.45,0,0,1-.4-.66l2.21-4.35a.45.45,0,0,1,.81.41l-2.2,4.36a.46.46,0,0,1-.4.25" transform="translate(-5.17 -10.63)"/><path class="cls-7" d="M92.81,213.64a.45.45,0,0,1-.4-.66L95,207.89a.45.45,0,0,1,.81.41l-2.58,5.09a.45.45,0,0,1-.4.25" transform="translate(-5.17 -10.63)"/><path class="cls-7" d="M94.07,220a.44.44,0,0,1-.2,0,.45.45,0,0,1-.2-.61L95.88,215a.45.45,0,0,1,.81.41l-2.2,4.36a.45.45,0,0,1-.4.25" transform="translate(-5.17 -10.63)"/><polygon class="cls-10" points="131.92 189.22 122.52 189.22 113.13 189.22 106.83 197.47 122.52 197.47 138.22 197.47 131.92 189.22"/><rect class="cls-5" x="113.13" y="184.78" width="18.79" height="4.44"/><polygon class="cls-8" points="131.92 184.78 113.13 184.78 122.52 177.47 131.92 184.78"/><path class="cls-7" d="M134.95,199.14a.45.45,0,0,1-.45-.45v-2.12a.45.45,0,0,1,.91,0v2.12a.45.45,0,0,1-.45.45m-2.42,0a.45.45,0,0,1-.45-.45v-2.12a.45.45,0,0,1,.91,0v2.12a.45.45,0,0,1-.45.45m-2.42,0a.45.45,0,0,1-.45-.45v-2.12a.45.45,0,0,1,.91,0v2.12a.45.45,0,0,1-.45.45m-2.42,0a.45.45,0,0,1-.45-.45v-2.12a.45.45,0,0,1,.91,0v2.12a.45.45,0,0,1-.45.45m-2.42,0a.45.45,0,0,1-.45-.45v-2.12a.45.45,0,0,1,.91,0v2.12a.45.45,0,0,1-.45.45m-2.42,0a.45.45,0,0,1-.45-.45v-2.12a.45.45,0,1,1,.91,0v2.12a.45.45,0,0,1-.45.45m-2.42,0a.45.45,0,0,1-.45-.45v-2.12a.45.45,0,1,1,.91,0v2.12a.45.45,0,0,1-.45.45" transform="translate(-5.17 -10.63)"/><path class="cls-7" d="M139.86,201.38H115.52a.45.45,0,1,1,0-.91h24.34a.45.45,0,0,1,0,.91" transform="translate(-5.17 -10.63)"/><path class="cls-7" d="M136.63,194.16H118.76a.45.45,0,1,1,0-.91h17.87a.45.45,0,0,1,0,.91" transform="translate(-5.17 -10.63)"/><path class="cls-7" d="M173,208.69h-21.7a.45.45,0,0,1,0-.91H173a.45.45,0,0,1,0,.91" transform="translate(-5.17 -10.63)"/><path class="cls-7" d="M158,189.76a2.08,2.08,0,1,1,2.08-2.08,2.09,2.09,0,0,1-2.08,2.08m0-3.26a1.18,1.18,0,1,0,1.18,1.18A1.18,1.18,0,0,0,158,186.5" transform="translate(-5.17 -10.63)"/><path class="cls-7" d="M162.71,189.76a2.08,2.08,0,1,1,2.08-2.08,2.09,2.09,0,0,1-2.08,2.08m0-3.26a1.18,1.18,0,1,0,1.18,1.18,1.18,1.18,0,0,0-1.18-1.18" transform="translate(-5.17 -10.63)"/><path class="cls-7" d="M167.42,189.76a2.08,2.08,0,1,1,2.08-2.08,2.09,2.09,0,0,1-2.08,2.08m0-3.26a1.18,1.18,0,1,0,1.18,1.18,1.18,1.18,0,0,0-1.18-1.18" transform="translate(-5.17 -10.63)"/><path class="cls-11" d="M189.5,192.11H156.38v5.16h28.78q2.27-2.49,4.34-5.16" transform="translate(-5.17 -10.63)"/><path class="cls-7" d="M185.16,197.72H156.38a.45.45,0,0,1-.45-.45v-5.16a.45.45,0,0,1,.45-.45H189.5a.45.45,0,0,1,.36.73c-1.4,1.8-2.86,3.55-4.36,5.19a.46.46,0,0,1-.34.15m-28.33-.91H185c1.23-1.36,2.44-2.78,3.61-4.25H156.83Z" transform="translate(-5.17 -10.63)"/><path class="cls-11" d="M181.74,200.8H156.38v3.53h21.51q2-1.7,3.85-3.53" transform="translate(-5.17 -10.63)"/><path class="cls-7" d="M177.89,204.78H156.38a.45.45,0,0,1-.45-.45V200.8a.45.45,0,0,1,.45-.45h25.36a.45.45,0,0,1,.32.78c-1.26,1.22-2.56,2.41-3.87,3.54a.45.45,0,0,1-.29.11m-21.05-.91h20.89c1-.84,1.95-1.72,2.89-2.62H156.83Z" transform="translate(-5.17 -10.63)"/><path class="cls-7" d="M65.14,171H63.69a.45.45,0,0,1,0-.91h1.45a.45.45,0,0,1,0,.91m-5.68,0H58a.45.45,0,1,1,0-.91h1.45a.45.45,0,1,1,0,.91m-5.67,0H52.34a.45.45,0,0,1,0-.91h1.45a.45.45,0,0,1,0,.91m-5.67-.1h-.06a13.7,13.7,0,0,1-1.47-.27.45.45,0,1,1,.21-.88,13,13,0,0,0,1.38.25.45.45,0,0,1-.06.9M42.81,169a.46.46,0,0,1-.24-.07,13.77,13.77,0,0,1-1.23-.85.45.45,0,1,1,.56-.72,12.75,12.75,0,0,0,1.15.8.45.45,0,0,1-.24.84m-4.07-3.89a.45.45,0,0,1-.37-.2,13.77,13.77,0,0,1-.78-1.28.45.45,0,1,1,.8-.43,13.08,13.08,0,0,0,.72,1.2.45.45,0,0,1-.37.71m-2.12-5.22a.45.45,0,0,1-.45-.38A14,14,0,0,1,36,158a.45.45,0,1,1,.9-.06,12.89,12.89,0,0,0,.16,1.39.45.45,0,0,1-.37.52h-.08m-.19-5.66a.45.45,0,0,1-.45-.45V152.3a.45.45,0,0,1,.91,0v1.45a.45.45,0,0,1-.45.45m0-5.68a.45.45,0,0,1-.45-.45v-1.45a.45.45,0,0,1,.91,0v1.45a.45.45,0,0,1-.45.45" transform="translate(-5.17 -10.63)"/><path class="cls-7" d="M201.68,168.31h-1.45a.45.45,0,1,1,0-.91h1.45a.45.45,0,0,1,0,.91m-5.68,0h-1.45a.45.45,0,0,1,0-.91H196a.45.45,0,1,1,0,.91m-5.68,0h-1.45a.45.45,0,1,1,0-.91h1.45a.45.45,0,1,1,0,.91m-5.68,0H183.2a.45.45,0,1,1,0-.91h1.45a.45.45,0,1,1,0,.91m-5.68,0h-1.45a.45.45,0,1,1,0-.91H179a.45.45,0,1,1,0,.91m-5.68,0h-1.45a.45.45,0,0,1,0-.91h1.45a.45.45,0,1,1,0,.91m-5.68,0h-1.45a.45.45,0,1,1,0-.91h1.45a.45.45,0,1,1,0,.91m38.26-.24a.45.45,0,0,1-.08-.9,12.69,12.69,0,0,0,1.36-.34.45.45,0,1,1,.27.87,13.91,13.91,0,0,1-1.45.36h-.09m5.18-2.21a.45.45,0,0,1-.26-.82,12.91,12.91,0,0,0,1.1-.87.45.45,0,1,1,.6.68,13.81,13.81,0,0,1-1.17.93.45.45,0,0,1-.26.08m3.82-4.14a.45.45,0,0,1-.23-.06.45.45,0,0,1-.16-.62,12.79,12.79,0,0,0,.65-1.24.45.45,0,1,1,.83.37,13.94,13.94,0,0,1-.69,1.33.45.45,0,0,1-.39.22m1.77-5.34h0a.45.45,0,0,1-.4-.5,12.82,12.82,0,0,0,.07-1.36v0a.45.45,0,1,1,.91,0v0a13.84,13.84,0,0,1-.08,1.46.45.45,0,0,1-.45.4m.07-5.67a.45.45,0,0,1-.45-.45V148.8a.45.45,0,1,1,.91,0v1.45a.45.45,0,0,1-.45.45m0-5.68a.45.45,0,0,1-.45-.45v-1.45a.45.45,0,1,1,.91,0v1.45a.45.45,0,0,1-.45.45m0-5.68a.45.45,0,0,1-.45-.45v-1.45a.45.45,0,1,1,.91,0v1.45a.45.45,0,0,1-.45.45m0-5.68a.45.45,0,0,1-.45-.45v-1.45a.45.45,0,1,1,.91,0v1.45a.45.45,0,0,1-.45.45m0-5.68a.45.45,0,0,1-.45-.45V126.1a.45.45,0,0,1,.91,0v1.45a.45.45,0,0,1-.45.45" transform="translate(-5.17 -10.63)"/><path class="cls-7" d="M152.4,172,149.11,169v-7a.43.43,0,0,0-.43-.43H144a.43.43,0,0,0-.43.43v2l-3.57-3.2a.43.43,0,0,0-.57,0L127,172a.43.43,0,0,0,.29.75H129V184.3a2.14,2.14,0,0,0,2.14,2.14h17.13a2.14,2.14,0,0,0,2.14-2.14V172.73h1.71a.43.43,0,0,0,.29-.75" transform="translate(-5.17 -10.63)"/><path class="cls-5" d="M128.39,171.88h1a.43.43,0,0,1,.43.43v12a1.29,1.29,0,0,0,1.29,1.28H135V174a.43.43,0,0,1,.43-.43H144a.43.43,0,0,1,.43.43v11.56h3.85a1.29,1.29,0,0,0,1.29-1.28v-12a.43.43,0,0,1,.43-.43h1l-11.3-10.13Z" transform="translate(-5.17 -10.63)"/><polygon points="139.23 151.83 143.09 151.83 143.09 157.65 139.23 154.19 139.23 151.83"/><rect x="130.67" y="171.96" width="3.43" height="3"/><rect x="130.67" y="167.67" width="3.43" height="3.43"/><rect x="130.67" y="163.82" width="3.43" height="3"/><rect x="134.95" y="171.96" width="3.43" height="3"/><rect x="134.95" y="167.67" width="3.43" height="3.43"/><rect x="134.95" y="163.82" width="3.43" height="3"/><polygon class="cls-5" points="143.09 151.83 139.23 151.83 139.23 154.19 143.09 157.65 143.09 151.83"/><rect class="cls-11" x="134.95" y="167.67" width="3.43" height="3.43"/><rect class="cls-11" x="134.95" y="163.82" width="3.43" height="3"/><rect class="cls-11" x="130.67" y="163.82" width="3.43" height="3"/><rect class="cls-11" x="130.67" y="167.67" width="3.43" height="3.43"/><rect class="cls-11" x="130.67" y="171.96" width="3.43" height="3"/><rect class="cls-11" x="134.95" y="171.96" width="3.43" height="3"/><rect class="cls-7" x="136.66" y="168.96" width="0.86" height="0.86"/><rect x="133.24" y="157.39" width="0.86" height="1.29"/><path d="M139.26,167.17h-.86v-.43a1.28,1.28,0,0,1,.86-1.21Z" transform="translate(-5.17 -10.63)"/><rect x="134.95" y="157.39" width="0.86" height="1.29"/><path d="M141,167.17h-.86v-1.63a1.28,1.28,0,0,1,.86,1.21Z" transform="translate(-5.17 -10.63)"/><path class="cls-7" d="M139.69,164.6a2.14,2.14,0,0,0-2.14,2.14v3a.43.43,0,0,0,.43.43h3.43a.43.43,0,0,0,.43-.43v-3a2.14,2.14,0,0,0-2.14-2.14" transform="translate(-5.17 -10.63)"/><path class="cls-11" d="M138.41,166.74v.43h.86v-1.63a1.28,1.28,0,0,0-.86,1.21" transform="translate(-5.17 -10.63)"/><rect class="cls-11" x="133.24" y="157.39" width="0.86" height="1.29"/><rect class="cls-11" x="134.95" y="157.39" width="0.86" height="1.29"/><path class="cls-11" d="M140.12,165.53v1.63H141v-.43a1.28,1.28,0,0,0-.86-1.21" transform="translate(-5.17 -10.63)"/><rect class="cls-7" x="132.38" y="160.39" width="0.86" height="0.86"/><rect class="cls-7" x="134.09" y="160.39" width="0.86" height="0.86"/><rect class="cls-7" x="135.81" y="160.39" width="0.86" height="0.86"/><path class="cls-7" d="M178.24,145.69a1.21,1.21,0,1,0-1.21-1.21,1.21,1.21,0,0,0,1.21,1.21m0-1.61a.4.4,0,1,1-.4.4.4.4,0,0,1,.4-.4" transform="translate(-5.17 -10.63)"/><path class="cls-7" d="M201.23,146.11l-.6-.6-6.08,6.08-.07-.08-3.58-3.57.55-.55-.6-.6L189.59,148a2,2,0,0,1-2.5.28l3.09-3.06h0l8.07-8.07-.6-.6-7.77,7.77-.55-.55a.42.42,0,0,0-.3-.12H187.5l-.73-.72L180.83,137l-.6.6,3.95,3.95L178.74,147l-3-2.77-.57.63,5,4.55v1.09a.43.43,0,0,0,.13.3l1.84,1.84a6.19,6.19,0,0,0,2.29,3.38,2.39,2.39,0,0,0,3.11,2.45l0,0a1.7,1.7,0,0,0,2.4,0l4.57-4.57a1.69,1.69,0,0,0,.5-1.2,1.71,1.71,0,0,0,0-.32Zm-16.45-3.95,1.1,1.1-5.36,5.36-1.15-1.05Zm-2.12,11.24a.47.47,0,0,1,.14-.34l2-2a.48.48,0,0,1,.81.34.48.48,0,0,1-.14.34l-2,2a.48.48,0,0,1-.81-.34m1.28,1.27a.47.47,0,0,1,.14-.34l2-2a.48.48,0,1,1,.67.67l-2,2a.48.48,0,0,1-.81-.34M185.2,156a.48.48,0,0,1,.14-.34l2-2a.48.48,0,1,1,.67.67l-2,2a.48.48,0,0,1-.81-.34m1.28,1.27a.47.47,0,0,1,.14-.34l2-2a.48.48,0,0,1,.81.34.48.48,0,0,1-.14.34l-2,2a.48.48,0,0,1-.81-.34m7.4-3.92-4.57,4.57a.87.87,0,0,1-1.16,0l1.77-1.77a5.21,5.21,0,0,0-2.17-3.54,2.25,2.25,0,0,0-3.53-2.16L182.65,152l-1.7-1.7v-.92l5.52-5.52.55.55a.43.43,0,0,0,.3.13h1.52l.42.42-3.12,3.1a.43.43,0,0,0,0,.6,2.87,2.87,0,0,0,4,0l.11-.11,3.58,3.57a.85.85,0,0,1,0,1.2" transform="translate(-5.17 -10.63)"/><path class="cls-7" d="M178,154.12l-.71.39c.13.24.28.48.43.72l.68-.44c-.14-.22-.27-.44-.4-.67" transform="translate(-5.17 -10.63)"/><path class="cls-7" d="M183.42,159.86c.26.1.52.19.79.26l.23-.77c-.25-.07-.5-.15-.74-.25Z" transform="translate(-5.17 -10.63)"/><path class="cls-7" d="M180.5,158.26c.22.17.45.33.68.48l.44-.68c-.22-.14-.43-.29-.64-.44Z" transform="translate(-5.17 -10.63)"/><path class="cls-7" d="M181.9,159.16c.24.13.49.26.75.37l.34-.73c-.24-.11-.47-.23-.69-.35Z" transform="translate(-5.17 -10.63)"/><path class="cls-7" d="M179.24,157.17c.2.2.4.39.61.57l.53-.61c-.19-.17-.39-.35-.57-.53Z" transform="translate(-5.17 -10.63)"/><path class="cls-7" d="M178.79,155.43l-.64.48c.17.22.34.44.52.65l.61-.53c-.17-.19-.33-.4-.49-.6" transform="translate(-5.17 -10.63)"/><path class="cls-7" d="M176.65,149.69l-.8.06c0,.28,0,.56.09.83l.8-.11c0-.25-.06-.51-.08-.77" transform="translate(-5.17 -10.63)"/><path class="cls-7" d="M176.65,148.14l-.8-.06c0,.27,0,.55,0,.83h.81c0-.26,0-.52,0-.78" transform="translate(-5.17 -10.63)"/><path class="cls-7" d="M176.87,151.22l-.79.17c.06.27.13.54.21.81l.77-.23c-.07-.25-.14-.5-.19-.75" transform="translate(-5.17 -10.63)"/><path class="cls-7" d="M177.31,152.71l-.76.28c.1.26.2.52.32.77l.73-.34c-.11-.23-.21-.47-.3-.72" transform="translate(-5.17 -10.63)"/><path class="cls-7" d="M197,154.12l.71.39c.13-.24.26-.49.37-.74l-.73-.34c-.11.24-.23.47-.35.69" transform="translate(-5.17 -10.63)"/><path class="cls-7" d="M196.2,155.43l.64.48c.17-.22.33-.45.48-.68l-.68-.44c-.14.22-.29.43-.44.64" transform="translate(-5.17 -10.63)"/><path class="cls-7" d="M195.19,156.6l.57.57c.2-.2.39-.4.57-.61l-.61-.53c-.17.2-.35.39-.53.57" transform="translate(-5.17 -10.63)"/><path class="cls-7" d="M197.69,152.71l.75.28c.1-.26.18-.53.26-.79l-.77-.23c-.07.25-.15.49-.24.74" transform="translate(-5.17 -10.63)"/><path class="cls-7" d="M198.13,151.22l.79.17c.06-.27.11-.55.15-.82l-.8-.11c0,.26-.08.51-.14.76" transform="translate(-5.17 -10.63)"/><path class="cls-7" d="M194,157.62l.48.65c.22-.17.44-.34.65-.52l-.53-.61c-.19.17-.4.33-.6.49" transform="translate(-5.17 -10.63)"/><path class="cls-7" d="M185,160.33c.27.06.54.11.82.15l.11-.8c-.26,0-.51-.08-.76-.14Z" transform="translate(-5.17 -10.63)"/><path class="cls-7" d="M198.35,149.69l.8.06c0-.27,0-.55,0-.83h-.81c0,.26,0,.52,0,.78" transform="translate(-5.17 -10.63)"/><path class="cls-7" d="M188.28,159.76l.06.8c.28,0,.56,0,.83-.09l-.11-.8-.77.08" transform="translate(-5.17 -10.63)"/><path class="cls-7" d="M186.72,159.76l-.06.8.83,0v-.81l-.77,0" transform="translate(-5.17 -10.63)"/><path class="cls-7" d="M192.71,158.46l.39.71c.24-.13.48-.28.72-.43l-.44-.68c-.22.14-.44.27-.67.4" transform="translate(-5.17 -10.63)"/><path class="cls-7" d="M191.3,159.1l.28.76c.26-.1.52-.2.77-.32l-.34-.73c-.24.11-.48.21-.72.3" transform="translate(-5.17 -10.63)"/><path class="cls-7" d="M189.81,159.54l.17.79c.27-.06.54-.13.81-.21l-.23-.77-.75.19" transform="translate(-5.17 -10.63)"/><path class="cls-7" d="M192.93,138.65c-.25-.14-.49-.28-.74-.39l-.36.72c.22.11.45.23.68.37Z" transform="translate(-5.17 -10.63)"/><path class="cls-7" d="M187.5,138h.62l0-.8-.66,0h-.17v.8Z" transform="translate(-5.17 -10.63)"/><path class="cls-7" d="M191.43,137.91c-.26-.1-.53-.19-.8-.27l-.23.77c.24.07.49.15.73.25Z" transform="translate(-5.17 -10.63)"/><path class="cls-7" d="M189.82,137.44c-.27-.05-.55-.1-.83-.13l-.09.8c.26,0,.52.07.76.12Z" transform="translate(-5.17 -10.63)"/><path class="cls-7" d="M183.55,138.77l-.29-.75c-.26.1-.52.21-.76.33l.35.73.71-.31" transform="translate(-5.17 -10.63)"/><path class="cls-7" d="M185,138.32l-.18-.78c-.27.06-.54.14-.81.22l.24.77.75-.2" transform="translate(-5.17 -10.63)"/><path class="cls-7" d="M186.57,138.08l-.07-.8-.83.1.13.79.77-.09" transform="translate(-5.17 -10.63)"/><path class="cls-7" d="M147,57.2h7.68a.53.53,0,0,0,0-1.07H147a.53.53,0,0,0,0,1.07" transform="translate(-5.17 -10.63)"/><path class="cls-7" d="M147,59.78h7.68a.53.53,0,1,0,0-1.07H147a.53.53,0,1,0,0,1.07" transform="translate(-5.17 -10.63)"/><path class="cls-7" d="M143.79,63.23h1.72V65a.54.54,0,0,0,.3.48.51.51,0,0,0,.23.05.57.57,0,0,0,.33-.1l2.86-2.18h8.62a.53.53,0,0,0,.53-.53v-9.5a.53.53,0,0,0-.53-.53H143.79a.53.53,0,0,0-.53.53V62.7a.54.54,0,0,0,.53.53m.53-9.48h13v8.41h-8.26a.57.57,0,0,0-.32.1l-2.15,1.64V62.7a.53.53,0,0,0-.53-.53h-1.72Z" transform="translate(-5.17 -10.63)"/><path class="cls-9" d="M176.11,131.74a5.79,5.79,0,1,0-5.35-3.57,5.74,5.74,0,0,0,5.35,3.57m-1.92-10.42a5,5,0,1,1-2.72,6.55,5,5,0,0,1,2.72-6.55" transform="translate(-5.17 -10.63)"/><path class="cls-7" d="M167.1,129.19a.39.39,0,0,0,.36.26l.13,0a.39.39,0,0,0,.24-.5,8.8,8.8,0,0,1,14.43-9.27h-1a.39.39,0,0,0,0,.77h0l1.92,0a.38.38,0,0,0,.27-.12.39.39,0,0,0,.11-.27l0-1.92a.38.38,0,0,0-.39-.38.39.39,0,0,0-.38.39v1a9.57,9.57,0,0,0-15.69,10.09" transform="translate(-5.17 -10.63)"/><path class="cls-7" d="M182.4,132.1a8.81,8.81,0,0,1-12.43.15h1a.39.39,0,0,0,0-.77h0l-1.92,0a.39.39,0,0,0-.38.39l0,1.92a.39.39,0,0,0,.39.38h0a.39.39,0,0,0,.38-.39v-1a9.57,9.57,0,0,0,15.69-10.08.39.39,0,0,0-.73.26,8.73,8.73,0,0,1-2,9.12" transform="translate(-5.17 -10.63)"/><path class="cls-9" d="M91.57,75.69a9.77,9.77,0,0,0,2.12-6.1,9.53,9.53,0,1,0-19.06,0,9.77,9.77,0,0,0,2.12,6.1,11.77,11.77,0,0,0-4.09,8.95,11.5,11.5,0,1,0,23,0,11.77,11.77,0,0,0-4.09-8.95" transform="translate(-5.17 -10.63)"/><path class="cls-7" d="M84.38,98a.45.45,0,0,1-.45-.45V84.85a.45.45,0,1,1,.91,0V97.59a.45.45,0,0,1-.45.45" transform="translate(-5.17 -10.63)"/><path class="cls-14" d="M198.25,77.87h19.83m-19.83-3.64h19.83M198,69.89h19.83M198,66.25h19.83M198,62.61h19.83M198,59h19.83" transform="translate(-5.17 -10.63)"/><path class="cls-7" d="M217.59,107.6a3.66,3.66,0,0,0-1,.13l-.94-2.45.34-.35a.37.37,0,0,0,0-.51l-.73-.73a.37.37,0,0,0-.26-.11h-1.83a.37.37,0,1,0,0,.73h1.67l.37.37-.25.26a.37.37,0,0,0-.08.38h0l.33.87-5,.62v-.68h1.1a.37.37,0,0,0,0-.73h-2.19a.37.37,0,1,0,0,.73h.36v1L209,108a3.65,3.65,0,1,0,1.9,4h.5a1.1,1.1,0,1,0,1.9-1l2.34-3.64.26.68a3.65,3.65,0,1,0,1.65-.39m-5.12,2.92-.2,0-1.76-3L215,107l-2.31,3.59a1.09,1.09,0,0,0-.25,0m-5.11,3.65a2.92,2.92,0,1,1,1.31-5.53L207,111.44a.36.36,0,0,0,.32.55h2.83a2.93,2.93,0,0,1-2.83,2.19m2.92-2.92H208l1.28-2.2a2.91,2.91,0,0,1,1,2.2m-.63-2.84.26-.45,1.72,3a1.1,1.1,0,0,0-.2.34H211a3.65,3.65,0,0,0-1.36-2.84m2.82,3.57a.37.37,0,1,1,.37-.37.37.37,0,0,1-.37.37m5.12,2.19a2.92,2.92,0,0,1-1.38-5.5l1,2.71a.37.37,0,0,0,.34.24l.13,0a.37.37,0,0,0,.21-.47l-1-2.71a2.92,2.92,0,1,1,.7,5.76" transform="translate(-5.17 -10.63)"/><path class="cls-11" d="M221,98.4a1.61,1.61,0,1,1-1.61-1.6A1.6,1.6,0,0,1,221,98.4" transform="translate(-5.17 -10.63)"/><path class="cls-11" d="M43.3,93.55a2.8,2.8,0,0,1-.78-1.21c-.28-.82-.79,1.32-.79,1.32l.55.38a2.77,2.77,0,0,1,1.34.19c.37.2-.32-.68-.32-.68" transform="translate(-5.17 -10.63)"/><path class="cls-15" d="M55.79,104.56v0c.24-.15.36-.25.4-.36-.12-.28-.78-1.28-.78-1.28l-.42-.76-.11-.93a4.53,4.53,0,0,0,.24-.52h0a11.79,11.79,0,0,0,.16-1.3,4.26,4.26,0,0,0-.1-.83c-.07-.21-.15-.5-.25-.76a4.75,4.75,0,0,0-.5-.88,4.8,4.8,0,0,0-.68-.75,8.15,8.15,0,0,0-1.36.58A7.52,7.52,0,0,1,51,96.13a.32.32,0,0,0-.15,0h-.09a3.43,3.43,0,0,0-1.19,1.45,2.12,2.12,0,0,0-1.15-1.17,1.94,1.94,0,0,0,2.13-1.2,1.92,1.92,0,0,0,1.8.92h0a7.65,7.65,0,0,0,.88-.36,2.13,2.13,0,0,0,.33-.31l.11-.14.08-.1a1.74,1.74,0,0,0,.6.82l.42.22a3.06,3.06,0,0,0,1,.15h.19a.35.35,0,0,0,.27-.14c.05-.15.14-.33-.21-.55s-.09-.43-.11-.84a2.62,2.62,0,0,0-.14-.58,2.22,2.22,0,0,0-.4-.59,6,6,0,0,0-.57-.56,3.89,3.89,0,0,0-.44-.25c-.06,0,0-.28-.1-.67a2.2,2.2,0,0,0-.3-.63L54,91.44a3.55,3.55,0,0,0-.91-.7,2.24,2.24,0,0,0-.6-.17,3.4,3.4,0,0,0-.71,0,2.31,2.31,0,0,0-1.83,2.25,3.45,3.45,0,0,0-.8.53l-.28.4-.31.57-.13.31-.08.61c0,.29-.05.4-.13.43a.35.35,0,0,0-.2.39.35.35,0,0,0,.08.16,1.73,1.73,0,0,0-.64,0l-.1.05-.16.1a2,2,0,0,1-2.13-.15v-.41a1.9,1.9,0,0,0,3-.9,7.71,7.71,0,0,0,.15-.89c0-.1.15-.8.23-1.21,0-.14,0-.29,0-.42a8.61,8.61,0,0,0-.27-1.59c-.11-.21-.16-.63-.86-.25l-.06.06v0h0l0,0a.62.62,0,0,0-1,0,.63.63,0,0,0-.65-.25h0a.78.78,0,0,0-.36.25l0,0h0l0-.05-.08-.06v0a.49.49,0,0,0-.27-.15c-.16,0-.35.1-.47.42a6.74,6.74,0,0,0-.21.77,4.87,4.87,0,0,0-.09.77c0,.07,0,.15,0,.22s0,.41.06.64.1.53.16.81c0,0,0,0,0,0l0,.06a2.83,2.83,0,0,0,0,.37,2.34,2.34,0,0,0,.08.34v.61s0,.86,0,.86-1.74,0-1.68,3.33c0,2.07,0,2,0,3A1.74,1.74,0,0,0,44,104l.15,0v3.3a1,1,0,0,0-.3.4,1.13,1.13,0,0,0,0,.34,1.35,1.35,0,0,0,.09.54.88.88,0,0,0,.59.48l3.34,0a.87.87,0,0,0,.43-.11h0l0,0a1.09,1.09,0,0,0,.38-.63,1.14,1.14,0,0,0-.34-1h0l-.06,0,0-3h0v0l.15.11c.15.09.4.23.69.37a6.86,6.86,0,0,0,1.29.42c0,.42.12,1.27.19,2.06-.75.55-.74,1.69,0,1.83h3s.64,0,.61-.85a1.51,1.51,0,0,0-.05-.36,1.35,1.35,0,0,0-.32-.49.51.51,0,0,0-.16-.08l.19-2.09h0v0l.13,0,1.59-.59.14-.07M54.31,93.68l0-.11c1.14.64,1,1.46,1.07,2.07-1-.13-1.12-1-1.1-2m-2.11,1.72c-.8,0-1.4-.95-1.4-1.8s.76-.46,1.4-.94c.65.49,1.4.14,1.4.94s-.58,1.8-1.4,1.8m1-3.75a1.55,1.55,0,0,1,.51.85c-.42-.27-1-.18-1.24-.54a.35.35,0,0,0-.6,0c-.22.37-.81.27-1.24.55a1.56,1.56,0,0,1,2.56-.86m-3.17,1.91,0,.11c0,1.55-.48,1.87-1.1,2,.12-.63-.08-1.42,1.07-2.07m4.43,6.48a17.44,17.44,0,0,1-.49-2.5,3.78,3.78,0,0,1,.49,2.5m-4.1-2.5a17,17,0,0,1-.49,2.51,3.78,3.78,0,0,1,.49-2.51m-4.15-2A1.44,1.44,0,0,1,45,94.09c0-1.23,0-1.7,1.3-1.7s1.31.49,1.31,1.58a1.47,1.47,0,0,1-1.31,1.58m-1.37-4.33a.64.64,0,0,0,.86-.17.63.63,0,0,0,1,0,.64.64,0,0,0,.85.17,5.94,5.94,0,0,1,.14.69s0,.22,0,.22a2.79,2.79,0,0,0-3.05,0,5.27,5.27,0,0,1,.16-.91m-.74,12.11a1.05,1.05,0,0,1-.7-1v-2.32h.7ZM48,108.26a.19.19,0,0,1-.19.19H44.69a.19.19,0,0,1-.19-.19v-.09a.42.42,0,0,1,.42-.42h1a.35.35,0,0,0,.7,0h1a.42.42,0,0,1,.42.42Zm-.33-4.47c0,.09,0,3.16,0,3.26h-1V103.9a.35.35,0,1,0-.7,0v3.15H44.85c0-.07,0-3.17,0-3.23a.4.4,0,0,0,0-.08v-.9h2.81c0,.06,0,.89,0,.94m0-5.23v3.59H44.85V98.56a.35.35,0,0,0-.7,0v.69h-.7v-1a1.41,1.41,0,0,1,1.39-1.36,2.59,2.59,0,0,0,2.82,0,1.42,1.42,0,0,1,1.4,1.4v.95h-.7v-.69a.35.35,0,0,0-.7,0m.7,4.78v-3.29h.7v2.3a1.05,1.05,0,0,1-.7,1m5.2,5.11H50.85a0,0,0,0,1,0,0,.66.66,0,0,1,.66-.66h.39a.35.35,0,1,0,.7,0H53a.66.66,0,0,1,.66.66,0,0,0,0,1,0,0m-2.37-3.08.66.06v1.62h-.51l-.15-1.68m1.36,1.68v-1.62l.66-.06-.15,1.68h-.51m2.5-2.91a7,7,0,0,1-6-.17l.2-.37a1.74,1.74,0,0,0,.51-1c.18-.4.35-.81.49-1.21A17.49,17.49,0,0,0,51.18,97a2.73,2.73,0,0,0,1,.2h0a2.72,2.72,0,0,0,1-.2,17,17,0,0,0,2.13,7l-.31.17" transform="translate(-5.17 -10.63)"/><path class="cls-11" d="M45,95.75a2.52,2.52,0,0,1-.7-1.09c-.25-.74-.71,1.19-.71,1.19l.49.34a2.5,2.5,0,0,1,1.21.18c.33.18-.29-.61-.29-.61" transform="translate(-5.17 -10.63)"/><path class="cls-5" d="M57.93,159.36a3.46,3.46,0,1,0,6.91,0v-.25H57.93Z" transform="translate(-5.17 -10.63)"/><path class="cls-7" d="M67,165.8H64.37a1.6,1.6,0,1,0-2.27,0H60.66a1.6,1.6,0,1,0-2.27,0h-3a.56.56,0,0,0,0-.35L53,158a8.63,8.63,0,0,0,.17-1.38,5.24,5.24,0,0,0,2.13.76.74.74,0,0,0,.71-.54,1,1,0,0,1,1,1,1.48,1.48,0,0,0,.74,1.28v.2a3.7,3.7,0,1,0,7.41,0v-1a3,3,0,0,0-3-3h-.71a.25.25,0,0,0-.25.25v3.21H58.42a1,1,0,0,1-1-1A1.48,1.48,0,0,0,56,156.39h0a.74.74,0,0,0-.56-.43,4,4,0,0,1-2.23-1.17c0-.35.45-.84.3-1.36s-1.39-.86-1.43-1.23a.25.25,0,0,0-.49.05c.08.71,1.37,1,1.45,1.32s-.1.48-.22.75a4.08,4.08,0,0,1-.55-1.11.25.25,0,0,0-.47.15,4.49,4.49,0,0,0,3.56,3.09.25.25,0,0,1,.11.44.23.23,0,0,1-.19,0,5,5,0,0,1-4-3.43.25.25,0,0,0-.47.15,5.48,5.48,0,0,0,1.85,2.67c0,.12,0,.4,0,.83a3.14,3.14,0,0,1-1.75-.32c.28-.42.83-.75.35-1.65a3.83,3.83,0,0,1-.39-1.06,6,6,0,0,1-.14-1.15.25.25,0,0,0-.06-.16,1.76,1.76,0,0,0,.94-1.14c1.49,1,2.26-.92,2-2.11a.25.25,0,0,0,0-.15A2,2,0,0,0,52.43,148a2.08,2.08,0,0,0-2.3.61c-.72.88.05,2.07-1.62,3.07a.25.25,0,0,0-.09.33,1.67,1.67,0,0,0,1.77,1v0a6.46,6.46,0,0,0,.15,1.24c.27,1.19.69,1.31.54,1.71a1,1,0,0,1-.2.32,2.44,2.44,0,0,0-.53,2.57.39.39,0,0,1,0,.24l-1,6.54a.57.57,0,0,0,0,.19H47.27a.25.25,0,0,0,0,.49H67a.25.25,0,0,0,0-.49m-3.79-2.25a1.11,1.11,0,1,1-1.11,1.11,1.11,1.11,0,0,1,1.11-1.11m-3.7,0a1.11,1.11,0,1,1-1.11,1.11,1.11,1.11,0,0,1,1.11-1.11m2.1-7.65h.46a2.5,2.5,0,0,1,2.5,2.5v.46h-3Zm-1.73,3.46h4.69a3.21,3.21,0,1,1-6.42,0H59.9Zm-6.78-9.67c.14.8-.31,1.72-.67,1.78a.5.5,0,0,1-.17,0,1.18,1.18,0,0,1-.53-.24.25.25,0,0,0-.15,0h0a1.6,1.6,0,0,1,.17-1.13,1,1,0,0,1,1.36-.34M49,152c1.6-1.12,1-2.4,1.54-3a1.46,1.46,0,0,1,2.4.15,1.51,1.51,0,0,0-.82.07,1.58,1.58,0,0,0-.73.6c-.57.83,0,1.48-.39,2.11a1.15,1.15,0,0,1-2,.12m6,13.64a.08.08,0,0,1-.13.07l-2.62-5.15.56-1.6Zm-4.34-7a1.67,1.67,0,0,1,0-1.35,3.61,3.61,0,0,0,1.91.39c-.12.77.05.2-2.7,8.08a.1.1,0,0,1-.12.06.1.1,0,0,1-.07-.11c1.1-7.1,1.11-6.74.95-7.07m1.36,2.56,2.35,4.62h-4Z" transform="translate(-5.17 -10.63)"/></g></svg>