<svg id="_1" data-name="1" xmlns="http://www.w3.org/2000/svg" viewBox="0 0 2630.26 613.37"><defs><style>.cls-1{fill:#bebebe;}.cls-2{fill:#fff;}.cls-3{fill:#077c6f;}.cls-4{fill:#fcb32c;}.cls-5{fill:#df2449;}.cls-6{fill:#f15a29;}.cls-7{fill:#53bb71;}.cls-8{fill:#04505f;}.cls-9{fill:#4db748;}.cls-10{fill:#f04d23;}.cls-11{fill:#622a5d;}.cls-12{fill:#dd3526;}.cls-13{fill:#646565;}</style></defs><title>Infografica per Landing Page 1</title><g id="Livello_12" data-name="Livello 12"><path class="cls-1" d="M2577.84,680.47a3,3,0,0,1-3-3V417.4h-20.21a3,3,0,0,1-3-3V314.08h-62.29a3,3,0,0,1-3-3V148.53H2365.13V584.48a3,3,0,0,1-3,3h-82.61a3,3,0,0,1-3-3V428.94h-30.26a3,3,0,0,1-3-3V390.57H2123.77V475.5a3,3,0,0,1-3,3H1829.4a3,3,0,0,1-3-3V361h-23.46a3,3,0,0,1-3-3V282.32H1686.38v80.34a3,3,0,0,1-3,3h-92.27a3,3,0,0,1-3-3V220.33h-25.62v48a3,3,0,0,1-3,3H1530.3v49.09a3,3,0,0,1-3,3H1500V575.06a3,3,0,0,1-3,3H1394.83a3,3,0,0,1-3-3V305h-114V582.49a3,3,0,0,1-3,3H1142.5a3,3,0,0,1-3-3V190.33h-61.23V411a3,3,0,0,1-3,3H908.37V535.49a3,3,0,0,1-3,3H699.43a3,3,0,0,1-3-3V152H564.7V457.85a3,3,0,0,1-3,3H277.26v208.7a3,3,0,0,1-6,0V457.85a3,3,0,0,1,3-3H558.7V149a3,3,0,0,1,3-3H699.43a3,3,0,0,1,3,3V532.49H902.37V411a3,3,0,0,1,3-3h166.9V187.33a3,3,0,0,1,3-3h67.23a3,3,0,0,1,3,3V579.49h126.29V302a3,3,0,0,1,3-3h120a3,3,0,0,1,3,3V572.06H1494V320.39a3,3,0,0,1,3-3h27.26V268.3a3,3,0,0,1,3-3h29.19v-48a3,3,0,0,1,3-3h31.63a3,3,0,0,1,3,3V359.65h86.27V279.32a3,3,0,0,1,3-3h119.55a3,3,0,0,1,3,3V355h23.46a3,3,0,0,1,3,3V472.5h285.37V387.57a3,3,0,0,1,3-3h125.49a3,3,0,0,1,3,3v35.37h30.26a3,3,0,0,1,3,3V581.48h76.61V145.53a3,3,0,0,1,3-3h127.21a3,3,0,0,1,3,3V308.08h62.29a3,3,0,0,1,3,3V411.4h20.21a3,3,0,0,1,3,3V677.47A3,3,0,0,1,2577.84,680.47Z" transform="translate(-128.02 -81.11)"/></g><rect class="cls-2" x="1944.16" y="291.64" width="66.27" height="66.69"/><rect class="cls-2" x="2211.7" y="335.17" width="91.52" height="87.17"/><g id="Solo_Pupazze_copia_5" data-name="Solo Pupazze copia 5"><g id="gnammy"><path class="cls-2" d="M982.28,236.46a16.85,16.85,0,1,1,16.85-16.85A16.87,16.87,0,0,1,982.28,236.46Z" transform="translate(-128.02 -81.11)"/><path class="cls-3" d="M982.28,206.2a13.42,13.42,0,1,0,13.42,13.42A13.43,13.43,0,0,0,982.28,206.2Z" transform="translate(-128.02 -81.11)"/><path class="cls-2" d="M928.56,325.53l.69-2.61c2.18-8.2,6.29-24.91,6.29-29.51v-25a27.34,27.34,0,0,1,27.31-27.31h38.87A27.34,27.34,0,0,1,1029,268.44v25a27.34,27.34,0,0,1-27.31,27.31H962.85c-7.79,0-31.39,4.29-31.63,4.34Z" transform="translate(-128.02 -81.11)"/><path class="cls-3" d="M962.85,244.56A23.9,23.9,0,0,0,939,268.44v25c0,5-4.07,21.37-5.73,27.8,6.49-1.14,23-3.92,29.6-3.92h38.87a23.9,23.9,0,0,0,23.88-23.88v-25a23.9,23.9,0,0,0-23.88-23.88Z" transform="translate(-128.02 -81.11)"/></g><g id="gnammy-2" data-name="gnammy"><path class="cls-2" d="M1020.29,411.79a16.85,16.85,0,1,1,16.85-16.85A16.87,16.87,0,0,1,1020.29,411.79Z" transform="translate(-128.02 -81.11)"/><path class="cls-4" d="M1020.29,381.52a13.42,13.42,0,1,0,13.42,13.42A13.43,13.43,0,0,0,1020.29,381.52Z" transform="translate(-128.02 -81.11)"/><path class="cls-2" d="M966.56,500.86l.69-2.61c2.18-8.2,6.29-24.91,6.29-29.51v-25a27.34,27.34,0,0,1,27.31-27.31h38.87A27.34,27.34,0,0,1,1067,443.76v25A27.34,27.34,0,0,1,1039.72,496h-38.87c-7.79,0-31.39,4.29-31.63,4.34Z" transform="translate(-128.02 -81.11)"/><path class="cls-4" d="M1000.85,419.89A23.9,23.9,0,0,0,977,443.76v25c0,5-4.07,21.37-5.73,27.8,6.49-1.14,23-3.92,29.6-3.92h38.87a23.9,23.9,0,0,0,23.88-23.88v-25a23.9,23.9,0,0,0-23.88-23.88Z" transform="translate(-128.02 -81.11)"/></g><g id="gnammy-3" data-name="gnammy"><path class="cls-2" d="M470,424.78a16.85,16.85,0,1,1,16.85-16.85A16.87,16.87,0,0,1,470,424.78Z" transform="translate(-128.02 -81.11)"/><path class="cls-5" d="M470,394.51a13.42,13.42,0,1,0,13.42,13.42A13.43,13.43,0,0,0,470,394.51Z" transform="translate(-128.02 -81.11)"/></g><g id="gnammy-4" data-name="gnammy"><path class="cls-2" d="M390.72,424.78a16.85,16.85,0,1,1,16.85-16.85A16.87,16.87,0,0,1,390.72,424.78Z" transform="translate(-128.02 -81.11)"/><path class="cls-6" d="M390.72,394.51a13.42,13.42,0,1,0,13.42,13.42A13.43,13.43,0,0,0,390.72,394.51Z" transform="translate(-128.02 -81.11)"/></g><g id="gnammy-5" data-name="gnammy"><path class="cls-2" d="M979.26,588.72a16.85,16.85,0,1,1,16.85-16.85A16.87,16.87,0,0,1,979.26,588.72Z" transform="translate(-128.02 -81.11)"/><path class="cls-4" d="M979.26,558.46a13.42,13.42,0,1,0,13.42,13.42A13.43,13.43,0,0,0,979.26,558.46Z" transform="translate(-128.02 -81.11)"/><path class="cls-2" d="M925.54,677.8l.69-2.61c2.18-8.2,6.29-24.91,6.29-29.51v-25a27.34,27.34,0,0,1,27.31-27.31H998.7A27.34,27.34,0,0,1,1026,620.7v25A27.34,27.34,0,0,1,998.7,673H959.83c-7.79,0-31.39,4.29-31.63,4.34Z" transform="translate(-128.02 -81.11)"/><path class="cls-4" d="M959.83,596.82A23.9,23.9,0,0,0,936,620.7v25c0,5-4.07,21.37-5.73,27.8,6.49-1.14,23-3.92,29.6-3.92H998.7a23.9,23.9,0,0,0,23.88-23.88v-25a23.9,23.9,0,0,0-23.88-23.88Z" transform="translate(-128.02 -81.11)"/></g><g id="gnammy-6" data-name="gnammy"><path class="cls-2" d="M1759.93,588.72a16.85,16.85,0,1,1,16.85-16.85A16.87,16.87,0,0,1,1759.93,588.72Z" transform="translate(-128.02 -81.11)"/><path class="cls-7" d="M1759.93,558.46a13.42,13.42,0,1,0,13.42,13.42A13.43,13.43,0,0,0,1759.93,558.46Z" transform="translate(-128.02 -81.11)"/><path class="cls-2" d="M1706.2,677.8l.69-2.61c2.18-8.2,6.29-24.91,6.29-29.51v-25a27.34,27.34,0,0,1,27.31-27.31h38.87a27.34,27.34,0,0,1,27.31,27.31v25A27.34,27.34,0,0,1,1779.36,673h-38.87c-7.79,0-31.39,4.29-31.63,4.34Z" transform="translate(-128.02 -81.11)"/><path class="cls-7" d="M1740.49,596.82a23.9,23.9,0,0,0-23.88,23.88v25c0,5-4.07,21.37-5.73,27.8,6.49-1.14,23-3.92,29.6-3.92h38.87a23.9,23.9,0,0,0,23.88-23.88v-25a23.9,23.9,0,0,0-23.88-23.88Z" transform="translate(-128.02 -81.11)"/></g><g id="gnammy-7" data-name="gnammy"><path class="cls-2" d="M1332.78,588.72a16.85,16.85,0,1,1,16.85-16.85A16.87,16.87,0,0,1,1332.78,588.72Z" transform="translate(-128.02 -81.11)"/><path class="cls-7" d="M1332.78,558.46a13.42,13.42,0,1,0,13.42,13.42A13.43,13.43,0,0,0,1332.78,558.46Z" transform="translate(-128.02 -81.11)"/><path class="cls-2" d="M1279.06,677.8l.69-2.61c2.18-8.2,6.29-24.91,6.29-29.51v-25a27.34,27.34,0,0,1,27.31-27.31h38.87a27.34,27.34,0,0,1,27.31,27.31v25A27.34,27.34,0,0,1,1352.21,673h-38.87c-7.79,0-31.39,4.29-31.63,4.34Z" transform="translate(-128.02 -81.11)"/><path class="cls-7" d="M1313.34,596.82a23.9,23.9,0,0,0-23.88,23.88v25c0,5-4.07,21.37-5.73,27.8,6.49-1.14,23-3.92,29.6-3.92h38.87a23.9,23.9,0,0,0,23.88-23.88v-25a23.9,23.9,0,0,0-23.88-23.88Z" transform="translate(-128.02 -81.11)"/></g><g id="gnammy-8" data-name="gnammy"><path class="cls-2" d="M1603.39,479.89A16.85,16.85,0,1,1,1620.23,463,16.87,16.87,0,0,1,1603.39,479.89Z" transform="translate(-128.02 -81.11)"/><path class="cls-8" d="M1603.39,449.62A13.42,13.42,0,1,0,1616.8,463,13.43,13.43,0,0,0,1603.39,449.62Z" transform="translate(-128.02 -81.11)"/><path class="cls-2" d="M1549.66,569l.69-2.61c2.18-8.2,6.29-24.91,6.29-29.51v-25A27.34,27.34,0,0,1,1584,484.56h38.87a27.34,27.34,0,0,1,27.31,27.31v25a27.34,27.34,0,0,1-27.31,27.31H1584c-7.79,0-31.39,4.29-31.63,4.34Z" transform="translate(-128.02 -81.11)"/><path class="cls-8" d="M1584,488a23.9,23.9,0,0,0-23.88,23.88v25c0,5-4.07,21.37-5.73,27.8,6.49-1.14,23-3.92,29.6-3.92h38.87a23.9,23.9,0,0,0,23.88-23.88v-25A23.9,23.9,0,0,0,1622.82,488Z" transform="translate(-128.02 -81.11)"/></g><g id="gnammy-9" data-name="gnammy"><path class="cls-2" d="M2025.87,249.39a16.85,16.85,0,1,1,16.85-16.85A16.87,16.87,0,0,1,2025.87,249.39Z" transform="translate(-128.02 -81.11)"/><path class="cls-8" d="M2025.87,219.12a13.42,13.42,0,1,0,13.42,13.42A13.43,13.43,0,0,0,2025.87,219.12Z" transform="translate(-128.02 -81.11)"/><path class="cls-2" d="M1972.15,338.46l.69-2.61c2.18-8.2,6.29-24.91,6.29-29.51v-25a27.34,27.34,0,0,1,27.31-27.31h38.87a27.34,27.34,0,0,1,27.31,27.31v25a27.34,27.34,0,0,1-27.31,27.31h-38.87c-7.79,0-31.39,4.29-31.63,4.34Z" transform="translate(-128.02 -81.11)"/><path class="cls-8" d="M2006.44,257.49a23.9,23.9,0,0,0-23.88,23.88v25c0,5-4.07,21.37-5.73,27.8,6.49-1.14,17.43-23.65,24-23.65l48.53,1.78c13.17,0,19.81,7.24,19.81-5.93v-25a23.9,23.9,0,0,0-23.88-23.88Z" transform="translate(-128.02 -81.11)"/></g><g id="gnammy-10" data-name="gnammy"><path class="cls-2" d="M2105.15,305.81A16.85,16.85,0,1,1,2122,289,16.87,16.87,0,0,1,2105.15,305.81Z" transform="translate(-128.02 -81.11)"/><path class="cls-5" d="M2105.15,275.54A13.42,13.42,0,1,0,2118.57,289,13.43,13.43,0,0,0,2105.15,275.54Z" transform="translate(-128.02 -81.11)"/><path class="cls-2" d="M2058.41,362.75v-25a27.34,27.34,0,0,1,27.31-27.31h38.87a27.34,27.34,0,0,1,27.31,27.31v25c0,15.06,3.46,7.58-11.6,7.58l-57.87-3.43C2074.63,366.9,2058.41,367.35,2058.41,362.75Z" transform="translate(-128.02 -81.11)"/><path class="cls-5" d="M2085.71,313.91a23.9,23.9,0,0,0-23.88,23.88v25c0,5,10.62-10.38,9-4,8.43-10.25,15.89-4.7,22,8.1l41-2.21c13.17,0,14.69,11.23,14.69-1.94v-25a23.9,23.9,0,0,0-23.88-23.88Z" transform="translate(-128.02 -81.11)"/></g><g id="gnammy-11" data-name="gnammy"><path class="cls-2" d="M2025.87,362.23a16.85,16.85,0,1,1,16.85-16.85A16.87,16.87,0,0,1,2025.87,362.23Z" transform="translate(-128.02 -81.11)"/><path class="cls-7" d="M2025.87,332a13.42,13.42,0,1,0,13.42,13.42A13.43,13.43,0,0,0,2025.87,332Z" transform="translate(-128.02 -81.11)"/><path class="cls-2" d="M1972.15,451.3l.69-2.61c2.18-8.2,6.29-24.91,6.29-29.51v-25a27.34,27.34,0,0,1,27.31-27.31h38.87a27.34,27.34,0,0,1,27.31,27.31v25a27.34,27.34,0,0,1-27.31,27.31h-38.87c-7.79,0-31.39,4.29-31.63,4.34Z" transform="translate(-128.02 -81.11)"/><path class="cls-7" d="M2006.44,370.33a23.9,23.9,0,0,0-23.88,23.88v25c0,5-4.07,21.37-5.73,27.8,6.49-1.14,23-3.92,29.6-3.92h38.87a23.9,23.9,0,0,0,23.88-23.88v-25a23.9,23.9,0,0,0-23.88-23.88Z" transform="translate(-128.02 -81.11)"/></g><g id="gnammy-12" data-name="gnammy"><path class="cls-2" d="M2105.15,418.48A16.85,16.85,0,1,1,2122,401.63,16.87,16.87,0,0,1,2105.15,418.48Z" transform="translate(-128.02 -81.11)"/><path class="cls-9" d="M2105.15,388.22a13.42,13.42,0,1,0,13.42,13.42A13.43,13.43,0,0,0,2105.15,388.22Z" transform="translate(-128.02 -81.11)"/><path class="cls-2" d="M2051.43,507.55l.69-2.61c2.18-8.2,6.29-24.91,6.29-29.51v-25a27.34,27.34,0,0,1,27.31-27.31h38.87a27.34,27.34,0,0,1,27.31,27.31v25a27.34,27.34,0,0,1-27.31,27.31h-38.87c-7.79,0-31.39,4.29-31.63,4.34Z" transform="translate(-128.02 -81.11)"/><path class="cls-9" d="M2085.71,426.58a23.9,23.9,0,0,0-23.88,23.88v25c0,5-4.07,21.37-5.73,27.8,6.49-1.14,23-3.92,29.6-3.92h38.87a23.9,23.9,0,0,0,23.88-23.88v-25a23.9,23.9,0,0,0-23.88-23.88Z" transform="translate(-128.02 -81.11)"/></g><g id="gnammy-13" data-name="gnammy"><path class="cls-2" d="M2025.87,532.3a16.85,16.85,0,1,1,16.85-16.85A16.87,16.87,0,0,1,2025.87,532.3Z" transform="translate(-128.02 -81.11)"/><path class="cls-10" d="M2025.87,502a13.42,13.42,0,1,0,13.42,13.42A13.43,13.43,0,0,0,2025.87,502Z" transform="translate(-128.02 -81.11)"/><path class="cls-2" d="M1972.15,621.38l.69-2.61c2.18-8.2,6.29-24.91,6.29-29.51v-25A27.34,27.34,0,0,1,2006.44,537h38.87a27.34,27.34,0,0,1,27.31,27.31v25a27.34,27.34,0,0,1-27.31,27.31h-38.87c-7.79,0-31.39,4.29-31.63,4.34Z" transform="translate(-128.02 -81.11)"/><path class="cls-10" d="M2006.44,540.4a23.9,23.9,0,0,0-23.88,23.88v25c0,5-4.07,21.37-5.73,27.8,6.49-1.14,23-3.92,29.6-3.92h38.87a23.9,23.9,0,0,0,23.88-23.88v-25a23.9,23.9,0,0,0-23.88-23.88Z" transform="translate(-128.02 -81.11)"/></g><g id="gnammy-14" data-name="gnammy"><path class="cls-2" d="M2105.15,588.72A16.85,16.85,0,1,1,2122,571.88,16.87,16.87,0,0,1,2105.15,588.72Z" transform="translate(-128.02 -81.11)"/><path class="cls-4" d="M2105.15,558.46a13.42,13.42,0,1,0,13.42,13.42A13.43,13.43,0,0,0,2105.15,558.46Z" transform="translate(-128.02 -81.11)"/><path class="cls-2" d="M2051.43,677.8l.69-2.61c2.18-8.2,6.29-24.91,6.29-29.51v-25a27.34,27.34,0,0,1,27.31-27.31h38.87a27.34,27.34,0,0,1,27.31,27.31v25A27.34,27.34,0,0,1,2124.58,673h-38.87c-7.79,0-31.39,4.29-31.63,4.34Z" transform="translate(-128.02 -81.11)"/><path class="cls-4" d="M2085.71,596.82a23.9,23.9,0,0,0-23.88,23.88v25c0,5-4.07,21.37-5.73,27.8,6.49-1.14,23-3.92,29.6-3.92h38.87a23.9,23.9,0,0,0,23.88-23.88v-25a23.9,23.9,0,0,0-23.88-23.88Z" transform="translate(-128.02 -81.11)"/></g><g id="gnammy-15" data-name="gnammy"><path class="cls-2" d="M815.57,536.31a16.85,16.85,0,1,1,16.85-16.85A16.87,16.87,0,0,1,815.57,536.31Z" transform="translate(-128.02 -81.11)"/><path class="cls-5" d="M815.57,506A13.42,13.42,0,1,0,829,519.46,13.43,13.43,0,0,0,815.57,506Z" transform="translate(-128.02 -81.11)"/><path class="cls-2" d="M761.84,625.38l.69-2.61c2.18-8.2,6.29-24.91,6.29-29.51v-25A27.34,27.34,0,0,1,796.13,541H835a27.34,27.34,0,0,1,27.31,27.31v25A27.34,27.34,0,0,1,835,620.56H796.13c-7.79,0-31.39,4.29-31.63,4.34Z" transform="translate(-128.02 -81.11)"/><path class="cls-5" d="M796.13,544.41a23.9,23.9,0,0,0-23.88,23.88v25c0,5-4.07,21.37-5.73,27.8,6.49-1.14,23-3.92,29.6-3.92H835a23.9,23.9,0,0,0,23.88-23.88v-25A23.9,23.9,0,0,0,835,544.41Z" transform="translate(-128.02 -81.11)"/></g><g id="gnammy-16" data-name="gnammy"><path class="cls-2" d="M2543.56,475.88A16.85,16.85,0,1,1,2560.41,459,16.87,16.87,0,0,1,2543.56,475.88Z" transform="translate(-128.02 -81.11)"/><path class="cls-9" d="M2543.56,445.62A13.42,13.42,0,1,0,2557,459,13.43,13.43,0,0,0,2543.56,445.62Z" transform="translate(-128.02 -81.11)"/><path class="cls-2" d="M2489.84,565l.69-2.61c2.18-8.2,6.29-24.91,6.29-29.51v-25a27.34,27.34,0,0,1,27.31-27.31H2563a27.34,27.34,0,0,1,27.31,27.31v25A27.34,27.34,0,0,1,2563,560.13h-38.87c-7.79,0-31.39,4.29-31.63,4.34Z" transform="translate(-128.02 -81.11)"/><path class="cls-9" d="M2524.13,484a23.9,23.9,0,0,0-23.88,23.88v25c0,5-4.07,21.37-5.73,27.8,6.49-1.14,23-3.92,29.6-3.92H2563a23.9,23.9,0,0,0,23.88-23.88v-25A23.9,23.9,0,0,0,2563,484Z" transform="translate(-128.02 -81.11)"/></g><g id="gnammy-17" data-name="gnammy"><path class="cls-2" d="M2465.55,475.88A16.85,16.85,0,1,1,2482.4,459,16.87,16.87,0,0,1,2465.55,475.88Z" transform="translate(-128.02 -81.11)"/><path class="cls-3" d="M2465.55,445.62A13.42,13.42,0,1,0,2479,459,13.43,13.43,0,0,0,2465.55,445.62Z" transform="translate(-128.02 -81.11)"/><path class="cls-2" d="M2411.83,565l.69-2.61c2.18-8.2,6.29-24.91,6.29-29.51v-25a27.34,27.34,0,0,1,27.31-27.31H2485a27.34,27.34,0,0,1,27.31,27.31v25A27.34,27.34,0,0,1,2485,560.13h-38.87c-7.79,0-31.39,4.29-31.63,4.34Z" transform="translate(-128.02 -81.11)"/><path class="cls-3" d="M2446.12,484a23.9,23.9,0,0,0-23.88,23.88v25c0,5-4.07,21.37-5.73,27.8,6.49-1.14,23-3.92,29.6-3.92H2485a23.9,23.9,0,0,0,23.88-23.88v-25A23.9,23.9,0,0,0,2485,484Z" transform="translate(-128.02 -81.11)"/></g><g id="gnammy-18" data-name="gnammy"><path class="cls-2" d="M2386.28,475.88A16.85,16.85,0,1,1,2403.12,459,16.87,16.87,0,0,1,2386.28,475.88Z" transform="translate(-128.02 -81.11)"/><path class="cls-8" d="M2386.28,445.62A13.42,13.42,0,1,0,2399.69,459,13.43,13.43,0,0,0,2386.28,445.62Z" transform="translate(-128.02 -81.11)"/><path class="cls-2" d="M2332.55,565l.69-2.61c2.18-8.2,6.29-24.91,6.29-29.51v-25a27.34,27.34,0,0,1,27.31-27.31h38.87A27.34,27.34,0,0,1,2433,507.86v25a27.34,27.34,0,0,1-27.31,27.31h-38.87c-7.79,0-31.39,4.29-31.63,4.34Z" transform="translate(-128.02 -81.11)"/><path class="cls-8" d="M2366.84,484A23.9,23.9,0,0,0,2343,507.86v25c0,5-4.07,21.37-5.73,27.8,6.49-1.14,23-3.92,29.6-3.92h38.87a23.9,23.9,0,0,0,23.88-23.88v-25A23.9,23.9,0,0,0,2405.71,484Z" transform="translate(-128.02 -81.11)"/></g><g id="gnammy-19" data-name="gnammy"><path class="cls-2" d="M2543.56,532.3a16.85,16.85,0,1,1,16.85-16.85A16.87,16.87,0,0,1,2543.56,532.3Z" transform="translate(-128.02 -81.11)"/><path class="cls-5" d="M2543.56,502A13.42,13.42,0,1,0,2557,515.45,13.43,13.43,0,0,0,2543.56,502Z" transform="translate(-128.02 -81.11)"/><path class="cls-2" d="M2489.84,621.38l.69-2.61c2.18-8.2,6.29-24.91,6.29-29.51v-25A27.34,27.34,0,0,1,2524.13,537H2563a27.34,27.34,0,0,1,27.31,27.31v25A27.34,27.34,0,0,1,2563,616.55h-38.87c-7.79,0-31.39,4.29-31.63,4.34Z" transform="translate(-128.02 -81.11)"/><path class="cls-5" d="M2524.13,540.4a23.9,23.9,0,0,0-23.88,23.88v25c0,5-4.07,21.37-5.73,27.8,6.49-1.14,23-3.92,29.6-3.92H2563a23.9,23.9,0,0,0,23.88-23.88v-25A23.9,23.9,0,0,0,2563,540.4Z" transform="translate(-128.02 -81.11)"/></g><g id="gnammy-20" data-name="gnammy"><path class="cls-2" d="M2465.55,532.3a16.85,16.85,0,1,1,16.85-16.85A16.87,16.87,0,0,1,2465.55,532.3Z" transform="translate(-128.02 -81.11)"/><path class="cls-10" d="M2465.55,502A13.42,13.42,0,1,0,2479,515.45,13.43,13.43,0,0,0,2465.55,502Z" transform="translate(-128.02 -81.11)"/><path class="cls-2" d="M2411.83,621.38l.69-2.61c2.18-8.2,6.29-24.91,6.29-29.51v-25A27.34,27.34,0,0,1,2446.12,537H2485a27.34,27.34,0,0,1,27.31,27.31v25A27.34,27.34,0,0,1,2485,616.55h-38.87c-7.79,0-31.39,4.29-31.63,4.34Z" transform="translate(-128.02 -81.11)"/><path class="cls-10" d="M2446.12,540.4a23.9,23.9,0,0,0-23.88,23.88v25c0,5-4.07,21.37-5.73,27.8,6.49-1.14,23-3.92,29.6-3.92H2485a23.9,23.9,0,0,0,23.88-23.88v-25A23.9,23.9,0,0,0,2485,540.4Z" transform="translate(-128.02 -81.11)"/></g><g id="gnammy-21" data-name="gnammy"><path class="cls-2" d="M2386.28,532.3a16.85,16.85,0,1,1,16.85-16.85A16.87,16.87,0,0,1,2386.28,532.3Z" transform="translate(-128.02 -81.11)"/><path class="cls-11" d="M2386.28,502a13.42,13.42,0,1,0,13.42,13.42A13.43,13.43,0,0,0,2386.28,502Z" transform="translate(-128.02 -81.11)"/><path class="cls-2" d="M2332.55,621.38l.69-2.61c2.18-8.2,6.29-24.91,6.29-29.51v-25A27.34,27.34,0,0,1,2366.84,537h38.87A27.34,27.34,0,0,1,2433,564.28v25a27.34,27.34,0,0,1-27.31,27.31h-38.87c-7.79,0-31.39,4.29-31.63,4.34Z" transform="translate(-128.02 -81.11)"/><path class="cls-11" d="M2366.84,540.4A23.9,23.9,0,0,0,2343,564.28v25c0,5-4.07,21.37-5.73,27.8,6.49-1.14,23-3.92,29.6-3.92h38.87a23.9,23.9,0,0,0,23.88-23.88v-25a23.9,23.9,0,0,0-23.88-23.88Z" transform="translate(-128.02 -81.11)"/></g><g id="gnammy-22" data-name="gnammy"><path class="cls-2" d="M2543.56,588.72a16.85,16.85,0,1,1,16.85-16.85A16.87,16.87,0,0,1,2543.56,588.72Z" transform="translate(-128.02 -81.11)"/><path class="cls-12" d="M2543.56,558.46A13.42,13.42,0,1,0,2557,571.88,13.43,13.43,0,0,0,2543.56,558.46Z" transform="translate(-128.02 -81.11)"/><path class="cls-2" d="M2489.84,677.8l.69-2.61c2.18-8.2,6.29-24.91,6.29-29.51v-25a27.34,27.34,0,0,1,27.31-27.31H2563a27.34,27.34,0,0,1,27.31,27.31v25A27.34,27.34,0,0,1,2563,673h-38.87c-7.79,0-31.39,4.29-31.63,4.34Z" transform="translate(-128.02 -81.11)"/><path class="cls-12" d="M2524.13,596.82a23.9,23.9,0,0,0-23.88,23.88v25c0,5-4.07,21.37-5.73,27.8,6.49-1.14,23-3.92,29.6-3.92H2563a23.9,23.9,0,0,0,23.88-23.88v-25A23.9,23.9,0,0,0,2563,596.82Z" transform="translate(-128.02 -81.11)"/></g><g id="gnammy-23" data-name="gnammy"><path class="cls-2" d="M2465.55,588.72a16.85,16.85,0,1,1,16.85-16.85A16.87,16.87,0,0,1,2465.55,588.72Z" transform="translate(-128.02 -81.11)"/><path class="cls-4" d="M2465.55,558.46A13.42,13.42,0,1,0,2479,571.88,13.43,13.43,0,0,0,2465.55,558.46Z" transform="translate(-128.02 -81.11)"/><path class="cls-2" d="M2411.83,677.8l.69-2.61c2.18-8.2,6.29-24.91,6.29-29.51v-25a27.34,27.34,0,0,1,27.31-27.31H2485a27.34,27.34,0,0,1,27.31,27.31v25A27.34,27.34,0,0,1,2485,673h-38.87c-7.79,0-31.39,4.29-31.63,4.34Z" transform="translate(-128.02 -81.11)"/><path class="cls-4" d="M2446.12,596.82a23.9,23.9,0,0,0-23.88,23.88v25c0,5-4.07,21.37-5.73,27.8,6.49-1.14,23-3.92,29.6-3.92H2485a23.9,23.9,0,0,0,23.88-23.88v-25A23.9,23.9,0,0,0,2485,596.82Z" transform="translate(-128.02 -81.11)"/></g><g id="gnammy-24" data-name="gnammy"><path class="cls-2" d="M2386.28,588.72a16.85,16.85,0,1,1,16.85-16.85A16.87,16.87,0,0,1,2386.28,588.72Z" transform="translate(-128.02 -81.11)"/><path class="cls-7" d="M2386.28,558.46a13.42,13.42,0,1,0,13.42,13.42A13.43,13.43,0,0,0,2386.28,558.46Z" transform="translate(-128.02 -81.11)"/><path class="cls-2" d="M2332.55,677.8l.69-2.61c2.18-8.2,6.29-24.91,6.29-29.51v-25a27.34,27.34,0,0,1,27.31-27.31h38.87A27.34,27.34,0,0,1,2433,620.7v25A27.34,27.34,0,0,1,2405.71,673h-38.87c-7.79,0-31.39,4.29-31.63,4.34Z" transform="translate(-128.02 -81.11)"/><path class="cls-7" d="M2366.84,596.82A23.9,23.9,0,0,0,2343,620.7v25c0,5-4.07,21.37-5.73,27.8,6.49-1.14,23-3.92,29.6-3.92h38.87a23.9,23.9,0,0,0,23.88-23.88v-25a23.9,23.9,0,0,0-23.88-23.88Z" transform="translate(-128.02 -81.11)"/></g><g id="gnammy-25" data-name="gnammy"><path class="cls-2" d="M390.72,487.76a16.85,16.85,0,1,1,16.85-16.85A16.87,16.87,0,0,1,390.72,487.76Z" transform="translate(-128.02 -81.11)"/></g><g id="gnammy-26" data-name="gnammy"><path class="cls-2" d="M470,588.72a16.85,16.85,0,1,1,16.85-16.85A16.87,16.87,0,0,1,470,588.72Z" transform="translate(-128.02 -81.11)"/><path class="cls-10" d="M470,558.46a13.42,13.42,0,1,0,13.42,13.42A13.43,13.43,0,0,0,470,558.46Z" transform="translate(-128.02 -81.11)"/><path class="cls-2" d="M416.27,677.8l.69-2.61c2.18-8.2,6.29-24.91,6.29-29.51v-25a27.34,27.34,0,0,1,27.31-27.31h38.87a27.34,27.34,0,0,1,27.31,27.31v25A27.34,27.34,0,0,1,489.43,673H450.56c-7.79,0-31.39,4.29-31.63,4.34Z" transform="translate(-128.02 -81.11)"/><path class="cls-10" d="M450.56,596.82a23.9,23.9,0,0,0-23.88,23.88v25c0,5-4.07,21.37-5.73,27.8,6.49-1.14,23-3.92,29.6-3.92h38.87a23.9,23.9,0,0,0,23.88-23.88v-25a23.9,23.9,0,0,0-23.88-23.88Z" transform="translate(-128.02 -81.11)"/></g><g id="gnammy-27" data-name="gnammy"><path class="cls-2" d="M390.72,588.72a16.85,16.85,0,1,1,16.85-16.85A16.87,16.87,0,0,1,390.72,588.72Z" transform="translate(-128.02 -81.11)"/><path class="cls-11" d="M390.72,558.46a13.42,13.42,0,1,0,13.42,13.42A13.43,13.43,0,0,0,390.72,558.46Z" transform="translate(-128.02 -81.11)"/><path class="cls-2" d="M337,677.8l.69-2.61c2.18-8.2,6.29-24.91,6.29-29.51v-25a27.34,27.34,0,0,1,27.31-27.31h38.87a27.34,27.34,0,0,1,27.31,27.31v25A27.34,27.34,0,0,1,410.15,673H371.28c-7.79,0-31.39,4.29-31.63,4.34Z" transform="translate(-128.02 -81.11)"/><path class="cls-11" d="M371.28,596.82a23.9,23.9,0,0,0-23.88,23.88v25c0,5-4.07,21.37-5.73,27.8,6.49-1.14,23-3.92,29.6-3.92h38.87A23.9,23.9,0,0,0,434,645.67v-25a23.9,23.9,0,0,0-23.88-23.88Z" transform="translate(-128.02 -81.11)"/></g></g><g id="Solo_Skyline_copia_2" data-name="Solo Skyline copia 2"><path class="cls-2" d="M2598.16,669.55V384.79H2323V669.55H2163.78V151.82H1963.65V669.55H1897V493.29l-152.51-1.08V381H1542.23V669.55H1467.8V526.31H1187.1V669.55h-67.29V472.45h-37.72v-162l-11.8-18H1048.9V181.91h-12.84V135.15l-15-20.6h-17.9V84.11h-44.7v30.44h-17.9l-15,20.6v46.76H912.73V292.46H891.33l-11.8,18V437.19h-94.9v32.27h-26V669.55H673.14V548.66H529.62v-188H330.39V694.49H2755.28V669.55ZM501.08,597.05H356.76V548H501.08Zm0-159.88H356.76V388.08H501.08ZM850.51,561.26h-69.9v-69.9h69.9ZM947.33,192h69.9v69.9h-69.9Zm65.21,418.34h-69.9V540.4h69.9Zm42.83-174.56h-69.9v-69.9h69.9Zm309.49,184.5H1295v-69.9h69.9Zm273.61-116.38h-69.9V434h69.9Zm154.4,106.44H1723V540.4h69.9ZM2059,550h-62.13V485.26H2059Zm0-168.25h-62.13V321H2059Zm0-113h-62.13V207H2059Zm79.47,338.47h-62.13V547.51h62.13Zm0-170.25h-62.13V374.26h62.13Zm-.76-113h-62.13l.76-60.74h62.13Zm293.48,179.24h-88V419.18h88Zm137.17,104.87h-49.09V428.18h49.09Z" transform="translate(-128.02 -81.11)"/><path class="cls-13" d="M1364.87,623.24H1295a3,3,0,0,1-3-3v-69.9a3,3,0,0,1,3-3h69.9a3,3,0,0,1,3,3v69.9A3,3,0,0,1,1364.87,623.24Zm-66.9-6h63.9v-63.9H1298Zm494.91-3.94H1723a3,3,0,0,1-3-3V540.4a3,3,0,0,1,3-3h69.9a3,3,0,0,1,3,3v69.9A3,3,0,0,1,1792.87,613.3Zm-66.9-6h63.9V543.4H1726Zm-713.43,6h-69.9a3,3,0,0,1-3-3V540.4a3,3,0,0,1,3-3h69.9a3,3,0,0,1,3,3v69.9A3,3,0,0,1,1012.55,613.3Zm-66.9-6h63.9V543.4h-63.9Zm1622.77,3.82h-49.09a3,3,0,0,1-3-3V428.18a3,3,0,0,1,3-3h49.09a3,3,0,0,1,3,3V608.12A3,3,0,0,1,2568.41,611.12Zm-46.09-6h43.09V431.18h-43.09Zm-383.81,5.13h-62.13a3,3,0,0,1-3-3V547.51a3,3,0,0,1,3-3h62.13a3,3,0,0,1,3,3v59.75A3,3,0,0,1,2138.52,610.25Zm-59.13-6h56.13V550.51h-56.13Zm-1578.31-6.2H356.76a3,3,0,0,1-3-3V546a3,3,0,0,1,3-3H501.08a3,3,0,0,1,3,3v49.09A3,3,0,0,1,501.08,598.05Zm-141.32-6H498.08V549H359.76Zm490.75-27.79h-69.9a3,3,0,0,1-3-3v-69.9a3,3,0,0,1,3-3h69.9a3,3,0,0,1,3,3v69.9A3,3,0,0,1,850.51,564.26Zm-66.9-6h63.9v-63.9h-63.9ZM2059,553h-62.13a3,3,0,0,1-3-3V489.26a3,3,0,0,1,3-3H2059a3,3,0,0,1,3,3V550A3,3,0,0,1,2059,553Zm-59.13-6H2056V492.26h-56.13Zm-361.45-40.15h-69.9a3,3,0,0,1-3-3V434a3,3,0,0,1,3-3h69.9a3,3,0,0,1,3,3v69.9A3,3,0,0,1,1638.47,506.86Zm-66.9-6h63.9V437h-63.9Zm859.67,2.6h-88a3,3,0,0,1-3-3V419.18a3,3,0,0,1,3-3h88a3,3,0,0,1,3,3v81.27A3,3,0,0,1,2431.25,503.45Zm-85-6h82V422.18h-82ZM2138.52,440h-62.13a3,3,0,0,1-3-3V374.26a3,3,0,0,1,3-3h62.13a3,3,0,0,1,3,3V437A3,3,0,0,1,2138.52,440Zm-59.13-6h56.13V377.26h-56.13Zm-1024,4.73h-69.9a3,3,0,0,1-3-3v-69.9a3,3,0,0,1,3-3h69.9a3,3,0,0,1,3,3v69.9A3,3,0,0,1,1055.37,438.74Zm-66.9-6h63.9v-63.9h-63.9Zm-487.39,4.43H356.76a3,3,0,0,1-3-3V385.08a3,3,0,0,1,3-3H501.08a3,3,0,0,1,3,3v49.09A3,3,0,0,1,501.08,437.17Zm-141.32-6H498.08V388.08H359.76ZM2059,384.75h-62.13a3,3,0,0,1-3-3V321a3,3,0,0,1,3-3H2059a3,3,0,0,1,3,3v60.75A3,3,0,0,1,2059,384.75Zm-59.13-6H2056V324h-56.13ZM2138.52,327h-62.13a3,3,0,0,1-3-3V267.49a3,3,0,0,1,3-3h62.13a3,3,0,0,1,3,3V324A3,3,0,0,1,2138.52,327Zm-59.13-6h56.13V270.49h-56.13ZM2059,272.76h-62.13a3,3,0,0,1-3-3V210a3,3,0,0,1,3-3H2059a3,3,0,0,1,3,3v59.74A3,3,0,0,1,2059,272.76Zm-59.13-6H2056V213h-56.13Zm-982.69-1.9h-69.9a3,3,0,0,1-3-3V192a3,3,0,0,1,3-3h69.9a3,3,0,0,1,3,3v69.9A3,3,0,0,1,1017.23,264.86Zm-66.9-6h63.9V195h-63.9Z" transform="translate(-128.02 -81.11)"/><path class="cls-13" d="M2755.28,672.55H2598.16a3,3,0,0,1-3-3V387.79H2326V669.55a3,3,0,0,1-3,3H2163.78a3,3,0,0,1-3-3V154.82H1966.65V669.55a3,3,0,0,1-3,3H1897a3,3,0,0,1-3-3V496.27l-149.54-1.05a3,3,0,0,1-3-3V384H1545.23V669.55a3,3,0,0,1-3,3H1467.8a3,3,0,0,1-3-3V529.31H1190.1V669.55a3,3,0,0,1-3,3h-67.29a3,3,0,0,1-3-3V475.45h-34.72a3,3,0,0,1-3-3V311.37l-10.42-15.91H1048.9a3,3,0,0,1-3-3V184.91h-9.84a3,3,0,0,1-3-3V136.13l-13.53-18.58h-16.37a3,3,0,0,1-3-3V87.11h-38.7v27.44a3,3,0,0,1-3,3H942.09l-13.53,18.57v45.78a3,3,0,0,1-3,3h-9.84V292.46a3,3,0,0,1-3,3H893l-10.42,15.91V437.19a3,3,0,0,1-3,3h-91.9v29.27a3,3,0,0,1-3,3h-23V669.55a3,3,0,0,1-3,3H673.14a3,3,0,0,1-3-3V551.66H529.62a3,3,0,0,1-3-3v-185H333.39V669.55a3,3,0,0,1-3,3H131a3,3,0,0,1,0-6H327.39V360.63a3,3,0,0,1,3-3H529.62a3,3,0,0,1,3,3v185H673.14a3,3,0,0,1,3,3V666.55h79.52V469.46a3,3,0,0,1,3-3h23V437.19a3,3,0,0,1,3-3h91.9V310.48a3,3,0,0,1,.49-1.64l11.8-18a3,3,0,0,1,2.51-1.36h18.39V181.91a3,3,0,0,1,3-3h9.84V135.15a3,3,0,0,1,.58-1.77l15-20.6a3,3,0,0,1,2.42-1.23h14.9V84.11a3,3,0,0,1,3-3h44.7a3,3,0,0,1,3,3v27.44h14.9a3,3,0,0,1,2.42,1.23l15,20.6a3,3,0,0,1,.58,1.77v43.76h9.84a3,3,0,0,1,3,3V289.46h18.39a3,3,0,0,1,2.51,1.36l11.8,18a3,3,0,0,1,.49,1.64v159h34.72a3,3,0,0,1,3,3v194.1h61.29V526.31a3,3,0,0,1,3-3h280.7a3,3,0,0,1,3,3V666.55h68.44V381a3,3,0,0,1,3-3h202.25a3,3,0,0,1,3,3V489.24L1897,490.29a3,3,0,0,1,3,3V666.55h60.65V151.82a3,3,0,0,1,3-3h200.13a3,3,0,0,1,3,3V666.55H2320V384.79a3,3,0,0,1,3-3h275.19a3,3,0,0,1,3,3V666.55h154.12a3,3,0,0,1,0,6Z" transform="translate(-128.02 -81.11)"/></g></svg>