<svg id="Livello_3" data-name="Livello 3" xmlns="http://www.w3.org/2000/svg" viewBox="0 0 694.36 158.74"><defs><style>.cls-1{fill:#fc4a00;}.cls-2{fill:#fff;}</style></defs><title>firstlife-logo-orizzontale</title><path class="cls-1" d="M687,140.62c-16.7,0-25.52-1.91-30.68-14.2-1.89-4.5,2.37-4,4.47-4h11a31.54,31.54,0,0,0,22.07-8.93A29.59,29.59,0,0,0,703,93.07a30.83,30.83,0,0,0-13.94-27,30.37,30.37,0,0,0-18-5.28c-10.59,0-21.25,5.2-29.25,14.28a50.79,50.79,0,0,0-12.59,33.65c0,17.4,3.49,29.79,11,39,9.45,11.6,24.67,17.24,46.51,17.24,5.77,0,8.4-3.78,8.4-7.29l0-9.85C695.16,144.21,692.37,140.62,687,140.62Zm-30.61-44.8c2.61-4.95,8.55-11.71,15-11.71a7.14,7.14,0,0,1,4.39,1.21,7.45,7.45,0,0,1,3.43,6.74c0,3.95-4.27,6.8-7.15,6.8H658.15C654.48,98.86,655.82,97,656.43,95.82Z" transform="translate(-8.69 -21.65)"/><path class="cls-2" d="M655.17,117.06h16.62c14.56,0,25.63-11.73,25.84-24.08a26,26,0,0,0-26.55-26.8c-18.6,0-36.43,19-36.43,42.52,0,27.08,8.65,50.81,52.07,50.81,2.12,0,3-.75,3-1.88l0-9.87c0-.64-.46-1.73-2.72-1.73-16.32,0-29.53-1.69-36-18.43C650.61,126.6,646.83,117.2,655.17,117.06Zm-5.54-17.14c0-6.59,10.05-21.21,21.8-21.21a12.52,12.52,0,0,1,7.46,2.16,12.82,12.82,0,0,1,5.78,11.2c0,7.21-6.92,12.21-12.56,12.21H654.4C652,104.27,649.63,102.87,649.63,99.91Z" transform="translate(-8.69 -21.65)"/><path class="cls-1" d="M637.3,44.39V59.67a4.77,4.77,0,0,1-4.77,4.77H622.44c-11.61,0-24,8.1-24,23.11v8.81a1.07,1.07,0,0,0,1.07,1.07h17.24a5.79,5.79,0,0,1,5.79,5.79V113.6a5.79,5.79,0,0,1-5.79,5.79H599.55a1.07,1.07,0,0,0-1.07,1.07v38.68a5.79,5.79,0,0,1-5.79,5.79H578.44a5.79,5.79,0,0,1-5.79-5.79v-73a43.82,43.82,0,0,1,3.9-18.2A50.56,50.56,0,0,1,602,42.51c5.88-2.66,12.37-3.9,20.42-3.9h9.07A5.79,5.79,0,0,1,637.3,44.39Z" transform="translate(-8.69 -21.65)"/><path class="cls-2" d="M592.16,160.08a1.56,1.56,0,0,0,1.56-1.56V119.31a4.77,4.77,0,0,1,4.77-4.77h17.76a1.56,1.56,0,0,0,1.56-1.56v-9.4a1.56,1.56,0,0,0-1.56-1.56H598.48a4.77,4.77,0,0,1-4.77-4.77V87.42a27,27,0,0,1,9-20.48,30,30,0,0,1,19.71-7.35h7.91a2,2,0,0,0,2.23-2.14V45a1.79,1.79,0,0,0-1.79-1.79h-8.35c-7.45,0-13.15,1.07-18.47,3.48A45.84,45.84,0,0,0,580.8,69.8a39.13,39.13,0,0,0-3.48,16.25v72.47a1.56,1.56,0,0,0,1.56,1.56Z" transform="translate(-8.69 -21.65)"/><path class="cls-1" d="M546,60.56h14.45A5.47,5.47,0,0,1,565.9,66v93.44a5.47,5.47,0,0,1-5.46,5.46H546a5.47,5.47,0,0,1-5.46-5.46V66A5.47,5.47,0,0,1,546,60.56Z" transform="translate(-8.69 -21.65)"/><path class="cls-2" d="M558.92,160a2.3,2.3,0,0,0,2.3-2.3V67.31a2.31,2.31,0,0,0-2.3-2.3H547.08a2.3,2.3,0,0,0-2.3,2.3v90.4a2.3,2.3,0,0,0,2.3,2.3Z" transform="translate(-8.69 -21.65)"/><path class="cls-1" d="M527.57,164.92H517.18c-9.22,0-16.65-1.42-23.39-4.47a57.92,57.92,0,0,1-29.18-29.17,50.19,50.19,0,0,1-4.47-20.85V35.74a6.63,6.63,0,0,1,6.63-6.63h16.33a6.63,6.63,0,0,1,6.63,6.63v73.12c0,17.19,14.14,26.47,27.44,26.47h11.55a5.47,5.47,0,0,1,5.47,5.46v17.5A6.63,6.63,0,0,1,527.57,164.92Z" transform="translate(-8.69 -21.65)"/><path class="cls-2" d="M467.29,34.66a1.78,1.78,0,0,0-1.78,1.78v74.12a44.83,44.83,0,0,0,4,18.62A52.51,52.51,0,0,0,496,155.66c6.1,2.76,12.62,4,21.16,4h9.56a2,2,0,0,0,2-2V143.34a2.25,2.25,0,0,0-2.55-2.45h-9.06a34.33,34.33,0,0,1-22.57-8.42A30.89,30.89,0,0,1,484.28,109V36.45a1.78,1.78,0,0,0-1.78-1.78Z" transform="translate(-8.69 -21.65)"/><path class="cls-1" d="M464,143.78a2.29,2.29,0,0,0-2.29-2.29h-9.62c-12.66,0-25.09-9.08-25.09-24.28l0-32.62a2.29,2.29,0,0,1,2.29-2.29h22.22A2.29,2.29,0,0,0,453.82,80l0-15.55a2.29,2.29,0,0,0-2.29-2.29H429.27A2.29,2.29,0,0,1,427,59.86V46.09a2.29,2.29,0,0,0-2.29-2.29H409.15a2.29,2.29,0,0,0-2.29,2.29v72.43a39.36,39.36,0,0,0,3.52,16.42,46,46,0,0,0,23.16,23.16c5.18,2.35,10.92,3.52,18.53,3.52h9.62a2.29,2.29,0,0,0,2.29-2.29Z" transform="translate(-8.69 -21.65)"/><path class="cls-1" d="M328.06,80.06a2.29,2.29,0,0,1-2.29,2.29h-13c-12.66,0-25.09,9.08-25.09,24.28v52.68a2.29,2.29,0,0,1-2.29,2.29H269.88a2.29,2.29,0,0,1-2.29-2.29v-54a39.36,39.36,0,0,1,3.52-16.42,46,46,0,0,1,23.16-23.16c5.18-2.35,10.92-3.52,18.53-3.52h13a2.29,2.29,0,0,1,2.29,2.29Z" transform="translate(-8.69 -21.65)"/><path class="cls-1" d="M244,62.23h14.45A2.76,2.76,0,0,1,261.22,65v93.87a2.76,2.76,0,0,1-2.76,2.76H244a2.76,2.76,0,0,1-2.76-2.76V65A2.76,2.76,0,0,1,244,62.23Z" transform="translate(-8.69 -21.65)"/><path id="F" class="cls-1" d="M261.53,53.39a2.83,2.83,0,0,1-2.83,2.83H237.59c-15.6,0-30.91,11.19-30.91,29.92V96.49a2.83,2.83,0,0,0,2.83,2.83h22.65a2.83,2.83,0,0,1,2.83,2.83v14.6a2.83,2.83,0,0,1-2.83,2.83H209.51a2.83,2.83,0,0,0-2.83,2.83v36.38a2.83,2.83,0,0,1-2.83,2.83H184.71a2.83,2.83,0,0,1-2.83-2.83V84.53a48.5,48.5,0,0,1,4.34-20.24,56.63,56.63,0,0,1,28.54-28.54c6.39-2.89,13.46-4.34,22.84-4.34H258.7a2.83,2.83,0,0,1,2.83,2.83Z" transform="translate(-8.69 -21.65)"/><path class="cls-1" d="M400.53,80.42V64.88a2.29,2.29,0,0,0-2.29-2.29H360.94l0,0a29.81,29.81,0,0,0,.25,59.57v0h9.5a9.59,9.59,0,0,1,0,19.17H342.49l0,.1h-7.78a2.29,2.29,0,0,0-2.29,2.29v15.54a2.29,2.29,0,0,0,2.29,2.29H372l0,0a29.81,29.81,0,0,0-.25-59.57v0h-9.5a9.59,9.59,0,0,1,0-19.17h28.23l0-.1h7.78A2.29,2.29,0,0,0,400.53,80.42Z" transform="translate(-8.69 -21.65)"/><path class="cls-2" d="M167.43,101a79.33,79.33,0,1,1-10.49-39.47A79.37,79.37,0,0,1,167.43,101Z" transform="translate(-8.69 -21.65)"/><path class="cls-2" d="M167.43,101a79.33,79.33,0,1,1-10.49-39.47A79.37,79.37,0,0,1,167.43,101Z" transform="translate(-8.69 -21.65)"/><path class="cls-1" d="M83.48,99.33h2.29V70.52l-32.57-14a26.39,26.39,0,0,0-4.71,15.39v9.52A2.63,2.63,0,0,0,51.15,84H72.5a2.63,2.63,0,0,1,2.66,2.6V99.33Z" transform="translate(-8.69 -21.65)"/><path class="cls-1" d="M85.76,44.44H77.62a30.43,30.43,0,0,0-22.15,9.29l30.29,13Z" transform="translate(-8.69 -21.65)"/><path class="cls-1" d="M116.74,152.84a53.56,53.56,0,0,1-15.92-10.69,52.09,52.09,0,0,1-11-15.52c-.22-.46-.42-.93-.62-1.4v28.32h29.22C117.88,153.32,117.31,153.09,116.74,152.84Z" transform="translate(-8.69 -21.65)"/><path class="cls-1" d="M146.86,74.44a22.16,22.16,0,0,1,0,44.16V134h13.4a79.22,79.22,0,0,0-13.4-86.33Z" transform="translate(-8.69 -21.65)"/><path class="cls-1" d="M109.14,80.33v19h14a22.31,22.31,0,0,1-.18-2.81,22.09,22.09,0,0,1,2.23-9.69Z" transform="translate(-8.69 -21.65)"/><path class="cls-1" d="M143.39,74.43V44.12a79.26,79.26,0,0,0-34.25-19.64V76.55L127,83.82A22.06,22.06,0,0,1,143.39,74.43Z" transform="translate(-8.69 -21.65)"/><path class="cls-1" d="M163.57,96.52a18.49,18.49,0,1,0-18.49,18.55A18.54,18.54,0,0,0,163.57,96.52Z" transform="translate(-8.69 -21.65)"/><path class="cls-1" d="M143.39,134V118.6a22.14,22.14,0,0,1-19.48-15.79H109.14v3.75c0,17.2,14.43,27.49,29.13,27.49Z" transform="translate(-8.69 -21.65)"/><path class="cls-1" d="M8.72,99.33h16.4V70.45A43.61,43.61,0,0,1,29.2,51.85a56.11,56.11,0,0,1,6.61-10.57A79.17,79.17,0,0,0,8.72,99.35Z" transform="translate(-8.69 -21.65)"/><path class="cls-1" d="M25.11,149.36V102.81H8.72A79,79,0,0,0,25.11,149.36Z" transform="translate(-8.69 -21.65)"/><path class="cls-1" d="M144.29,157H89.23v23.34A79.11,79.11,0,0,0,144.34,157Z" transform="translate(-8.69 -21.65)"/><path class="cls-1" d="M85.77,180.35V157H48.49v12.8h0l.07,0A79,79,0,0,0,85.77,180.35Z" transform="translate(-8.69 -21.65)"/><path class="cls-1" d="M85.76,102.81H50.24a2.6,2.6,0,0,0-1.76,2.44v48.3H85.77V108.33c0-.1,0-.2,0-.3Z" transform="translate(-8.69 -21.65)"/><path class="cls-2" d="M160.26,134h-13.4V118.6a22.16,22.16,0,0,0,0-44.16V47.7q-1.68-1.85-3.47-3.59V74.43A22.06,22.06,0,0,0,127,83.82l-17.86-7.27V24.48a79.5,79.5,0,0,0-73.33,16.8A56.11,56.11,0,0,0,29.2,51.85a43.61,43.61,0,0,0-4.09,18.59V99.33H8.72c0,.56,0,1.13,0,1.69s0,1.19,0,1.79h16.4v46.55a79.76,79.76,0,0,0,23.37,20.47V157H85.77v23.32c.76,0,1.53,0,2.3,0h1.17V157h55.06l.05,0C149.54,151.82,156.35,143.16,160.26,134ZM77.62,44.44h8.15v22.3l-30.29-13A30.43,30.43,0,0,1,77.62,44.44ZM48.49,71.92A26.39,26.39,0,0,1,53.2,56.53l32.57,14v28.8H75.16V86.64A2.63,2.63,0,0,0,72.5,84H51.15a2.63,2.63,0,0,1-2.66-2.6Zm37.28,81.63H48.49v-48.3a2.6,2.6,0,0,1,1.76-2.44H85.76V108c0,.1,0,.2,0,.3Zm23.37-57.6V80.33l16.09,6.5A22.09,22.09,0,0,0,123,96.52a22.31,22.31,0,0,0,.18,2.81h-14Zm-19.9,57.6V125.22c.2.47.4.94.62,1.4a52.1,52.1,0,0,0,11,15.52,53.56,53.56,0,0,0,15.92,10.69c.56.25,1.14.48,1.71.71ZM143.39,134h-5.12c-14.7,0-29.13-10.28-29.13-27.49v-3.75h14.77a22.14,22.14,0,0,0,19.48,15.79Zm-16.8-37.53a18.49,18.49,0,1,1,18.49,18.55A18.54,18.54,0,0,1,126.59,96.52Z" transform="translate(-8.69 -21.65)"/></svg>