<svg id="Livello_2" data-name="Livello 2" xmlns="http://www.w3.org/2000/svg" viewBox="0 0 215.43 215.43"><defs><style>.cls-1{fill:#fff;}.cls-2{fill:#fc4a00;}</style></defs><title>firstlife-logo-solologo</title><path class="cls-1" d="M221.1,113.39a107.67,107.67,0,1,1-14.24-53.56A107.72,107.72,0,0,1,221.1,113.39Z" transform="translate(-5.67 -5.67)"/><path class="cls-1" d="M221.1,113.39a107.67,107.67,0,1,1-14.24-53.56A107.72,107.72,0,0,1,221.1,113.39Z" transform="translate(-5.67 -5.67)"/><path class="cls-1" d="M221.1,113.39a107.67,107.67,0,1,1-14.24-53.56A107.72,107.72,0,0,1,221.1,113.39Z" transform="translate(-5.67 -5.67)"/><path class="cls-2" d="M107.16,111.09h3.1V72L66.06,53A35.81,35.81,0,0,0,59.67,73.9V86.81a3.57,3.57,0,0,0,3.62,3.53h29a3.57,3.57,0,0,1,3.62,3.53v17.22Z" transform="translate(-5.67 -5.67)"/><path class="cls-2" d="M110.27,36.59H99.21c-11.3,0-22.48,4.48-30.06,12.61l41.11,17.66Z" transform="translate(-5.67 -5.67)"/><path class="cls-2" d="M152.31,183.71A72.68,72.68,0,0,1,130.7,169.2a70.7,70.7,0,0,1-14.89-21.07c-.29-.63-.57-1.26-.84-1.9v38.44h39.66C153.85,184.37,153.08,184.05,152.31,183.71Z" transform="translate(-5.67 -5.67)"/><path class="cls-2" d="M193.18,77.31a30.07,30.07,0,0,1,0,59.93v21h18.18A107.52,107.52,0,0,0,193.18,41Z" transform="translate(-5.67 -5.67)"/><path class="cls-2" d="M142,85.31v25.78H161a30.28,30.28,0,0,1-.25-3.81,30,30,0,0,1,3-13.15Z" transform="translate(-5.67 -5.67)"/><path class="cls-2" d="M188.47,77.3V36.17A107.57,107.57,0,0,0,142,9.51V80.17L166.23,90A29.94,29.94,0,0,1,188.47,77.3Z" transform="translate(-5.67 -5.67)"/><path class="cls-2" d="M215.85,107.27a25.09,25.09,0,1,0-25.09,25.18A25.16,25.16,0,0,0,215.85,107.27Z" transform="translate(-5.67 -5.67)"/><path class="cls-2" d="M188.47,158.2v-21A30,30,0,0,1,162,115.81H142v5.08c0,23.35,19.59,37.31,39.54,37.31Z" transform="translate(-5.67 -5.67)"/><path class="cls-2" d="M5.7,111.09H28V71.89A59.19,59.19,0,0,1,33.5,46.66a76.15,76.15,0,0,1,9-14.35A107.45,107.45,0,0,0,5.7,111.11Z" transform="translate(-5.67 -5.67)"/><path class="cls-2" d="M28,179V115.81H5.7A107.21,107.21,0,0,0,28,179Z" transform="translate(-5.67 -5.67)"/><path class="cls-2" d="M189.69,189.4H115v31.68a107.37,107.37,0,0,0,74.79-31.74Z" transform="translate(-5.67 -5.67)"/><path class="cls-2" d="M110.27,221.05V189.4H59.67v17.37l0,0,.09,0A107.15,107.15,0,0,0,110.27,221.05Z" transform="translate(-5.67 -5.67)"/><path class="cls-2" d="M110.27,115.81H62.06a3.53,3.53,0,0,0-2.38,3.31v65.55h50.6V123.3c0-.13,0-.27,0-.4Z" transform="translate(-5.67 -5.67)"/><path class="cls-1" d="M211.37,158.2H193.18v-21a30.07,30.07,0,0,0,0-59.93V41q-2.28-2.51-4.71-4.87V77.3A29.94,29.94,0,0,0,166.23,90L142,80.17V9.51a107.89,107.89,0,0,0-99.51,22.8,76.15,76.15,0,0,0-9,14.35A59.19,59.19,0,0,0,28,71.89v39.19H5.7c0,.76,0,1.53,0,2.3s0,1.62,0,2.43H28V179a108.24,108.24,0,0,0,31.72,27.79V189.4h50.6v31.65c1,0,2.07,0,3.12,0l1.59,0V189.4h74.72l.07-.06C196.82,182.32,206.07,170.58,211.37,158.2ZM99.21,36.59h11.05V66.86L69.15,49.2C76.73,41.07,87.91,36.59,99.21,36.59ZM59.67,73.9A35.81,35.81,0,0,1,66.06,53l44.2,19v39.09H95.88V93.86a3.57,3.57,0,0,0-3.62-3.53h-29a3.57,3.57,0,0,1-3.62-3.53Zm50.6,110.78H59.67V119.12a3.53,3.53,0,0,1,2.38-3.31h48.21v7.09c0,.14,0,.27,0,.4ZM142,106.5V85.31l21.83,8.82a30,30,0,0,0-3,13.15,30.28,30.28,0,0,0,.25,3.81H142Zm-27,78.18V146.23c.27.64.55,1.27.84,1.9A70.7,70.7,0,0,0,130.7,169.2a72.69,72.69,0,0,0,21.61,14.51c.77.34,1.54.65,2.32,1Zm73.5-26.47h-6.95c-20,0-39.54-14-39.54-37.31v-5.08H162a30,30,0,0,0,26.43,21.44Zm-22.79-50.93a25.09,25.09,0,1,1,25.09,25.18A25.16,25.16,0,0,1,165.68,107.27Z" transform="translate(-5.67 -5.67)"/></svg>