<svg id="Logo" xmlns="http://www.w3.org/2000/svg" viewBox="0 0 521.17 135.81"><defs><style>.cls-1{fill:#fc4a00;}.cls-2{fill:#fff;}</style></defs><title>firstlife-logo-soloscritta</title><path class="cls-1" d="M528.3,140.19c-16.7,0-25.52-1.91-30.68-14.2-1.89-4.5,2.37-4,4.47-4h11a31.54,31.54,0,0,0,22.07-8.93,29.59,29.59,0,0,0,9.19-20.46,30.83,30.83,0,0,0-13.94-27,30.37,30.37,0,0,0-18-5.28c-10.59,0-21.25,5.2-29.25,14.28a50.79,50.79,0,0,0-12.59,33.65c0,17.4,3.49,29.79,11,39,9.45,11.6,24.67,17.24,46.51,17.24,5.77,0,8.4-3.78,8.4-7.29l0-9.85C536.43,143.78,533.63,140.19,528.3,140.19Zm-30.61-44.8c2.61-4.95,8.55-11.71,15-11.71a7.14,7.14,0,0,1,4.39,1.21,7.45,7.45,0,0,1,3.43,6.74c0,3.95-4.27,6.8-7.15,6.8H499.41C495.74,98.43,497.09,96.53,497.69,95.39Z" transform="translate(-23.14 -28.68)"/><path class="cls-2" d="M496.43,116.62h16.62c14.56,0,25.63-11.73,25.84-24.08a26,26,0,0,0-26.55-26.8c-18.6,0-36.43,19-36.43,42.52,0,27.08,8.65,50.81,52.07,50.81,2.12,0,3-.75,3-1.88l0-9.87c0-.64-.46-1.73-2.72-1.73-16.32,0-29.53-1.69-36-18.43C491.87,126.16,488.09,116.77,496.43,116.62Zm-5.54-17.14c0-6.59,10.05-21.21,21.8-21.21a12.52,12.52,0,0,1,7.46,2.16,12.82,12.82,0,0,1,5.78,11.2c0,7.21-6.92,12.21-12.56,12.21h-17.7C493.24,103.84,490.89,102.43,490.89,99.48Z" transform="translate(-23.14 -28.68)"/><path class="cls-1" d="M478.56,44V59.23A4.77,4.77,0,0,1,473.79,64H463.7c-11.61,0-24,8.1-24,23.11v8.81A1.07,1.07,0,0,0,440.81,97h17.24a5.79,5.79,0,0,1,5.79,5.79v10.39a5.79,5.79,0,0,1-5.79,5.79H440.81a1.07,1.07,0,0,0-1.07,1.07V158.7a5.79,5.79,0,0,1-5.79,5.79H419.7a5.79,5.79,0,0,1-5.79-5.79v-73a43.82,43.82,0,0,1,3.9-18.2,50.56,50.56,0,0,1,25.47-25.47c5.88-2.66,12.37-3.9,20.42-3.9h9.07A5.79,5.79,0,0,1,478.56,44Z" transform="translate(-23.14 -28.68)"/><path class="cls-2" d="M433.42,159.64a1.56,1.56,0,0,0,1.56-1.56V118.87a4.77,4.77,0,0,1,4.77-4.77h17.76a1.56,1.56,0,0,0,1.56-1.56v-9.4a1.56,1.56,0,0,0-1.56-1.56H439.74A4.77,4.77,0,0,1,435,96.81V87a27,27,0,0,1,9-20.48,30,30,0,0,1,19.71-7.35h7.91A2,2,0,0,0,473.79,57V44.56A1.79,1.79,0,0,0,472,42.77h-8.35c-7.45,0-13.15,1.07-18.47,3.48a45.84,45.84,0,0,0-23.12,23.11,39.13,39.13,0,0,0-3.48,16.25v72.47a1.56,1.56,0,0,0,1.56,1.56Z" transform="translate(-23.14 -28.68)"/><path class="cls-1" d="M387.25,60.12H401.7a5.47,5.47,0,0,1,5.46,5.46V159a5.47,5.47,0,0,1-5.46,5.46H387.25a5.47,5.47,0,0,1-5.46-5.46V65.58A5.47,5.47,0,0,1,387.25,60.12Z" transform="translate(-23.14 -28.68)"/><path class="cls-2" d="M400.18,159.58a2.3,2.3,0,0,0,2.3-2.3V66.88a2.31,2.31,0,0,0-2.3-2.3H388.35a2.3,2.3,0,0,0-2.3,2.3v90.4a2.3,2.3,0,0,0,2.3,2.3Z" transform="translate(-23.14 -28.68)"/><path class="cls-1" d="M368.83,164.49H358.44c-9.22,0-16.65-1.42-23.39-4.47a57.92,57.92,0,0,1-29.18-29.17A50.19,50.19,0,0,1,301.41,110V35.31A6.63,6.63,0,0,1,308,28.68h16.33A6.63,6.63,0,0,1,331,35.31v73.12c0,17.19,14.14,26.47,27.44,26.47H370a5.47,5.47,0,0,1,5.47,5.46v17.5A6.63,6.63,0,0,1,368.83,164.49Z" transform="translate(-23.14 -28.68)"/><path class="cls-2" d="M308.55,34.23A1.78,1.78,0,0,0,306.77,36v74.12a44.83,44.83,0,0,0,4,18.62,52.51,52.51,0,0,0,26.48,26.48c6.1,2.76,12.62,4,21.16,4h9.56a2,2,0,0,0,2-2V142.9a2.25,2.25,0,0,0-2.55-2.45h-9.06A34.33,34.33,0,0,1,335.81,132a30.89,30.89,0,0,1-10.28-23.46V36a1.78,1.78,0,0,0-1.78-1.78Z" transform="translate(-23.14 -28.68)"/><path class="cls-1" d="M305.24,143.34a2.29,2.29,0,0,0-2.29-2.29h-9.62c-12.66,0-25.09-9.08-25.09-24.28l0-32.62a2.29,2.29,0,0,1,2.29-2.29h22.22a2.29,2.29,0,0,0,2.29-2.29l0-15.55a2.29,2.29,0,0,0-2.29-2.29H270.54a2.29,2.29,0,0,1-2.29-2.29V45.65a2.29,2.29,0,0,0-2.29-2.29H250.41a2.29,2.29,0,0,0-2.29,2.29v72.43a39.36,39.36,0,0,0,3.52,16.42,46,46,0,0,0,23.16,23.16c5.18,2.35,10.92,3.52,18.53,3.52h9.62a2.29,2.29,0,0,0,2.29-2.29Z" transform="translate(-23.14 -28.68)"/><path class="cls-1" d="M169.32,79.63A2.29,2.29,0,0,1,167,81.92h-13C141.4,81.92,129,91,129,106.2v52.68a2.29,2.29,0,0,1-2.29,2.29H111.14a2.29,2.29,0,0,1-2.29-2.29v-54a39.36,39.36,0,0,1,3.52-16.42,46,46,0,0,1,23.16-23.16c5.18-2.35,10.92-3.52,18.53-3.52h13a2.29,2.29,0,0,1,2.29,2.29Z" transform="translate(-23.14 -28.68)"/><path class="cls-1" d="M85.28,61.8H99.73a2.76,2.76,0,0,1,2.76,2.76v93.87a2.76,2.76,0,0,1-2.76,2.76H85.28a2.76,2.76,0,0,1-2.76-2.76V64.55A2.76,2.76,0,0,1,85.28,61.8Z" transform="translate(-23.14 -28.68)"/><path id="F" class="cls-1" d="M102.79,53A2.83,2.83,0,0,1,100,55.78H78.86C63.26,55.78,47.94,67,47.94,85.7V96.06a2.83,2.83,0,0,0,2.83,2.83H73.42a2.83,2.83,0,0,1,2.83,2.83v14.6a2.83,2.83,0,0,1-2.83,2.83H50.77A2.83,2.83,0,0,0,47.94,122v36.38a2.83,2.83,0,0,1-2.83,2.83H26a2.83,2.83,0,0,1-2.83-2.83V84.09a48.5,48.5,0,0,1,4.34-20.24A56.63,56.63,0,0,1,56,35.32C62.4,32.43,69.47,31,78.86,31H100a2.83,2.83,0,0,1,2.83,2.83Z" transform="translate(-23.14 -28.68)"/><path class="cls-1" d="M241.79,80V64.44a2.29,2.29,0,0,0-2.29-2.29H202.2l0,0a29.81,29.81,0,0,0,.25,59.57v0H212a9.59,9.59,0,0,1,0,19.17H183.75l0,.1H176a2.29,2.29,0,0,0-2.29,2.29v15.54a2.29,2.29,0,0,0,2.29,2.29H213.3l0,0a29.81,29.81,0,0,0-.25-59.57v0h-9.5a9.59,9.59,0,0,1,0-19.17h28.23l0-.1h7.78A2.29,2.29,0,0,0,241.79,80Z" transform="translate(-23.14 -28.68)"/></svg>