<svg id="New_copia_5" data-name="New copia 5" xmlns="http://www.w3.org/2000/svg" viewBox="0 0 212.74 212.74"><defs><style>.cls-1{fill:#fc4a00;}.cls-2{fill:#fff;}</style></defs><title>firstlife-logo-semplificato</title><path class="cls-1" d="M245,134.65A106.32,106.32,0,1,1,231,81.75,106.37,106.37,0,0,1,245,134.65Z" transform="translate(-32.28 -28.28)"/><path class="cls-2" d="M235.39,178.9H206.68c-19.7,0-39-13.78-39-36.84V32.28a106.51,106.51,0,0,0-97,20.56A70.09,70.09,0,0,0,60.51,68.75,58.45,58.45,0,0,0,55,93.67V200.41a106.88,106.88,0,0,0,31.32,26.88v-87a3.53,3.53,0,0,1,3.57-3.48h28.61a3.53,3.53,0,0,0,3.57-3.48v-18a3.53,3.53,0,0,0-3.57-3.48H89.93a3.53,3.53,0,0,1-3.57-3.48V95.65c0-23.06,19.34-36.84,39-36.84h10.92V144A58.45,58.45,0,0,0,141.8,169a69.82,69.82,0,0,0,14.7,20.8,71.78,71.78,0,0,0,21.34,14.33c8.07,3.56,17,5.34,28.85,5.34h7.59A106.58,106.58,0,0,0,235.39,178.9Z" transform="translate(-32.28 -28.28)"/></svg>