<svg id="Livello_2" data-name="Livello 2" xmlns="http://www.w3.org/2000/svg" viewBox="0 0 226 287.21"><defs><style>.cls-1{fill:#fc4a00;}.cls-2{fill:#fff;}</style></defs><title>firstlife-logo-verticale</title><path class="cls-1" d="M269,297.06c-7.24,0-11.06-.83-13.31-6.16-.82-2,1-1.71,1.94-1.71h4.76a13.68,13.68,0,0,0,9.57-3.87,12.83,12.83,0,0,0,4-8.87,13.37,13.37,0,0,0-6-11.72,13.17,13.17,0,0,0-7.81-2.29,17.22,17.22,0,0,0-12.68,6.19A22,22,0,0,0,244,283.21c0,7.55,1.51,12.92,4.76,16.9,4.1,5,10.7,7.48,20.17,7.48,2.5,0,3.64-1.64,3.64-3.16l0-4.27A3.21,3.21,0,0,0,269,297.06Zm-13.27-19.43c1.13-2.15,3.71-5.08,6.5-5.08a3.1,3.1,0,0,1,1.91.52,3.23,3.23,0,0,1,1.49,2.92,3.3,3.3,0,0,1-3.1,3h-6C254.93,278.95,255.51,278.13,255.77,277.63Z" transform="translate(-49.99 -20.38)"/><path class="cls-2" d="M255.23,286.84h7.21c6.31,0,11.12-5.08,11.21-10.44a11.26,11.26,0,0,0-11.51-11.62c-8.07,0-15.8,8.25-15.8,18.44,0,11.74,3.75,22,22.58,22,.92,0,1.3-.33,1.3-.82l0-4.28c0-.28-.2-.75-1.18-.75-7.07,0-12.81-.73-15.63-8C253.25,291,251.61,286.9,255.23,286.84Zm-2.4-7.43c0-2.86,4.36-9.2,9.45-9.2a5.43,5.43,0,0,1,3.23.94,5.52,5.52,0,0,1-2.94,10.15h-7.67A1.89,1.89,0,0,1,252.83,279.4Z" transform="translate(-49.99 -20.38)"/><path class="cls-1" d="M247.48,255.33V262a2.07,2.07,0,0,1-2.07,2.07H241c-5,0-10.39,3.51-10.39,10v3.82a.46.46,0,0,0,.46.46h7.48a2.51,2.51,0,0,1,2.51,2.51v4.5a2.51,2.51,0,0,1-2.51,2.51h-7.48a.46.46,0,0,0-.46.46v16.77a2.51,2.51,0,0,1-2.51,2.51H222a2.51,2.51,0,0,1-2.51-2.51V273.45a19,19,0,0,1,1.69-7.89,21.93,21.93,0,0,1,11-11,20.84,20.84,0,0,1,8.85-1.69H245A2.51,2.51,0,0,1,247.48,255.33Z" transform="translate(-49.99 -20.38)"/><path class="cls-2" d="M227.9,305.49a.67.67,0,0,0,.67-.67v-17a2.07,2.07,0,0,1,2.07-2.07h7.7a.68.68,0,0,0,.68-.68V281a.67.67,0,0,0-.67-.67h-7.71a2.07,2.07,0,0,1-2.07-2.07V274a11.69,11.69,0,0,1,3.89-8.88,13,13,0,0,1,8.55-3.19h3.43a.85.85,0,0,0,1-.93v-5.4a.78.78,0,0,0-.78-.78H241a18.63,18.63,0,0,0-8,1.51,19.88,19.88,0,0,0-10,10,17,17,0,0,0-1.51,7v31.42a.67.67,0,0,0,.67.67Z" transform="translate(-49.99 -20.38)"/><path class="cls-1" d="M207.88,262.34h6.27a2.37,2.37,0,0,1,2.37,2.37v40.52a2.37,2.37,0,0,1-2.37,2.37h-6.27a2.37,2.37,0,0,1-2.37-2.37V264.71A2.37,2.37,0,0,1,207.88,262.34Z" transform="translate(-49.99 -20.38)"/><path class="cls-2" d="M213.49,305.47a1,1,0,0,0,1-1v-39.2a1,1,0,0,0-1-1h-5.13a1,1,0,0,0-1,1v39.2a1,1,0,0,0,1,1Z" transform="translate(-49.99 -20.38)"/><path class="cls-1" d="M199.9,307.59h-4.51a23.87,23.87,0,0,1-10.14-1.94A25.12,25.12,0,0,1,172.6,293a21.77,21.77,0,0,1-1.94-9V251.58a2.88,2.88,0,0,1,2.88-2.88h7.08a2.88,2.88,0,0,1,2.88,2.88v31.71c0,7.46,6.13,11.48,11.9,11.48h5a2.37,2.37,0,0,1,2.37,2.37v7.59A2.88,2.88,0,0,1,199.9,307.59Z" transform="translate(-49.99 -20.38)"/><path class="cls-2" d="M173.76,251.11a.77.77,0,0,0-.77.77V284a19.44,19.44,0,0,0,1.73,8.07,22.77,22.77,0,0,0,11.48,11.48,21.34,21.34,0,0,0,9.17,1.73h4.15a.89.89,0,0,0,.89-.89v-6.19a1,1,0,0,0-1.11-1.06h-3.93a14.89,14.89,0,0,1-9.79-3.65,13.39,13.39,0,0,1-4.46-10.17V251.88a.77.77,0,0,0-.77-.77Z" transform="translate(-49.99 -20.38)"/><path class="cls-1" d="M172.32,298.43a1,1,0,0,0-1-1h-4.17c-5.49,0-10.88-3.94-10.88-10.53l0-14.15a1,1,0,0,1,1-1h9.64a1,1,0,0,0,1-1l0-6.74a1,1,0,0,0-1-1h-9.64a1,1,0,0,1-1-1v-6a1,1,0,0,0-1-1h-6.74a1,1,0,0,0-1,1v31.41a17.07,17.07,0,0,0,1.53,7.12,19.93,19.93,0,0,0,10,10,18.76,18.76,0,0,0,8,1.53h4.17a1,1,0,0,0,1-1Z" transform="translate(-49.99 -20.38)"/><path class="cls-1" d="M113.38,270.79a1,1,0,0,1-1,1h-5.62c-5.49,0-10.88,3.94-10.88,10.53v22.85a1,1,0,0,1-1,1H88.15a1,1,0,0,1-1-1V281.75a17.07,17.07,0,0,1,1.53-7.12,19.93,19.93,0,0,1,10-10,18.76,18.76,0,0,1,8-1.53h5.62a1,1,0,0,1,1,1Z" transform="translate(-49.99 -20.38)"/><path class="cls-1" d="M76.94,263.06H83.2a1.2,1.2,0,0,1,1.2,1.2V305a1.2,1.2,0,0,1-1.2,1.2H76.94a1.2,1.2,0,0,1-1.2-1.2v-40.7A1.2,1.2,0,0,1,76.94,263.06Z" transform="translate(-49.99 -20.38)"/><path id="F" class="cls-1" d="M84.53,259.23a1.23,1.23,0,0,1-1.23,1.23H74.15c-6.76,0-13.41,4.85-13.41,13v4.49A1.23,1.23,0,0,0,62,279.15H71.8A1.23,1.23,0,0,1,73,280.37v6.33a1.23,1.23,0,0,1-1.23,1.23H62a1.23,1.23,0,0,0-1.23,1.23v15.78a1.23,1.23,0,0,1-1.23,1.23h-8.3A1.23,1.23,0,0,1,50,304.93v-32.2A21,21,0,0,1,51.87,264a24.56,24.56,0,0,1,12.38-12.37,23.12,23.12,0,0,1,9.9-1.88h9.15a1.23,1.23,0,0,1,1.23,1.23Z" transform="translate(-49.99 -20.38)"/><path class="cls-1" d="M144.81,270.95v-6.74a1,1,0,0,0-1-1H127.66a12.92,12.92,0,0,0,.11,25.83h4.12a4.16,4.16,0,0,1,0,8.31H119.64l0,0h-3.37a1,1,0,0,0-1,1v6.74a1,1,0,0,0,1,1h16.15a12.92,12.92,0,0,0-.11-25.83h-4.12a4.16,4.16,0,0,1,0-8.31h12.24l0,0h3.37A1,1,0,0,0,144.81,270.95Z" transform="translate(-49.99 -20.38)"/><path class="cls-2" d="M270.71,128.1a107.67,107.67,0,1,1-14.24-53.56A107.72,107.72,0,0,1,270.71,128.1Z" transform="translate(-49.99 -20.38)"/><path class="cls-2" d="M270.71,128.1a107.67,107.67,0,1,1-14.24-53.56A107.72,107.72,0,0,1,270.71,128.1Z" transform="translate(-49.99 -20.38)"/><path class="cls-1" d="M156.77,125.8h3.1V86.71l-44.2-19a35.81,35.81,0,0,0-6.39,20.89v12.91a3.57,3.57,0,0,0,3.62,3.53h29a3.57,3.57,0,0,1,3.62,3.53V125.8Z" transform="translate(-49.99 -20.38)"/><path class="cls-1" d="M159.87,51.31H148.82c-11.3,0-22.48,4.48-30.06,12.61l41.11,17.66Z" transform="translate(-49.99 -20.38)"/><path class="cls-1" d="M201.92,198.43a72.68,72.68,0,0,1-21.61-14.51,70.7,70.7,0,0,1-14.89-21.07c-.29-.63-.57-1.26-.84-1.9v38.44h39.66C203.46,199.08,202.68,198.77,201.92,198.43Z" transform="translate(-49.99 -20.38)"/><path class="cls-1" d="M242.78,92a30.07,30.07,0,0,1,0,59.93v21H261A107.52,107.52,0,0,0,242.78,55.76Z" transform="translate(-49.99 -20.38)"/><path class="cls-1" d="M191.59,100V125.8h19.06a30.28,30.28,0,0,1-.25-3.81,30,30,0,0,1,3-13.15Z" transform="translate(-49.99 -20.38)"/><path class="cls-1" d="M238.08,92V50.88a107.57,107.57,0,0,0-46.48-26.66V94.89l24.24,9.87A29.94,29.94,0,0,1,238.08,92Z" transform="translate(-49.99 -20.38)"/><path class="cls-1" d="M265.46,122a25.09,25.09,0,1,0-25.09,25.18A25.16,25.16,0,0,0,265.46,122Z" transform="translate(-49.99 -20.38)"/><path class="cls-1" d="M238.08,172.91V152a30,30,0,0,1-26.43-21.44H191.59v5.08c0,23.35,19.59,37.31,39.54,37.31Z" transform="translate(-49.99 -20.38)"/><path class="cls-1" d="M55.3,125.8H77.56V86.61a59.19,59.19,0,0,1,5.55-25.23,76.15,76.15,0,0,1,9-14.35,107.45,107.45,0,0,0-36.77,78.8Z" transform="translate(-49.99 -20.38)"/><path class="cls-1" d="M77.56,193.7V130.53H55.31A107.21,107.21,0,0,0,77.56,193.7Z" transform="translate(-49.99 -20.38)"/><path class="cls-1" d="M239.3,204.11H164.58V235.8a107.37,107.37,0,0,0,74.79-31.74Z" transform="translate(-49.99 -20.38)"/><path class="cls-1" d="M159.88,235.77V204.11h-50.6v17.37l0,0,.09,0A107.15,107.15,0,0,0,159.88,235.77Z" transform="translate(-49.99 -20.38)"/><path class="cls-1" d="M159.87,130.53H111.66a3.53,3.53,0,0,0-2.38,3.31v65.55h50.6V138c0-.13,0-.27,0-.4Z" transform="translate(-49.99 -20.38)"/><path class="cls-2" d="M261,172.91H242.78V152a30.07,30.07,0,0,0,0-59.93V55.74q-2.28-2.51-4.71-4.87V92a29.94,29.94,0,0,0-22.24,12.74l-24.24-9.87V24.22A107.89,107.89,0,0,0,92.08,47a76.15,76.15,0,0,0-9,14.35,59.19,59.19,0,0,0-5.55,25.23V125.8H55.3c0,.76,0,1.53,0,2.3s0,1.62,0,2.43H77.56V193.7a108.24,108.24,0,0,0,31.72,27.79V204.11h50.6v31.65c1,0,2.07,0,3.12,0l1.59,0V204.11H239.3l.07-.06C246.43,197,255.67,185.29,261,172.91ZM148.82,51.31h11.05V81.57L118.76,63.91C126.33,55.79,137.52,51.31,148.82,51.31ZM109.28,88.61a35.81,35.81,0,0,1,6.39-20.89l44.2,19V125.8H145.48V108.58a3.57,3.57,0,0,0-3.62-3.53h-29a3.57,3.57,0,0,1-3.62-3.53Zm50.6,110.78h-50.6V133.84a3.53,3.53,0,0,1,2.38-3.31h48.21v7.09c0,.14,0,.27,0,.4Zm31.71-78.18V100l21.83,8.82a30,30,0,0,0-3,13.15,30.28,30.28,0,0,0,.25,3.81H191.59Zm-27,78.18V160.95c.27.64.55,1.27.84,1.9a70.7,70.7,0,0,0,14.89,21.07,72.69,72.69,0,0,0,21.61,14.51c.77.34,1.54.65,2.32,1Zm73.5-26.47h-6.95c-20,0-39.54-14-39.54-37.31v-5.08h20.05A30,30,0,0,0,238.08,152ZM215.28,122a25.09,25.09,0,1,1,25.09,25.18A25.16,25.16,0,0,1,215.28,122Z" transform="translate(-49.99 -20.38)"/></svg>