<svg xmlns="http://www.w3.org/2000/svg" viewBox="0 0 1417.2 707.07"><defs><style>.cls-1{fill:#fff;}.cls-2{fill:#53bb72;}.cls-3{fill:#622a5d;}</style></defs><title>dimenticato-qualcosa</title><g id="Livello_7" data-name="Livello 7"><path class="cls-1" d="M661.21,145.39l33.3,56.92a5.5,5.5,0,0,1,0,5.55l-33.3,56.92a7.36,7.36,0,0,1-6.4,3.39h-65a7.36,7.36,0,0,1-6.4-3.39L550.62,208.7a7.16,7.16,0,0,1,0-7.23l32.81-56.08a7.36,7.36,0,0,1,6.4-3.39h65a7.36,7.36,0,0,1,6.4,3.39Z" transform="translate(-142.06 -142)"/><path class="cls-2" d="M656.55,152.56l29.3,50.09a4.84,4.84,0,0,1,0,4.88l-29.3,50.09a6.48,6.48,0,0,1-5.63,3H593.74a6.48,6.48,0,0,1-5.63-3l-28.87-49.35a6.3,6.3,0,0,1,0-6.36l28.87-49.35a6.48,6.48,0,0,1,5.63-3h57.19a6.48,6.48,0,0,1,5.63,3Z" transform="translate(-142.06 -142)"/><path class="cls-1" d="M661.21,284.95l33.3,56.92a5.5,5.5,0,0,1,0,5.55l-33.3,56.92a7.36,7.36,0,0,1-6.4,3.39h-65a7.36,7.36,0,0,1-6.4-3.39l-32.81-56.08a7.16,7.16,0,0,1,0-7.23l32.81-56.08a7.36,7.36,0,0,1,6.4-3.39h65a7.36,7.36,0,0,1,6.4,3.39Z" transform="translate(-142.06 -142)"/><path class="cls-2" d="M656.55,292.11l29.3,50.09a4.84,4.84,0,0,1,0,4.88l-29.3,50.09a6.48,6.48,0,0,1-5.63,3H593.74a6.48,6.48,0,0,1-5.63-3l-28.87-49.35a6.3,6.3,0,0,1,0-6.36l28.87-49.35a6.48,6.48,0,0,1,5.63-3h57.19a6.48,6.48,0,0,1,5.63,3Z" transform="translate(-142.06 -142)"/><path class="cls-1" d="M661.21,424.5l33.3,56.92a5.5,5.5,0,0,1,0,5.55l-33.3,56.92a7.36,7.36,0,0,1-6.4,3.39h-65a7.36,7.36,0,0,1-6.4-3.39l-32.81-56.08a7.16,7.16,0,0,1,0-7.23l32.81-56.08a7.36,7.36,0,0,1,6.4-3.39h65a7.36,7.36,0,0,1,6.4,3.39Z" transform="translate(-142.06 -142)"/><path class="cls-2" d="M656.55,431.67l29.3,50.09a4.84,4.84,0,0,1,0,4.88l-29.3,50.09a6.48,6.48,0,0,1-5.63,3H593.74a6.48,6.48,0,0,1-5.63-3l-28.87-49.35a6.3,6.3,0,0,1,0-6.36l28.87-49.35a6.48,6.48,0,0,1,5.63-3h57.19a6.48,6.48,0,0,1,5.63,3Z" transform="translate(-142.06 -142)"/><path class="cls-1" d="M661.21,564.05,694.5,621a5.5,5.5,0,0,1,0,5.55l-33.3,56.92a7.36,7.36,0,0,1-6.4,3.39h-65a7.36,7.36,0,0,1-6.4-3.39l-32.81-56.08a7.16,7.16,0,0,1,0-7.23l32.81-56.08a7.36,7.36,0,0,1,6.4-3.39h65a7.36,7.36,0,0,1,6.4,3.39Z" transform="translate(-142.06 -142)"/><path class="cls-2" d="M656.55,571.22l29.3,50.09a4.84,4.84,0,0,1,0,4.88l-29.3,50.09a6.48,6.48,0,0,1-5.63,3H593.74a6.48,6.48,0,0,1-5.63-3l-28.87-49.35a6.3,6.3,0,0,1,0-6.36l28.87-49.35a6.48,6.48,0,0,1,5.63-3h57.19a6.48,6.48,0,0,1,5.63,3Z" transform="translate(-142.06 -142)"/><path class="cls-1" d="M661.21,703.61l33.3,56.92a5.5,5.5,0,0,1,0,5.55L661.21,823a7.36,7.36,0,0,1-6.4,3.39h-65a7.36,7.36,0,0,1-6.4-3.39l-32.81-56.08a7.16,7.16,0,0,1,0-7.23l32.81-56.08a7.36,7.36,0,0,1,6.4-3.39h65a7.36,7.36,0,0,1,6.4,3.39Z" transform="translate(-142.06 -142)"/><path class="cls-2" d="M656.55,710.77l29.3,50.09a4.84,4.84,0,0,1,0,4.88l-29.3,50.09a6.48,6.48,0,0,1-5.63,3H593.74a6.48,6.48,0,0,1-5.63-3l-28.87-49.35a6.3,6.3,0,0,1,0-6.36l28.87-49.35a6.48,6.48,0,0,1,5.63-3h57.19a6.48,6.48,0,0,1,5.63,3Z" transform="translate(-142.06 -142)"/><path class="cls-1" d="M784.88,215l33.3,56.92a5.5,5.5,0,0,1,0,5.55l-33.3,56.92a7.36,7.36,0,0,1-6.4,3.39h-65a7.36,7.36,0,0,1-6.4-3.39l-32.81-56.08a7.16,7.16,0,0,1,0-7.23L707.1,215a7.36,7.36,0,0,1,6.4-3.39h65a7.36,7.36,0,0,1,6.4,3.39Z" transform="translate(-142.06 -142)"/><path class="cls-2" d="M780.23,222.17l29.3,50.09a4.84,4.84,0,0,1,0,4.88l-29.3,50.09a6.48,6.48,0,0,1-5.63,3H717.41a6.48,6.48,0,0,1-5.63-3l-28.87-49.35a6.3,6.3,0,0,1,0-6.36l28.87-49.35a6.48,6.48,0,0,1,5.63-3H774.6a6.48,6.48,0,0,1,5.63,3Z" transform="translate(-142.06 -142)"/><path class="cls-1" d="M784.88,354.56l33.3,56.92a5.5,5.5,0,0,1,0,5.55L784.88,474a7.36,7.36,0,0,1-6.4,3.39h-65a7.36,7.36,0,0,1-6.4-3.39l-32.81-56.08a7.16,7.16,0,0,1,0-7.23l32.81-56.08a7.36,7.36,0,0,1,6.4-3.39h65a7.36,7.36,0,0,1,6.4,3.39Z" transform="translate(-142.06 -142)"/><path class="cls-2" d="M780.23,361.73l29.3,50.09a4.84,4.84,0,0,1,0,4.88l-29.3,50.09a6.48,6.48,0,0,1-5.63,3H717.41a6.48,6.48,0,0,1-5.63-3l-28.87-49.35a6.3,6.3,0,0,1,0-6.36l28.87-49.35a6.48,6.48,0,0,1,5.63-3H774.6a6.48,6.48,0,0,1,5.63,3Z" transform="translate(-142.06 -142)"/><path class="cls-1" d="M784.88,494.11,818.18,551a5.5,5.5,0,0,1,0,5.55l-33.3,56.92a7.36,7.36,0,0,1-6.4,3.39h-65a7.36,7.36,0,0,1-6.4-3.39l-32.81-56.08a7.16,7.16,0,0,1,0-7.23l32.81-56.08a7.36,7.36,0,0,1,6.4-3.39h65a7.36,7.36,0,0,1,6.4,3.39Z" transform="translate(-142.06 -142)"/><path class="cls-2" d="M780.23,501.28l29.3,50.09a4.84,4.84,0,0,1,0,4.88l-29.3,50.09a6.48,6.48,0,0,1-5.63,3H717.41a6.48,6.48,0,0,1-5.63-3L682.92,557a6.3,6.3,0,0,1,0-6.36l28.87-49.35a6.48,6.48,0,0,1,5.63-3H774.6a6.48,6.48,0,0,1,5.63,3Z" transform="translate(-142.06 -142)"/><path class="cls-1" d="M784.88,633.67l33.3,56.92a5.5,5.5,0,0,1,0,5.55l-33.3,56.92a7.36,7.36,0,0,1-6.4,3.39h-65a7.36,7.36,0,0,1-6.4-3.39L674.29,697a7.16,7.16,0,0,1,0-7.23l32.81-56.08a7.36,7.36,0,0,1,6.4-3.39h65a7.36,7.36,0,0,1,6.4,3.39Z" transform="translate(-142.06 -142)"/><path class="cls-2" d="M780.23,640.83l29.3,50.09a4.84,4.84,0,0,1,0,4.88l-29.3,50.09a6.48,6.48,0,0,1-5.63,3H717.41a6.48,6.48,0,0,1-5.63-3l-28.87-49.35a6.3,6.3,0,0,1,0-6.36l28.87-49.35a6.48,6.48,0,0,1,5.63-3H774.6a6.48,6.48,0,0,1,5.63,3Z" transform="translate(-142.06 -142)"/><path class="cls-1" d="M906.83,145.39l33.3,56.92a5.5,5.5,0,0,1,0,5.55l-33.3,56.92a7.36,7.36,0,0,1-6.4,3.39h-65a7.36,7.36,0,0,1-6.4-3.39L796.24,208.7a7.16,7.16,0,0,1,0-7.23L829,145.39a7.36,7.36,0,0,1,6.4-3.39h65a7.36,7.36,0,0,1,6.4,3.39Z" transform="translate(-142.06 -142)"/><path class="cls-2" d="M902.18,152.56l29.3,50.09a4.84,4.84,0,0,1,0,4.88l-29.3,50.09a6.48,6.48,0,0,1-5.63,3H839.36a6.48,6.48,0,0,1-5.63-3l-28.87-49.35a6.3,6.3,0,0,1,0-6.36l28.87-49.35a6.48,6.48,0,0,1,5.63-3h57.19a6.48,6.48,0,0,1,5.63,3Z" transform="translate(-142.06 -142)"/><path class="cls-1" d="M906.83,284.95l33.3,56.92a5.5,5.5,0,0,1,0,5.55l-33.3,56.92a7.36,7.36,0,0,1-6.4,3.39h-65a7.36,7.36,0,0,1-6.4-3.39l-32.81-56.08a7.16,7.16,0,0,1,0-7.23L829,284.95a7.36,7.36,0,0,1,6.4-3.39h65a7.36,7.36,0,0,1,6.4,3.39Z" transform="translate(-142.06 -142)"/><path class="cls-2" d="M902.18,292.11l29.3,50.09a4.84,4.84,0,0,1,0,4.88l-29.3,50.09a6.48,6.48,0,0,1-5.63,3H839.36a6.48,6.48,0,0,1-5.63-3l-28.87-49.35a6.3,6.3,0,0,1,0-6.36l28.87-49.35a6.48,6.48,0,0,1,5.63-3h57.19a6.48,6.48,0,0,1,5.63,3Z" transform="translate(-142.06 -142)"/><path class="cls-1" d="M906.83,424.5l33.3,56.92a5.5,5.5,0,0,1,0,5.55l-33.3,56.92a7.36,7.36,0,0,1-6.4,3.39h-65a7.36,7.36,0,0,1-6.4-3.39l-32.81-56.08a7.16,7.16,0,0,1,0-7.23L829,424.5a7.36,7.36,0,0,1,6.4-3.39h65a7.36,7.36,0,0,1,6.4,3.39Z" transform="translate(-142.06 -142)"/><path class="cls-2" d="M902.18,431.67l29.3,50.09a4.84,4.84,0,0,1,0,4.88l-29.3,50.09a6.48,6.48,0,0,1-5.63,3H839.36a6.48,6.48,0,0,1-5.63-3l-28.87-49.35a6.3,6.3,0,0,1,0-6.36l28.87-49.35a6.48,6.48,0,0,1,5.63-3h57.19a6.48,6.48,0,0,1,5.63,3Z" transform="translate(-142.06 -142)"/><path class="cls-1" d="M906.83,564.05,940.13,621a5.5,5.5,0,0,1,0,5.55l-33.3,56.92a7.36,7.36,0,0,1-6.4,3.39h-65a7.36,7.36,0,0,1-6.4-3.39l-32.81-56.08a7.16,7.16,0,0,1,0-7.23L829,564.05a7.36,7.36,0,0,1,6.4-3.39h65a7.36,7.36,0,0,1,6.4,3.39Z" transform="translate(-142.06 -142)"/><path class="cls-2" d="M902.18,571.22l29.3,50.09a4.84,4.84,0,0,1,0,4.88l-29.3,50.09a6.48,6.48,0,0,1-5.63,3H839.36a6.48,6.48,0,0,1-5.63-3l-28.87-49.35a6.3,6.3,0,0,1,0-6.36l28.87-49.35a6.48,6.48,0,0,1,5.63-3h57.19a6.48,6.48,0,0,1,5.63,3Z" transform="translate(-142.06 -142)"/><path class="cls-1" d="M906.83,703.61l33.3,56.92a5.5,5.5,0,0,1,0,5.55L906.83,823a7.36,7.36,0,0,1-6.4,3.39h-65A7.36,7.36,0,0,1,829,823l-32.81-56.08a7.16,7.16,0,0,1,0-7.23L829,703.61a7.36,7.36,0,0,1,6.4-3.39h65a7.36,7.36,0,0,1,6.4,3.39Z" transform="translate(-142.06 -142)"/><path class="cls-2" d="M902.18,710.77l29.3,50.09a4.84,4.84,0,0,1,0,4.88l-29.3,50.09a6.48,6.48,0,0,1-5.63,3H839.36a6.48,6.48,0,0,1-5.63-3l-28.87-49.35a6.3,6.3,0,0,1,0-6.36l28.87-49.35a6.48,6.48,0,0,1,5.63-3h57.19a6.48,6.48,0,0,1,5.63,3Z" transform="translate(-142.06 -142)"/><path class="cls-1" d="M1030.51,215l33.3,56.92a5.5,5.5,0,0,1,0,5.55l-33.3,56.92a7.36,7.36,0,0,1-6.4,3.39h-65a7.36,7.36,0,0,1-6.4-3.39l-32.81-56.08a7.16,7.16,0,0,1,0-7.23L952.72,215a7.36,7.36,0,0,1,6.4-3.39h65a7.36,7.36,0,0,1,6.4,3.39Z" transform="translate(-142.06 -142)"/><path class="cls-2" d="M1025.85,222.17l29.3,50.09a4.84,4.84,0,0,1,0,4.88l-29.3,50.09a6.48,6.48,0,0,1-5.63,3H963a6.48,6.48,0,0,1-5.63-3l-28.87-49.35a6.3,6.3,0,0,1,0-6.36l28.87-49.35a6.48,6.48,0,0,1,5.63-3h57.19a6.48,6.48,0,0,1,5.63,3Z" transform="translate(-142.06 -142)"/><path class="cls-1" d="M1030.51,354.56l33.3,56.92a5.5,5.5,0,0,1,0,5.55L1030.51,474a7.36,7.36,0,0,1-6.4,3.39h-65a7.36,7.36,0,0,1-6.4-3.39l-32.81-56.08a7.16,7.16,0,0,1,0-7.23l32.81-56.08a7.36,7.36,0,0,1,6.4-3.39h65a7.36,7.36,0,0,1,6.4,3.39Z" transform="translate(-142.06 -142)"/><path class="cls-2" d="M1025.85,361.73l29.3,50.09a4.84,4.84,0,0,1,0,4.88l-29.3,50.09a6.48,6.48,0,0,1-5.63,3H963a6.48,6.48,0,0,1-5.63-3l-28.87-49.35a6.3,6.3,0,0,1,0-6.36l28.87-49.35a6.48,6.48,0,0,1,5.63-3h57.19a6.48,6.48,0,0,1,5.63,3Z" transform="translate(-142.06 -142)"/><path class="cls-1" d="M1030.51,494.11,1063.8,551a5.5,5.5,0,0,1,0,5.55l-33.3,56.92a7.36,7.36,0,0,1-6.4,3.39h-65a7.36,7.36,0,0,1-6.4-3.39l-32.81-56.08a7.16,7.16,0,0,1,0-7.23l32.81-56.08a7.36,7.36,0,0,1,6.4-3.39h65a7.36,7.36,0,0,1,6.4,3.39Z" transform="translate(-142.06 -142)"/><path class="cls-2" d="M1025.85,501.28l29.3,50.09a4.84,4.84,0,0,1,0,4.88l-29.3,50.09a6.48,6.48,0,0,1-5.63,3H963a6.48,6.48,0,0,1-5.63-3L928.54,557a6.3,6.3,0,0,1,0-6.36l28.87-49.35a6.48,6.48,0,0,1,5.63-3h57.19a6.48,6.48,0,0,1,5.63,3Z" transform="translate(-142.06 -142)"/><path class="cls-1" d="M1030.51,633.67l33.3,56.92a5.5,5.5,0,0,1,0,5.55l-33.3,56.92a7.36,7.36,0,0,1-6.4,3.39h-65a7.36,7.36,0,0,1-6.4-3.39L919.92,697a7.16,7.16,0,0,1,0-7.23l32.81-56.08a7.36,7.36,0,0,1,6.4-3.39h65a7.36,7.36,0,0,1,6.4,3.39Z" transform="translate(-142.06 -142)"/><path class="cls-2" d="M1025.85,640.83l29.3,50.09a4.84,4.84,0,0,1,0,4.88l-29.3,50.09a6.48,6.48,0,0,1-5.63,3H963a6.48,6.48,0,0,1-5.63-3l-28.87-49.35a6.3,6.3,0,0,1,0-6.36l28.87-49.35a6.48,6.48,0,0,1,5.63-3h57.19a6.48,6.48,0,0,1,5.63,3Z" transform="translate(-142.06 -142)"/><path class="cls-1" d="M1154.18,145.39l33.3,56.92a5.5,5.5,0,0,1,0,5.55l-33.3,56.92a7.36,7.36,0,0,1-6.4,3.39h-65a7.36,7.36,0,0,1-6.4-3.39l-32.81-56.08a7.16,7.16,0,0,1,0-7.23l32.81-56.08a7.36,7.36,0,0,1,6.4-3.39h65a7.36,7.36,0,0,1,6.4,3.39Z" transform="translate(-142.06 -142)"/><path class="cls-2" d="M1149.53,152.56l29.3,50.09a4.84,4.84,0,0,1,0,4.88l-29.3,50.09a6.48,6.48,0,0,1-5.63,3h-57.19a6.48,6.48,0,0,1-5.63-3l-28.87-49.35a6.3,6.3,0,0,1,0-6.36l28.87-49.35a6.48,6.48,0,0,1,5.63-3h57.19a6.48,6.48,0,0,1,5.63,3Z" transform="translate(-142.06 -142)"/><path class="cls-1" d="M1154.18,424.5l33.3,56.92a5.5,5.5,0,0,1,0,5.55l-33.3,56.92a7.36,7.36,0,0,1-6.4,3.39h-65a7.36,7.36,0,0,1-6.4-3.39l-32.81-56.08a7.16,7.16,0,0,1,0-7.23l32.81-56.08a7.36,7.36,0,0,1,6.4-3.39h65a7.36,7.36,0,0,1,6.4,3.39Z" transform="translate(-142.06 -142)"/><path class="cls-2" d="M1149.53,431.67l29.3,50.09a4.84,4.84,0,0,1,0,4.88l-29.3,50.09a6.48,6.48,0,0,1-5.63,3h-57.19a6.48,6.48,0,0,1-5.63-3l-28.87-49.35a6.3,6.3,0,0,1,0-6.36l28.87-49.35a6.48,6.48,0,0,1,5.63-3h57.19a6.48,6.48,0,0,1,5.63,3Z" transform="translate(-142.06 -142)"/><path class="cls-1" d="M1154.18,564.05l33.3,56.92a5.5,5.5,0,0,1,0,5.55l-33.3,56.92a7.36,7.36,0,0,1-6.4,3.39h-65a7.36,7.36,0,0,1-6.4-3.39l-32.81-56.08a7.16,7.16,0,0,1,0-7.23l32.81-56.08a7.36,7.36,0,0,1,6.4-3.39h65a7.36,7.36,0,0,1,6.4,3.39Z" transform="translate(-142.06 -142)"/><path class="cls-2" d="M1149.53,571.22l29.3,50.09a4.84,4.84,0,0,1,0,4.88l-29.3,50.09a6.48,6.48,0,0,1-5.63,3h-57.19a6.48,6.48,0,0,1-5.63-3l-28.87-49.35a6.3,6.3,0,0,1,0-6.36l28.87-49.35a6.48,6.48,0,0,1,5.63-3h57.19a6.48,6.48,0,0,1,5.63,3Z" transform="translate(-142.06 -142)"/><path class="cls-1" d="M1154.18,703.61l33.3,56.92a5.5,5.5,0,0,1,0,5.55L1154.18,823a7.36,7.36,0,0,1-6.4,3.39h-65a7.36,7.36,0,0,1-6.4-3.39l-32.81-56.08a7.16,7.16,0,0,1,0-7.23l32.81-56.08a7.36,7.36,0,0,1,6.4-3.39h65a7.36,7.36,0,0,1,6.4,3.39Z" transform="translate(-142.06 -142)"/><path class="cls-2" d="M1149.53,710.77l29.3,50.09a4.84,4.84,0,0,1,0,4.88l-29.3,50.09a6.48,6.48,0,0,1-5.63,3h-57.19a6.48,6.48,0,0,1-5.63-3l-28.87-49.35a6.3,6.3,0,0,1,0-6.36l28.87-49.35a6.48,6.48,0,0,1,5.63-3h57.19a6.48,6.48,0,0,1,5.63,3Z" transform="translate(-142.06 -142)"/><path class="cls-1" d="M1277.86,215l33.3,56.92a5.5,5.5,0,0,1,0,5.55l-33.3,56.92a7.36,7.36,0,0,1-6.4,3.39h-65a7.36,7.36,0,0,1-6.4-3.39l-32.81-56.08a7.16,7.16,0,0,1,0-7.23L1200.07,215a7.36,7.36,0,0,1,6.4-3.39h65a7.36,7.36,0,0,1,6.4,3.39Z" transform="translate(-142.06 -142)"/><path class="cls-2" d="M1273.2,222.17l29.3,50.09a4.84,4.84,0,0,1,0,4.88l-29.3,50.09a6.48,6.48,0,0,1-5.63,3h-57.19a6.48,6.48,0,0,1-5.63-3l-28.87-49.35a6.3,6.3,0,0,1,0-6.36l28.87-49.35a6.48,6.48,0,0,1,5.63-3h57.19a6.48,6.48,0,0,1,5.63,3Z" transform="translate(-142.06 -142)"/><path class="cls-1" d="M1277.86,354.56l33.3,56.92a5.5,5.5,0,0,1,0,5.55L1277.86,474a7.36,7.36,0,0,1-6.4,3.39h-65a7.36,7.36,0,0,1-6.4-3.39l-32.81-56.08a7.16,7.16,0,0,1,0-7.23l32.81-56.08a7.36,7.36,0,0,1,6.4-3.39h65a7.36,7.36,0,0,1,6.4,3.39Z" transform="translate(-142.06 -142)"/><path class="cls-2" d="M1273.2,361.73l29.3,50.09a4.84,4.84,0,0,1,0,4.88l-29.3,50.09a6.48,6.48,0,0,1-5.63,3h-57.19a6.48,6.48,0,0,1-5.63-3l-28.87-49.35a6.3,6.3,0,0,1,0-6.36l28.87-49.35a6.48,6.48,0,0,1,5.63-3h57.19a6.48,6.48,0,0,1,5.63,3Z" transform="translate(-142.06 -142)"/><path class="cls-1" d="M1277.86,494.11l33.3,56.92a5.5,5.5,0,0,1,0,5.55l-33.3,56.92a7.36,7.36,0,0,1-6.4,3.39h-65a7.36,7.36,0,0,1-6.4-3.39l-32.81-56.08a7.16,7.16,0,0,1,0-7.23l32.81-56.08a7.36,7.36,0,0,1,6.4-3.39h65a7.36,7.36,0,0,1,6.4,3.39Z" transform="translate(-142.06 -142)"/><path class="cls-2" d="M1273.2,501.28l29.3,50.09a4.84,4.84,0,0,1,0,4.88l-29.3,50.09a6.48,6.48,0,0,1-5.63,3h-57.19a6.48,6.48,0,0,1-5.63-3L1175.89,557a6.3,6.3,0,0,1,0-6.36l28.87-49.35a6.48,6.48,0,0,1,5.63-3h57.19a6.48,6.48,0,0,1,5.63,3Z" transform="translate(-142.06 -142)"/><path class="cls-1" d="M1277.86,633.67l33.3,56.92a5.5,5.5,0,0,1,0,5.55l-33.3,56.92a7.36,7.36,0,0,1-6.4,3.39h-65a7.36,7.36,0,0,1-6.4-3.39L1167.27,697a7.16,7.16,0,0,1,0-7.23l32.81-56.08a7.36,7.36,0,0,1,6.4-3.39h65a7.36,7.36,0,0,1,6.4,3.39Z" transform="translate(-142.06 -142)"/><path class="cls-2" d="M1273.2,640.83l29.3,50.09a4.84,4.84,0,0,1,0,4.88l-29.3,50.09a6.48,6.48,0,0,1-5.63,3h-57.19a6.48,6.48,0,0,1-5.63-3l-28.87-49.35a6.3,6.3,0,0,1,0-6.36l28.87-49.35a6.48,6.48,0,0,1,5.63-3h57.19a6.48,6.48,0,0,1,5.63,3Z" transform="translate(-142.06 -142)"/><path class="cls-1" d="M1401.53,145.39l33.3,56.92a5.5,5.5,0,0,1,0,5.55l-33.3,56.92a7.36,7.36,0,0,1-6.4,3.39h-65a7.36,7.36,0,0,1-6.4-3.39l-32.81-56.08a7.16,7.16,0,0,1,0-7.23l32.81-56.08a7.36,7.36,0,0,1,6.4-3.39h65a7.36,7.36,0,0,1,6.4,3.39Z" transform="translate(-142.06 -142)"/><path class="cls-2" d="M1396.88,152.56l29.3,50.09a4.84,4.84,0,0,1,0,4.88l-29.3,50.09a6.48,6.48,0,0,1-5.63,3h-57.19a6.48,6.48,0,0,1-5.63-3l-28.87-49.35a6.3,6.3,0,0,1,0-6.36l28.87-49.35a6.48,6.48,0,0,1,5.63-3h57.19a6.48,6.48,0,0,1,5.63,3Z" transform="translate(-142.06 -142)"/><path class="cls-1" d="M1401.53,284.95l33.3,56.92a5.5,5.5,0,0,1,0,5.55l-33.3,56.92a7.36,7.36,0,0,1-6.4,3.39h-65a7.36,7.36,0,0,1-6.4-3.39l-32.81-56.08a7.16,7.16,0,0,1,0-7.23l32.81-56.08a7.36,7.36,0,0,1,6.4-3.39h65a7.36,7.36,0,0,1,6.4,3.39Z" transform="translate(-142.06 -142)"/><path class="cls-2" d="M1396.88,292.11l29.3,50.09a4.84,4.84,0,0,1,0,4.88l-29.3,50.09a6.48,6.48,0,0,1-5.63,3h-57.19a6.48,6.48,0,0,1-5.63-3l-28.87-49.35a6.3,6.3,0,0,1,0-6.36l28.87-49.35a6.48,6.48,0,0,1,5.63-3h57.19a6.48,6.48,0,0,1,5.63,3Z" transform="translate(-142.06 -142)"/><path class="cls-1" d="M1401.53,424.5l33.3,56.92a5.5,5.5,0,0,1,0,5.55l-33.3,56.92a7.36,7.36,0,0,1-6.4,3.39h-65a7.36,7.36,0,0,1-6.4-3.39l-32.81-56.08a7.16,7.16,0,0,1,0-7.23l32.81-56.08a7.36,7.36,0,0,1,6.4-3.39h65a7.36,7.36,0,0,1,6.4,3.39Z" transform="translate(-142.06 -142)"/><path class="cls-2" d="M1396.88,431.67l29.3,50.09a4.84,4.84,0,0,1,0,4.88l-29.3,50.09a6.48,6.48,0,0,1-5.63,3h-57.19a6.48,6.48,0,0,1-5.63-3l-28.87-49.35a6.3,6.3,0,0,1,0-6.36l28.87-49.35a6.48,6.48,0,0,1,5.63-3h57.19a6.48,6.48,0,0,1,5.63,3Z" transform="translate(-142.06 -142)"/><path class="cls-1" d="M1401.53,564.05l33.3,56.92a5.5,5.5,0,0,1,0,5.55l-33.3,56.92a7.36,7.36,0,0,1-6.4,3.39h-65a7.36,7.36,0,0,1-6.4-3.39l-32.81-56.08a7.16,7.16,0,0,1,0-7.23l32.81-56.08a7.36,7.36,0,0,1,6.4-3.39h65a7.36,7.36,0,0,1,6.4,3.39Z" transform="translate(-142.06 -142)"/><path class="cls-2" d="M1396.88,571.22l29.3,50.09a4.84,4.84,0,0,1,0,4.88l-29.3,50.09a6.48,6.48,0,0,1-5.63,3h-57.19a6.48,6.48,0,0,1-5.63-3l-28.87-49.35a6.3,6.3,0,0,1,0-6.36l28.87-49.35a6.48,6.48,0,0,1,5.63-3h57.19a6.48,6.48,0,0,1,5.63,3Z" transform="translate(-142.06 -142)"/><path class="cls-1" d="M1401.53,703.61l33.3,56.92a5.5,5.5,0,0,1,0,5.55L1401.53,823a7.36,7.36,0,0,1-6.4,3.39h-65a7.36,7.36,0,0,1-6.4-3.39l-32.81-56.08a7.16,7.16,0,0,1,0-7.23l32.81-56.08a7.36,7.36,0,0,1,6.4-3.39h65a7.36,7.36,0,0,1,6.4,3.39Z" transform="translate(-142.06 -142)"/><path class="cls-2" d="M1396.88,710.77l29.3,50.09a4.84,4.84,0,0,1,0,4.88l-29.3,50.09a6.48,6.48,0,0,1-5.63,3h-57.19a6.48,6.48,0,0,1-5.63-3l-28.87-49.35a6.3,6.3,0,0,1,0-6.36l28.87-49.35a6.48,6.48,0,0,1,5.63-3h57.19a6.48,6.48,0,0,1,5.63,3Z" transform="translate(-142.06 -142)"/><path class="cls-1" d="M1525.21,215l33.3,56.92a5.5,5.5,0,0,1,0,5.55l-33.3,56.92a7.36,7.36,0,0,1-6.4,3.39h-65a7.36,7.36,0,0,1-6.4-3.39l-32.81-56.08a7.16,7.16,0,0,1,0-7.23L1447.42,215a7.36,7.36,0,0,1,6.4-3.39h65a7.36,7.36,0,0,1,6.4,3.39Z" transform="translate(-142.06 -142)"/><path class="cls-2" d="M1520.55,222.17l29.3,50.09a4.84,4.84,0,0,1,0,4.88l-29.3,50.09a6.48,6.48,0,0,1-5.63,3h-57.19a6.48,6.48,0,0,1-5.63-3l-28.87-49.35a6.3,6.3,0,0,1,0-6.36l28.87-49.35a6.48,6.48,0,0,1,5.63-3h57.19a6.48,6.48,0,0,1,5.63,3Z" transform="translate(-142.06 -142)"/><path class="cls-1" d="M1525.21,354.56l33.3,56.92a5.5,5.5,0,0,1,0,5.55L1525.21,474a7.36,7.36,0,0,1-6.4,3.39h-65a7.36,7.36,0,0,1-6.4-3.39l-32.81-56.08a7.16,7.16,0,0,1,0-7.23l32.81-56.08a7.36,7.36,0,0,1,6.4-3.39h65a7.36,7.36,0,0,1,6.4,3.39Z" transform="translate(-142.06 -142)"/><path class="cls-2" d="M1520.55,361.73l29.3,50.09a4.84,4.84,0,0,1,0,4.88l-29.3,50.09a6.48,6.48,0,0,1-5.63,3h-57.19a6.48,6.48,0,0,1-5.63-3l-28.87-49.35a6.3,6.3,0,0,1,0-6.36l28.87-49.35a6.48,6.48,0,0,1,5.63-3h57.19a6.48,6.48,0,0,1,5.63,3Z" transform="translate(-142.06 -142)"/><path class="cls-1" d="M1525.21,494.11,1558.5,551a5.5,5.5,0,0,1,0,5.55l-33.3,56.92a7.36,7.36,0,0,1-6.4,3.39h-65a7.36,7.36,0,0,1-6.4-3.39l-32.81-56.08a7.16,7.16,0,0,1,0-7.23l32.81-56.08a7.36,7.36,0,0,1,6.4-3.39h65a7.36,7.36,0,0,1,6.4,3.39Z" transform="translate(-142.06 -142)"/><path class="cls-2" d="M1520.55,501.28l29.3,50.09a4.84,4.84,0,0,1,0,4.88l-29.3,50.09a6.48,6.48,0,0,1-5.63,3h-57.19a6.48,6.48,0,0,1-5.63-3L1423.24,557a6.3,6.3,0,0,1,0-6.36l28.87-49.35a6.48,6.48,0,0,1,5.63-3h57.19a6.48,6.48,0,0,1,5.63,3Z" transform="translate(-142.06 -142)"/><path class="cls-1" d="M1525.21,633.67l33.3,56.92a5.5,5.5,0,0,1,0,5.55l-33.3,56.92a7.36,7.36,0,0,1-6.4,3.39h-65a7.36,7.36,0,0,1-6.4-3.39L1414.62,697a7.16,7.16,0,0,1,0-7.23l32.81-56.08a7.36,7.36,0,0,1,6.4-3.39h65a7.36,7.36,0,0,1,6.4,3.39Z" transform="translate(-142.06 -142)"/><path class="cls-2" d="M1520.55,640.83l29.3,50.09a4.84,4.84,0,0,1,0,4.88l-29.3,50.09a6.48,6.48,0,0,1-5.63,3h-57.19a6.48,6.48,0,0,1-5.63-3l-28.87-49.35a6.3,6.3,0,0,1,0-6.36l28.87-49.35a6.48,6.48,0,0,1,5.63-3h57.19a6.48,6.48,0,0,1,5.63,3Z" transform="translate(-142.06 -142)"/></g><g id="Livello_6" data-name="Livello 6"><path class="cls-1" d="M370.57,356A31.85,31.85,0,0,1,354,351.34a26.24,26.24,0,0,1-8.88-36A21.62,21.62,0,0,1,374.82,308a17.89,17.89,0,0,1,6,24.54,3,3,0,1,1-5.13-3.1,11.89,11.89,0,0,0-4-16.3,15.61,15.61,0,0,0-21.41,5.28,20.24,20.24,0,0,0,6.85,27.79,26.05,26.05,0,0,0,35.77-8.82,33.31,33.31,0,0,0-11.27-45.74,3,3,0,1,1,3.1-5.13,39.31,39.31,0,0,1,13.3,54A31.84,31.84,0,0,1,378.3,355,32.27,32.27,0,0,1,370.57,356Z" transform="translate(-142.06 -142)"/><path class="cls-1" d="M439,420.45a39.62,39.62,0,0,1-8.64-1A32.05,32.05,0,0,1,406,381.23a26.26,26.26,0,0,1,31.33-19.89,21.62,21.62,0,0,1,16.37,25.78,17.89,17.89,0,0,1-21.34,13.55,3,3,0,0,1,1.31-5.86,11.89,11.89,0,0,0,14.18-9A15.61,15.61,0,0,0,436,367.19a20.26,20.26,0,0,0-24.16,15.35,26.05,26.05,0,0,0,19.75,31.1,33.31,33.31,0,0,0,39.77-25.26,3,3,0,1,1,5.86,1.31A39.35,39.35,0,0,1,439,420.45Z" transform="translate(-142.06 -142)"/><path class="cls-1" d="M310.41,344.19a3,3,0,0,1-2.74-4.22,33.31,33.31,0,0,0-16.84-44,26.08,26.08,0,0,0-34.41,13.17,20.24,20.24,0,0,0,10.23,26.73,15.59,15.59,0,0,0,20.6-7.88,11.89,11.89,0,0,0-6-15.68,3,3,0,1,1,2.45-5.48,17.89,17.89,0,0,1,9,23.61,21.59,21.59,0,0,1-28.52,10.91A26.24,26.24,0,0,1,251,306.69a32.09,32.09,0,0,1,42.33-16.2,39.31,39.31,0,0,1,19.87,51.93A3,3,0,0,1,310.41,344.19Z" transform="translate(-142.06 -142)"/><g id="gnammy"><path class="cls-1" d="M345.25,512.18A63.72,63.72,0,1,1,409,448.46,63.79,63.79,0,0,1,345.25,512.18Z" transform="translate(-142.06 -142)"/><path class="cls-3" d="M345.25,397.72A50.74,50.74,0,1,0,396,448.46,50.8,50.8,0,0,0,345.25,397.72Z" transform="translate(-142.06 -142)"/><path class="cls-1" d="M142.06,849.07l2.62-9.88c8.23-31,23.79-94.23,23.79-111.63V633.12A103.4,103.4,0,0,1,271.74,529.84h147A103.4,103.4,0,0,1,522,633.12v94.44A103.39,103.39,0,0,1,418.75,830.84h-147c-29.45,0-118.73,16.23-119.63,16.4Z" transform="translate(-142.06 -142)"/><path class="cls-3" d="M271.74,542.82a90.41,90.41,0,0,0-90.3,90.3v94.44c0,19.07-15.4,80.83-21.66,105.13,24.55-4.31,87.08-14.83,112-14.83h147a90.41,90.41,0,0,0,90.3-90.3V633.12a90.41,90.41,0,0,0-90.3-90.3Z" transform="translate(-142.06 -142)"/></g></g></svg>