<svg id="Livello_5" data-name="Livello 5" xmlns="http://www.w3.org/2000/svg" viewBox="0 0 1417.64 708.81"><defs><style>.cls-1{fill:#fff;}.cls-2{fill:#e0254a;}.cls-3{fill:#fcb32a;}.cls-4{fill:#55bb71;}.cls-5{isolation:isolate;}.cls-6{fill:#0b7d70;}</style></defs><title>errore-imprevisto</title><path class="cls-1" d="M644,850.22H521.55A27.76,27.76,0,0,1,501.9,842l-86.8-88a27.44,27.44,0,0,1-8-19.38V609.93a27.43,27.43,0,0,1,8-19.38l86.81-88a27.77,27.77,0,0,1,19.65-8.22H644a27.77,27.77,0,0,1,19.65,8.22l6.65,6.74h0l80.15,81.23a27.43,27.43,0,0,1,8,19.38V734.65a27.44,27.44,0,0,1-8,19.38l-86.8,88A27.77,27.77,0,0,1,644,850.22Z" transform="translate(-141.73 -141.64)"/><path class="cls-2" d="M521.56,502.29a19.8,19.8,0,0,0-14,5.86l-86.81,88a19.56,19.56,0,0,0-5.67,13.82V734.65a19.56,19.56,0,0,0,5.67,13.82l86.8,88a19.79,19.79,0,0,0,14,5.86H644a19.8,19.8,0,0,0,14-5.86l86.8-88a19.56,19.56,0,0,0,5.67-13.82V609.93a19.56,19.56,0,0,0-5.67-13.82l-87.16-88.33a19.81,19.81,0,0,0-13.64-5.5Z" transform="translate(-141.73 -141.64)"/><path class="cls-1" d="M1499.46,797.92l-111.84,49.79a27.76,27.76,0,0,1-21.29.48l-115.07-45.06a27.44,27.44,0,0,1-15.15-14.47l-50.72-113.94a27.43,27.43,0,0,1-.62-20.94l43.53-115.67a27.77,27.77,0,0,1,14.61-15.5l111.84-49.79a27.77,27.77,0,0,1,21.29-.48l8.82,3.45h0L1491.1,517.4a27.43,27.43,0,0,1,15.15,14.47L1557,645.82a27.44,27.44,0,0,1,.62,20.94l-43.52,115.66A27.77,27.77,0,0,1,1499.46,797.92Z" transform="translate(-141.73 -141.64)"/><path class="cls-2" d="M1246.13,529.85a19.8,19.8,0,0,0-10.41,11.05l-43.53,115.67a19.56,19.56,0,0,0,.44,14.93l50.72,113.94a19.56,19.56,0,0,0,10.8,10.32l115.07,45.06a19.79,19.79,0,0,0,15.18-.34l111.84-49.79a19.8,19.8,0,0,0,10.41-11L1550.18,664a19.56,19.56,0,0,0-.44-14.93L1499,535.1a19.56,19.56,0,0,0-10.8-10.32l-115.55-45.25a19.81,19.81,0,0,0-14.7.53Z" transform="translate(-141.73 -141.64)"/><path class="cls-1" d="M640,354.76H528.11a15,15,0,0,1-14.35-10.57L478.83,231.57a15.09,15.09,0,0,1,5.25-16.41L575,145.95a15.08,15.08,0,0,1,18.21,0h0l90.89,69.21a15.09,15.09,0,0,1,5.25,16.41L654.4,344.18A15,15,0,0,1,640,354.76Z" transform="translate(-141.73 -141.64)"/><path class="cls-3" d="M584.07,150.8a7.11,7.11,0,0,0-4.31,1.45l-90.89,69.21a7.14,7.14,0,0,0-2.49,7.77l34.93,112.61a7.09,7.09,0,0,0,6.79,5H640a7.08,7.08,0,0,0,6.79-5l34.92-112.61a7.14,7.14,0,0,0-2.49-7.76l-90.89-69.21A7.1,7.1,0,0,0,584.07,150.8Z" transform="translate(-141.73 -141.64)"/><path class="cls-1" d="M1364.62,251.42l-58.89,90.26a14.41,14.41,0,0,1-16.08,6l-109.19-31.08A14.53,14.53,0,0,1,1170,303.74L1162,194a14.52,14.52,0,0,1,9.58-14.68h0l103.63-36.88a14.53,14.53,0,0,1,16,4.39l72.44,87.41A14.41,14.41,0,0,1,1364.62,251.42Z" transform="translate(-141.73 -141.64)"/><path class="cls-3" d="M1170.7,189.25a6.84,6.84,0,0,0-1.1,4.24l8,109.7a6.88,6.88,0,0,0,5,6.09l109.19,31.08a6.82,6.82,0,0,0,7.61-2.84l58.89-90.26a6.82,6.82,0,0,0-.46-8.11l-72.44-87.41a6.88,6.88,0,0,0-7.57-2.08l-103.63,36.88A6.84,6.84,0,0,0,1170.7,189.25Z" transform="translate(-141.73 -141.64)"/><path class="cls-1" d="M644.63,502.29H520.9a15.76,15.76,0,0,1-15.74-15.74V362.82a15.76,15.76,0,0,1,15.74-15.74H644.63a15.76,15.76,0,0,1,15.74,15.74V486.55A15.76,15.76,0,0,1,644.63,502.29Z" transform="translate(-141.73 -141.64)"/><path class="cls-4" d="M520.9,355a7.83,7.83,0,0,0-7.82,7.82V486.55a7.83,7.83,0,0,0,7.82,7.82H644.63a7.83,7.83,0,0,0,7.82-7.82V362.82a7.83,7.83,0,0,0-7.82-7.82Z" transform="translate(-141.73 -141.64)"/><path class="cls-1" d="M1133.86,850.22H975.78a20.13,20.13,0,0,1-20.11-20.11V672a20.13,20.13,0,0,1,20.11-20.11h158.07A20.13,20.13,0,0,1,1154,672V830.11A20.13,20.13,0,0,1,1133.86,850.22Z" transform="translate(-141.73 -141.64)"/><path class="cls-4" d="M975.78,662a10,10,0,0,0-10,10V830.11a10,10,0,0,0,10,10h158.07a10,10,0,0,0,10-10V672a10,10,0,0,0-10-10Z" transform="translate(-141.73 -141.64)"/><g class="cls-5"><path class="cls-1" d="M1427.74,197.91q8.29-7.81,22.37-7.81,13.79,0,21.93,6.53t8.14,18.56a26.64,26.64,0,0,1-5.94,17.38,90.07,90.07,0,0,1-6.67,7,57.49,57.49,0,0,0-8.43,9.86,19.74,19.74,0,0,0-2.71,10.74h-13.2q0-8.58,3-13.82a52.75,52.75,0,0,1,8.58-10.82,52.33,52.33,0,0,0,7.08-8.65,17.47,17.47,0,0,0,2.24-9.24q0-6.31-4.14-9.61t-11.33-3.3q-7.34,0-11.55,3.92t-4.51,11.4L1419,220Q1419.45,205.73,1427.74,197.91Zm28.68,80.86a9.59,9.59,0,0,1,2.71,7,10,10,0,0,1-2.71,7.19,9.43,9.43,0,0,1-13.49,0,10,10,0,0,1-2.71-7.22,9.59,9.59,0,0,1,2.71-7,9.56,9.56,0,0,1,13.49,0Z" transform="translate(-141.73 -141.64)"/></g><g id="gnammy"><path class="cls-1" d="M276.54,619.88a40.29,40.29,0,1,1,40.29-40.29A40.34,40.34,0,0,1,276.54,619.88Z" transform="translate(-141.73 -141.64)"/><path class="cls-6" d="M276.54,550.13A29.46,29.46,0,1,0,306,579.58,29.49,29.49,0,0,0,276.54,550.13Z" transform="translate(-141.73 -141.64)"/><path class="cls-1" d="M141.73,850.45l2.09-8.14c9.21-35.78,14.71-62.29,14.71-70.9V706.5A67.56,67.56,0,0,1,226,639h101a67.56,67.56,0,0,1,67.48,67.48v64.91a67.56,67.56,0,0,1-67.48,67.48H226c-17.07,0-62.5,7.74-76,10.11Z" transform="translate(-141.73 -141.64)"/><path class="cls-6" d="M226,649.85a56.71,56.71,0,0,0-56.65,56.65v64.91c0,11.65-7.39,43.25-13,65.5,20.3-3.45,54.51-8.85,69.64-8.85h101a56.71,56.71,0,0,0,56.65-56.65V706.5a56.71,56.71,0,0,0-56.65-56.65Z" transform="translate(-141.73 -141.64)"/></g><path class="cls-1" d="M366.65,581.74h-13.4l.22-23-19.83,11.66-7-12.31,20.16-11.33-20.16-10.9,7-12.75,19.83,11.77-.22-23h13.4l-.22,23,19.83-11.55,6.65,12.53-20,10.9,20,11.33-6.65,12.53-19.83-11.88Z" transform="translate(-141.73 -141.64)"/><g id="gnammy-2" data-name="gnammy"><path class="cls-1" d="M1383.86,306.86a30,30,0,1,1,30-30A30,30,0,0,1,1383.86,306.86Z" transform="translate(-141.73 -141.64)"/><path class="cls-6" d="M1383.86,255a21.9,21.9,0,1,0,21.9,21.9A21.93,21.93,0,0,0,1383.86,255Z" transform="translate(-141.73 -141.64)"/><path class="cls-1" d="M1283.63,478.29l1.56-6c6.85-26.6,10.94-46.31,10.94-52.71V371.26a50.23,50.23,0,0,1,50.17-50.17h75.12a50.23,50.23,0,0,1,50.17,50.17v48.26a50.23,50.23,0,0,1-50.17,50.17H1346.3c-12.69,0-46.46,5.75-56.51,7.51Z" transform="translate(-141.73 -141.64)"/><path class="cls-6" d="M1346.3,329.15a42.16,42.16,0,0,0-42.12,42.12v48.26c0,8.66-5.5,32.15-9.66,48.7,15.1-2.56,40.53-6.58,51.78-6.58h75.12a42.16,42.16,0,0,0,42.12-42.12V371.26a42.16,42.16,0,0,0-42.12-42.12Z" transform="translate(-141.73 -141.64)"/></g></svg>