<svg xmlns="http://www.w3.org/2000/svg" viewBox="0 0 1415.72 703.37"><defs><style>.cls-1,.cls-2{fill:#fff;}.cls-2{stroke:#fff;stroke-linecap:round;stroke-linejoin:round;stroke-width:4px;}.cls-3{fill:#622a5d;}.cls-4{fill:#0b7d70;}.cls-5{fill:#4db748;}.cls-6{fill:#df2449;}.cls-7{fill:#04505f;}.cls-8{fill:#53bb71;}.cls-9{fill:#f04d23;}.cls-10{fill:#fcb32c;}</style></defs><title>mancata-connessione</title><g id="A_copia" data-name="A copia"><path class="cls-1" d="M798.51,335.56H160.06a18.33,18.33,0,0,1-18.33-18.33h0a18.33,18.33,0,0,1,18.33-18.33h672Z" transform="translate(-141.73 -143.44)"/><path class="cls-1" d="M921.39,666.12l621.88,144.51a18.33,18.33,0,0,1,13.7,22h0a18.33,18.33,0,0,1-22,13.7L880.4,694.23Z" transform="translate(-141.73 -143.44)"/><circle class="cls-1" cx="1006.21" cy="500.77" r="2.87" transform="translate(-201.12 714.73) rotate(-45)"/><circle class="cls-1" cx="1014.25" cy="492.73" r="2.87" transform="translate(-193.08 718.06) rotate(-45)"/><circle class="cls-1" cx="1022.29" cy="484.69" r="2.87" transform="translate(-185.04 721.39) rotate(-45)"/><circle class="cls-1" cx="1364.25" cy="414.98" r="2.87" transform="translate(-35.59 942.77) rotate(-45)"/><circle class="cls-1" cx="1356.21" cy="406.94" r="2.87" transform="translate(-32.26 934.73) rotate(-45)"/><circle class="cls-1" cx="1348.17" cy="398.9" r="2.87" transform="translate(-28.93 926.69) rotate(-45)"/><circle class="cls-1" cx="1047.82" cy="249.34" r="2.87" transform="translate(251.33 961.11) rotate(-65.95)"/><circle class="cls-1" cx="1058.2" cy="253.97" r="2.87" transform="translate(253.25 973.34) rotate(-65.95)"/><circle class="cls-1" cx="1068.59" cy="258.61" r="2.87" transform="translate(255.17 985.57) rotate(-65.95)"/><circle class="cls-1" cx="1310.99" cy="690.18" r="2.87" transform="translate(-245.79 985.72) rotate(-45)"/><circle class="cls-1" cx="1302.95" cy="682.14" r="2.87" transform="translate(-242.46 977.68) rotate(-45)"/><circle class="cls-1" cx="1294.91" cy="674.1" r="2.87" transform="translate(-239.13 969.64) rotate(-45)"/><line class="cls-2" x1="1060.63" y1="333.02" x2="1085.78" y2="359.7"/><line class="cls-2" x1="1060.63" y1="355.46" x2="1085.78" y2="382.14"/><line class="cls-2" x1="836.6" y1="462.02" x2="856.77" y2="492.64"/><line class="cls-2" x1="832.73" y1="484.13" x2="852.9" y2="514.75"/><line class="cls-2" x1="1355.65" y1="531.47" x2="1335.86" y2="562.33"/><line class="cls-2" x1="1333.87" y1="536.91" x2="1314.08" y2="567.77"/><line class="cls-2" x1="793.44" y1="231.34" x2="818.58" y2="258.02"/><line class="cls-2" x1="793.44" y1="253.78" x2="818.58" y2="280.46"/><g id="gnammy"><path class="cls-1" d="M244.27,180.14c-9.69,0-17.57-8.23-17.57-18.35s7.88-18.35,17.57-18.35,17.57,8.23,17.57,18.35S254,180.14,244.27,180.14Z" transform="translate(-141.73 -143.44)"/><path class="cls-3" d="M244.27,148.37c-7.08,0-12.84,6-12.84,13.42s5.76,13.42,12.84,13.42,12.84-6,12.84-13.42S251.35,148.37,244.27,148.37Z" transform="translate(-141.73 -143.44)"/><path class="cls-1" d="M185.5,285.17l.91-3.71c4-16.3,6.42-28.37,6.42-32.3V219.6c0-16.95,13.2-30.74,29.42-30.74H266.3c16.22,0,29.42,13.79,29.42,30.74v29.57c0,16.95-13.2,30.74-29.42,30.74H222.24c-7.44,0-27.25,3.52-33.14,4.6Z" transform="translate(-141.73 -143.44)"/><path class="cls-3" d="M222.24,193.8c-13.62,0-24.7,11.58-24.7,25.8v29.57c0,5.31-3.22,19.7-5.66,29.83,8.85-1.57,23.77-4,30.36-4H266.3c13.62,0,24.7-11.58,24.7-25.8V219.6c0-14.23-11.08-25.8-24.7-25.8Z" transform="translate(-141.73 -143.44)"/></g><g id="gnammy-2" data-name="gnammy"><path class="cls-1" d="M414.81,180.14c-9.69,0-17.57-8.23-17.57-18.35s7.88-18.35,17.57-18.35,17.57,8.23,17.57,18.35S424.5,180.14,414.81,180.14Z" transform="translate(-141.73 -143.44)"/><path class="cls-4" d="M414.81,148.37c-7.08,0-12.84,6-12.84,13.42s5.76,13.42,12.84,13.42,12.84-6,12.84-13.42S421.89,148.37,414.81,148.37Z" transform="translate(-141.73 -143.44)"/><path class="cls-1" d="M356,285.17l.91-3.71c4-16.3,6.42-28.37,6.42-32.3V219.6c0-16.95,13.2-30.74,29.42-30.74h44.05c16.22,0,29.42,13.79,29.42,30.74v29.57c0,16.95-13.2,30.74-29.42,30.74H392.79c-7.44,0-27.25,3.52-33.14,4.6Z" transform="translate(-141.73 -143.44)"/><path class="cls-4" d="M392.79,193.8c-13.62,0-24.7,11.58-24.7,25.8v29.57c0,5.31-3.22,19.7-5.66,29.83,8.85-1.57,23.77-4,30.36-4h44.05c13.62,0,24.7-11.58,24.7-25.8V219.6c0-14.23-11.08-25.8-24.7-25.8Z" transform="translate(-141.73 -143.44)"/></g><g id="gnammy-3" data-name="gnammy"><path class="cls-1" d="M585.35,180.14c-9.69,0-17.57-8.23-17.57-18.35s7.88-18.35,17.57-18.35,17.57,8.23,17.57,18.35S595,180.14,585.35,180.14Z" transform="translate(-141.73 -143.44)"/><path class="cls-5" d="M585.35,148.37c-7.08,0-12.84,6-12.84,13.42s5.76,13.42,12.84,13.42,12.84-6,12.84-13.42S592.43,148.37,585.35,148.37Z" transform="translate(-141.73 -143.44)"/><path class="cls-1" d="M526.58,285.17l.91-3.71c4-16.3,6.42-28.37,6.42-32.3V219.6c0-16.95,13.2-30.74,29.42-30.74h44.05c16.22,0,29.42,13.79,29.42,30.74v29.57c0,16.95-13.2,30.74-29.42,30.74H563.33c-7.44,0-27.25,3.52-33.14,4.6Z" transform="translate(-141.73 -143.44)"/><path class="cls-5" d="M563.33,193.8c-13.62,0-24.7,11.58-24.7,25.8v29.57c0,5.31-3.22,19.7-5.66,29.83,8.85-1.57,23.77-4,30.36-4h44.05c13.62,0,24.7-11.58,24.7-25.8V219.6c0-14.23-11.08-25.8-24.7-25.8Z" transform="translate(-141.73 -143.44)"/></g><g id="gnammy-4" data-name="gnammy"><path class="cls-1" d="M755.89,180.14c-9.69,0-17.57-8.23-17.57-18.35s7.88-18.35,17.57-18.35,17.57,8.23,17.57,18.35S765.58,180.14,755.89,180.14Z" transform="translate(-141.73 -143.44)"/><path class="cls-6" d="M755.89,148.37c-7.08,0-12.84,6-12.84,13.42s5.76,13.42,12.84,13.42,12.84-6,12.84-13.42S763,148.37,755.89,148.37Z" transform="translate(-141.73 -143.44)"/><path class="cls-1" d="M697.12,285.17l.91-3.71c4-16.3,6.42-28.37,6.42-32.3V219.6c0-16.95,13.2-30.74,29.42-30.74h44.05c16.22,0,29.42,13.79,29.42,30.74v29.57c0,16.95-13.2,30.74-29.42,30.74H733.87c-7.44,0-27.25,3.52-33.14,4.6Z" transform="translate(-141.73 -143.44)"/><path class="cls-6" d="M733.87,193.8c-13.62,0-24.7,11.58-24.7,25.8v29.57c0,5.31-3.22,19.7-5.66,29.83,8.85-1.57,23.77-4,30.36-4h44.05c13.62,0,24.7-11.58,24.7-25.8V219.6c0-14.23-11.08-25.8-24.7-25.8Z" transform="translate(-141.73 -143.44)"/></g><g id="gnammy-5" data-name="gnammy"><path class="cls-1" d="M1009.91,542.92c-7,6.67-18.41,6.12-25.38-1.22s-6.92-18.74.1-25.4,18.41-6.12,25.38,1.22S1016.93,536.25,1009.91,542.92Z" transform="translate(-141.73 -143.44)"/><path class="cls-7" d="M988,519.88c-5.14,4.88-5.17,13.21-.08,18.57s13.42,5.76,18.55.89,5.17-13.21.08-18.57S993.17,515,988,519.88Z" transform="translate(-141.73 -143.44)"/><path class="cls-1" d="M1039.59,659.56l-1.89-3.32c-8.31-14.59-14.88-25-17.58-27.84L999.76,607c-11.67-12.29-11.59-31.38.17-42.55l31.95-30.33c11.77-11.17,30.83-10.26,42.5,2l20.36,21.44c11.67,12.29,11.59,31.38-.17,42.55l-31.95,30.33c-5.4,5.12-17.33,21.32-20.86,26.16Z" transform="translate(-141.73 -143.44)"/><path class="cls-7" d="M1003.33,568c-9.88,9.38-9.94,25.4-.15,35.72l20.36,21.44c3.65,3.85,11.23,16.51,16.43,25.54,5.34-7.23,14.46-19.29,19.24-23.83l31.95-30.33c9.88-9.38,9.94-25.4.15-35.72L1071,539.37c-9.8-10.32-25.8-11.09-35.68-1.71Z" transform="translate(-141.73 -143.44)"/></g><g id="gnammy-6" data-name="gnammy"><path class="cls-1" d="M1302,407.13c-7-6.74-6.89-18.14.16-25.4s18.43-7.7,25.39-1,6.89,18.14-.16,25.4S1308.93,413.87,1302,407.13Z" transform="translate(-141.73 -143.44)"/><path class="cls-8" d="M1324.09,384.32c-5.09-4.93-13.41-4.62-18.56.7s-5.2,13.65-.11,18.57,13.41,4.62,18.56-.7S1329.17,389.24,1324.09,384.32Z" transform="translate(-141.73 -143.44)"/><path class="cls-1" d="M1186.68,441.65l3.24-2c14.23-8.91,24.35-15.91,27.08-18.73l20.58-21.23c11.79-12.17,30.87-12.89,42.52-1.6l31.63,30.66c11.65,11.29,11.53,30.38-.26,42.55l-20.58,21.23c-11.79,12.17-30.87,12.89-42.52,1.6l-31.63-30.66c-5.34-5.18-22-16.43-27-19.76Z" transform="translate(-141.73 -143.44)"/><path class="cls-8" d="M1276.66,401.61c-9.78-9.48-25.79-8.87-35.69,1.34l-20.58,21.23c-3.69,3.81-16,11.9-24.83,17.48,7.45,5,19.87,13.64,24.61,18.24l31.63,30.66c9.78,9.48,25.79,8.88,35.69-1.34L1308.07,468c9.9-10.22,10-26.24.22-35.72Z" transform="translate(-141.73 -143.44)"/></g><g id="gnammy-7" data-name="gnammy"><path class="cls-1" d="M1007.47,265.57c-8.09-5.32-10.15-16.53-4.59-25s16.67-11,24.76-5.68,10.15,16.53,4.59,25S1015.56,270.9,1007.47,265.57Z" transform="translate(-141.73 -143.44)"/><path class="cls-9" d="M1024.93,239c-5.92-3.89-14-2-18.11,4.15s-2.56,14.38,3.36,18.27,14,2,18.1-4.15S1030.85,242.92,1024.93,239Z" transform="translate(-141.73 -143.44)"/><path class="cls-1" d="M900.65,321l2.8-2.59c12.31-11.41,21-20.18,23.11-23.46l16.25-24.7c9.31-14.16,27.92-18.43,41.47-9.51l36.8,24.21c13.55,8.92,17,27.69,7.69,41.85l-16.25,24.7C1003.2,365.67,984.6,369.94,971,361l-36.8-24.21c-6.22-4.09-24.7-12-30.22-14.37Z" transform="translate(-141.73 -143.44)"/><path class="cls-9" d="M981.57,264.88c-11.38-7.48-27-3.9-34.81,8l-16.25,24.7c-2.92,4.43-13.52,14.69-21.13,21.81,8.26,3.55,22.07,9.69,27.58,13.32l36.8,24.21c11.38,7.48,27,3.9,34.82-8l16.25-24.7c7.82-11.89,4.93-27.65-6.45-35.13Z" transform="translate(-141.73 -143.44)"/></g><g id="gnammy-8" data-name="gnammy"><path class="cls-1" d="M1355.76,691.82c7.19,6.49,7.53,17.88.75,25.39s-18.14,8.35-25.34,1.86-7.53-17.88-.75-25.39S1348.57,685.33,1355.76,691.82Z" transform="translate(-141.73 -143.44)"/><path class="cls-10" d="M1334.48,715.41c5.26,4.74,13.57,4.13,18.53-1.36s4.71-13.82-.55-18.57-13.57-4.13-18.52,1.36S1329.22,710.67,1334.48,715.41Z" transform="translate(-141.73 -143.44)"/><path class="cls-1" d="M1469.75,653.19l-3.16,2.14c-13.9,9.41-23.77,16.77-26.39,19.69l-19.8,22C1409,709.56,1390,711,1378,700.09l-32.71-29.5c-12-10.87-12.61-29.94-1.26-42.53l19.8-22c11.35-12.59,30.39-14,42.43-3.12l32.71,29.5c5.53,5,22.59,15.63,27.69,18.78Z" transform="translate(-141.73 -143.44)"/><path class="cls-10" d="M1381.26,696.43c10.11,9.12,26.09,7.95,35.62-2.62l19.8-22c3.55-3.94,15.59-12.47,24.19-18.36-7.63-4.76-20.35-12.92-25.25-17.34l-32.71-29.5c-10.11-9.12-26.09-7.95-35.62,2.62l-19.8,22c-9.53,10.57-9.05,26.58,1.06,35.7Z" transform="translate(-141.73 -143.44)"/></g></g></svg>