<svg id="Livello_4" data-name="Livello 4" xmlns="http://www.w3.org/2000/svg" viewBox="0 0 1417.25 707.05"><defs><style>.cls-1{fill:#fff;}.cls-2{fill:#de3727;}.cls-3{fill:#fcb430;}.cls-4{fill:#54bb72;}.cls-5{fill:#df264b;}.cls-6{fill:#f04d23;}.cls-7{fill:#632b5e;}.cls-8{fill:#4fb849;}.cls-9{fill:#0b7e6f;}.cls-10{fill:#075060;}</style></defs><title>rete-sovraffollata</title><g id="gnammy"><path class="cls-1" d="M1423.29,240a49.11,49.11,0,1,1,49.11-49.11A49.17,49.17,0,0,1,1423.29,240Z" transform="translate(-142.3 -141.73)"/><path class="cls-2" d="M1423.29,151.73a39.11,39.11,0,1,0,39.11,39.11A39.16,39.16,0,0,0,1423.29,151.73Z" transform="translate(-142.3 -141.73)"/><path class="cls-1" d="M1266.68,499.62l2-7.62c6.34-23.89,18.33-72.63,18.33-86V333.17a79.69,79.69,0,0,1,79.6-79.6h113.31a79.69,79.69,0,0,1,79.6,79.6V406a79.69,79.69,0,0,1-79.6,79.6H1366.64c-22.7,0-91.51,12.51-92.21,12.64Z" transform="translate(-142.3 -141.73)"/><path class="cls-2" d="M1366.64,263.57a69.68,69.68,0,0,0-69.6,69.6V406c0,14.7-11.87,62.3-16.69,81,18.92-3.32,67.12-11.43,86.29-11.43h113.31a69.68,69.68,0,0,0,69.6-69.6V333.17a69.68,69.68,0,0,0-69.6-69.6Z" transform="translate(-142.3 -141.73)"/></g><g id="gnammy-2" data-name="gnammy"><path class="cls-1" d="M1283,283.6a49.11,49.11,0,1,1,49.11-49.11A49.17,49.17,0,0,1,1283,283.6Z" transform="translate(-142.3 -141.73)"/><path class="cls-3" d="M1283,195.38a39.11,39.11,0,1,0,39.11,39.11A39.16,39.16,0,0,0,1283,195.38Z" transform="translate(-142.3 -141.73)"/><path class="cls-1" d="M1126.38,543.27l2-7.62c6.34-23.89,18.33-72.63,18.33-86V376.82a79.69,79.69,0,0,1,79.6-79.6h113.31a79.69,79.69,0,0,1,79.6,79.6v72.79a79.69,79.69,0,0,1-79.6,79.6H1226.34c-22.7,0-91.51,12.51-92.21,12.64Z" transform="translate(-142.3 -141.73)"/><path class="cls-3" d="M1226.34,307.22a69.68,69.68,0,0,0-69.6,69.6v72.79c0,14.7-11.87,62.3-16.69,81,18.92-3.32,67.12-11.43,86.29-11.43h113.31a69.68,69.68,0,0,0,69.6-69.6V376.82a69.68,69.68,0,0,0-69.6-69.6Z" transform="translate(-142.3 -141.73)"/></g><g id="gnammy-3" data-name="gnammy"><path class="cls-1" d="M1142.7,327.25a49.11,49.11,0,1,1,49.11-49.11A49.17,49.17,0,0,1,1142.7,327.25Z" transform="translate(-142.3 -141.73)"/><path class="cls-4" d="M1142.7,239a39.11,39.11,0,1,0,39.11,39.11A39.16,39.16,0,0,0,1142.7,239Z" transform="translate(-142.3 -141.73)"/><path class="cls-1" d="M986.09,586.91l2-7.62c6.34-23.89,18.33-72.63,18.33-86V420.47a79.69,79.69,0,0,1,79.6-79.6h113.31a79.69,79.69,0,0,1,79.6,79.6v72.79a79.69,79.69,0,0,1-79.6,79.6H1086c-22.7,0-91.51,12.51-92.21,12.64Z" transform="translate(-142.3 -141.73)"/><path class="cls-4" d="M1086,350.86a69.68,69.68,0,0,0-69.6,69.6v72.79c0,14.7-11.87,62.3-16.69,81,18.92-3.32,67.12-11.43,86.29-11.43h113.31a69.68,69.68,0,0,0,69.6-69.6V420.47a69.68,69.68,0,0,0-69.6-69.6Z" transform="translate(-142.3 -141.73)"/></g><g id="gnammy-4" data-name="gnammy"><path class="cls-1" d="M1002.4,370.89a49.11,49.11,0,1,1,49.11-49.11A49.17,49.17,0,0,1,1002.4,370.89Z" transform="translate(-142.3 -141.73)"/><path class="cls-5" d="M1002.4,282.67a39.11,39.11,0,1,0,39.11,39.11A39.16,39.16,0,0,0,1002.4,282.67Z" transform="translate(-142.3 -141.73)"/><path class="cls-1" d="M845.79,630.56l2-7.62c6.34-23.89,18.33-72.63,18.33-86V464.11a79.69,79.69,0,0,1,79.6-79.6h113.31a79.69,79.69,0,0,1,79.6,79.6V536.9a79.69,79.69,0,0,1-79.6,79.6H945.74c-22.7,0-91.51,12.51-92.21,12.64Z" transform="translate(-142.3 -141.73)"/><path class="cls-5" d="M945.74,394.51a69.68,69.68,0,0,0-69.6,69.6V536.9c0,14.7-11.87,62.3-16.69,81,18.92-3.32,67.12-11.43,86.29-11.43h113.31a69.68,69.68,0,0,0,69.6-69.6V464.11a69.68,69.68,0,0,0-69.6-69.6Z" transform="translate(-142.3 -141.73)"/></g><g id="gnammy-5" data-name="gnammy"><path class="cls-1" d="M862.1,414.54a49.11,49.11,0,1,1,49.11-49.11A49.17,49.17,0,0,1,862.1,414.54Z" transform="translate(-142.3 -141.73)"/><path class="cls-6" d="M862.1,326.32a39.11,39.11,0,1,0,39.11,39.11A39.16,39.16,0,0,0,862.1,326.32Z" transform="translate(-142.3 -141.73)"/><path class="cls-1" d="M705.49,674.2l2-7.62c6.34-23.89,18.33-72.63,18.33-86V507.76a79.69,79.69,0,0,1,79.6-79.6H918.76a79.69,79.69,0,0,1,79.6,79.6v72.79a79.69,79.69,0,0,1-79.6,79.6H805.45c-22.7,0-91.51,12.51-92.21,12.64Z" transform="translate(-142.3 -141.73)"/><path class="cls-6" d="M805.45,438.15a69.68,69.68,0,0,0-69.6,69.6v72.79c0,14.7-11.87,62.3-16.69,81,18.92-3.32,67.12-11.43,86.29-11.43H918.76a69.68,69.68,0,0,0,69.6-69.6V507.76a69.68,69.68,0,0,0-69.6-69.6Z" transform="translate(-142.3 -141.73)"/></g><g id="gnammy-6" data-name="gnammy"><path class="cls-1" d="M721.81,458.18a49.11,49.11,0,1,1,49.11-49.11A49.17,49.17,0,0,1,721.81,458.18Z" transform="translate(-142.3 -141.73)"/><path class="cls-7" d="M721.81,370a39.11,39.11,0,1,0,39.11,39.11A39.16,39.16,0,0,0,721.81,370Z" transform="translate(-142.3 -141.73)"/><path class="cls-1" d="M565.19,717.85l2-7.62c6.34-23.89,18.33-72.63,18.33-86V551.4a79.69,79.69,0,0,1,79.6-79.6H778.46a79.69,79.69,0,0,1,79.6,79.6v72.79a79.69,79.69,0,0,1-79.6,79.6H665.15c-22.7,0-91.51,12.51-92.21,12.64Z" transform="translate(-142.3 -141.73)"/><path class="cls-7" d="M665.15,481.8a69.68,69.68,0,0,0-69.6,69.6v72.79c0,14.7-11.87,62.3-16.69,81,18.92-3.32,67.12-11.43,86.29-11.43H778.46a69.68,69.68,0,0,0,69.6-69.6V551.4a69.68,69.68,0,0,0-69.6-69.6Z" transform="translate(-142.3 -141.73)"/></g><g id="gnammy-7" data-name="gnammy"><path class="cls-1" d="M581.51,501.83a49.11,49.11,0,1,1,49.11-49.11A49.17,49.17,0,0,1,581.51,501.83Z" transform="translate(-142.3 -141.73)"/><path class="cls-8" d="M581.51,413.61a39.11,39.11,0,1,0,39.11,39.11A39.16,39.16,0,0,0,581.51,413.61Z" transform="translate(-142.3 -141.73)"/><path class="cls-1" d="M424.9,761.49l2-7.62c6.34-23.89,18.33-72.63,18.33-86V595a79.69,79.69,0,0,1,79.6-79.6H638.16a79.69,79.69,0,0,1,79.6,79.6v72.79a79.69,79.69,0,0,1-79.6,79.6H524.85c-22.7,0-91.51,12.51-92.21,12.64Z" transform="translate(-142.3 -141.73)"/><path class="cls-8" d="M524.85,525.45a69.68,69.68,0,0,0-69.6,69.6v72.79c0,14.7-11.87,62.3-16.69,81,18.92-3.32,67.12-11.43,86.29-11.43H638.16a69.68,69.68,0,0,0,69.6-69.6V595a69.68,69.68,0,0,0-69.6-69.6Z" transform="translate(-142.3 -141.73)"/></g><g id="gnammy-8" data-name="gnammy"><path class="cls-1" d="M441.21,545.48a49.11,49.11,0,1,1,49.11-49.11A49.17,49.17,0,0,1,441.21,545.48Z" transform="translate(-142.3 -141.73)"/><path class="cls-9" d="M441.21,457.25a39.11,39.11,0,1,0,39.11,39.11A39.16,39.16,0,0,0,441.21,457.25Z" transform="translate(-142.3 -141.73)"/><path class="cls-1" d="M284.6,805.14l2-7.62C293,773.63,305,724.9,305,711.49V638.69a79.69,79.69,0,0,1,79.6-79.6H497.86a79.69,79.69,0,0,1,79.6,79.6v72.79a79.69,79.69,0,0,1-79.6,79.6H384.56c-22.7,0-91.51,12.51-92.21,12.64Z" transform="translate(-142.3 -141.73)"/><path class="cls-9" d="M384.56,569.09a69.68,69.68,0,0,0-69.6,69.6v72.79c0,14.7-11.87,62.3-16.69,81,18.92-3.32,67.12-11.43,86.29-11.43H497.86a69.68,69.68,0,0,0,69.6-69.6V638.69a69.68,69.68,0,0,0-69.6-69.6Z" transform="translate(-142.3 -141.73)"/></g><g id="gnammy-9" data-name="gnammy"><path class="cls-1" d="M298.91,589.12A49.11,49.11,0,1,1,348,540,49.17,49.17,0,0,1,298.91,589.12Z" transform="translate(-142.3 -141.73)"/><path class="cls-10" d="M298.91,500.9A39.11,39.11,0,1,0,338,540,39.16,39.16,0,0,0,298.91,500.9Z" transform="translate(-142.3 -141.73)"/><path class="cls-1" d="M142.3,848.79l2-7.62c6.34-23.89,18.33-72.63,18.33-86V682.34a79.69,79.69,0,0,1,79.6-79.6H355.57a79.69,79.69,0,0,1,79.6,79.6v72.79a79.69,79.69,0,0,1-79.6,79.6H242.26c-22.7,0-91.51,12.51-92.21,12.64Z" transform="translate(-142.3 -141.73)"/><path class="cls-10" d="M242.26,612.74a69.68,69.68,0,0,0-69.6,69.6v72.79c0,14.7-11.87,62.3-16.69,81,18.92-3.32,67.12-11.43,86.29-11.43H355.57a69.68,69.68,0,0,0,69.6-69.6V682.34a69.68,69.68,0,0,0-69.6-69.6Z" transform="translate(-142.3 -141.73)"/></g></svg>