<?xml version="1.0" standalone="no"?>
<!DOCTYPE svg PUBLIC "-//W3C//DTD SVG 20010904//EN"
 "http://www.w3.org/TR/2001/REC-SVG-20010904/DTD/svg10.dtd">
<svg version="1.0" xmlns="http://www.w3.org/2000/svg"
 width="888.000000pt" height="888.000000pt" viewBox="0 0 888.000000 888.000000"
 preserveAspectRatio="xMidYMid meet">
<metadata>
Created by potrace 1.11, written by Peter Selinger 2001-2013
</metadata>
<g transform="translate(0.000000,888.000000) scale(0.100000,-0.100000)"
fill="#000000" stroke="none">
<path d="M5653 6312 l3 -2397 22 -100 c31 -136 65 -233 117 -341 229 -474 716
-800 1290 -864 66 -7 320 -10 745 -8 l645 3 52 120 c157 365 266 789 319 1240
26 212 26 738 1 950 -65 543 -190 983 -413 1443 -104 216 -160 315 -289 512
-174 266 -309 433 -540 669 -215 220 -406 383 -635 542 -359 250 -795 464
-1208 592 l-112 35 3 -2396z"/>
<path d="M1430 7697 c-743 -682 -1241 -1631 -1379 -2627 -35 -255 -44 -424
-38 -729 6 -285 18 -424 57 -656 113 -662 380 -1294 780 -1847 l95 -131 5
2334 6 2334 21 133 c27 161 79 365 129 499 82 221 222 478 369 677 107 145
108 146 104 146 -2 0 -69 -60 -149 -133z"/>
<path d="M3705 7589 c-125 -13 -240 -38 -369 -80 -488 -159 -854 -513 -1000
-967 -61 -191 -68 -257 -73 -658 -5 -346 -4 -363 15 -407 15 -34 31 -51 61
-66 39 -21 54 -21 668 -21 700 0 672 3 720 -69 23 -34 23 -34 23 -450 0 -397
-1 -417 -20 -449 -11 -18 -34 -41 -52 -52 -32 -19 -52 -20 -662 -20 -624 0
-630 0 -674 -21 -34 -17 -49 -32 -63 -64 -18 -42 -19 -100 -17 -1867 l3 -1823
150 -77 c482 -248 977 -397 1535 -463 190 -23 588 -31 790 -16 285 21 595 71
840 137 711 192 1403 579 1905 1066 l100 97 -210 1 c-589 1 -962 70 -1355 249
-219 100 -429 230 -630 389 -117 93 -353 328 -444 442 -261 329 -444 692 -535
1061 -70 284 -65 130 -68 2237 l-3 1902 -278 -1 c-152 -1 -313 -5 -357 -10z"/>
</g>
</svg>
