<svg xmlns="http://www.w3.org/2000/svg" viewBox="0 0 128.72 128.72"><defs><style>.cls-1{fill:#fff;}.cls-2{fill:#d82700;}.cls-3,.cls-4{fill:none;stroke:#fff;stroke-linecap:round;stroke-linejoin:round;}.cls-3{stroke-width:2px;}.cls-4{stroke-width:5px;}</style></defs><title>Icon8_trasformation_sfondo</title><g id="Trasformation"><rect class="cls-1" width="128.72" height="128.72" rx="10.68" ry="10.68"/><circle class="cls-2" cx="70.03" cy="64.97" r="36.14"/><line class="cls-3" x1="39.78" y1="38.66" x2="80.67" y2="57.66"/><line class="cls-3" x1="61.57" y1="27.15" x2="61.57" y2="101.67"/><line class="cls-3" x1="88.97" y1="30.87" x2="88.97" y2="53.03"/><line class="cls-3" x1="88.97" y1="71.88" x2="88.97" y2="97.77"/><line class="cls-3" x1="88.97" y1="85.64" x2="35.22" y2="85.64"/><line class="cls-3" x1="31.02" y1="64.46" x2="79.46" y2="64.46"/><circle class="cls-4" cx="88.97" cy="62.46" r="9.43"/><path class="cls-2" d="M6.51,37.83V77.34H34.86a42.41,42.41,0,0,1-.42-5.86A41.91,41.91,0,0,1,38.8,52.82Z" transform="translate(-6.51 -6.51)"/><path class="cls-2" d="M41.23,48.57A42.06,42.06,0,0,1,74.16,29.46V6.51h-57A10.71,10.71,0,0,0,6.51,17.18V32.46Z" transform="translate(-6.51 -6.51)"/><path class="cls-2" d="M124.55,6.51H79v23a42.09,42.09,0,0,1,0,84v21.73h45.51a10.71,10.71,0,0,0,10.68-10.68V17.18A10.71,10.71,0,0,0,124.55,6.51Z" transform="translate(-6.51 -6.51)"/><path class="cls-2" d="M74.16,113.5A42.11,42.11,0,0,1,35.83,82.21H6.51v42.33a10.71,10.71,0,0,0,10.68,10.68h57Z" transform="translate(-6.51 -6.51)"/></g></svg>