<svg xmlns="http://www.w3.org/2000/svg" viewBox="0 0 1275.59 1275.59"><defs><style>.cls-1{fill:#fab412;}.cls-2{fill:#fff;}</style></defs><title>Icon7_new_sfondo</title><g id="News"><g id="Icon_sfondo" data-name="Icon sfondo"><path class="cls-1" d="M1240.67,1346.46h-1064c-58.19,0-105.8-47.61-105.8-105.79v-1064c0-58.19,47.61-105.8,105.8-105.8h1064c58.18,0,105.79,47.61,105.79,105.8v1064c0,58.18-47.61,105.79-105.79,105.79Z" transform="translate(-70.87 -70.87)"/><path class="cls-2" d="M492.84,468.63,425,332.35l-69.2,148L453,525.2a61,61,0,0,1,39.89-56.57Z" transform="translate(-70.87 -70.87)"/><path class="cls-2" d="M504.8,569.87a44.94,44.94,0,1,0-34.71-53.24,44.94,44.94,0,0,0,34.71,53.24Z" transform="translate(-70.87 -70.87)"/><path class="cls-2" d="M511.81,464.87a61.09,61.09,0,0,1,13,.91l57-123.4a114.89,114.89,0,0,0-59.35-16.6H443.37l68.43,139.09Z" transform="translate(-70.87 -70.87)"/><path class="cls-2" d="M330.46,490.53,230.19,443.64V555c0,27.39-28.77,135.8-28.77,135.8s16.94-3.09,39.64-6.82l89.4-193.46Z" transform="translate(-70.87 -70.87)"/><path class="cls-2" d="M338.81,472.46l67.78-146.67H346.21c-57.41,0-105.29,42.3-114.35,97.24l107,49.42Z" transform="translate(-70.87 -70.87)"/><path class="cls-2" d="M597.8,353.9l-55.18,118a61.08,61.08,0,0,1-51.69,110.54L449.49,671h72.93c63.81,0,116-52.21,116-116V441.81A115.79,115.79,0,0,0,597.8,353.9Z" transform="translate(-70.87 -70.87)"/><path class="cls-2" d="M475.19,573A61.33,61.33,0,0,1,458,550.18L347.35,498.43l-85.2,182.19c31.16-4.84,66.23-9.58,84.06-9.58h83.7l45.28-98Z" transform="translate(-70.87 -70.87)"/><path class="cls-2" d="M440.38,299.87a75.94,75.94,0,0,0,48.9-104.57l-48.9,104.57Z" transform="translate(-70.87 -70.87)"/><path class="cls-2" d="M424.41,287.62l51.82-112.14a75.89,75.89,0,0,0-108.89-3.84l57.06,116Z" transform="translate(-70.87 -70.87)"/><path class="cls-2" d="M353.62,189.27A76,76,0,0,0,409.71,302L353.62,189.27Z" transform="translate(-70.87 -70.87)"/><path class="cls-2" d="M1070.3,468.63l-67.83-136.29-69.2,148,97.13,44.89a61,61,0,0,1,39.9-56.57Z" transform="translate(-70.87 -70.87)"/><path class="cls-2" d="M1082.26,569.87a44.94,44.94,0,1,0-34.71-53.24,44.93,44.93,0,0,0,34.71,53.24Z" transform="translate(-70.87 -70.87)"/><path class="cls-2" d="M1089.26,464.87a61.1,61.1,0,0,1,13,.91l57-123.4a114.85,114.85,0,0,0-59.35-16.6h-79.06l68.43,139.09Z" transform="translate(-70.87 -70.87)"/><path class="cls-2" d="M907.91,490.53,807.64,443.64V555c0,27.39-28.77,135.8-28.77,135.8s16.94-3.09,39.64-6.82l89.4-193.46Z" transform="translate(-70.87 -70.87)"/><path class="cls-2" d="M916.27,472.46,984,325.79H923.66c-57.41,0-105.29,42.3-114.35,97.24l107,49.42Z" transform="translate(-70.87 -70.87)"/><path class="cls-2" d="M1175.26,353.9l-55.19,118a61.08,61.08,0,0,1-51.69,110.54L1026.95,671h72.93c63.81,0,116-52.21,116-116V441.81a115.81,115.81,0,0,0-40.64-87.91Z" transform="translate(-70.87 -70.87)"/><path class="cls-2" d="M1052.65,573a61.33,61.33,0,0,1-17.17-22.86L924.8,498.43l-85.2,182.19c31.16-4.84,66.23-9.58,84.06-9.58h83.7l45.28-98Z" transform="translate(-70.87 -70.87)"/><path class="cls-2" d="M1017.83,299.87a75.93,75.93,0,0,0,48.9-104.57l-48.9,104.57Z" transform="translate(-70.87 -70.87)"/><path class="cls-2" d="M1001.86,287.62l51.82-112.14a75.89,75.89,0,0,0-108.89-3.84l57.06,116Z" transform="translate(-70.87 -70.87)"/><path class="cls-2" d="M931.08,189.27A76,76,0,0,0,987.16,302L931.08,189.27Z" transform="translate(-70.87 -70.87)"/><path class="cls-2" d="M492.84,1044.67,425,908.38l-69.2,148L453,1101.24a61,61,0,0,1,39.89-56.57Z" transform="translate(-70.87 -70.87)"/><path class="cls-2" d="M504.8,1145.92a44.94,44.94,0,1,0-34.71-53.24,44.94,44.94,0,0,0,34.71,53.24Z" transform="translate(-70.87 -70.87)"/><path class="cls-2" d="M511.81,1040.91a61.15,61.15,0,0,1,13,.91l57-123.4a114.89,114.89,0,0,0-59.35-16.6H443.37l68.43,139.09Z" transform="translate(-70.87 -70.87)"/><path class="cls-2" d="M330.46,1066.57l-100.27-46.89v111.37c0,27.39-28.77,135.8-28.77,135.8s16.94-3.08,39.64-6.82l89.4-193.47Z" transform="translate(-70.87 -70.87)"/><path class="cls-2" d="M338.81,1048.5l67.78-146.67H346.21c-57.41,0-105.29,42.3-114.35,97.24l107,49.43Z" transform="translate(-70.87 -70.87)"/><path class="cls-2" d="M597.8,929.93l-55.18,118a61.08,61.08,0,0,1-51.69,110.54l-41.43,88.6h72.93c63.81,0,116-52.21,116-116v-113.2a115.79,115.79,0,0,0-40.65-87.91Z" transform="translate(-70.87 -70.87)"/><path class="cls-2" d="M475.19,1149.08A61.25,61.25,0,0,1,458,1126.22l-110.67-51.76-85.2,182.19c31.16-4.84,66.23-9.58,84.06-9.58h83.7l45.28-98Z" transform="translate(-70.87 -70.87)"/><path class="cls-2" d="M440.38,875.91a75.95,75.95,0,0,0,48.9-104.57l-48.9,104.57Z" transform="translate(-70.87 -70.87)"/><path class="cls-2" d="M424.41,863.66l51.82-112.14a75.89,75.89,0,0,0-108.89-3.84l57.06,116Z" transform="translate(-70.87 -70.87)"/><path class="cls-2" d="M353.62,765.31A76,76,0,0,0,409.71,878L353.62,765.31Z" transform="translate(-70.87 -70.87)"/><path class="cls-2" d="M1070.3,1044.67l-67.83-136.29-69.2,148,97.13,44.89a61,61,0,0,1,39.9-56.57Z" transform="translate(-70.87 -70.87)"/><path class="cls-2" d="M1082.26,1145.92a44.94,44.94,0,1,0-34.71-53.24,44.93,44.93,0,0,0,34.71,53.24Z" transform="translate(-70.87 -70.87)"/><path class="cls-2" d="M1089.26,1040.91a61.16,61.16,0,0,1,13,.91l57-123.4a114.85,114.85,0,0,0-59.35-16.6h-79.06l68.43,139.09Z" transform="translate(-70.87 -70.87)"/><path class="cls-2" d="M907.91,1066.57l-100.27-46.89v111.37c0,27.39-28.77,135.8-28.77,135.8s16.94-3.08,39.64-6.82l89.4-193.47Z" transform="translate(-70.87 -70.87)"/><path class="cls-2" d="M916.27,1048.5,984,901.83H923.66c-57.41,0-105.29,42.3-114.35,97.24l107,49.43Z" transform="translate(-70.87 -70.87)"/><path class="cls-2" d="M1175.26,929.93l-55.19,118a61.08,61.08,0,0,1-51.69,110.54l-41.43,88.6h72.93c63.81,0,116-52.21,116-116v-113.2a115.81,115.81,0,0,0-40.64-87.91Z" transform="translate(-70.87 -70.87)"/><path class="cls-2" d="M1052.65,1149.08a61.25,61.25,0,0,1-17.17-22.85L924.8,1074.46l-85.2,182.19c31.16-4.84,66.23-9.58,84.06-9.58h83.7l45.28-98Z" transform="translate(-70.87 -70.87)"/><path class="cls-2" d="M1017.83,875.91a75.93,75.93,0,0,0,48.9-104.57l-48.9,104.57Z" transform="translate(-70.87 -70.87)"/><path class="cls-2" d="M1001.86,863.66l51.82-112.14a75.89,75.89,0,0,0-108.89-3.84l57.06,116Z" transform="translate(-70.87 -70.87)"/><path class="cls-2" d="M931.08,765.31A76,76,0,0,0,987.16,878L931.08,765.31Z" transform="translate(-70.87 -70.87)"/></g></g></svg>