<svg xmlns="http://www.w3.org/2000/svg" viewBox="0 0 128.72 128.72"><defs><style>.cls-1{fill:#094f60;}.cls-2{fill:#fff;}</style></defs><title>Icon1_citytelling_sfondo</title><g id="Citytelling"><rect class="cls-1" width="128.72" height="128.72" rx="10.68" ry="10.68"/><path class="cls-2" d="M72.19,53.51H72L61.47,76.09,78,83.78a11.56,11.56,0,0,1,6-6.65Z" transform="translate(-6.51 -6.51)"/><path class="cls-2" d="M81.49,96.49a11.51,11.51,0,0,1-4.18-8.69l-17.5-8.15-8,17.19,24.25,11.3Z" transform="translate(-6.51 -6.51)"/><path class="cls-2" d="M48.24,95.18l8-17.19L36.41,68.76a21.49,21.49,0,0,0-1,6.42v14Z" transform="translate(-6.51 -6.51)"/><path class="cls-2" d="M87.88,76.1c.32,0,.64,0,1,0a11.57,11.57,0,0,1,2.08.2l9.38-20.12A21.47,21.47,0,0,0,90,53.51H76.59Z" transform="translate(-6.51 -6.51)"/><path class="cls-2" d="M57.91,74.43l9.75-20.92H57.1A21.72,21.72,0,0,0,37.93,65.12Z" transform="translate(-6.51 -6.51)"/><path class="cls-2" d="M103.59,58.34l-9,19.27a11.53,11.53,0,0,1-9.69,20.83l-5.29,11.37,16,7.44a21.75,21.75,0,0,0,16.08-20.93V75.18A21.65,21.65,0,0,0,103.59,58.34Z" transform="translate(-6.51 -6.51)"/><path class="cls-2" d="M50.15,100.41l-9,19.41c5.89-.92,12.6-1.83,16-1.83H87.91Z" transform="translate(-6.51 -6.51)"/><path class="cls-2" d="M46.58,98.75,35.43,93.56v2.76c0,5.11-5.37,25.36-5.37,25.36s2.65-.48,6.35-1.1Z" transform="translate(-6.51 -6.51)"/><circle class="cls-2" cx="82.34" cy="81.09" r="7.8"/><path class="cls-2" d="M72.06,44.3l9.22-19.79a14.17,14.17,0,0,0-19.61-1Z" transform="translate(-6.51 -6.51)"/><path class="cls-2" d="M83.83,28.27,74.66,48a14.17,14.17,0,0,0,9.17-19.71Z" transform="translate(-6.51 -6.51)"/><path class="cls-2" d="M58.89,26.78A14.19,14.19,0,0,0,69.72,48.43Z" transform="translate(-6.51 -6.51)"/></g></svg>