<svg id="Communities" xmlns="http://www.w3.org/2000/svg" viewBox="0 0 1275.59 1275.59"><defs><style>.cls-1{fill:#dc153d;}.cls-2{fill:#fff;}</style></defs><title>Icon5_communities_sfondo</title><g id="Icon_sfondo" data-name="Icon sfondo"><path class="cls-1" d="M1240.67,1346.46h-1064c-58.19,0-105.8-47.61-105.8-105.79v-1064c0-58.19,47.61-105.8,105.8-105.8h1064c58.18,0,105.79,47.61,105.79,105.8v1064c0,58.18-47.61,105.79-105.79,105.79Z" transform="translate(-70.87 -70.87)"/><path class="cls-2" d="M780.51,1062.71,712.68,926.42l-69.2,148,97.13,44.88a61,61,0,0,1,39.89-56.57Z" transform="translate(-70.87 -70.87)"/><path class="cls-2" d="M793,1161.2a42.13,42.13,0,1,0-32.54-49.91A42.13,42.13,0,0,0,793,1161.2Z" transform="translate(-70.87 -70.87)"/><path class="cls-2" d="M799.47,1058.95a61.06,61.06,0,0,1,13,.91l57-123.4a114.89,114.89,0,0,0-59.35-16.6H731l68.43,139.09Z" transform="translate(-70.87 -70.87)"/><path class="cls-2" d="M618.13,1084.6l-100.27-46.89v111.37c0,27.39-28.77,135.8-28.77,135.8s16.94-3.08,39.64-6.82l89.4-193.47Z" transform="translate(-70.87 -70.87)"/><path class="cls-2" d="M626.48,1066.54l67.78-146.67H633.88c-57.41,0-105.29,42.3-114.35,97.24l107,49.43Z" transform="translate(-70.87 -70.87)"/><path class="cls-2" d="M885.47,948l-55.18,118a61.08,61.08,0,0,1-51.69,110.54l-41.43,88.6h72.93c63.81,0,116-52.21,116-116v-113.2A115.79,115.79,0,0,0,885.47,948Z" transform="translate(-70.87 -70.87)"/><path class="cls-2" d="M762.86,1167.11a61.28,61.28,0,0,1-17.17-22.85L635,1092.5l-85.2,182.19c31.16-4.84,66.23-9.58,84.06-9.58h83.7l45.28-98Z" transform="translate(-70.87 -70.87)"/><path class="cls-2" d="M728,893.95a75.95,75.95,0,0,0,48.9-104.57L728,893.95Z" transform="translate(-70.87 -70.87)"/><path class="cls-2" d="M712.07,881.7l51.82-112.14A75.89,75.89,0,0,0,655,765.72l57.06,116Z" transform="translate(-70.87 -70.87)"/><path class="cls-2" d="M641.29,783.35A76,76,0,0,0,697.37,896L641.29,783.35Z" transform="translate(-70.87 -70.87)"/><path class="cls-2" d="M299.24,459a42.13,42.13,0,1,1,55.5,21.66A42.13,42.13,0,0,1,299.24,459Z" transform="translate(-70.87 -70.87)"/><path class="cls-2" d="M540.38,557,460,393.41l-72.08,13.72a61,61,0,0,1,.47,69.22l152,80.67Z" transform="translate(-70.87 -70.87)"/><path class="cls-2" d="M280.39,322.17l31.71,64.56c.4-.18.76-.41,1.16-.58a61,61,0,0,1,56,3.62l81.51-15.14-63.38-129-107,76.56Z" transform="translate(-70.87 -70.87)"/><path class="cls-2" d="M471.35,370.81,626.2,342.06l-59-82.44c-15.94-22.27-55.62-127.19-55.62-127.19S435,211.58,405.35,232.77l-1.33,1,67.34,137.09Z" transform="translate(-70.87 -70.87)"/><path class="cls-2" d="M480.53,389.5l77.78,158.33,47.92-34.28c49.35-35.31,62.6-102.87,31.86-154l-157.56,30Z" transform="translate(-70.87 -70.87)"/><path class="cls-2" d="M375.17,490.44a61,61,0,0,1-9.23,5.88l66.47,135.32a115,115,0,0,0,30.5-15.55l62.74-44.89L375.17,490.44Z" transform="translate(-70.87 -70.87)"/><path class="cls-2" d="M346.57,502.57a61,61,0,0,1-69.7-64.88l4.23-18.3a61.1,61.1,0,0,1,14.22-21.13L263.79,334,262,335.31c-51.9,37.13-64,110-26.85,161.87L301,589.24c26,36.39,69.62,53.11,111.23,47.11L346.57,502.57Z" transform="translate(-70.87 -70.87)"/><path class="cls-2" d="M570.89,573.14l109.27,58a75.93,75.93,0,0,0-110.84-61.2l1.57,3.2Z" transform="translate(-70.87 -70.87)"/><path class="cls-2" d="M585.74,603.37l50.64,103.1a75.45,75.45,0,0,0,42.36-53.19l-93-49.91Z" transform="translate(-70.87 -70.87)"/><path class="cls-2" d="M555.27,587,550,584.2a76,76,0,0,0,66.86,128.26L555.27,587Z" transform="translate(-70.87 -70.87)"/><path class="cls-2" d="M1118.08,459a42.13,42.13,0,1,0-55.51,21.66A42.13,42.13,0,0,0,1118.08,459Z" transform="translate(-70.87 -70.87)"/><path class="cls-2" d="M876.94,557l80.37-163.61,72.08,13.72a61,61,0,0,0-.47,69.22L876.94,557Z" transform="translate(-70.87 -70.87)"/><path class="cls-2" d="M1136.93,322.17l-31.71,64.56c-.4-.18-.75-.41-1.16-.58a61,61,0,0,0-56,3.62l-81.51-15.14,63.38-129,107,76.56Z" transform="translate(-70.87 -70.87)"/><path class="cls-2" d="M946,370.81,791.12,342.06l59-82.44c15.94-22.27,55.62-127.19,55.62-127.19S982.35,211.58,1012,232.77l1.33,1L946,370.81Z" transform="translate(-70.87 -70.87)"/><path class="cls-2" d="M936.79,389.5,859,547.84l-47.92-34.28c-49.35-35.31-62.6-102.87-31.86-154l157.56,30Z" transform="translate(-70.87 -70.87)"/><path class="cls-2" d="M1042.15,490.44a61,61,0,0,0,9.23,5.88L984.91,631.64a115,115,0,0,1-30.5-15.55L891.66,571.2l150.49-80.76Z" transform="translate(-70.87 -70.87)"/><path class="cls-2" d="M1070.76,502.57a61,61,0,0,0,69.7-64.88l-4.24-18.3A61.07,61.07,0,0,0,1122,398.26L1153.54,334l1.75,1.26c51.9,37.13,64,110,26.85,161.87l-65.86,92.07c-26,36.39-69.62,53.11-111.23,47.11l65.72-133.78Z" transform="translate(-70.87 -70.87)"/><path class="cls-2" d="M846.43,573.14l-109.27,58A75.93,75.93,0,0,1,848,569.95l-1.57,3.2Z" transform="translate(-70.87 -70.87)"/><path class="cls-2" d="M831.58,603.37l-50.64,103.1a75.45,75.45,0,0,1-42.36-53.19l93-49.91Z" transform="translate(-70.87 -70.87)"/><path class="cls-2" d="M862.05,587l5.23-2.81a76,76,0,0,1-66.86,128.26L862.05,587Z" transform="translate(-70.87 -70.87)"/></g></svg>