<svg xmlns="http://www.w3.org/2000/svg" viewBox="0 0 128.72 128.72"><defs><style>.cls-1{fill:#fff;}.cls-2{fill:#4dad00;}.cls-3{fill:none;stroke:#fff;stroke-linecap:round;stroke-linejoin:round;stroke-width:6px;}</style></defs><title>Icon3_regeneration_sfondo</title><g id="Rengeneration"><rect class="cls-1" width="128.72" height="128.72" rx="10.68" ry="10.68"/><polygon class="cls-2" points="17.14 32.64 0 24.68 0 61.02 17.14 61.02 17.14 32.64"/><path class="cls-2" d="M23.65,35.4V6.51H17.18A10.71,10.71,0,0,0,6.51,17.18V27.43Z" transform="translate(-6.51 -6.51)"/><rect class="cls-2" y="64.42" width="17.14" height="39.1"/><path class="cls-2" d="M124.55,6.51H82V46.83h-3.4V6.51H27.05V37L65.59,54.89,64.16,58,27.05,40.73V67.52H62.81v3.4H27.05V110H60v3.4H27.05v21.8H78.64V85.7H82v49.53h42.5a10.71,10.71,0,0,0,10.68-10.68V17.18A10.71,10.71,0,0,0,124.55,6.51Z" transform="translate(-6.51 -6.51)"/><path class="cls-2" d="M23.65,113.43H6.51v11.12a10.71,10.71,0,0,0,10.68,10.68h6.47Z" transform="translate(-6.51 -6.51)"/><path class="cls-3" d="M128.92,110.09c-38.2,26.25-77.32,6.66-90.17-22.51A46.17,46.17,0,0,1,62.39,26.71a36.94,36.94,0,0,1,48.69,18.91,29.55,29.55,0,0,1-15.13,39,23.64,23.64,0,0,1-31.16-12.1,18.91,18.91,0,0,1,9.68-24.93,15.13,15.13,0,0,1,19.94,7.75,12.1,12.1,0,0,1-6.2,16,9.68,9.68,0,0,1-12.76-5,7.75,7.75,0,0,1,4-10.21" transform="translate(-6.51 -6.51)"/></g></svg>