<svg xmlns="http://www.w3.org/2000/svg" viewBox="0 0 128.72 128.72"><defs><style>.cls-1{fill:#fff;}.cls-2,.cls-3{fill:#662959;}.cls-3,.cls-4{stroke:#fff;stroke-width:6px;}.cls-3{stroke-miterlimit:10;}.cls-4{fill:none;stroke-linecap:round;stroke-linejoin:round;}</style></defs><title>Icon4_wegovernment_sfondo</title><g id="We_Government" data-name="We Government"><rect class="cls-1" width="128.72" height="128.72" rx="10.68" ry="10.68"/><path class="cls-2" d="M6.51,105.23v19.32a10.71,10.71,0,0,0,10.68,10.68H124.55a10.71,10.71,0,0,0,10.68-10.68V105.23Z" transform="translate(-6.51 -6.51)"/><path class="cls-2" d="M86.5,35.14h27.21L126.87,6.77a10.59,10.59,0,0,0-2.32-.26H86.5Z" transform="translate(-6.51 -6.51)"/><path class="cls-2" d="M117.46,35.14h17.76v-18A10.69,10.69,0,0,0,130,8Z" transform="translate(-6.51 -6.51)"/><path class="cls-2" d="M115.88,38.54,97.51,78.14l-3.09-1.43,17.71-38.17H86.5V75.68H83.1V38.54H48.89v26.8h-3.4V38.54H19.55v-3.4H45.49V13h3.4V35.14H83.1V6.51H17.18A10.71,10.71,0,0,0,6.51,17.18v84.65H135.22V38.54Z" transform="translate(-6.51 -6.51)"/><circle class="cls-3" cx="96.18" cy="103.53" r="10.05" transform="translate(-49.41 71.99) rotate(-36.9)"/><circle class="cls-1" cx="47.19" cy="36.84" r="10.05" transform="translate(-19.17 29.21) rotate(-36.9)"/><path class="cls-4" d="M72.18,39.41a25.7,25.7,0,0,0-51.4,0c0,14.19,11.79,21.6,25.7,25.7L95.25,76.62c13.91,4.1,25.7,11.51,25.7,25.7a25.7,25.7,0,0,1-51.4,0" transform="translate(-6.51 -6.51)"/></g></svg>