<svg id="_2" data-name="2" xmlns="http://www.w3.org/2000/svg" viewBox="0 0 2630.26 600.69"><defs><style>.cls-1{fill:#bebebe;}.cls-2{fill:#fff;}.cls-3{fill:#646565;}.cls-10,.cls-4{fill:#077c6f;}.cls-5{fill:#fcb32c;}.cls-6{fill:#df2449;}.cls-7{fill:#dd3526;}.cls-8{fill:#53bb71;}.cls-9{fill:#04505f;}.cls-10{stroke:#53bb71;}.cls-11{fill:#622a5d;}</style></defs><title>Infografica per Landing Page 2</title><g id="Livello_12_copia" data-name="Livello 12 copia"><path class="cls-1" d="M274.26,672.61a3,3,0,0,1-3-3V457.91a3,3,0,0,1,3-3H558.7V149a3,3,0,0,1,3-3H699.43a3,3,0,0,1,3,3V532.56H902.37V411a3,3,0,0,1,3-3h166.9V187.39a3,3,0,0,1,3-3h67.23a3,3,0,0,1,3,3V579.56h126.29V302a3,3,0,0,1,3-3h120a3,3,0,0,1,3,3V572.12H1494V320.45a3,3,0,0,1,3-3h27.26V268.36a3,3,0,0,1,3-3h29.19v-48a3,3,0,0,1,3-3h31.63a3,3,0,0,1,3,3V359.72h86.27V279.38a3,3,0,0,1,3-3h119.55a3,3,0,0,1,3,3V355h23.46a3,3,0,0,1,3,3V472.56h285.37V387.64a3,3,0,0,1,3-3h125.49a3,3,0,0,1,3,3V423h30.26a3,3,0,0,1,3,3V581.54h76.61V145.6a3,3,0,0,1,3-3h127.21a3,3,0,0,1,3,3V308.15h62.29a3,3,0,0,1,3,3V411.47h20.21a3,3,0,0,1,3,3v206.3a3,3,0,0,1-6,0V417.47h-20.21a3,3,0,0,1-3-3V314.15h-62.29a3,3,0,0,1-3-3V148.6H2365.13V584.54a3,3,0,0,1-3,3h-82.61a3,3,0,0,1-3-3V429h-30.26a3,3,0,0,1-3-3V390.64H2123.77v84.92a3,3,0,0,1-3,3H1829.4a3,3,0,0,1-3-3V361h-23.46a3,3,0,0,1-3-3V282.38H1686.38v80.34a3,3,0,0,1-3,3h-92.27a3,3,0,0,1-3-3V220.39h-25.62v48a3,3,0,0,1-3,3H1530.3v49.09a3,3,0,0,1-3,3H1500V575.12a3,3,0,0,1-3,3H1394.83a3,3,0,0,1-3-3V305h-114V582.56a3,3,0,0,1-3,3H1142.5a3,3,0,0,1-3-3V190.39h-61.23V411a3,3,0,0,1-3,3H908.37V535.56a3,3,0,0,1-3,3H699.43a3,3,0,0,1-3-3V152H564.7V457.91a3,3,0,0,1-3,3H277.26v208.7A3,3,0,0,1,274.26,672.61Z" transform="translate(-128.02 -81.18)"/></g><g id="Solo_Skyline_copia_3" data-name="Solo Skyline copia 3"><polyline class="cls-2" points="2627.26 588.43 2470.14 588.43 2470.14 303.67 2194.94 303.67 2194.94 588.43 2035.76 588.43 2035.76 70.7 1835.63 70.7 1835.63 588.43 1768.98 588.43 1768.98 412.18 1616.46 411.1 1616.46 299.85 1414.21 299.85 1414.21 588.43 1339.78 588.43 1339.78 442.79 1059.08 442.79 1059.08 588.43 991.79 588.43 991.79 391.33 954.07 391.33 954.07 229.36 942.27 211.35 920.88 211.35 920.88 100.8 908.04 100.8 908.04 54.04 893.04 33.44 875.14 33.44 875.14 3 830.44 3 830.44 33.44 812.55 33.44 797.55 54.04 797.55 100.8 784.71 100.8 784.71 211.35 763.31 211.35 751.51 229.36 751.51 356.07 656.61 356.07 656.61 388.34 630.64 388.34 630.64 588.43 545.12 588.43 545.12 467.55 401.6 467.55 401.6 279.51 202.37 279.51 202.37 588.43 3 588.43"/><path class="cls-3" d="M2755.28,672.61H2598.16a3,3,0,0,1-3-3V387.85H2326V669.61a3,3,0,0,1-3,3H2163.78a3,3,0,0,1-3-3V154.88H1966.65V669.61a3,3,0,0,1-3,3H1897a3,3,0,0,1-3-3V496.34l-149.54-1.05a3,3,0,0,1-3-3V384H1545.23V669.61a3,3,0,0,1-3,3H1467.8a3,3,0,0,1-3-3V527H1190.1V669.61a3,3,0,0,1-3,3h-67.29a3,3,0,0,1-3-3V475.52h-34.72a3,3,0,0,1-3-3V311.44l-10.42-15.91H1048.9a3,3,0,0,1-3-3V185h-9.84a3,3,0,0,1-3-3V136.19l-13.53-18.58h-16.37a3,3,0,0,1-3-3V87.18h-38.7v27.44a3,3,0,0,1-3,3H942.09l-13.53,18.57V182a3,3,0,0,1-3,3h-9.84V292.53a3,3,0,0,1-3,3H893l-10.42,15.91V437.25a3,3,0,0,1-3,3h-91.9v29.27a3,3,0,0,1-3,3h-23V669.61a3,3,0,0,1-3,3H673.14a3,3,0,0,1-3-3V551.73H529.62a3,3,0,0,1-3-3v-185H333.39V669.61a3,3,0,0,1-3,3H131a3,3,0,0,1,0-6H327.39V360.69a3,3,0,0,1,3-3H529.62a3,3,0,0,1,3,3v185H673.14a3,3,0,0,1,3,3V666.61h79.52V469.52a3,3,0,0,1,3-3h23V437.25a3,3,0,0,1,3-3h91.9V310.54a3,3,0,0,1,.49-1.64l11.8-18a3,3,0,0,1,2.51-1.36h18.39V182a3,3,0,0,1,3-3h9.84V135.22a3,3,0,0,1,.58-1.77l15-20.6a3,3,0,0,1,2.42-1.23h14.9V84.18a3,3,0,0,1,3-3h44.7a3,3,0,0,1,3,3v27.44h14.9a3,3,0,0,1,2.42,1.23l15,20.6a3,3,0,0,1,.58,1.77V179h9.84a3,3,0,0,1,3,3V289.53h18.39a3,3,0,0,1,2.51,1.36l11.8,18a3,3,0,0,1,.49,1.64v159h34.72a3,3,0,0,1,3,3v194.1h61.29V524a3,3,0,0,1,3-3h280.7a3,3,0,0,1,3,3V666.61h68.44V381a3,3,0,0,1,3-3h202.25a3,3,0,0,1,3,3V489.3L1897,490.36a3,3,0,0,1,3,3V666.61h60.65V151.88a3,3,0,0,1,3-3h200.13a3,3,0,0,1,3,3V666.61H2320V384.85a3,3,0,0,1,3-3h275.19a3,3,0,0,1,3,3V666.61h154.12a3,3,0,0,1,0,6Z" transform="translate(-128.02 -81.18)"/></g><g id="Solo_Pupazze_copia_3" data-name="Solo Pupazze copia 3"><g id="gnammy"><path class="cls-2" d="M982.28,193.23a16.85,16.85,0,1,1,16.85-16.85A16.87,16.87,0,0,1,982.28,193.23Z" transform="translate(-128.02 -81.18)"/><path class="cls-4" d="M982.28,163a13.42,13.42,0,1,0,13.42,13.42A13.43,13.43,0,0,0,982.28,163Z" transform="translate(-128.02 -81.18)"/><path class="cls-2" d="M928.56,282.31l.69-2.61c2.18-8.2,6.29-24.91,6.29-29.51v-25a27.34,27.34,0,0,1,27.31-27.31h38.87A27.34,27.34,0,0,1,1029,225.21v25a27.34,27.34,0,0,1-27.31,27.31H962.85c-7.79,0-31.39,4.29-31.63,4.34Z" transform="translate(-128.02 -81.18)"/><path class="cls-4" d="M962.85,201.34A23.9,23.9,0,0,0,939,225.21v25c0,5-4.07,21.37-5.73,27.8,6.49-1.14,23-3.92,29.6-3.92h38.87a23.9,23.9,0,0,0,23.88-23.88v-25a23.9,23.9,0,0,0-23.88-23.88Z" transform="translate(-128.02 -81.18)"/></g><g id="gnammy-2" data-name="gnammy"><path class="cls-2" d="M942.28,407.68a16.85,16.85,0,1,1,16.85-16.85A16.87,16.87,0,0,1,942.28,407.68Z" transform="translate(-128.02 -81.18)"/><path class="cls-5" d="M942.28,377.42a13.42,13.42,0,1,0,13.42,13.42A13.43,13.43,0,0,0,942.28,377.42Z" transform="translate(-128.02 -81.18)"/><path class="cls-2" d="M888.55,496.76l.69-2.61c2.18-8.2,6.29-24.91,6.29-29.51v-25a27.34,27.34,0,0,1,27.31-27.31h38.87A27.34,27.34,0,0,1,989,439.66v25a27.34,27.34,0,0,1-27.31,27.31H922.84c-7.79,0-31.39,4.29-31.63,4.34Z" transform="translate(-128.02 -81.18)"/><path class="cls-5" d="M922.84,415.78A23.9,23.9,0,0,0,899,439.66v25c0,5-4.07,21.37-5.73,27.8,6.49-1.14,23-3.92,29.6-3.92h38.87a23.9,23.9,0,0,0,23.88-23.88v-25a23.9,23.9,0,0,0-23.88-23.88Z" transform="translate(-128.02 -81.18)"/></g><g id="gnammy-3" data-name="gnammy"><path class="cls-2" d="M471.06,411a16.85,16.85,0,1,1,16.85-16.85A16.87,16.87,0,0,1,471.06,411Z" transform="translate(-128.02 -81.18)"/><path class="cls-6" d="M471.06,380.75a13.42,13.42,0,1,0,13.42,13.42A13.43,13.43,0,0,0,471.06,380.75Z" transform="translate(-128.02 -81.18)"/><path class="cls-2" d="M417.34,500.09l.69-2.61c2.18-8.2,6.29-24.91,6.29-29.51V443a27.34,27.34,0,0,1,27.31-27.31H490.5A27.34,27.34,0,0,1,517.8,443v25a27.34,27.34,0,0,1-27.31,27.31H451.63c-7.79,0-31.39,4.29-31.63,4.34Z" transform="translate(-128.02 -81.18)"/><path class="cls-6" d="M451.63,419.12A23.9,23.9,0,0,0,427.75,443v25c0,5-4.07,21.37-5.73,27.8,6.49-1.14,23-3.92,29.6-3.92H490.5A23.9,23.9,0,0,0,514.37,468V443a23.9,23.9,0,0,0-23.88-23.88Z" transform="translate(-128.02 -81.18)"/></g><g id="gnammy-4" data-name="gnammy"><path class="cls-2" d="M1057.27,527.4a16.85,16.85,0,1,1,16.85-16.85A16.87,16.87,0,0,1,1057.27,527.4Z" transform="translate(-128.02 -81.18)"/><path class="cls-7" d="M1057.27,497.14a13.42,13.42,0,1,0,13.42,13.42A13.43,13.43,0,0,0,1057.27,497.14Z" transform="translate(-128.02 -81.18)"/><path class="cls-2" d="M1003.55,616.48l.69-2.61c2.18-8.2,6.29-24.91,6.29-29.51v-25a27.34,27.34,0,0,1,27.31-27.31h38.87A27.34,27.34,0,0,1,1104,559.38v25a27.34,27.34,0,0,1-27.31,27.31h-38.87c-7.79,0-31.39,4.29-31.63,4.34Z" transform="translate(-128.02 -81.18)"/><path class="cls-7" d="M1037.84,535.51A23.9,23.9,0,0,0,1014,559.38v25c0,5-4.07,21.37-5.73,27.8,6.49-1.14,23-3.92,29.6-3.92h38.87a23.9,23.9,0,0,0,23.88-23.88v-25a23.9,23.9,0,0,0-23.88-23.88Z" transform="translate(-128.02 -81.18)"/></g><g id="gnammy-5" data-name="gnammy"><path class="cls-2" d="M868,588.79a16.85,16.85,0,1,1,16.85-16.85A16.87,16.87,0,0,1,868,588.79Z" transform="translate(-128.02 -81.18)"/><path class="cls-8" d="M868,558.52a13.42,13.42,0,1,0,13.42,13.42A13.43,13.43,0,0,0,868,558.52Z" transform="translate(-128.02 -81.18)"/><path class="cls-2" d="M814.26,677.86l.69-2.61c2.18-8.2,6.29-24.91,6.29-29.51v-25a27.34,27.34,0,0,1,27.31-27.31h38.87a27.34,27.34,0,0,1,27.31,27.31v25A27.34,27.34,0,0,1,887.42,673H848.55c-7.79,0-31.39,4.29-31.63,4.34Z" transform="translate(-128.02 -81.18)"/><path class="cls-8" d="M848.55,596.89a23.9,23.9,0,0,0-23.88,23.88v25c0,5-4.07,21.37-5.73,27.8,6.49-1.14,23-3.92,29.6-3.92h38.87a23.9,23.9,0,0,0,23.88-23.88v-25a23.9,23.9,0,0,0-23.88-23.88Z" transform="translate(-128.02 -81.18)"/></g><g id="gnammy-6" data-name="gnammy"><path class="cls-2" d="M1839.2,588.79a16.85,16.85,0,1,1,16.85-16.85A16.87,16.87,0,0,1,1839.2,588.79Z" transform="translate(-128.02 -81.18)"/><path class="cls-9" d="M1839.2,558.52a13.42,13.42,0,1,0,13.42,13.42A13.43,13.43,0,0,0,1839.2,558.52Z" transform="translate(-128.02 -81.18)"/><path class="cls-2" d="M1785.48,677.86l.69-2.61c2.18-8.2,6.29-24.91,6.29-29.51v-25a27.34,27.34,0,0,1,27.31-27.31h38.87a27.34,27.34,0,0,1,27.31,27.31v25A27.34,27.34,0,0,1,1858.64,673h-38.87c-7.79,0-31.39,4.29-31.63,4.34Z" transform="translate(-128.02 -81.18)"/><path class="cls-9" d="M1819.77,596.89a23.9,23.9,0,0,0-23.88,23.88v25c0,5-4.07,21.37-5.73,27.8,6.49-1.14,23-3.92,29.6-3.92h38.87a23.9,23.9,0,0,0,23.88-23.88v-25a23.9,23.9,0,0,0-23.88-23.88Z" transform="translate(-128.02 -81.18)"/></g><g id="gnammy-7" data-name="gnammy"><path class="cls-2" d="M1686.16,422.55A16.85,16.85,0,1,1,1703,405.7,16.87,16.87,0,0,1,1686.16,422.55Z" transform="translate(-128.02 -81.18)"/><path class="cls-4" d="M1686.16,392.29a13.42,13.42,0,1,0,13.42,13.42A13.43,13.43,0,0,0,1686.16,392.29Z" transform="translate(-128.02 -81.18)"/><path class="cls-2" d="M1632.43,511.63l.69-2.61c2.18-8.2,6.29-24.91,6.29-29.51v-25a27.34,27.34,0,0,1,27.31-27.31h38.87a27.34,27.34,0,0,1,27.31,27.31v25a27.34,27.34,0,0,1-27.31,27.31h-38.87c-7.79,0-31.39,4.29-31.63,4.34Z" transform="translate(-128.02 -81.18)"/><path class="cls-4" d="M1666.72,430.65a23.9,23.9,0,0,0-23.88,23.88v25c0,5-4.07,21.37-5.73,27.8,6.49-1.14,23-3.92,29.6-3.92h38.87a23.9,23.9,0,0,0,23.88-23.88v-25a23.9,23.9,0,0,0-23.88-23.88Z" transform="translate(-128.02 -81.18)"/></g><g id="gnammy-8" data-name="gnammy"><path class="cls-2" d="M550.12,588.79A16.85,16.85,0,1,1,567,571.94,16.87,16.87,0,0,1,550.12,588.79Z" transform="translate(-128.02 -81.18)"/><path class="cls-4" d="M550.12,558.52a13.42,13.42,0,1,0,13.42,13.42A13.43,13.43,0,0,0,550.12,558.52Z" transform="translate(-128.02 -81.18)"/><path class="cls-2" d="M496.4,677.86l.69-2.61c2.18-8.2,6.29-24.91,6.29-29.51v-25a27.34,27.34,0,0,1,27.31-27.31h38.87a27.34,27.34,0,0,1,27.31,27.31v25A27.34,27.34,0,0,1,569.55,673H530.68c-7.79,0-31.39,4.29-31.63,4.34Z" transform="translate(-128.02 -81.18)"/><path class="cls-10" d="M530.68,596.89a23.9,23.9,0,0,0-23.88,23.88v25c0,5-4.07,21.37-5.73,27.8,6.49-1.14,23-3.92,29.6-3.92h38.87a23.9,23.9,0,0,0,23.88-23.88v-25a23.9,23.9,0,0,0-23.88-23.88Z" transform="translate(-128.02 -81.18)"/></g><g id="gnammy-9" data-name="gnammy"><path class="cls-2" d="M1246.47,588.79a16.85,16.85,0,1,1,16.85-16.85A16.87,16.87,0,0,1,1246.47,588.79Z" transform="translate(-128.02 -81.18)"/><path class="cls-5" d="M1246.47,558.52a13.42,13.42,0,1,0,13.42,13.42A13.43,13.43,0,0,0,1246.47,558.52Z" transform="translate(-128.02 -81.18)"/><path class="cls-2" d="M1192.74,677.86l.69-2.61c2.18-8.2,6.29-24.91,6.29-29.51v-25A27.34,27.34,0,0,1,1227,593.46h38.87a27.34,27.34,0,0,1,27.31,27.31v25A27.34,27.34,0,0,1,1265.9,673H1227c-7.79,0-31.39,4.29-31.63,4.34Z" transform="translate(-128.02 -81.18)"/><path class="cls-5" d="M1227,596.89a23.9,23.9,0,0,0-23.88,23.88v25c0,5-4.07,21.37-5.73,27.8,6.49-1.14,23-3.92,29.6-3.92h38.87a23.9,23.9,0,0,0,23.88-23.88v-25a23.9,23.9,0,0,0-23.88-23.88Z" transform="translate(-128.02 -81.18)"/></g><g id="gnammy-10" data-name="gnammy"><path class="cls-2" d="M1412.06,588.79a16.85,16.85,0,1,1,16.85-16.85A16.87,16.87,0,0,1,1412.06,588.79Z" transform="translate(-128.02 -81.18)"/><path class="cls-6" d="M1412.06,558.52a13.42,13.42,0,1,0,13.42,13.42A13.43,13.43,0,0,0,1412.06,558.52Z" transform="translate(-128.02 -81.18)"/><path class="cls-2" d="M1358.33,677.86l.69-2.61c2.18-8.2,6.29-24.91,6.29-29.51v-25a27.34,27.34,0,0,1,27.31-27.31h38.87a27.34,27.34,0,0,1,27.31,27.31v25A27.34,27.34,0,0,1,1431.49,673h-38.87c-7.79,0-31.39,4.29-31.63,4.34Z" transform="translate(-128.02 -81.18)"/><path class="cls-6" d="M1392.62,596.89a23.9,23.9,0,0,0-23.88,23.88v25c0,5-4.07,21.37-5.73,27.8,6.49-1.14,23-3.92,29.6-3.92h38.87a23.9,23.9,0,0,0,23.88-23.88v-25a23.9,23.9,0,0,0-23.88-23.88Z" transform="translate(-128.02 -81.18)"/></g><g id="gnammy-11" data-name="gnammy"><path class="cls-2" d="M1637.12,592.79A16.85,16.85,0,1,1,1654,575.95,16.87,16.87,0,0,1,1637.12,592.79Z" transform="translate(-128.02 -81.18)"/><path class="cls-5" d="M1637.12,562.53a13.42,13.42,0,1,0,13.42,13.42A13.43,13.43,0,0,0,1637.12,562.53Z" transform="translate(-128.02 -81.18)"/><path class="cls-2" d="M1583.4,681.87l.69-2.61c2.18-8.2,6.29-24.91,6.29-29.51v-25a27.34,27.34,0,0,1,27.31-27.31h38.87a27.34,27.34,0,0,1,27.31,27.31v25A27.34,27.34,0,0,1,1656.55,677h-38.87c-7.79,0-31.39,4.29-31.63,4.34Z" transform="translate(-128.02 -81.18)"/><path class="cls-5" d="M1617.68,600.9a23.9,23.9,0,0,0-23.88,23.88v25c0,5-4.07,21.37-5.73,27.8,6.49-1.14,23-3.92,29.6-3.92h38.87a23.9,23.9,0,0,0,23.88-23.88v-25a23.9,23.9,0,0,0-23.88-23.88Z" transform="translate(-128.02 -81.18)"/></g><g id="gnammy-12" data-name="gnammy"><path class="cls-2" d="M2025.87,192.05a16.85,16.85,0,1,1,16.85-16.85A16.87,16.87,0,0,1,2025.87,192.05Z" transform="translate(-128.02 -81.18)"/><path class="cls-5" d="M2025.87,161.79a13.42,13.42,0,1,0,13.42,13.42A13.43,13.43,0,0,0,2025.87,161.79Z" transform="translate(-128.02 -81.18)"/><path class="cls-2" d="M1972.15,281.13l.69-2.61c2.18-8.2,6.29-24.91,6.29-29.51V224a27.34,27.34,0,0,1,27.31-27.31h38.87A27.34,27.34,0,0,1,2072.61,224v25a27.34,27.34,0,0,1-27.31,27.31h-38.87c-7.79,0-31.39,4.29-31.63,4.34Z" transform="translate(-128.02 -81.18)"/><path class="cls-5" d="M2006.44,200.15A23.9,23.9,0,0,0,1982.56,224v25c0,5-4.07,21.37-5.73,27.8,6.49-1.14,23-3.92,29.6-3.92h38.87A23.9,23.9,0,0,0,2069.18,249V224a23.9,23.9,0,0,0-23.88-23.88Z" transform="translate(-128.02 -81.18)"/></g><g id="gnammy-13" data-name="gnammy"><path class="cls-2" d="M2105.15,291.24A16.85,16.85,0,1,1,2122,274.39,16.87,16.87,0,0,1,2105.15,291.24Z" transform="translate(-128.02 -81.18)"/><path class="cls-11" d="M2105.15,261a13.42,13.42,0,1,0,13.42,13.42A13.43,13.43,0,0,0,2105.15,261Z" transform="translate(-128.02 -81.18)"/><path class="cls-2" d="M2051.43,380.31l.69-2.61c2.18-8.2,6.29-24.91,6.29-29.51v-25a27.34,27.34,0,0,1,27.31-27.31h38.87a27.34,27.34,0,0,1,27.31,27.31v25a27.34,27.34,0,0,1-27.31,27.31h-38.87c-7.79,0-31.39,4.29-31.63,4.34Z" transform="translate(-128.02 -81.18)"/><path class="cls-11" d="M2085.71,299.34a23.9,23.9,0,0,0-23.88,23.88v25c0,5-4.07,21.37-5.73,27.8,6.49-1.14,23-3.92,29.6-3.92h38.87a23.9,23.9,0,0,0,23.88-23.88v-25a23.9,23.9,0,0,0-23.88-23.88Z" transform="translate(-128.02 -81.18)"/></g><g id="gnammy-14" data-name="gnammy"><path class="cls-2" d="M2025.87,390.42a16.85,16.85,0,1,1,16.85-16.85A16.87,16.87,0,0,1,2025.87,390.42Z" transform="translate(-128.02 -81.18)"/><path class="cls-4" d="M2025.87,360.16a13.42,13.42,0,1,0,13.42,13.42A13.43,13.43,0,0,0,2025.87,360.16Z" transform="translate(-128.02 -81.18)"/><path class="cls-2" d="M1972.15,479.49l.69-2.61c2.18-8.2,6.29-24.91,6.29-29.51v-25a27.34,27.34,0,0,1,27.31-27.31h38.87a27.34,27.34,0,0,1,27.31,27.31v25a27.34,27.34,0,0,1-27.31,27.31h-38.87c-7.79,0-31.39,4.29-31.63,4.34Z" transform="translate(-128.02 -81.18)"/><path class="cls-4" d="M2006.44,398.52a23.9,23.9,0,0,0-23.88,23.88v25c0,5-4.07,21.37-5.73,27.8,6.49-1.14,23-3.92,29.6-3.92h38.87a23.9,23.9,0,0,0,23.88-23.88v-25a23.9,23.9,0,0,0-23.88-23.88Z" transform="translate(-128.02 -81.18)"/></g><g id="gnammy-15" data-name="gnammy"><path class="cls-2" d="M2105.15,489.6A16.85,16.85,0,1,1,2122,472.76,16.87,16.87,0,0,1,2105.15,489.6Z" transform="translate(-128.02 -81.18)"/><path class="cls-6" d="M2105.15,459.34a13.42,13.42,0,1,0,13.42,13.42A13.43,13.43,0,0,0,2105.15,459.34Z" transform="translate(-128.02 -81.18)"/><path class="cls-2" d="M2051.43,578.68l.69-2.61c2.18-8.2,6.29-24.91,6.29-29.51v-25a27.34,27.34,0,0,1,27.31-27.31h38.87a27.34,27.34,0,0,1,27.31,27.31v25a27.34,27.34,0,0,1-27.31,27.31h-38.87c-7.79,0-31.39,4.29-31.63,4.34Z" transform="translate(-128.02 -81.18)"/><path class="cls-6" d="M2085.71,497.71a23.9,23.9,0,0,0-23.88,23.88v25c0,5-4.07,21.37-5.73,27.8,6.49-1.14,23-3.92,29.6-3.92h38.87a23.9,23.9,0,0,0,23.88-23.88v-25a23.9,23.9,0,0,0-23.88-23.88Z" transform="translate(-128.02 -81.18)"/></g><g id="gnammy-16" data-name="gnammy"><path class="cls-2" d="M2025.87,588.79a16.85,16.85,0,1,1,16.85-16.85A16.87,16.87,0,0,1,2025.87,588.79Z" transform="translate(-128.02 -81.18)"/><path class="cls-8" d="M2025.87,558.52a13.42,13.42,0,1,0,13.42,13.42A13.43,13.43,0,0,0,2025.87,558.52Z" transform="translate(-128.02 -81.18)"/><path class="cls-2" d="M1972.15,677.86l.69-2.61c2.18-8.2,6.29-24.91,6.29-29.51v-25a27.34,27.34,0,0,1,27.31-27.31h38.87a27.34,27.34,0,0,1,27.31,27.31v25A27.34,27.34,0,0,1,2045.31,673h-38.87c-7.79,0-31.39,4.29-31.63,4.34Z" transform="translate(-128.02 -81.18)"/><path class="cls-8" d="M2006.44,596.89a23.9,23.9,0,0,0-23.88,23.88v25c0,5-4.07,21.37-5.73,27.8,6.49-1.14,23-3.92,29.6-3.92h38.87a23.9,23.9,0,0,0,23.88-23.88v-25a23.9,23.9,0,0,0-23.88-23.88Z" transform="translate(-128.02 -81.18)"/></g><g id="gnammy-17" data-name="gnammy"><path class="cls-2" d="M2386.28,470.95a16.85,16.85,0,1,1,16.85-16.85A16.87,16.87,0,0,1,2386.28,470.95Z" transform="translate(-128.02 -81.18)"/><path class="cls-9" d="M2386.28,440.68a13.42,13.42,0,1,0,13.42,13.42A13.43,13.43,0,0,0,2386.28,440.68Z" transform="translate(-128.02 -81.18)"/><path class="cls-2" d="M2332.55,560l.69-2.61c2.18-8.2,6.29-24.91,6.29-29.51v-25a27.34,27.34,0,0,1,27.31-27.31h38.87A27.34,27.34,0,0,1,2433,502.92v25a27.34,27.34,0,0,1-27.31,27.31h-38.87c-7.79,0-31.39,4.29-31.63,4.34Z" transform="translate(-128.02 -81.18)"/><path class="cls-9" d="M2366.84,479A23.9,23.9,0,0,0,2343,502.92v25c0,5-4.07,21.37-5.73,27.8,6.49-1.14,23-3.92,29.6-3.92h38.87a23.9,23.9,0,0,0,23.88-23.88v-25A23.9,23.9,0,0,0,2405.71,479Z" transform="translate(-128.02 -81.18)"/></g><g id="gnammy-18" data-name="gnammy"><path class="cls-2" d="M2543.56,588.79a16.85,16.85,0,1,1,16.85-16.85A16.87,16.87,0,0,1,2543.56,588.79Z" transform="translate(-128.02 -81.18)"/><path class="cls-7" d="M2543.56,558.52A13.42,13.42,0,1,0,2557,571.94,13.43,13.43,0,0,0,2543.56,558.52Z" transform="translate(-128.02 -81.18)"/><path class="cls-7" d="M2524.13,596.89a23.9,23.9,0,0,0-23.88,23.88v25c0,5-4.07,21.37-5.73,27.8,6.49-1.14,23-3.92,29.6-3.92H2563a23.9,23.9,0,0,0,23.88-23.88v-25A23.9,23.9,0,0,0,2563,596.89Z" transform="translate(-128.02 -81.18)"/></g><g id="gnammy-19" data-name="gnammy"><path class="cls-2" d="M390.72,588.79a16.85,16.85,0,1,1,16.85-16.85A16.87,16.87,0,0,1,390.72,588.79Z" transform="translate(-128.02 -81.18)"/><path class="cls-11" d="M390.72,558.52a13.42,13.42,0,1,0,13.42,13.42A13.43,13.43,0,0,0,390.72,558.52Z" transform="translate(-128.02 -81.18)"/><path class="cls-2" d="M337,677.86l.69-2.61c2.18-8.2,6.29-24.91,6.29-29.51v-25a27.34,27.34,0,0,1,27.31-27.31h38.87a27.34,27.34,0,0,1,27.31,27.31v25A27.34,27.34,0,0,1,410.15,673H371.28c-7.79,0-31.39,4.29-31.63,4.34Z" transform="translate(-128.02 -81.18)"/><path class="cls-11" d="M371.28,596.89a23.9,23.9,0,0,0-23.88,23.88v25c0,5-4.07,21.37-5.73,27.8,6.49-1.14,23-3.92,29.6-3.92h38.87A23.9,23.9,0,0,0,434,645.74v-25a23.9,23.9,0,0,0-23.88-23.88Z" transform="translate(-128.02 -81.18)"/></g></g></svg>