<svg id="_3" data-name="3" xmlns="http://www.w3.org/2000/svg" viewBox="0 0 2630.26 591.88"><defs><style>.cls-1{fill:#bebebe;}.cls-2{fill:#fff;}.cls-3{fill:#4db748;}.cls-4{fill:#622a5d;}.cls-5{fill:#077c6f;}.cls-6{fill:#04505f;}.cls-7{fill:#df2449;}.cls-8{fill:#f04d23;}.cls-9{fill:#f36d2a;}.cls-10{fill:#fcb32c;}.cls-11{fill:#53bb71;}.cls-12{fill:#f15a29;}.cls-13{fill:#dd3526;}</style></defs><title>Infografica per Landing Page 3</title><g id="Livello_12_copia_2" data-name="Livello 12 copia 2"><path class="cls-1" d="M2755.28,680.72H2577.84a3,3,0,0,1-3-3V417.66h-20.21a3,3,0,0,1-3-3V314.34h-62.29a3,3,0,0,1-3-3V148.78H2365.13V584.73a3,3,0,0,1-3,3h-82.61a3,3,0,0,1-3-3V429.19h-30.26a3,3,0,0,1-3-3V390.82H2123.77v84.92a3,3,0,0,1-3,3H1829.4a3,3,0,0,1-3-3V361.24h-23.46a3,3,0,0,1-3-3V282.57H1686.38v80.34a3,3,0,0,1-3,3h-92.27a3,3,0,0,1-3-3V220.58h-25.62v48a3,3,0,0,1-3,3H1530.3v49.09a3,3,0,0,1-3,3H1500V575.31a3,3,0,0,1-3,3H1394.83a3,3,0,0,1-3-3V305.21h-114V582.75a3,3,0,0,1-3,3H1142.5a3,3,0,0,1-3-3V190.58h-61.23V411.23a3,3,0,0,1-3,3H908.37V535.75a3,3,0,0,1-3,3H699.43a3,3,0,0,1-3-3V152.21H564.7V458.1a3,3,0,0,1-3,3H277.26V669.8a3,3,0,0,1-3,3H131a3,3,0,0,1,0-6H271.26V458.1a3,3,0,0,1,3-3H558.7V149.21a3,3,0,0,1,3-3H699.43a3,3,0,0,1,3,3V532.75H902.37V411.23a3,3,0,0,1,3-3h166.9V187.58a3,3,0,0,1,3-3h67.23a3,3,0,0,1,3,3V579.75h126.29V302.21a3,3,0,0,1,3-3h120a3,3,0,0,1,3,3V572.31H1494V320.64a3,3,0,0,1,3-3h27.26V268.55a3,3,0,0,1,3-3h29.19v-48a3,3,0,0,1,3-3h31.63a3,3,0,0,1,3,3V359.91h86.27V279.57a3,3,0,0,1,3-3h119.55a3,3,0,0,1,3,3v75.67h23.46a3,3,0,0,1,3,3V472.75h285.37V387.82a3,3,0,0,1,3-3h125.49a3,3,0,0,1,3,3v35.36h30.26a3,3,0,0,1,3,3V581.73h76.61V145.78a3,3,0,0,1,3-3h127.21a3,3,0,0,1,3,3V308.34h62.29a3,3,0,0,1,3,3V411.66h20.21a3,3,0,0,1,3,3V674.72h174.43a3,3,0,0,1,0,6Z" transform="translate(-128.02 -90.18)"/></g><g id="Solo_Pupazze_copia_4" data-name="Solo Pupazze copia 4"><g id="gnammy"><path class="cls-2" d="M982.28,123.87A16.85,16.85,0,1,1,999.13,107,16.87,16.87,0,0,1,982.28,123.87Z" transform="translate(-128.02 -90.18)"/><path class="cls-3" d="M982.28,93.61A13.42,13.42,0,1,0,995.7,107,13.43,13.43,0,0,0,982.28,93.61Z" transform="translate(-128.02 -90.18)"/><path class="cls-2" d="M928.56,212.94l.69-2.61c2.18-8.2,6.29-24.91,6.29-29.51v-25a27.34,27.34,0,0,1,27.31-27.31h38.87A27.34,27.34,0,0,1,1029,155.85v25a27.34,27.34,0,0,1-27.31,27.31H962.85c-7.79,0-31.39,4.29-31.63,4.34Z" transform="translate(-128.02 -90.18)"/><path class="cls-3" d="M962.85,132A23.9,23.9,0,0,0,939,155.85v25c0,5-4.07,21.37-5.73,27.8,6.49-1.14,23-3.92,29.6-3.92h38.87a23.9,23.9,0,0,0,23.88-23.88v-25A23.9,23.9,0,0,0,1001.72,132Z" transform="translate(-128.02 -90.18)"/></g><g id="gnammy-2" data-name="gnammy"><path class="cls-2" d="M982.28,180.29a16.85,16.85,0,1,1,16.85-16.85A16.87,16.87,0,0,1,982.28,180.29Z" transform="translate(-128.02 -90.18)"/><path class="cls-4" d="M982.28,150a13.42,13.42,0,1,0,13.42,13.42A13.43,13.43,0,0,0,982.28,150Z" transform="translate(-128.02 -90.18)"/><path class="cls-2" d="M928.56,269.37l.69-2.61c2.18-8.2,6.29-24.91,6.29-29.51v-25A27.34,27.34,0,0,1,962.85,185h38.87A27.34,27.34,0,0,1,1029,212.27v25a27.34,27.34,0,0,1-27.31,27.31H962.85c-7.79,0-31.39,4.29-31.63,4.34Z" transform="translate(-128.02 -90.18)"/><path class="cls-4" d="M962.85,188.39A23.9,23.9,0,0,0,939,212.27v25c0,5-4.07,21.37-5.73,27.8,6.49-1.14,23-3.92,29.6-3.92h38.87a23.9,23.9,0,0,0,23.88-23.88v-25a23.9,23.9,0,0,0-23.88-23.88Z" transform="translate(-128.02 -90.18)"/></g><g id="gnammy-3" data-name="gnammy"><path class="cls-2" d="M982.28,236.71a16.85,16.85,0,1,1,16.85-16.85A16.87,16.87,0,0,1,982.28,236.71Z" transform="translate(-128.02 -90.18)"/><path class="cls-5" d="M982.28,206.45a13.42,13.42,0,1,0,13.42,13.42A13.43,13.43,0,0,0,982.28,206.45Z" transform="translate(-128.02 -90.18)"/><path class="cls-2" d="M928.56,325.79l.69-2.61c2.18-8.2,6.29-24.91,6.29-29.51v-25a27.34,27.34,0,0,1,27.31-27.31h38.87A27.34,27.34,0,0,1,1029,268.69v25A27.34,27.34,0,0,1,1001.72,321H962.85c-7.79,0-31.39,4.29-31.63,4.34Z" transform="translate(-128.02 -90.18)"/><path class="cls-5" d="M962.85,244.81A23.9,23.9,0,0,0,939,268.69v25c0,5-4.07,21.37-5.73,27.8,6.49-1.14,23-3.92,29.6-3.92h38.87a23.9,23.9,0,0,0,23.88-23.88v-25a23.9,23.9,0,0,0-23.88-23.88Z" transform="translate(-128.02 -90.18)"/></g><g id="gnammy-4" data-name="gnammy"><path class="cls-2" d="M1020.29,299.2a16.85,16.85,0,1,1,16.85-16.85A16.87,16.87,0,0,1,1020.29,299.2Z" transform="translate(-128.02 -90.18)"/><path class="cls-4" d="M1020.29,268.93a13.42,13.42,0,1,0,13.42,13.42A13.43,13.43,0,0,0,1020.29,268.93Z" transform="translate(-128.02 -90.18)"/><path class="cls-2" d="M966.56,388.27l.69-2.61c2.18-8.2,6.29-24.91,6.29-29.51v-25a27.34,27.34,0,0,1,27.31-27.31h38.87A27.34,27.34,0,0,1,1067,331.18v25a27.34,27.34,0,0,1-27.31,27.31h-38.87c-7.79,0-31.39,4.29-31.63,4.34Z" transform="translate(-128.02 -90.18)"/><path class="cls-4" d="M1000.85,307.3A23.9,23.9,0,0,0,977,331.18v25c0,5-4.07,21.37-5.73,27.8,6.49-1.14,23-3.92,29.6-3.92h38.87a23.9,23.9,0,0,0,23.88-23.88v-25a23.9,23.9,0,0,0-23.88-23.88Z" transform="translate(-128.02 -90.18)"/></g><g id="gnammy-5" data-name="gnammy"><path class="cls-2" d="M942.28,299.2a16.85,16.85,0,1,1,16.85-16.85A16.87,16.87,0,0,1,942.28,299.2Z" transform="translate(-128.02 -90.18)"/><path class="cls-6" d="M942.28,268.93a13.42,13.42,0,1,0,13.42,13.42A13.43,13.43,0,0,0,942.28,268.93Z" transform="translate(-128.02 -90.18)"/><path class="cls-2" d="M888.55,388.27l.69-2.61c2.18-8.2,6.29-24.91,6.29-29.51v-25a27.34,27.34,0,0,1,27.31-27.31h38.87A27.34,27.34,0,0,1,989,331.18v25a27.34,27.34,0,0,1-27.31,27.31H922.84c-7.79,0-31.39,4.29-31.63,4.34Z" transform="translate(-128.02 -90.18)"/><path class="cls-6" d="M922.84,307.3A23.9,23.9,0,0,0,899,331.18v25c0,5-4.07,21.37-5.73,27.8,6.49-1.14,23-3.92,29.6-3.92h38.87a23.9,23.9,0,0,0,23.88-23.88v-25a23.9,23.9,0,0,0-23.88-23.88Z" transform="translate(-128.02 -90.18)"/></g><g id="gnammy-6" data-name="gnammy"><path class="cls-2" d="M1020.29,355.62a16.85,16.85,0,1,1,16.85-16.85A16.87,16.87,0,0,1,1020.29,355.62Z" transform="translate(-128.02 -90.18)"/><path class="cls-7" d="M1020.29,325.36a13.42,13.42,0,1,0,13.42,13.42A13.43,13.43,0,0,0,1020.29,325.36Z" transform="translate(-128.02 -90.18)"/><path class="cls-2" d="M966.56,444.69l.69-2.61c2.18-8.2,6.29-24.91,6.29-29.51v-25a27.34,27.34,0,0,1,27.31-27.31h38.87A27.34,27.34,0,0,1,1067,387.6v25a27.34,27.34,0,0,1-27.31,27.31h-38.87c-7.79,0-31.39,4.29-31.63,4.34Z" transform="translate(-128.02 -90.18)"/><path class="cls-7" d="M1000.85,363.72A23.9,23.9,0,0,0,977,387.6v25c0,5-4.07,21.37-5.73,27.8,6.49-1.14,23-3.92,29.6-3.92h38.87a23.9,23.9,0,0,0,23.88-23.88v-25a23.9,23.9,0,0,0-23.88-23.88Z" transform="translate(-128.02 -90.18)"/></g><g id="gnammy-7" data-name="gnammy"><path class="cls-2" d="M942.28,355.62a16.85,16.85,0,1,1,16.85-16.85A16.87,16.87,0,0,1,942.28,355.62Z" transform="translate(-128.02 -90.18)"/><path class="cls-8" d="M942.28,325.36a13.42,13.42,0,1,0,13.42,13.42A13.43,13.43,0,0,0,942.28,325.36Z" transform="translate(-128.02 -90.18)"/><path class="cls-2" d="M888.55,444.69l.69-2.61c2.18-8.2,6.29-24.91,6.29-29.51v-25a27.34,27.34,0,0,1,27.31-27.31h38.87A27.34,27.34,0,0,1,989,387.6v25a27.34,27.34,0,0,1-27.31,27.31H922.84c-7.79,0-31.39,4.29-31.63,4.34Z" transform="translate(-128.02 -90.18)"/><path class="cls-8" d="M922.84,363.72A23.9,23.9,0,0,0,899,387.6v25c0,5-4.07,21.37-5.73,27.8,6.49-1.14,23-3.92,29.6-3.92h38.87a23.9,23.9,0,0,0,23.88-23.88v-25a23.9,23.9,0,0,0-23.88-23.88Z" transform="translate(-128.02 -90.18)"/></g><g id="gnammy-8" data-name="gnammy"><path class="cls-2" d="M1020.29,412a16.85,16.85,0,1,1,16.85-16.85A16.87,16.87,0,0,1,1020.29,412Z" transform="translate(-128.02 -90.18)"/><path class="cls-9" d="M1020.29,381.78a13.42,13.42,0,1,0,13.42,13.42A13.43,13.43,0,0,0,1020.29,381.78Z" transform="translate(-128.02 -90.18)"/><path class="cls-2" d="M966.56,501.11l.69-2.61c2.18-8.2,6.29-24.91,6.29-29.51V444a27.34,27.34,0,0,1,27.31-27.31h38.87A27.34,27.34,0,0,1,1067,444v25a27.34,27.34,0,0,1-27.31,27.31h-38.87c-7.79,0-31.39,4.29-31.63,4.34Z" transform="translate(-128.02 -90.18)"/><path class="cls-10" d="M1000.85,420.14A23.9,23.9,0,0,0,977,444v25c0,5-4.07,21.37-5.73,27.8,6.49-1.14,23-3.92,29.6-3.92h38.87A23.9,23.9,0,0,0,1063.6,469V444a23.9,23.9,0,0,0-23.88-23.88Z" transform="translate(-128.02 -90.18)"/></g><g id="gnammy-9" data-name="gnammy"><path class="cls-2" d="M942.28,412a16.85,16.85,0,1,1,16.85-16.85A16.87,16.87,0,0,1,942.28,412Z" transform="translate(-128.02 -90.18)"/><path class="cls-11" d="M942.28,381.78a13.42,13.42,0,1,0,13.42,13.42A13.43,13.43,0,0,0,942.28,381.78Z" transform="translate(-128.02 -90.18)"/><path class="cls-2" d="M888.55,501.11l.69-2.61c2.18-8.2,6.29-24.91,6.29-29.51V444a27.34,27.34,0,0,1,27.31-27.31h38.87A27.34,27.34,0,0,1,989,444v25a27.34,27.34,0,0,1-27.31,27.31H922.84c-7.79,0-31.39,4.29-31.63,4.34Z" transform="translate(-128.02 -90.18)"/><path class="cls-11" d="M922.84,420.14A23.9,23.9,0,0,0,899,444v25c0,5-4.07,21.37-5.73,27.8,6.49-1.14,23-3.92,29.6-3.92h38.87A23.9,23.9,0,0,0,985.59,469V444a23.9,23.9,0,0,0-23.88-23.88Z" transform="translate(-128.02 -90.18)"/></g><g id="gnammy-10" data-name="gnammy"><path class="cls-2" d="M1057.27,476.13a16.85,16.85,0,1,1,16.85-16.85A16.87,16.87,0,0,1,1057.27,476.13Z" transform="translate(-128.02 -90.18)"/><path class="cls-3" d="M1057.27,445.87a13.42,13.42,0,1,0,13.42,13.42A13.43,13.43,0,0,0,1057.27,445.87Z" transform="translate(-128.02 -90.18)"/><path class="cls-2" d="M1003.55,565.21l.69-2.61c2.18-8.2,6.29-24.91,6.29-29.51v-25a27.34,27.34,0,0,1,27.31-27.31h38.87A27.34,27.34,0,0,1,1104,508.11v25a27.34,27.34,0,0,1-27.31,27.31h-38.87c-7.79,0-31.39,4.29-31.63,4.34Z" transform="translate(-128.02 -90.18)"/><path class="cls-3" d="M1037.84,484.23A23.9,23.9,0,0,0,1014,508.11v25c0,5-4.07,21.37-5.73,27.8,6.49-1.14,23-3.92,29.6-3.92h38.87a23.9,23.9,0,0,0,23.88-23.88v-25a23.9,23.9,0,0,0-23.88-23.88Z" transform="translate(-128.02 -90.18)"/></g><g id="gnammy-11" data-name="gnammy"><path class="cls-2" d="M979.26,476.13a16.85,16.85,0,1,1,16.85-16.85A16.87,16.87,0,0,1,979.26,476.13Z" transform="translate(-128.02 -90.18)"/><path class="cls-5" d="M979.26,445.87a13.42,13.42,0,1,0,13.42,13.42A13.43,13.43,0,0,0,979.26,445.87Z" transform="translate(-128.02 -90.18)"/><path class="cls-2" d="M925.54,565.21l.69-2.61c2.18-8.2,6.29-24.91,6.29-29.51v-25a27.34,27.34,0,0,1,27.31-27.31H998.7A27.34,27.34,0,0,1,1026,508.11v25a27.34,27.34,0,0,1-27.31,27.31H959.83c-7.79,0-31.39,4.29-31.63,4.34Z" transform="translate(-128.02 -90.18)"/><path class="cls-5" d="M959.83,484.23A23.9,23.9,0,0,0,936,508.11v25c0,5-4.07,21.37-5.73,27.8,6.49-1.14,23-3.92,29.6-3.92H998.7a23.9,23.9,0,0,0,23.88-23.88v-25a23.9,23.9,0,0,0-23.88-23.88Z" transform="translate(-128.02 -90.18)"/></g><g id="gnammy-12" data-name="gnammy"><path class="cls-2" d="M900,476.13a16.85,16.85,0,1,1,16.85-16.85A16.87,16.87,0,0,1,900,476.13Z" transform="translate(-128.02 -90.18)"/><path class="cls-6" d="M900,445.87a13.42,13.42,0,1,0,13.42,13.42A13.43,13.43,0,0,0,900,445.87Z" transform="translate(-128.02 -90.18)"/><path class="cls-2" d="M846.26,565.21l.69-2.61c2.18-8.2,6.29-24.91,6.29-29.51v-25a27.34,27.34,0,0,1,27.31-27.31h38.87a27.34,27.34,0,0,1,27.31,27.31v25a27.34,27.34,0,0,1-27.31,27.31H880.55c-7.79,0-31.39,4.29-31.63,4.34Z" transform="translate(-128.02 -90.18)"/><path class="cls-6" d="M880.55,484.23a23.9,23.9,0,0,0-23.88,23.88v25c0,5-4.07,21.37-5.73,27.8,6.49-1.14,23-3.92,29.6-3.92h38.87a23.9,23.9,0,0,0,23.88-23.88v-25a23.9,23.9,0,0,0-23.88-23.88Z" transform="translate(-128.02 -90.18)"/></g><g id="gnammy-13" data-name="gnammy"><path class="cls-2" d="M470,425a16.85,16.85,0,1,1,16.85-16.85A16.87,16.87,0,0,1,470,425Z" transform="translate(-128.02 -90.18)"/><path class="cls-7" d="M470,394.77a13.42,13.42,0,1,0,13.42,13.42A13.43,13.43,0,0,0,470,394.77Z" transform="translate(-128.02 -90.18)"/><path class="cls-2" d="M416.27,514.11l.69-2.61c2.18-8.2,6.29-24.91,6.29-29.51V457a27.34,27.34,0,0,1,27.31-27.31h38.87A27.34,27.34,0,0,1,516.74,457v25a27.34,27.34,0,0,1-27.31,27.31H450.56c-7.79,0-31.39,4.29-31.63,4.34Z" transform="translate(-128.02 -90.18)"/><path class="cls-7" d="M450.56,433.13A23.9,23.9,0,0,0,426.69,457v25c0,5-4.07,21.37-5.73,27.8,6.49-1.14,23-3.92,29.6-3.92h38.87A23.9,23.9,0,0,0,513.31,482V457a23.9,23.9,0,0,0-23.88-23.88Z" transform="translate(-128.02 -90.18)"/></g><g id="gnammy-14" data-name="gnammy"><path class="cls-2" d="M390.72,425a16.85,16.85,0,1,1,16.85-16.85A16.87,16.87,0,0,1,390.72,425Z" transform="translate(-128.02 -90.18)"/><path class="cls-12" d="M390.72,394.77a13.42,13.42,0,1,0,13.42,13.42A13.43,13.43,0,0,0,390.72,394.77Z" transform="translate(-128.02 -90.18)"/><path class="cls-2" d="M337,514.11l.69-2.61c2.18-8.2,6.29-24.91,6.29-29.51V457a27.34,27.34,0,0,1,27.31-27.31h38.87A27.34,27.34,0,0,1,437.46,457v25a27.34,27.34,0,0,1-27.31,27.31H371.28c-7.79,0-31.39,4.29-31.63,4.34Z" transform="translate(-128.02 -90.18)"/><path class="cls-8" d="M371.28,433.13A23.9,23.9,0,0,0,347.41,457v25c0,5-4.07,21.37-5.73,27.8,6.49-1.14,23-3.92,29.6-3.92h38.87A23.9,23.9,0,0,0,434,482V457a23.9,23.9,0,0,0-23.88-23.88Z" transform="translate(-128.02 -90.18)"/></g><g id="gnammy-15" data-name="gnammy"><path class="cls-2" d="M1057.27,532.55a16.85,16.85,0,1,1,16.85-16.85A16.87,16.87,0,0,1,1057.27,532.55Z" transform="translate(-128.02 -90.18)"/><path class="cls-7" d="M1057.27,502.29a13.42,13.42,0,1,0,13.42,13.42A13.43,13.43,0,0,0,1057.27,502.29Z" transform="translate(-128.02 -90.18)"/><path class="cls-2" d="M1003.55,621.63l.69-2.61c2.18-8.2,6.29-24.91,6.29-29.51v-25a27.34,27.34,0,0,1,27.31-27.31h38.87A27.34,27.34,0,0,1,1104,564.53v25a27.34,27.34,0,0,1-27.31,27.31h-38.87c-7.79,0-31.39,4.29-31.63,4.34Z" transform="translate(-128.02 -90.18)"/><path class="cls-7" d="M1037.84,540.66A23.9,23.9,0,0,0,1014,564.53v25c0,5-4.07,21.37-5.73,27.8,6.49-1.14,23-3.92,29.6-3.92h38.87a23.9,23.9,0,0,0,23.88-23.88v-25a23.9,23.9,0,0,0-23.88-23.88Z" transform="translate(-128.02 -90.18)"/></g><g id="gnammy-16" data-name="gnammy"><path class="cls-2" d="M979.26,532.55a16.85,16.85,0,1,1,16.85-16.85A16.87,16.87,0,0,1,979.26,532.55Z" transform="translate(-128.02 -90.18)"/><path class="cls-8" d="M979.26,502.29a13.42,13.42,0,1,0,13.42,13.42A13.43,13.43,0,0,0,979.26,502.29Z" transform="translate(-128.02 -90.18)"/><path class="cls-2" d="M925.54,621.63l.69-2.61c2.18-8.2,6.29-24.91,6.29-29.51v-25a27.34,27.34,0,0,1,27.31-27.31H998.7A27.34,27.34,0,0,1,1026,564.53v25a27.34,27.34,0,0,1-27.31,27.31H959.83c-7.79,0-31.39,4.29-31.63,4.34Z" transform="translate(-128.02 -90.18)"/><path class="cls-8" d="M959.83,540.66A23.9,23.9,0,0,0,936,564.53v25c0,5-4.07,21.37-5.73,27.8,6.49-1.14,23-3.92,29.6-3.92H998.7a23.9,23.9,0,0,0,23.88-23.88v-25a23.9,23.9,0,0,0-23.88-23.88Z" transform="translate(-128.02 -90.18)"/></g><g id="gnammy-17" data-name="gnammy"><path class="cls-2" d="M900,532.55a16.85,16.85,0,1,1,16.85-16.85A16.87,16.87,0,0,1,900,532.55Z" transform="translate(-128.02 -90.18)"/><path class="cls-3" d="M900,502.29a13.42,13.42,0,1,0,13.42,13.42A13.43,13.43,0,0,0,900,502.29Z" transform="translate(-128.02 -90.18)"/><path class="cls-2" d="M846.26,621.63,847,619c2.18-8.2,6.29-24.91,6.29-29.51v-25a27.34,27.34,0,0,1,27.31-27.31h38.87a27.34,27.34,0,0,1,27.31,27.31v25a27.34,27.34,0,0,1-27.31,27.31H880.55c-7.79,0-31.39,4.29-31.63,4.34Z" transform="translate(-128.02 -90.18)"/><path class="cls-3" d="M880.55,540.66a23.9,23.9,0,0,0-23.88,23.88v25c0,5-4.07,21.37-5.73,27.8,6.49-1.14,23-3.92,29.6-3.92h38.87A23.9,23.9,0,0,0,943.3,589.5v-25a23.9,23.9,0,0,0-23.88-23.88Z" transform="translate(-128.02 -90.18)"/></g><g id="gnammy-18" data-name="gnammy"><path class="cls-2" d="M1057.27,589a16.85,16.85,0,1,1,16.85-16.85A16.87,16.87,0,0,1,1057.27,589Z" transform="translate(-128.02 -90.18)"/><path class="cls-13" d="M1057.27,558.71a13.42,13.42,0,1,0,13.42,13.42A13.43,13.43,0,0,0,1057.27,558.71Z" transform="translate(-128.02 -90.18)"/><path class="cls-2" d="M1003.55,678l.69-2.61c2.18-8.2,6.29-24.91,6.29-29.51V621a27.34,27.34,0,0,1,27.31-27.31h38.87A27.34,27.34,0,0,1,1104,621v25a27.34,27.34,0,0,1-27.31,27.31h-38.87c-7.79,0-31.39,4.29-31.63,4.34Z" transform="translate(-128.02 -90.18)"/><path class="cls-13" d="M1037.84,597.08A23.9,23.9,0,0,0,1014,621v25c0,5-4.07,21.37-5.73,27.8,6.49-1.14,23-3.92,29.6-3.92h38.87a23.9,23.9,0,0,0,23.88-23.88V621a23.9,23.9,0,0,0-23.88-23.88Z" transform="translate(-128.02 -90.18)"/></g><g id="gnammy-19" data-name="gnammy"><path class="cls-2" d="M979.26,589a16.85,16.85,0,1,1,16.85-16.85A16.87,16.87,0,0,1,979.26,589Z" transform="translate(-128.02 -90.18)"/><path class="cls-10" d="M979.26,558.71a13.42,13.42,0,1,0,13.42,13.42A13.43,13.43,0,0,0,979.26,558.71Z" transform="translate(-128.02 -90.18)"/><path class="cls-2" d="M925.54,678l.69-2.61c2.18-8.2,6.29-24.91,6.29-29.51V621a27.34,27.34,0,0,1,27.31-27.31H998.7A27.34,27.34,0,0,1,1026,621v25a27.34,27.34,0,0,1-27.31,27.31H959.83c-7.79,0-31.39,4.29-31.63,4.34Z" transform="translate(-128.02 -90.18)"/><path class="cls-10" d="M959.83,597.08A23.9,23.9,0,0,0,936,621v25c0,5-4.07,21.37-5.73,27.8,6.49-1.14,23-3.92,29.6-3.92H998.7a23.9,23.9,0,0,0,23.88-23.88V621a23.9,23.9,0,0,0-23.88-23.88Z" transform="translate(-128.02 -90.18)"/></g><g id="gnammy-20" data-name="gnammy"><path class="cls-2" d="M900,589a16.85,16.85,0,1,1,16.85-16.85A16.87,16.87,0,0,1,900,589Z" transform="translate(-128.02 -90.18)"/><path class="cls-11" d="M900,558.71a13.42,13.42,0,1,0,13.42,13.42A13.43,13.43,0,0,0,900,558.71Z" transform="translate(-128.02 -90.18)"/><path class="cls-2" d="M846.26,678l.69-2.61c2.18-8.2,6.29-24.91,6.29-29.51V621a27.34,27.34,0,0,1,27.31-27.31h38.87A27.34,27.34,0,0,1,946.73,621v25a27.34,27.34,0,0,1-27.31,27.31H880.55c-7.79,0-31.39,4.29-31.63,4.34Z" transform="translate(-128.02 -90.18)"/><path class="cls-11" d="M880.55,597.08A23.9,23.9,0,0,0,856.68,621v25c0,5-4.07,21.37-5.73,27.8,6.49-1.14,23-3.92,29.6-3.92h38.87a23.9,23.9,0,0,0,23.88-23.88V621a23.9,23.9,0,0,0-23.88-23.88Z" transform="translate(-128.02 -90.18)"/></g><g id="gnammy-21" data-name="gnammy"><path class="cls-2" d="M1839.2,532.55a16.85,16.85,0,1,1,16.85-16.85A16.87,16.87,0,0,1,1839.2,532.55Z" transform="translate(-128.02 -90.18)"/><path class="cls-8" d="M1839.2,502.29a13.42,13.42,0,1,0,13.42,13.42A13.43,13.43,0,0,0,1839.2,502.29Z" transform="translate(-128.02 -90.18)"/><path class="cls-2" d="M1785.48,621.63l.69-2.61c2.18-8.2,6.29-24.91,6.29-29.51v-25a27.34,27.34,0,0,1,27.31-27.31h38.87a27.34,27.34,0,0,1,27.31,27.31v25a27.34,27.34,0,0,1-27.31,27.31h-38.87c-7.79,0-31.39,4.29-31.63,4.34Z" transform="translate(-128.02 -90.18)"/><path class="cls-8" d="M1819.77,540.66a23.9,23.9,0,0,0-23.88,23.88v25c0,5-4.07,21.37-5.73,27.8,6.49-1.14,23-3.92,29.6-3.92h38.87a23.9,23.9,0,0,0,23.88-23.88v-25a23.9,23.9,0,0,0-23.88-23.88Z" transform="translate(-128.02 -90.18)"/></g><g id="gnammy-22" data-name="gnammy"><path class="cls-2" d="M1759.93,532.55a16.85,16.85,0,1,1,16.85-16.85A16.87,16.87,0,0,1,1759.93,532.55Z" transform="translate(-128.02 -90.18)"/><path class="cls-6" d="M1759.93,502.29a13.42,13.42,0,1,0,13.42,13.42A13.43,13.43,0,0,0,1759.93,502.29Z" transform="translate(-128.02 -90.18)"/><path class="cls-2" d="M1706.2,621.63l.69-2.61c2.18-8.2,6.29-24.91,6.29-29.51v-25a27.34,27.34,0,0,1,27.31-27.31h38.87a27.34,27.34,0,0,1,27.31,27.31v25a27.34,27.34,0,0,1-27.31,27.31h-38.87c-7.79,0-31.39,4.29-31.63,4.34Z" transform="translate(-128.02 -90.18)"/><path class="cls-6" d="M1740.49,540.66a23.9,23.9,0,0,0-23.88,23.88v25c0,5-4.07,21.37-5.73,27.8,6.49-1.14,23-3.92,29.6-3.92h38.87a23.9,23.9,0,0,0,23.88-23.88v-25a23.9,23.9,0,0,0-23.88-23.88Z" transform="translate(-128.02 -90.18)"/></g><g id="gnammy-23" data-name="gnammy"><path class="cls-2" d="M1839.2,589a16.85,16.85,0,1,1,16.85-16.85A16.87,16.87,0,0,1,1839.2,589Z" transform="translate(-128.02 -90.18)"/><path class="cls-5" d="M1839.2,558.71a13.42,13.42,0,1,0,13.42,13.42A13.43,13.43,0,0,0,1839.2,558.71Z" transform="translate(-128.02 -90.18)"/><path class="cls-2" d="M1785.48,678l.69-2.61c2.18-8.2,6.29-24.91,6.29-29.51V621a27.34,27.34,0,0,1,27.31-27.31h38.87A27.34,27.34,0,0,1,1885.95,621v25a27.34,27.34,0,0,1-27.31,27.31h-38.87c-7.79,0-31.39,4.29-31.63,4.34Z" transform="translate(-128.02 -90.18)"/><path class="cls-5" d="M1819.77,597.08A23.9,23.9,0,0,0,1795.89,621v25c0,5-4.07,21.37-5.73,27.8,6.49-1.14,23-3.92,29.6-3.92h38.87a23.9,23.9,0,0,0,23.88-23.88V621a23.9,23.9,0,0,0-23.88-23.88Z" transform="translate(-128.02 -90.18)"/></g><g id="gnammy-24" data-name="gnammy"><path class="cls-2" d="M1759.93,589a16.85,16.85,0,1,1,16.85-16.85A16.87,16.87,0,0,1,1759.93,589Z" transform="translate(-128.02 -90.18)"/><path class="cls-11" d="M1759.93,558.71a13.42,13.42,0,1,0,13.42,13.42A13.43,13.43,0,0,0,1759.93,558.71Z" transform="translate(-128.02 -90.18)"/><path class="cls-2" d="M1706.2,678l.69-2.61c2.18-8.2,6.29-24.91,6.29-29.51V621a27.34,27.34,0,0,1,27.31-27.31h38.87A27.34,27.34,0,0,1,1806.67,621v25a27.34,27.34,0,0,1-27.31,27.31h-38.87c-7.79,0-31.39,4.29-31.63,4.34Z" transform="translate(-128.02 -90.18)"/><path class="cls-11" d="M1740.49,597.08A23.9,23.9,0,0,0,1716.62,621v25c0,5-4.07,21.37-5.73,27.8,6.49-1.14,23-3.92,29.6-3.92h38.87a23.9,23.9,0,0,0,23.88-23.88V621a23.9,23.9,0,0,0-23.88-23.88Z" transform="translate(-128.02 -90.18)"/></g><g id="gnammy-25" data-name="gnammy"><path class="cls-2" d="M1682.66,422.74a16.85,16.85,0,1,1,16.85-16.85A16.87,16.87,0,0,1,1682.66,422.74Z" transform="translate(-128.02 -90.18)"/><path class="cls-3" d="M1682.66,392.48a13.42,13.42,0,1,0,13.42,13.42A13.43,13.43,0,0,0,1682.66,392.48Z" transform="translate(-128.02 -90.18)"/><path class="cls-2" d="M1628.94,511.81l.69-2.61c2.18-8.2,6.29-24.91,6.29-29.51v-25a27.34,27.34,0,0,1,27.31-27.31h38.87a27.34,27.34,0,0,1,27.31,27.31v25A27.34,27.34,0,0,1,1702.1,507h-38.87c-7.79,0-31.39,4.29-31.63,4.34Z" transform="translate(-128.02 -90.18)"/><path class="cls-3" d="M1663.23,430.84a23.9,23.9,0,0,0-23.88,23.88v25c0,5-4.07,21.37-5.73,27.8,6.49-1.14,23-3.92,29.6-3.92h38.87A23.9,23.9,0,0,0,1726,479.69v-25a23.9,23.9,0,0,0-23.88-23.88Z" transform="translate(-128.02 -90.18)"/></g><g id="gnammy-26" data-name="gnammy"><path class="cls-2" d="M1603.39,422.74a16.85,16.85,0,1,1,16.85-16.85A16.87,16.87,0,0,1,1603.39,422.74Z" transform="translate(-128.02 -90.18)"/><path class="cls-5" d="M1603.39,392.48a13.42,13.42,0,1,0,13.42,13.42A13.43,13.43,0,0,0,1603.39,392.48Z" transform="translate(-128.02 -90.18)"/><path class="cls-2" d="M1549.66,511.81l.69-2.61c2.18-8.2,6.29-24.91,6.29-29.51v-25A27.34,27.34,0,0,1,1584,427.41h38.87a27.34,27.34,0,0,1,27.31,27.31v25A27.34,27.34,0,0,1,1622.82,507H1584c-7.79,0-31.39,4.29-31.63,4.34Z" transform="translate(-128.02 -90.18)"/><path class="cls-5" d="M1584,430.84a23.9,23.9,0,0,0-23.88,23.88v25c0,5-4.07,21.37-5.73,27.8,6.49-1.14,23-3.92,29.6-3.92h38.87a23.9,23.9,0,0,0,23.88-23.88v-25a23.9,23.9,0,0,0-23.88-23.88Z" transform="translate(-128.02 -90.18)"/></g><g id="gnammy-27" data-name="gnammy"><path class="cls-2" d="M629.4,589a16.85,16.85,0,1,1,16.85-16.85A16.87,16.87,0,0,1,629.4,589Z" transform="translate(-128.02 -90.18)"/><path class="cls-10" d="M629.4,558.71a13.42,13.42,0,1,0,13.42,13.42A13.43,13.43,0,0,0,629.4,558.71Z" transform="translate(-128.02 -90.18)"/><path class="cls-2" d="M575.67,678l.69-2.61c2.18-8.2,6.29-24.91,6.29-29.51V621A27.34,27.34,0,0,1,610,593.65h38.87A27.34,27.34,0,0,1,676.14,621v25a27.34,27.34,0,0,1-27.31,27.31H610c-7.79,0-31.39,4.29-31.63,4.34Z" transform="translate(-128.02 -90.18)"/><path class="cls-10" d="M610,597.08A23.9,23.9,0,0,0,586.09,621v25c0,5-4.07,21.37-5.73,27.8,6.49-1.14,23-3.92,29.6-3.92h38.87a23.9,23.9,0,0,0,23.88-23.88V621a23.9,23.9,0,0,0-23.88-23.88Z" transform="translate(-128.02 -90.18)"/></g><g id="gnammy-28" data-name="gnammy"><path class="cls-2" d="M550.12,589A16.85,16.85,0,1,1,567,572.13,16.87,16.87,0,0,1,550.12,589Z" transform="translate(-128.02 -90.18)"/><path class="cls-11" d="M550.12,558.71a13.42,13.42,0,1,0,13.42,13.42A13.43,13.43,0,0,0,550.12,558.71Z" transform="translate(-128.02 -90.18)"/><path class="cls-2" d="M496.4,678l.69-2.61c2.18-8.2,6.29-24.91,6.29-29.51V621a27.34,27.34,0,0,1,27.31-27.31h38.87A27.34,27.34,0,0,1,596.86,621v25a27.34,27.34,0,0,1-27.31,27.31H530.68c-7.79,0-31.39,4.29-31.63,4.34Z" transform="translate(-128.02 -90.18)"/><path class="cls-11" d="M530.68,597.08A23.9,23.9,0,0,0,506.81,621v25c0,5-4.07,21.37-5.73,27.8,6.49-1.14,23-3.92,29.6-3.92h38.87a23.9,23.9,0,0,0,23.88-23.88V621a23.9,23.9,0,0,0-23.88-23.88Z" transform="translate(-128.02 -90.18)"/></g><g id="gnammy-29" data-name="gnammy"><path class="cls-2" d="M1246.47,589a16.85,16.85,0,1,1,16.85-16.85A16.87,16.87,0,0,1,1246.47,589Z" transform="translate(-128.02 -90.18)"/><path class="cls-10" d="M1246.47,558.71a13.42,13.42,0,1,0,13.42,13.42A13.43,13.43,0,0,0,1246.47,558.71Z" transform="translate(-128.02 -90.18)"/><path class="cls-2" d="M1192.74,678l.69-2.61c2.18-8.2,6.29-24.91,6.29-29.51V621A27.34,27.34,0,0,1,1227,593.65h38.87A27.34,27.34,0,0,1,1293.21,621v25a27.34,27.34,0,0,1-27.31,27.31H1227c-7.79,0-31.39,4.29-31.63,4.34Z" transform="translate(-128.02 -90.18)"/><path class="cls-10" d="M1227,597.08A23.9,23.9,0,0,0,1203.16,621v25c0,5-4.07,21.37-5.73,27.8,6.49-1.14,23-3.92,29.6-3.92h38.87a23.9,23.9,0,0,0,23.88-23.88V621a23.9,23.9,0,0,0-23.88-23.88Z" transform="translate(-128.02 -90.18)"/></g><g id="gnammy-30" data-name="gnammy"><path class="cls-2" d="M1412.06,589a16.85,16.85,0,1,1,16.85-16.85A16.87,16.87,0,0,1,1412.06,589Z" transform="translate(-128.02 -90.18)"/><path class="cls-7" d="M1412.06,558.71a13.42,13.42,0,1,0,13.42,13.42A13.43,13.43,0,0,0,1412.06,558.71Z" transform="translate(-128.02 -90.18)"/><path class="cls-2" d="M1358.33,678l.69-2.61c2.18-8.2,6.29-24.91,6.29-29.51V621a27.34,27.34,0,0,1,27.31-27.31h38.87A27.34,27.34,0,0,1,1458.8,621v25a27.34,27.34,0,0,1-27.31,27.31h-38.87c-7.79,0-31.39,4.29-31.63,4.34Z" transform="translate(-128.02 -90.18)"/><path class="cls-7" d="M1392.62,597.08A23.9,23.9,0,0,0,1368.75,621v25c0,5-4.07,21.37-5.73,27.8,6.49-1.14,23-3.92,29.6-3.92h38.87a23.9,23.9,0,0,0,23.88-23.88V621a23.9,23.9,0,0,0-23.88-23.88Z" transform="translate(-128.02 -90.18)"/></g><g id="gnammy-31" data-name="gnammy"><path class="cls-2" d="M1332.78,589a16.85,16.85,0,1,1,16.85-16.85A16.87,16.87,0,0,1,1332.78,589Z" transform="translate(-128.02 -90.18)"/><path class="cls-11" d="M1332.78,558.71a13.42,13.42,0,1,0,13.42,13.42A13.43,13.43,0,0,0,1332.78,558.71Z" transform="translate(-128.02 -90.18)"/><path class="cls-2" d="M1279.06,678l.69-2.61c2.18-8.2,6.29-24.91,6.29-29.51V621a27.34,27.34,0,0,1,27.31-27.31h38.87A27.34,27.34,0,0,1,1379.52,621v25a27.34,27.34,0,0,1-27.31,27.31h-38.87c-7.79,0-31.39,4.29-31.63,4.34Z" transform="translate(-128.02 -90.18)"/><path class="cls-11" d="M1313.34,597.08A23.9,23.9,0,0,0,1289.47,621v25c0,5-4.07,21.37-5.73,27.8,6.49-1.14,23-3.92,29.6-3.92h38.87a23.9,23.9,0,0,0,23.88-23.88V621a23.9,23.9,0,0,0-23.88-23.88Z" transform="translate(-128.02 -90.18)"/></g><g id="gnammy-32" data-name="gnammy"><path class="cls-2" d="M1682.66,480.14a16.85,16.85,0,1,1,16.85-16.85A16.87,16.87,0,0,1,1682.66,480.14Z" transform="translate(-128.02 -90.18)"/><path class="cls-4" d="M1682.66,449.88a13.42,13.42,0,1,0,13.42,13.42A13.43,13.43,0,0,0,1682.66,449.88Z" transform="translate(-128.02 -90.18)"/><path class="cls-2" d="M1628.94,569.21l.69-2.61c2.18-8.2,6.29-24.91,6.29-29.51v-25a27.34,27.34,0,0,1,27.31-27.31h38.87a27.34,27.34,0,0,1,27.31,27.31v25a27.34,27.34,0,0,1-27.31,27.31h-38.87c-7.79,0-31.39,4.29-31.63,4.34Z" transform="translate(-128.02 -90.18)"/><path class="cls-4" d="M1663.23,488.24a23.9,23.9,0,0,0-23.88,23.88v25c0,5-4.07,21.37-5.73,27.8,6.49-1.14,23-3.92,29.6-3.92h38.87A23.9,23.9,0,0,0,1726,537.09v-25a23.9,23.9,0,0,0-23.88-23.88Z" transform="translate(-128.02 -90.18)"/></g><g id="gnammy-33" data-name="gnammy"><path class="cls-2" d="M1603.39,480.14a16.85,16.85,0,1,1,16.85-16.85A16.87,16.87,0,0,1,1603.39,480.14Z" transform="translate(-128.02 -90.18)"/><path class="cls-6" d="M1603.39,449.88a13.42,13.42,0,1,0,13.42,13.42A13.43,13.43,0,0,0,1603.39,449.88Z" transform="translate(-128.02 -90.18)"/><path class="cls-2" d="M1549.66,569.21l.69-2.61c2.18-8.2,6.29-24.91,6.29-29.51v-25A27.34,27.34,0,0,1,1584,484.81h38.87a27.34,27.34,0,0,1,27.31,27.31v25a27.34,27.34,0,0,1-27.31,27.31H1584c-7.79,0-31.39,4.29-31.63,4.34Z" transform="translate(-128.02 -90.18)"/><path class="cls-6" d="M1584,488.24a23.9,23.9,0,0,0-23.88,23.88v25c0,5-4.07,21.37-5.73,27.8,6.49-1.14,23-3.92,29.6-3.92h38.87a23.9,23.9,0,0,0,23.88-23.88v-25a23.9,23.9,0,0,0-23.88-23.88Z" transform="translate(-128.02 -90.18)"/></g><g id="gnammy-34" data-name="gnammy"><path class="cls-2" d="M1682.66,536.56a16.85,16.85,0,1,1,16.85-16.85A16.87,16.87,0,0,1,1682.66,536.56Z" transform="translate(-128.02 -90.18)"/><path class="cls-7" d="M1682.66,506.3a13.42,13.42,0,1,0,13.42,13.42A13.43,13.43,0,0,0,1682.66,506.3Z" transform="translate(-128.02 -90.18)"/><path class="cls-2" d="M1628.94,625.63l.69-2.61c2.18-8.2,6.29-24.91,6.29-29.51v-25a27.34,27.34,0,0,1,27.31-27.31h38.87a27.34,27.34,0,0,1,27.31,27.31v25a27.34,27.34,0,0,1-27.31,27.31h-38.87c-7.79,0-31.39,4.29-31.63,4.34Z" transform="translate(-128.02 -90.18)"/><path class="cls-7" d="M1663.23,544.66a23.9,23.9,0,0,0-23.88,23.88v25c0,5-4.07,21.37-5.73,27.8,6.49-1.14,23-3.92,29.6-3.92h38.87A23.9,23.9,0,0,0,1726,593.51v-25a23.9,23.9,0,0,0-23.88-23.88Z" transform="translate(-128.02 -90.18)"/></g><g id="gnammy-35" data-name="gnammy"><path class="cls-2" d="M1603.39,536.56a16.85,16.85,0,1,1,16.85-16.85A16.87,16.87,0,0,1,1603.39,536.56Z" transform="translate(-128.02 -90.18)"/><path class="cls-8" d="M1603.39,506.3a13.42,13.42,0,1,0,13.42,13.42A13.43,13.43,0,0,0,1603.39,506.3Z" transform="translate(-128.02 -90.18)"/><path class="cls-2" d="M1549.66,625.63l.69-2.61c2.18-8.2,6.29-24.91,6.29-29.51v-25A27.34,27.34,0,0,1,1584,541.23h38.87a27.34,27.34,0,0,1,27.31,27.31v25a27.34,27.34,0,0,1-27.31,27.31H1584c-7.79,0-31.39,4.29-31.63,4.34Z" transform="translate(-128.02 -90.18)"/><path class="cls-8" d="M1584,544.66a23.9,23.9,0,0,0-23.88,23.88v25c0,5-4.07,21.37-5.73,27.8,6.49-1.14,23-3.92,29.6-3.92h38.87a23.9,23.9,0,0,0,23.88-23.88v-25a23.9,23.9,0,0,0-23.88-23.88Z" transform="translate(-128.02 -90.18)"/></g><g id="gnammy-36" data-name="gnammy"><path class="cls-2" d="M1682.66,593a16.85,16.85,0,1,1,16.85-16.85A16.87,16.87,0,0,1,1682.66,593Z" transform="translate(-128.02 -90.18)"/><path class="cls-10" d="M1682.66,562.72a13.42,13.42,0,1,0,13.42,13.42A13.43,13.43,0,0,0,1682.66,562.72Z" transform="translate(-128.02 -90.18)"/><path class="cls-2" d="M1628.94,682.05l.69-2.61c2.18-8.2,6.29-24.91,6.29-29.51V625a27.34,27.34,0,0,1,27.31-27.31h38.87A27.34,27.34,0,0,1,1729.41,625v25a27.34,27.34,0,0,1-27.31,27.31h-38.87c-7.79,0-31.39,4.29-31.63,4.34Z" transform="translate(-128.02 -90.18)"/><path class="cls-10" d="M1663.23,601.08A23.9,23.9,0,0,0,1639.35,625v25c0,5-4.07,21.37-5.73,27.8,6.49-1.14,23-3.92,29.6-3.92h38.87A23.9,23.9,0,0,0,1726,649.93V625a23.9,23.9,0,0,0-23.88-23.88Z" transform="translate(-128.02 -90.18)"/></g><g id="gnammy-37" data-name="gnammy"><path class="cls-2" d="M1603.39,593a16.85,16.85,0,1,1,16.85-16.85A16.87,16.87,0,0,1,1603.39,593Z" transform="translate(-128.02 -90.18)"/><path class="cls-4" d="M1603.39,562.72a13.42,13.42,0,1,0,13.42,13.42A13.43,13.43,0,0,0,1603.39,562.72Z" transform="translate(-128.02 -90.18)"/><path class="cls-2" d="M1549.66,682.05l.69-2.61c2.18-8.2,6.29-24.91,6.29-29.51V625A27.34,27.34,0,0,1,1584,597.65h38.87A27.34,27.34,0,0,1,1650.13,625v25a27.34,27.34,0,0,1-27.31,27.31H1584c-7.79,0-31.39,4.29-31.63,4.34Z" transform="translate(-128.02 -90.18)"/><path class="cls-4" d="M1584,601.08A23.9,23.9,0,0,0,1560.08,625v25c0,5-4.07,21.37-5.73,27.8,6.49-1.14,23-3.92,29.6-3.92h38.87a23.9,23.9,0,0,0,23.88-23.88V625a23.9,23.9,0,0,0-23.88-23.88Z" transform="translate(-128.02 -90.18)"/></g><g id="gnammy-38" data-name="gnammy"><path class="cls-2" d="M2105.15,192.24A16.85,16.85,0,1,1,2122,175.39,16.87,16.87,0,0,1,2105.15,192.24Z" transform="translate(-128.02 -90.18)"/><path class="cls-3" d="M2105.15,162a13.42,13.42,0,1,0,13.42,13.42A13.43,13.43,0,0,0,2105.15,162Z" transform="translate(-128.02 -90.18)"/><path class="cls-2" d="M2051.43,281.31l.69-2.61c2.18-8.2,6.29-24.91,6.29-29.51v-25a27.34,27.34,0,0,1,27.31-27.31h38.87a27.34,27.34,0,0,1,27.31,27.31v25a27.34,27.34,0,0,1-27.31,27.31h-38.87c-7.79,0-31.39,4.29-31.63,4.34Z" transform="translate(-128.02 -90.18)"/><path class="cls-3" d="M2085.71,200.34a23.9,23.9,0,0,0-23.88,23.88v25c0,5-4.07,21.37-5.73,27.8,6.49-1.14,23-3.92,29.6-3.92h38.87a23.9,23.9,0,0,0,23.88-23.88v-25a23.9,23.9,0,0,0-23.88-23.88Z" transform="translate(-128.02 -90.18)"/></g><g id="gnammy-39" data-name="gnammy"><path class="cls-2" d="M2025.87,192.24a16.85,16.85,0,1,1,16.85-16.85A16.87,16.87,0,0,1,2025.87,192.24Z" transform="translate(-128.02 -90.18)"/><path class="cls-5" d="M2025.87,162a13.42,13.42,0,1,0,13.42,13.42A13.43,13.43,0,0,0,2025.87,162Z" transform="translate(-128.02 -90.18)"/><path class="cls-2" d="M1972.15,281.31l.69-2.61c2.18-8.2,6.29-24.91,6.29-29.51v-25a27.34,27.34,0,0,1,27.31-27.31h38.87a27.34,27.34,0,0,1,27.31,27.31v25a27.34,27.34,0,0,1-27.31,27.31h-38.87c-7.79,0-31.39,4.29-31.63,4.34Z" transform="translate(-128.02 -90.18)"/><path class="cls-5" d="M2006.44,200.34a23.9,23.9,0,0,0-23.88,23.88v25c0,5-4.07,21.37-5.73,27.8,6.49-1.14,23-3.92,29.6-3.92h38.87a23.9,23.9,0,0,0,23.88-23.88v-25a23.9,23.9,0,0,0-23.88-23.88Z" transform="translate(-128.02 -90.18)"/></g><g id="gnammy-40" data-name="gnammy"><path class="cls-2" d="M2105.15,249.64A16.85,16.85,0,1,1,2122,232.79,16.87,16.87,0,0,1,2105.15,249.64Z" transform="translate(-128.02 -90.18)"/><path class="cls-4" d="M2105.15,219.38a13.42,13.42,0,1,0,13.42,13.42A13.43,13.43,0,0,0,2105.15,219.38Z" transform="translate(-128.02 -90.18)"/><path class="cls-2" d="M2051.43,338.71l.69-2.61c2.18-8.2,6.29-24.91,6.29-29.51v-25a27.34,27.34,0,0,1,27.31-27.31h38.87a27.34,27.34,0,0,1,27.31,27.31v25a27.34,27.34,0,0,1-27.31,27.31h-38.87c-7.79,0-31.39,4.29-31.63,4.34Z" transform="translate(-128.02 -90.18)"/><path class="cls-4" d="M2085.71,257.74a23.9,23.9,0,0,0-23.88,23.88v25c0,5-4.07,21.37-5.73,27.8,6.49-1.14,23-3.92,29.6-3.92h38.87a23.9,23.9,0,0,0,23.88-23.88v-25a23.9,23.9,0,0,0-23.88-23.88Z" transform="translate(-128.02 -90.18)"/></g><g id="gnammy-41" data-name="gnammy"><path class="cls-2" d="M2025.87,249.64a16.85,16.85,0,1,1,16.85-16.85A16.87,16.87,0,0,1,2025.87,249.64Z" transform="translate(-128.02 -90.18)"/><path class="cls-6" d="M2025.87,219.38a13.42,13.42,0,1,0,13.42,13.42A13.43,13.43,0,0,0,2025.87,219.38Z" transform="translate(-128.02 -90.18)"/><path class="cls-2" d="M1972.15,338.71l.69-2.61c2.18-8.2,6.29-24.91,6.29-29.51v-25a27.34,27.34,0,0,1,27.31-27.31h38.87a27.34,27.34,0,0,1,27.31,27.31v25a27.34,27.34,0,0,1-27.31,27.31h-38.87c-7.79,0-31.39,4.29-31.63,4.34Z" transform="translate(-128.02 -90.18)"/><path class="cls-6" d="M2006.44,257.74a23.9,23.9,0,0,0-23.88,23.88v25c0,5-4.07,21.37-5.73,27.8,6.49-1.14,23-3.92,29.6-3.92h38.87a23.9,23.9,0,0,0,23.88-23.88v-25a23.9,23.9,0,0,0-23.88-23.88Z" transform="translate(-128.02 -90.18)"/></g><g id="gnammy-42" data-name="gnammy"><path class="cls-2" d="M2105.15,306.06A16.85,16.85,0,1,1,2122,289.21,16.87,16.87,0,0,1,2105.15,306.06Z" transform="translate(-128.02 -90.18)"/><path class="cls-7" d="M2105.15,275.8a13.42,13.42,0,1,0,13.42,13.42A13.43,13.43,0,0,0,2105.15,275.8Z" transform="translate(-128.02 -90.18)"/><path class="cls-2" d="M2051.43,395.13l.69-2.61c2.18-8.2,6.29-24.91,6.29-29.51V338a27.34,27.34,0,0,1,27.31-27.31h38.87A27.34,27.34,0,0,1,2151.89,338v25a27.34,27.34,0,0,1-27.31,27.31h-38.87c-7.79,0-31.39,4.29-31.63,4.34Z" transform="translate(-128.02 -90.18)"/><path class="cls-7" d="M2085.71,314.16A23.9,23.9,0,0,0,2061.84,338v25c0,5-4.07,21.37-5.73,27.8,6.49-1.14,23-3.92,29.6-3.92h38.87A23.9,23.9,0,0,0,2148.46,363V338a23.9,23.9,0,0,0-23.88-23.88Z" transform="translate(-128.02 -90.18)"/></g><g id="gnammy-43" data-name="gnammy"><path class="cls-2" d="M2025.87,306.06a16.85,16.85,0,1,1,16.85-16.85A16.87,16.87,0,0,1,2025.87,306.06Z" transform="translate(-128.02 -90.18)"/><path class="cls-8" d="M2025.87,275.8a13.42,13.42,0,1,0,13.42,13.42A13.43,13.43,0,0,0,2025.87,275.8Z" transform="translate(-128.02 -90.18)"/><path class="cls-2" d="M1972.15,395.13l.69-2.61c2.18-8.2,6.29-24.91,6.29-29.51V338a27.34,27.34,0,0,1,27.31-27.31h38.87A27.34,27.34,0,0,1,2072.61,338v25a27.34,27.34,0,0,1-27.31,27.31h-38.87c-7.79,0-31.39,4.29-31.63,4.34Z" transform="translate(-128.02 -90.18)"/><path class="cls-8" d="M2006.44,314.16A23.9,23.9,0,0,0,1982.56,338v25c0,5-4.07,21.37-5.73,27.8,6.49-1.14,23-3.92,29.6-3.92h38.87A23.9,23.9,0,0,0,2069.18,363V338a23.9,23.9,0,0,0-23.88-23.88Z" transform="translate(-128.02 -90.18)"/></g><g id="gnammy-44" data-name="gnammy"><path class="cls-2" d="M2105.15,362.48A16.85,16.85,0,1,1,2122,345.63,16.87,16.87,0,0,1,2105.15,362.48Z" transform="translate(-128.02 -90.18)"/><path class="cls-10" d="M2105.15,332.22a13.42,13.42,0,1,0,13.42,13.42A13.43,13.43,0,0,0,2105.15,332.22Z" transform="translate(-128.02 -90.18)"/><path class="cls-2" d="M2051.43,451.55l.69-2.61c2.18-8.2,6.29-24.91,6.29-29.51v-25a27.34,27.34,0,0,1,27.31-27.31h38.87a27.34,27.34,0,0,1,27.31,27.31v25a27.34,27.34,0,0,1-27.31,27.31h-38.87c-7.79,0-31.39,4.29-31.63,4.34Z" transform="translate(-128.02 -90.18)"/><path class="cls-10" d="M2085.71,370.58a23.9,23.9,0,0,0-23.88,23.88v25c0,5-4.07,21.37-5.73,27.8,6.49-1.14,23-3.92,29.6-3.92h38.87a23.9,23.9,0,0,0,23.88-23.88v-25a23.9,23.9,0,0,0-23.88-23.88Z" transform="translate(-128.02 -90.18)"/></g><g id="gnammy-45" data-name="gnammy"><path class="cls-2" d="M2025.87,362.48a16.85,16.85,0,1,1,16.85-16.85A16.87,16.87,0,0,1,2025.87,362.48Z" transform="translate(-128.02 -90.18)"/><path class="cls-11" d="M2025.87,332.22a13.42,13.42,0,1,0,13.42,13.42A13.43,13.43,0,0,0,2025.87,332.22Z" transform="translate(-128.02 -90.18)"/><path class="cls-2" d="M1972.15,451.55l.69-2.61c2.18-8.2,6.29-24.91,6.29-29.51v-25a27.34,27.34,0,0,1,27.31-27.31h38.87a27.34,27.34,0,0,1,27.31,27.31v25a27.34,27.34,0,0,1-27.31,27.31h-38.87c-7.79,0-31.39,4.29-31.63,4.34Z" transform="translate(-128.02 -90.18)"/><path class="cls-11" d="M2006.44,370.58a23.9,23.9,0,0,0-23.88,23.88v25c0,5-4.07,21.37-5.73,27.8,6.49-1.14,23-3.92,29.6-3.92h38.87a23.9,23.9,0,0,0,23.88-23.88v-25a23.9,23.9,0,0,0-23.88-23.88Z" transform="translate(-128.02 -90.18)"/></g><g id="gnammy-46" data-name="gnammy"><path class="cls-2" d="M2105.15,418.73A16.85,16.85,0,1,1,2122,401.89,16.87,16.87,0,0,1,2105.15,418.73Z" transform="translate(-128.02 -90.18)"/><path class="cls-3" d="M2105.15,388.47a13.42,13.42,0,1,0,13.42,13.42A13.43,13.43,0,0,0,2105.15,388.47Z" transform="translate(-128.02 -90.18)"/><path class="cls-2" d="M2051.43,507.81l.69-2.61c2.18-8.2,6.29-24.91,6.29-29.51v-25a27.34,27.34,0,0,1,27.31-27.31h38.87a27.34,27.34,0,0,1,27.31,27.31v25A27.34,27.34,0,0,1,2124.58,503h-38.87c-7.79,0-31.39,4.29-31.63,4.34Z" transform="translate(-128.02 -90.18)"/><path class="cls-3" d="M2085.71,426.83a23.9,23.9,0,0,0-23.88,23.88v25c0,5-4.07,21.37-5.73,27.8,6.49-1.14,23-3.92,29.6-3.92h38.87a23.9,23.9,0,0,0,23.88-23.88v-25a23.9,23.9,0,0,0-23.88-23.88Z" transform="translate(-128.02 -90.18)"/></g><g id="gnammy-47" data-name="gnammy"><path class="cls-2" d="M2025.87,418.73a16.85,16.85,0,1,1,16.85-16.85A16.87,16.87,0,0,1,2025.87,418.73Z" transform="translate(-128.02 -90.18)"/><path class="cls-5" d="M2025.87,388.47a13.42,13.42,0,1,0,13.42,13.42A13.43,13.43,0,0,0,2025.87,388.47Z" transform="translate(-128.02 -90.18)"/><path class="cls-2" d="M1972.15,507.81l.69-2.61c2.18-8.2,6.29-24.91,6.29-29.51v-25a27.34,27.34,0,0,1,27.31-27.31h38.87a27.34,27.34,0,0,1,27.31,27.31v25A27.34,27.34,0,0,1,2045.31,503h-38.87c-7.79,0-31.39,4.29-31.63,4.34Z" transform="translate(-128.02 -90.18)"/><path class="cls-5" d="M2006.44,426.83a23.9,23.9,0,0,0-23.88,23.88v25c0,5-4.07,21.37-5.73,27.8,6.49-1.14,23-3.92,29.6-3.92h38.87a23.9,23.9,0,0,0,23.88-23.88v-25a23.9,23.9,0,0,0-23.88-23.88Z" transform="translate(-128.02 -90.18)"/></g><g id="gnammy-48" data-name="gnammy"><path class="cls-2" d="M2105.15,476.13A16.85,16.85,0,1,1,2122,459.29,16.87,16.87,0,0,1,2105.15,476.13Z" transform="translate(-128.02 -90.18)"/><path class="cls-4" d="M2105.15,445.87a13.42,13.42,0,1,0,13.42,13.42A13.43,13.43,0,0,0,2105.15,445.87Z" transform="translate(-128.02 -90.18)"/><path class="cls-2" d="M2051.43,565.21l.69-2.61c2.18-8.2,6.29-24.91,6.29-29.51v-25a27.34,27.34,0,0,1,27.31-27.31h38.87a27.34,27.34,0,0,1,27.31,27.31v25a27.34,27.34,0,0,1-27.31,27.31h-38.87c-7.79,0-31.39,4.29-31.63,4.34Z" transform="translate(-128.02 -90.18)"/><path class="cls-4" d="M2085.71,484.23a23.9,23.9,0,0,0-23.88,23.88v25c0,5-4.07,21.37-5.73,27.8,6.49-1.14,23-3.92,29.6-3.92h38.87a23.9,23.9,0,0,0,23.88-23.88v-25a23.9,23.9,0,0,0-23.88-23.88Z" transform="translate(-128.02 -90.18)"/></g><g id="gnammy-49" data-name="gnammy"><path class="cls-2" d="M2025.87,476.13a16.85,16.85,0,1,1,16.85-16.85A16.87,16.87,0,0,1,2025.87,476.13Z" transform="translate(-128.02 -90.18)"/><path class="cls-6" d="M2025.87,445.87a13.42,13.42,0,1,0,13.42,13.42A13.43,13.43,0,0,0,2025.87,445.87Z" transform="translate(-128.02 -90.18)"/><path class="cls-2" d="M1972.15,565.21l.69-2.61c2.18-8.2,6.29-24.91,6.29-29.51v-25a27.34,27.34,0,0,1,27.31-27.31h38.87a27.34,27.34,0,0,1,27.31,27.31v25a27.34,27.34,0,0,1-27.31,27.31h-38.87c-7.79,0-31.39,4.29-31.63,4.34Z" transform="translate(-128.02 -90.18)"/><path class="cls-6" d="M2006.44,484.23a23.9,23.9,0,0,0-23.88,23.88v25c0,5-4.07,21.37-5.73,27.8,6.49-1.14,23-3.92,29.6-3.92h38.87a23.9,23.9,0,0,0,23.88-23.88v-25a23.9,23.9,0,0,0-23.88-23.88Z" transform="translate(-128.02 -90.18)"/></g><g id="gnammy-50" data-name="gnammy"><path class="cls-2" d="M2105.15,532.55A16.85,16.85,0,1,1,2122,515.71,16.87,16.87,0,0,1,2105.15,532.55Z" transform="translate(-128.02 -90.18)"/><path class="cls-7" d="M2105.15,502.29a13.42,13.42,0,1,0,13.42,13.42A13.43,13.43,0,0,0,2105.15,502.29Z" transform="translate(-128.02 -90.18)"/><path class="cls-2" d="M2051.43,621.63l.69-2.61c2.18-8.2,6.29-24.91,6.29-29.51v-25a27.34,27.34,0,0,1,27.31-27.31h38.87a27.34,27.34,0,0,1,27.31,27.31v25a27.34,27.34,0,0,1-27.31,27.31h-38.87c-7.79,0-31.39,4.29-31.63,4.34Z" transform="translate(-128.02 -90.18)"/><path class="cls-7" d="M2085.71,540.66a23.9,23.9,0,0,0-23.88,23.88v25c0,5-4.07,21.37-5.73,27.8,6.49-1.14,23-3.92,29.6-3.92h38.87a23.9,23.9,0,0,0,23.88-23.88v-25a23.9,23.9,0,0,0-23.88-23.88Z" transform="translate(-128.02 -90.18)"/></g><g id="gnammy-51" data-name="gnammy"><path class="cls-2" d="M2025.87,532.55a16.85,16.85,0,1,1,16.85-16.85A16.87,16.87,0,0,1,2025.87,532.55Z" transform="translate(-128.02 -90.18)"/><path class="cls-8" d="M2025.87,502.29a13.42,13.42,0,1,0,13.42,13.42A13.43,13.43,0,0,0,2025.87,502.29Z" transform="translate(-128.02 -90.18)"/><path class="cls-2" d="M1972.15,621.63l.69-2.61c2.18-8.2,6.29-24.91,6.29-29.51v-25a27.34,27.34,0,0,1,27.31-27.31h38.87a27.34,27.34,0,0,1,27.31,27.31v25a27.34,27.34,0,0,1-27.31,27.31h-38.87c-7.79,0-31.39,4.29-31.63,4.34Z" transform="translate(-128.02 -90.18)"/><path class="cls-8" d="M2006.44,540.66a23.9,23.9,0,0,0-23.88,23.88v25c0,5-4.07,21.37-5.73,27.8,6.49-1.14,23-3.92,29.6-3.92h38.87a23.9,23.9,0,0,0,23.88-23.88v-25a23.9,23.9,0,0,0-23.88-23.88Z" transform="translate(-128.02 -90.18)"/></g><g id="gnammy-52" data-name="gnammy"><path class="cls-2" d="M2105.15,589A16.85,16.85,0,1,1,2122,572.13,16.87,16.87,0,0,1,2105.15,589Z" transform="translate(-128.02 -90.18)"/><path class="cls-10" d="M2105.15,558.71a13.42,13.42,0,1,0,13.42,13.42A13.43,13.43,0,0,0,2105.15,558.71Z" transform="translate(-128.02 -90.18)"/><path class="cls-2" d="M2051.43,678l.69-2.61c2.18-8.2,6.29-24.91,6.29-29.51V621a27.34,27.34,0,0,1,27.31-27.31h38.87A27.34,27.34,0,0,1,2151.89,621v25a27.34,27.34,0,0,1-27.31,27.31h-38.87c-7.79,0-31.39,4.29-31.63,4.34Z" transform="translate(-128.02 -90.18)"/><path class="cls-10" d="M2085.71,597.08A23.9,23.9,0,0,0,2061.84,621v25c0,5-4.07,21.37-5.73,27.8,6.49-1.14,23-3.92,29.6-3.92h38.87a23.9,23.9,0,0,0,23.88-23.88V621a23.9,23.9,0,0,0-23.88-23.88Z" transform="translate(-128.02 -90.18)"/></g><g id="gnammy-53" data-name="gnammy"><path class="cls-2" d="M2025.87,589a16.85,16.85,0,1,1,16.85-16.85A16.87,16.87,0,0,1,2025.87,589Z" transform="translate(-128.02 -90.18)"/><path class="cls-11" d="M2025.87,558.71a13.42,13.42,0,1,0,13.42,13.42A13.43,13.43,0,0,0,2025.87,558.71Z" transform="translate(-128.02 -90.18)"/><path class="cls-2" d="M1972.15,678l.69-2.61c2.18-8.2,6.29-24.91,6.29-29.51V621a27.34,27.34,0,0,1,27.31-27.31h38.87A27.34,27.34,0,0,1,2072.61,621v25a27.34,27.34,0,0,1-27.31,27.31h-38.87c-7.79,0-31.39,4.29-31.63,4.34Z" transform="translate(-128.02 -90.18)"/><path class="cls-11" d="M2006.44,597.08A23.9,23.9,0,0,0,1982.56,621v25c0,5-4.07,21.37-5.73,27.8,6.49-1.14,23-3.92,29.6-3.92h38.87a23.9,23.9,0,0,0,23.88-23.88V621a23.9,23.9,0,0,0-23.88-23.88Z" transform="translate(-128.02 -90.18)"/></g><g id="gnammy-54" data-name="gnammy"><path class="cls-2" d="M815.57,480.14a16.85,16.85,0,1,1,16.85-16.85A16.87,16.87,0,0,1,815.57,480.14Z" transform="translate(-128.02 -90.18)"/><path class="cls-4" d="M815.57,449.88A13.42,13.42,0,1,0,829,463.29,13.43,13.43,0,0,0,815.57,449.88Z" transform="translate(-128.02 -90.18)"/><path class="cls-2" d="M761.84,569.21l.69-2.61c2.18-8.2,6.29-24.91,6.29-29.51v-25a27.34,27.34,0,0,1,27.31-27.31H835a27.34,27.34,0,0,1,27.31,27.31v25A27.34,27.34,0,0,1,835,564.39H796.13c-7.79,0-31.39,4.29-31.63,4.34Z" transform="translate(-128.02 -90.18)"/><path class="cls-4" d="M796.13,488.24a23.9,23.9,0,0,0-23.88,23.88v25c0,5-4.07,21.37-5.73,27.8,6.49-1.14,23-3.92,29.6-3.92H835a23.9,23.9,0,0,0,23.88-23.88v-25A23.9,23.9,0,0,0,835,488.24Z" transform="translate(-128.02 -90.18)"/></g><g id="gnammy-55" data-name="gnammy"><path class="cls-2" d="M815.57,536.56a16.85,16.85,0,1,1,16.85-16.85A16.87,16.87,0,0,1,815.57,536.56Z" transform="translate(-128.02 -90.18)"/><path class="cls-7" d="M815.57,506.3A13.42,13.42,0,1,0,829,519.71,13.43,13.43,0,0,0,815.57,506.3Z" transform="translate(-128.02 -90.18)"/><path class="cls-2" d="M761.84,625.63l.69-2.61c2.18-8.2,6.29-24.91,6.29-29.51v-25a27.34,27.34,0,0,1,27.31-27.31H835a27.34,27.34,0,0,1,27.31,27.31v25A27.34,27.34,0,0,1,835,620.81H796.13c-7.79,0-31.39,4.29-31.63,4.34Z" transform="translate(-128.02 -90.18)"/><path class="cls-7" d="M796.13,544.66a23.9,23.9,0,0,0-23.88,23.88v25c0,5-4.07,21.37-5.73,27.8,6.49-1.14,23-3.92,29.6-3.92H835a23.9,23.9,0,0,0,23.88-23.88v-25A23.9,23.9,0,0,0,835,544.66Z" transform="translate(-128.02 -90.18)"/></g><g id="gnammy-56" data-name="gnammy"><path class="cls-2" d="M815.57,593a16.85,16.85,0,1,1,16.85-16.85A16.87,16.87,0,0,1,815.57,593Z" transform="translate(-128.02 -90.18)"/><path class="cls-5" d="M815.57,562.72A13.42,13.42,0,1,0,829,576.13,13.43,13.43,0,0,0,815.57,562.72Z" transform="translate(-128.02 -90.18)"/><path class="cls-2" d="M761.84,682.05l.69-2.61c2.18-8.2,6.29-24.91,6.29-29.51V625a27.34,27.34,0,0,1,27.31-27.31H835A27.34,27.34,0,0,1,862.31,625v25A27.34,27.34,0,0,1,835,677.23H796.13c-7.79,0-31.39,4.29-31.63,4.34Z" transform="translate(-128.02 -90.18)"/><path class="cls-5" d="M796.13,601.08A23.9,23.9,0,0,0,772.25,625v25c0,5-4.07,21.37-5.73,27.8,6.49-1.14,23-3.92,29.6-3.92H835a23.9,23.9,0,0,0,23.88-23.88V625A23.9,23.9,0,0,0,835,601.08Z" transform="translate(-128.02 -90.18)"/></g><g id="gnammy-57" data-name="gnammy"><path class="cls-2" d="M2543.56,476.13a16.85,16.85,0,1,1,16.85-16.85A16.87,16.87,0,0,1,2543.56,476.13Z" transform="translate(-128.02 -90.18)"/><path class="cls-3" d="M2543.56,445.87A13.42,13.42,0,1,0,2557,459.29,13.43,13.43,0,0,0,2543.56,445.87Z" transform="translate(-128.02 -90.18)"/><path class="cls-2" d="M2489.84,565.21l.69-2.61c2.18-8.2,6.29-24.91,6.29-29.51v-25a27.34,27.34,0,0,1,27.31-27.31H2563a27.34,27.34,0,0,1,27.31,27.31v25A27.34,27.34,0,0,1,2563,560.39h-38.87c-7.79,0-31.39,4.29-31.63,4.34Z" transform="translate(-128.02 -90.18)"/><path class="cls-3" d="M2524.13,484.23a23.9,23.9,0,0,0-23.88,23.88v25c0,5-4.07,21.37-5.73,27.8,6.49-1.14,23-3.92,29.6-3.92H2563a23.9,23.9,0,0,0,23.88-23.88v-25A23.9,23.9,0,0,0,2563,484.23Z" transform="translate(-128.02 -90.18)"/></g><g id="gnammy-58" data-name="gnammy"><path class="cls-2" d="M2465.55,476.13a16.85,16.85,0,1,1,16.85-16.85A16.87,16.87,0,0,1,2465.55,476.13Z" transform="translate(-128.02 -90.18)"/><path class="cls-5" d="M2465.55,445.87A13.42,13.42,0,1,0,2479,459.29,13.43,13.43,0,0,0,2465.55,445.87Z" transform="translate(-128.02 -90.18)"/><path class="cls-2" d="M2411.83,565.21l.69-2.61c2.18-8.2,6.29-24.91,6.29-29.51v-25a27.34,27.34,0,0,1,27.31-27.31H2485a27.34,27.34,0,0,1,27.31,27.31v25A27.34,27.34,0,0,1,2485,560.39h-38.87c-7.79,0-31.39,4.29-31.63,4.34Z" transform="translate(-128.02 -90.18)"/><path class="cls-5" d="M2446.12,484.23a23.9,23.9,0,0,0-23.88,23.88v25c0,5-4.07,21.37-5.73,27.8,6.49-1.14,23-3.92,29.6-3.92H2485a23.9,23.9,0,0,0,23.88-23.88v-25A23.9,23.9,0,0,0,2485,484.23Z" transform="translate(-128.02 -90.18)"/></g><g id="gnammy-59" data-name="gnammy"><path class="cls-2" d="M2386.28,476.13a16.85,16.85,0,1,1,16.85-16.85A16.87,16.87,0,0,1,2386.28,476.13Z" transform="translate(-128.02 -90.18)"/><path class="cls-6" d="M2386.28,445.87a13.42,13.42,0,1,0,13.42,13.42A13.43,13.43,0,0,0,2386.28,445.87Z" transform="translate(-128.02 -90.18)"/><path class="cls-2" d="M2332.55,565.21l.69-2.61c2.18-8.2,6.29-24.91,6.29-29.51v-25a27.34,27.34,0,0,1,27.31-27.31h38.87A27.34,27.34,0,0,1,2433,508.11v25a27.34,27.34,0,0,1-27.31,27.31h-38.87c-7.79,0-31.39,4.29-31.63,4.34Z" transform="translate(-128.02 -90.18)"/><path class="cls-6" d="M2366.84,484.23A23.9,23.9,0,0,0,2343,508.11v25c0,5-4.07,21.37-5.73,27.8,6.49-1.14,23-3.92,29.6-3.92h38.87a23.9,23.9,0,0,0,23.88-23.88v-25a23.9,23.9,0,0,0-23.88-23.88Z" transform="translate(-128.02 -90.18)"/></g><g id="gnammy-60" data-name="gnammy"><path class="cls-2" d="M2543.56,532.55a16.85,16.85,0,1,1,16.85-16.85A16.87,16.87,0,0,1,2543.56,532.55Z" transform="translate(-128.02 -90.18)"/><path class="cls-7" d="M2543.56,502.29A13.42,13.42,0,1,0,2557,515.71,13.43,13.43,0,0,0,2543.56,502.29Z" transform="translate(-128.02 -90.18)"/><path class="cls-2" d="M2489.84,621.63l.69-2.61c2.18-8.2,6.29-24.91,6.29-29.51v-25a27.34,27.34,0,0,1,27.31-27.31H2563a27.34,27.34,0,0,1,27.31,27.31v25A27.34,27.34,0,0,1,2563,616.81h-38.87c-7.79,0-31.39,4.29-31.63,4.34Z" transform="translate(-128.02 -90.18)"/><path class="cls-7" d="M2524.13,540.66a23.9,23.9,0,0,0-23.88,23.88v25c0,5-4.07,21.37-5.73,27.8,6.49-1.14,23-3.92,29.6-3.92H2563a23.9,23.9,0,0,0,23.88-23.88v-25A23.9,23.9,0,0,0,2563,540.66Z" transform="translate(-128.02 -90.18)"/></g><g id="gnammy-61" data-name="gnammy"><path class="cls-2" d="M2465.55,532.55a16.85,16.85,0,1,1,16.85-16.85A16.87,16.87,0,0,1,2465.55,532.55Z" transform="translate(-128.02 -90.18)"/><path class="cls-8" d="M2465.55,502.29A13.42,13.42,0,1,0,2479,515.71,13.43,13.43,0,0,0,2465.55,502.29Z" transform="translate(-128.02 -90.18)"/><path class="cls-2" d="M2411.83,621.63l.69-2.61c2.18-8.2,6.29-24.91,6.29-29.51v-25a27.34,27.34,0,0,1,27.31-27.31H2485a27.34,27.34,0,0,1,27.31,27.31v25A27.34,27.34,0,0,1,2485,616.81h-38.87c-7.79,0-31.39,4.29-31.63,4.34Z" transform="translate(-128.02 -90.18)"/><path class="cls-8" d="M2446.12,540.66a23.9,23.9,0,0,0-23.88,23.88v25c0,5-4.07,21.37-5.73,27.8,6.49-1.14,23-3.92,29.6-3.92H2485a23.9,23.9,0,0,0,23.88-23.88v-25A23.9,23.9,0,0,0,2485,540.66Z" transform="translate(-128.02 -90.18)"/></g><g id="gnammy-62" data-name="gnammy"><path class="cls-2" d="M2386.28,532.55a16.85,16.85,0,1,1,16.85-16.85A16.87,16.87,0,0,1,2386.28,532.55Z" transform="translate(-128.02 -90.18)"/><path class="cls-4" d="M2386.28,502.29a13.42,13.42,0,1,0,13.42,13.42A13.43,13.43,0,0,0,2386.28,502.29Z" transform="translate(-128.02 -90.18)"/><path class="cls-2" d="M2332.55,621.63l.69-2.61c2.18-8.2,6.29-24.91,6.29-29.51v-25a27.34,27.34,0,0,1,27.31-27.31h38.87A27.34,27.34,0,0,1,2433,564.53v25a27.34,27.34,0,0,1-27.31,27.31h-38.87c-7.79,0-31.39,4.29-31.63,4.34Z" transform="translate(-128.02 -90.18)"/><path class="cls-4" d="M2366.84,540.66A23.9,23.9,0,0,0,2343,564.53v25c0,5-4.07,21.37-5.73,27.8,6.49-1.14,23-3.92,29.6-3.92h38.87a23.9,23.9,0,0,0,23.88-23.88v-25a23.9,23.9,0,0,0-23.88-23.88Z" transform="translate(-128.02 -90.18)"/></g><g id="gnammy-63" data-name="gnammy"><path class="cls-2" d="M2543.56,589a16.85,16.85,0,1,1,16.85-16.85A16.87,16.87,0,0,1,2543.56,589Z" transform="translate(-128.02 -90.18)"/><path class="cls-13" d="M2543.56,558.71A13.42,13.42,0,1,0,2557,572.13,13.43,13.43,0,0,0,2543.56,558.71Z" transform="translate(-128.02 -90.18)"/><path class="cls-2" d="M2489.84,678l.69-2.61c2.18-8.2,6.29-24.91,6.29-29.51V621a27.34,27.34,0,0,1,27.31-27.31H2563A27.34,27.34,0,0,1,2590.31,621v25A27.34,27.34,0,0,1,2563,673.23h-38.87c-7.79,0-31.39,4.29-31.63,4.34Z" transform="translate(-128.02 -90.18)"/><path class="cls-13" d="M2524.13,597.08A23.9,23.9,0,0,0,2500.25,621v25c0,5-4.07,21.37-5.73,27.8,6.49-1.14,23-3.92,29.6-3.92H2563a23.9,23.9,0,0,0,23.88-23.88V621A23.9,23.9,0,0,0,2563,597.08Z" transform="translate(-128.02 -90.18)"/></g><g id="gnammy-64" data-name="gnammy"><path class="cls-2" d="M2465.55,589a16.85,16.85,0,1,1,16.85-16.85A16.87,16.87,0,0,1,2465.55,589Z" transform="translate(-128.02 -90.18)"/><path class="cls-10" d="M2465.55,558.71A13.42,13.42,0,1,0,2479,572.13,13.43,13.43,0,0,0,2465.55,558.71Z" transform="translate(-128.02 -90.18)"/><path class="cls-2" d="M2411.83,678l.69-2.61c2.18-8.2,6.29-24.91,6.29-29.51V621a27.34,27.34,0,0,1,27.31-27.31H2485A27.34,27.34,0,0,1,2512.3,621v25A27.34,27.34,0,0,1,2485,673.23h-38.87c-7.79,0-31.39,4.29-31.63,4.34Z" transform="translate(-128.02 -90.18)"/><path class="cls-10" d="M2446.12,597.08A23.9,23.9,0,0,0,2422.24,621v25c0,5-4.07,21.37-5.73,27.8,6.49-1.14,23-3.92,29.6-3.92H2485a23.9,23.9,0,0,0,23.88-23.88V621A23.9,23.9,0,0,0,2485,597.08Z" transform="translate(-128.02 -90.18)"/></g><g id="gnammy-65" data-name="gnammy"><path class="cls-2" d="M2386.28,589a16.85,16.85,0,1,1,16.85-16.85A16.87,16.87,0,0,1,2386.28,589Z" transform="translate(-128.02 -90.18)"/><path class="cls-11" d="M2386.28,558.71a13.42,13.42,0,1,0,13.42,13.42A13.43,13.43,0,0,0,2386.28,558.71Z" transform="translate(-128.02 -90.18)"/><path class="cls-2" d="M2332.55,678l.69-2.61c2.18-8.2,6.29-24.91,6.29-29.51V621a27.34,27.34,0,0,1,27.31-27.31h38.87A27.34,27.34,0,0,1,2433,621v25a27.34,27.34,0,0,1-27.31,27.31h-38.87c-7.79,0-31.39,4.29-31.63,4.34Z" transform="translate(-128.02 -90.18)"/><path class="cls-11" d="M2366.84,597.08A23.9,23.9,0,0,0,2343,621v25c0,5-4.07,21.37-5.73,27.8,6.49-1.14,23-3.92,29.6-3.92h38.87a23.9,23.9,0,0,0,23.88-23.88V621a23.9,23.9,0,0,0-23.88-23.88Z" transform="translate(-128.02 -90.18)"/></g><g id="gnammy-66" data-name="gnammy"><path class="cls-2" d="M470,488a16.85,16.85,0,1,1,16.85-16.85A16.87,16.87,0,0,1,470,488Z" transform="translate(-128.02 -90.18)"/><path class="cls-10" d="M470,457.75a13.42,13.42,0,1,0,13.42,13.42A13.43,13.43,0,0,0,470,457.75Z" transform="translate(-128.02 -90.18)"/><path class="cls-2" d="M416.27,577.09l.69-2.61c2.18-8.2,6.29-24.91,6.29-29.51V520a27.34,27.34,0,0,1,27.31-27.31h38.87A27.34,27.34,0,0,1,516.74,520v25a27.34,27.34,0,0,1-27.31,27.31H450.56c-7.79,0-31.39,4.29-31.63,4.34Z" transform="translate(-128.02 -90.18)"/><path class="cls-10" d="M450.56,496.12A23.9,23.9,0,0,0,426.69,520v25c0,5-4.07,21.37-5.73,27.8,6.49-1.14,23-3.92,29.6-3.92h38.87A23.9,23.9,0,0,0,513.31,545V520a23.9,23.9,0,0,0-23.88-23.88Z" transform="translate(-128.02 -90.18)"/></g><g id="gnammy-67" data-name="gnammy"><path class="cls-2" d="M390.72,488a16.85,16.85,0,1,1,16.85-16.85A16.87,16.87,0,0,1,390.72,488Z" transform="translate(-128.02 -90.18)"/><path class="cls-11" d="M390.72,457.75a13.42,13.42,0,1,0,13.42,13.42A13.43,13.43,0,0,0,390.72,457.75Z" transform="translate(-128.02 -90.18)"/><path class="cls-2" d="M337,577.09l.69-2.61c2.18-8.2,6.29-24.91,6.29-29.51V520a27.34,27.34,0,0,1,27.31-27.31h38.87A27.34,27.34,0,0,1,437.46,520v25a27.34,27.34,0,0,1-27.31,27.31H371.28c-7.79,0-31.39,4.29-31.63,4.34Z" transform="translate(-128.02 -90.18)"/><path class="cls-11" d="M371.28,496.12A23.9,23.9,0,0,0,347.41,520v25c0,5-4.07,21.37-5.73,27.8,6.49-1.14,23-3.92,29.6-3.92h38.87A23.9,23.9,0,0,0,434,545V520a23.9,23.9,0,0,0-23.88-23.88Z" transform="translate(-128.02 -90.18)"/></g><g id="gnammy-68" data-name="gnammy"><path class="cls-2" d="M470,538.5a16.85,16.85,0,1,1,16.85-16.85A16.87,16.87,0,0,1,470,538.5Z" transform="translate(-128.02 -90.18)"/><path class="cls-5" d="M470,508.23a13.42,13.42,0,1,0,13.42,13.42A13.43,13.43,0,0,0,470,508.23Z" transform="translate(-128.02 -90.18)"/><path class="cls-2" d="M416.27,627.57,417,625c2.18-8.2,6.29-24.91,6.29-29.51v-25a27.34,27.34,0,0,1,27.31-27.31h38.87a27.34,27.34,0,0,1,27.31,27.31v25a27.34,27.34,0,0,1-27.31,27.31H450.56c-7.79,0-31.39,4.29-31.63,4.34Z" transform="translate(-128.02 -90.18)"/><path class="cls-5" d="M450.56,546.6a23.9,23.9,0,0,0-23.88,23.88v25c0,5-4.07,21.37-5.73,27.8,6.49-1.14,23-3.92,29.6-3.92h38.87a23.9,23.9,0,0,0,23.88-23.88v-25a23.9,23.9,0,0,0-23.88-23.88Z" transform="translate(-128.02 -90.18)"/></g><g id="gnammy-69" data-name="gnammy"><path class="cls-2" d="M390.72,538.5a16.85,16.85,0,1,1,16.85-16.85A16.87,16.87,0,0,1,390.72,538.5Z" transform="translate(-128.02 -90.18)"/><path class="cls-6" d="M390.72,508.23a13.42,13.42,0,1,0,13.42,13.42A13.43,13.43,0,0,0,390.72,508.23Z" transform="translate(-128.02 -90.18)"/><path class="cls-2" d="M337,627.57l.69-2.61c2.18-8.2,6.29-24.91,6.29-29.51v-25a27.34,27.34,0,0,1,27.31-27.31h38.87a27.34,27.34,0,0,1,27.31,27.31v25a27.34,27.34,0,0,1-27.31,27.31H371.28c-7.79,0-31.39,4.29-31.63,4.34Z" transform="translate(-128.02 -90.18)"/><path class="cls-6" d="M371.28,546.6a23.9,23.9,0,0,0-23.88,23.88v25c0,5-4.07,21.37-5.73,27.8,6.49-1.14,23-3.92,29.6-3.92h38.87A23.9,23.9,0,0,0,434,595.44v-25a23.9,23.9,0,0,0-23.88-23.88Z" transform="translate(-128.02 -90.18)"/></g><g id="gnammy-70" data-name="gnammy"><path class="cls-2" d="M470,589a16.85,16.85,0,1,1,16.85-16.85A16.87,16.87,0,0,1,470,589Z" transform="translate(-128.02 -90.18)"/><path class="cls-8" d="M470,558.71a13.42,13.42,0,1,0,13.42,13.42A13.43,13.43,0,0,0,470,558.71Z" transform="translate(-128.02 -90.18)"/><path class="cls-2" d="M416.27,678l.69-2.61c2.18-8.2,6.29-24.91,6.29-29.51V621a27.34,27.34,0,0,1,27.31-27.31h38.87A27.34,27.34,0,0,1,516.74,621v25a27.34,27.34,0,0,1-27.31,27.31H450.56c-7.79,0-31.39,4.29-31.63,4.34Z" transform="translate(-128.02 -90.18)"/><path class="cls-8" d="M450.56,597.08A23.9,23.9,0,0,0,426.69,621v25c0,5-4.07,21.37-5.73,27.8,6.49-1.14,23-3.92,29.6-3.92h38.87a23.9,23.9,0,0,0,23.88-23.88V621a23.9,23.9,0,0,0-23.88-23.88Z" transform="translate(-128.02 -90.18)"/></g><g id="gnammy-71" data-name="gnammy"><path class="cls-2" d="M390.72,589a16.85,16.85,0,1,1,16.85-16.85A16.87,16.87,0,0,1,390.72,589Z" transform="translate(-128.02 -90.18)"/><path class="cls-4" d="M390.72,558.71a13.42,13.42,0,1,0,13.42,13.42A13.43,13.43,0,0,0,390.72,558.71Z" transform="translate(-128.02 -90.18)"/><path class="cls-2" d="M337,678l.69-2.61c2.18-8.2,6.29-24.91,6.29-29.51V621a27.34,27.34,0,0,1,27.31-27.31h38.87A27.34,27.34,0,0,1,437.46,621v25a27.34,27.34,0,0,1-27.31,27.31H371.28c-7.79,0-31.39,4.29-31.63,4.34Z" transform="translate(-128.02 -90.18)"/><path class="cls-4" d="M371.28,597.08A23.9,23.9,0,0,0,347.41,621v25c0,5-4.07,21.37-5.73,27.8,6.49-1.14,23-3.92,29.6-3.92h38.87A23.9,23.9,0,0,0,434,645.92V621a23.9,23.9,0,0,0-23.88-23.88Z" transform="translate(-128.02 -90.18)"/></g></g></svg>